<svg xmlns="http://www.w3.org/2000/svg" width="760" height="430" viewBox="0 0 760 430" role="img">
<title>4096 rows coalesced: e2e time by executor</title>
<rect width="100%" height="100%" fill="white"/>
<text x="380.0" y="28" text-anchor="middle" font-family="Arial" font-size="18" font-weight="700" fill="#111827">4096 rows coalesced: e2e time by executor</text>
<line x1="86" y1="360.0" x2="736" y2="360.0" stroke="#e5e7eb"/>
<text x="76" y="364.0" text-anchor="end" font-family="Arial" font-size="12" fill="#374151">0.0</text>
<line x1="86" y1="284.0" x2="736" y2="284.0" stroke="#e5e7eb"/>
<text x="76" y="288.0" text-anchor="end" font-family="Arial" font-size="12" fill="#374151">1.0</text>
<line x1="86" y1="208.0" x2="736" y2="208.0" stroke="#e5e7eb"/>
<text x="76" y="212.0" text-anchor="end" font-family="Arial" font-size="12" fill="#374151">2.0</text>
<line x1="86" y1="132.0" x2="736" y2="132.0" stroke="#e5e7eb"/>
<text x="76" y="136.0" text-anchor="end" font-family="Arial" font-size="12" fill="#374151">3.0</text>
<line x1="86" y1="56.0" x2="736" y2="56.0" stroke="#e5e7eb"/>
<text x="76" y="60.0" text-anchor="end" font-family="Arial" font-size="12" fill="#374151">4.0</text>
<line x1="86" y1="56" x2="86" y2="360" stroke="#374151"/>
<line x1="86" y1="360" x2="736" y2="360" stroke="#374151"/>
<text transform="translate(22 208.0) rotate(-90)" text-anchor="middle" font-family="Arial" font-size="13" fill="#111827">seconds</text>
<text x="194.3" y="394" text-anchor="middle" font-family="Arial" font-size="13" fill="#111827">python</text>
<rect x="162.3" y="102.5" width="49.9" height="257.5" fill="#2563eb"/>
<text x="187.3" y="97.5" text-anchor="middle" font-family="Arial" font-size="11" fill="#111827">3.35</text>
<text x="411.0" y="394" text-anchor="middle" font-family="Arial" font-size="13" fill="#111827">ray_task</text>
<rect x="379.0" y="107.3" width="49.9" height="252.7" fill="#2563eb"/>
<text x="404.0" y="102.3" text-anchor="middle" font-family="Arial" font-size="11" fill="#111827">3.29</text>
<text x="627.7" y="394" text-anchor="middle" font-family="Arial" font-size="13" fill="#111827">ray_actor</text>
<rect x="595.7" y="102.4" width="49.9" height="257.6" fill="#2563eb"/>
<text x="620.6" y="97.4" text-anchor="middle" font-family="Arial" font-size="11" fill="#111827">3.36</text>
<rect x="86" y="42" width="12" height="12" fill="#2563eb"/>
<text x="104" y="53" font-family="Arial" font-size="12" fill="#111827">e2e_s</text>
</svg>