<svg xmlns="http://www.w3.org/2000/svg" width="760" height="430" viewBox="0 0 760 430" role="img">
<title>16384 rows ray_actor coalesced: stage time</title>
<rect width="100%" height="100%" fill="white"/>
<text x="380.0" y="28" text-anchor="middle" font-family="Arial" font-size="18" font-weight="700" fill="#111827">16384 rows ray_actor coalesced: stage time</text>
<line x1="86" y1="360.0" x2="736" y2="360.0" stroke="#e5e7eb"/>
<text x="76" y="364.0" text-anchor="end" font-family="Arial" font-size="12" fill="#374151">0.0</text>
<line x1="86" y1="284.0" x2="736" y2="284.0" stroke="#e5e7eb"/>
<text x="76" y="288.0" text-anchor="end" font-family="Arial" font-size="12" fill="#374151">1.9</text>
<line x1="86" y1="208.0" x2="736" y2="208.0" stroke="#e5e7eb"/>
<text x="76" y="212.0" text-anchor="end" font-family="Arial" font-size="12" fill="#374151">3.9</text>
<line x1="86" y1="132.0" x2="736" y2="132.0" stroke="#e5e7eb"/>
<text x="76" y="136.0" text-anchor="end" font-family="Arial" font-size="12" fill="#374151">5.8</text>
<line x1="86" y1="56.0" x2="736" y2="56.0" stroke="#e5e7eb"/>
<text x="76" y="60.0" text-anchor="end" font-family="Arial" font-size="12" fill="#374151">7.8</text>
<line x1="86" y1="56" x2="86" y2="360" stroke="#374151"/>
<line x1="86" y1="360" x2="736" y2="360" stroke="#374151"/>
<text transform="translate(22 208.0) rotate(-90)" text-anchor="middle" font-family="Arial" font-size="13" fill="#111827">seconds</text>
<text x="167.2" y="394" text-anchor="middle" font-family="Arial" font-size="13" fill="#111827">AI operator</text>
<rect x="135.2" y="106.8" width="49.9" height="253.2" fill="#2563eb"/>
<text x="160.2" y="101.8" text-anchor="middle" font-family="Arial" font-size="11" fill="#111827">6.47</text>
<text x="329.8" y="394" text-anchor="middle" font-family="Arial" font-size="13" fill="#111827">writeback</text>
<rect x="297.8" y="102.4" width="49.9" height="257.6" fill="#2563eb"/>
<text x="322.7" y="97.4" text-anchor="middle" font-family="Arial" font-size="11" fill="#111827">6.59</text>
<text x="492.2" y="394" text-anchor="middle" font-family="Arial" font-size="13" fill="#111827">db_fetch</text>
<rect x="460.2" y="356.3" width="49.9" height="3.7" fill="#2563eb"/>
<text x="485.2" y="351.3" text-anchor="middle" font-family="Arial" font-size="11" fill="#111827">0.10</text>
<text x="654.8" y="394" text-anchor="middle" font-family="Arial" font-size="13" fill="#111827">arrow</text>
<rect x="622.8" y="359.7" width="49.9" height="0.3" fill="#2563eb"/>
<text x="647.7" y="354.7" text-anchor="middle" font-family="Arial" font-size="11" fill="#111827">0.01</text>
<rect x="86" y="42" width="12" height="12" fill="#2563eb"/>
<text x="104" y="53" font-family="Arial" font-size="12" fill="#111827">seconds</text>
</svg>