<svg xmlns="http://www.w3.org/2000/svg" width="760" height="430" viewBox="0 0 760 430" role="img">
<title>1024 rows: e2e time by invocation granularity</title>
<rect width="100%" height="100%" fill="white"/>
<text x="380.0" y="28" text-anchor="middle" font-family="Arial" font-size="18" font-weight="700" fill="#111827">1024 rows: e2e time by invocation granularity</text>
<line x1="86" y1="360.0" x2="736" y2="360.0" stroke="#e5e7eb"/>
<text x="76" y="364.0" text-anchor="end" font-family="Arial" font-size="12" fill="#374151">0.0</text>
<line x1="86" y1="284.0" x2="736" y2="284.0" stroke="#e5e7eb"/>
<text x="76" y="288.0" text-anchor="end" font-family="Arial" font-size="12" fill="#374151">3.5</text>
<line x1="86" y1="208.0" x2="736" y2="208.0" stroke="#e5e7eb"/>
<text x="76" y="212.0" text-anchor="end" font-family="Arial" font-size="12" fill="#374151">7.0</text>
<line x1="86" y1="132.0" x2="736" y2="132.0" stroke="#e5e7eb"/>
<text x="76" y="136.0" text-anchor="end" font-family="Arial" font-size="12" fill="#374151">10.6</text>
<line x1="86" y1="56.0" x2="736" y2="56.0" stroke="#e5e7eb"/>
<text x="76" y="60.0" text-anchor="end" font-family="Arial" font-size="12" fill="#374151">14.1</text>
<line x1="86" y1="56" x2="86" y2="360" stroke="#374151"/>
<line x1="86" y1="360" x2="736" y2="360" stroke="#374151"/>
<text transform="translate(22 208.0) rotate(-90)" text-anchor="middle" font-family="Arial" font-size="13" fill="#111827">seconds</text>
<text x="248.5" y="394" text-anchor="middle" font-family="Arial" font-size="13" fill="#111827">coalesced</text>
<rect x="216.5" y="340.8" width="49.9" height="19.2" fill="#2563eb"/>
<text x="241.5" y="335.8" text-anchor="middle" font-family="Arial" font-size="11" fill="#111827">0.89</text>
<text x="573.5" y="394" text-anchor="middle" font-family="Arial" font-size="13" fill="#111827">fine</text>
<rect x="541.5" y="102.4" width="49.9" height="257.6" fill="#2563eb"/>
<text x="566.5" y="97.4" text-anchor="middle" font-family="Arial" font-size="11" fill="#111827">11.93</text>
<rect x="86" y="42" width="12" height="12" fill="#2563eb"/>
<text x="104" y="53" font-family="Arial" font-size="12" fill="#111827">e2e_s</text>
</svg>