<svg xmlns="http://www.w3.org/2000/svg" width="1060" height="430" viewBox="0 0 1060 430">
<rect width="1060" height="430" fill="#F8FAFC"/>
<text x="530" y="34" font-family="Microsoft YaHei,SimHei,Arial,sans-serif" font-size="26" font-weight="bold" fill="#172033" text-anchor="middle">数据组织策略三：按共享 prefix 分组</text>
<text x="530" y="60" font-family="Microsoft YaHei,SimHei,Arial,sans-serif" font-size="14" font-weight="normal" fill="#475569" text-anchor="middle">候选机制：把相同 system prompt 的行聚合提交，为 prefix caching 创造命中条件</text>
<text x="60" y="113" font-family="Microsoft YaHei,SimHei,Arial,sans-serif" font-size="16" font-weight="bold" fill="#172033" text-anchor="start">随机提交：共享 prefix 被打散</text>
<text x="575" y="113" font-family="Microsoft YaHei,SimHei,Arial,sans-serif" font-size="16" font-weight="bold" fill="#172033" text-anchor="start">prefix 分组：相同前缀集中提交</text>
<rect x="60" y="132" width="160" height="24" rx="5" ry="5" fill="#2F6FEB"/>
<rect x="220" y="132" width="190" height="24" rx="5" ry="5" fill="#94A3B8"/>
<text x="140" y="149" font-family="Microsoft YaHei,SimHei,Arial,sans-serif" font-size="10" font-weight="normal" fill="#FFFFFF" text-anchor="middle">sys A</text>
<text x="315" y="149" font-family="Microsoft YaHei,SimHei,Arial,sans-serif" font-size="10" font-weight="normal" fill="#FFFFFF" text-anchor="middle">Q1</text>
<rect x="60" y="162" width="160" height="24" rx="5" ry="5" fill="#F97316"/>
<rect x="220" y="162" width="190" height="24" rx="5" ry="5" fill="#94A3B8"/>
<text x="140" y="179" font-family="Microsoft YaHei,SimHei,Arial,sans-serif" font-size="10" font-weight="normal" fill="#FFFFFF" text-anchor="middle">sys B</text>
<text x="315" y="179" font-family="Microsoft YaHei,SimHei,Arial,sans-serif" font-size="10" font-weight="normal" fill="#FFFFFF" text-anchor="middle">Q2</text>
<rect x="60" y="192" width="160" height="24" rx="5" ry="5" fill="#2F6FEB"/>
<rect x="220" y="192" width="190" height="24" rx="5" ry="5" fill="#94A3B8"/>
<text x="140" y="209" font-family="Microsoft YaHei,SimHei,Arial,sans-serif" font-size="10" font-weight="normal" fill="#FFFFFF" text-anchor="middle">sys A</text>
<text x="315" y="209" font-family="Microsoft YaHei,SimHei,Arial,sans-serif" font-size="10" font-weight="normal" fill="#FFFFFF" text-anchor="middle">Q3</text>
<rect x="60" y="222" width="160" height="24" rx="5" ry="5" fill="#16A34A"/>
<rect x="220" y="222" width="190" height="24" rx="5" ry="5" fill="#94A3B8"/>
<text x="140" y="239" font-family="Microsoft YaHei,SimHei,Arial,sans-serif" font-size="10" font-weight="normal" fill="#FFFFFF" text-anchor="middle">sys C</text>
<text x="315" y="239" font-family="Microsoft YaHei,SimHei,Arial,sans-serif" font-size="10" font-weight="normal" fill="#FFFFFF" text-anchor="middle">Q4</text>
<rect x="60" y="252" width="160" height="24" rx="5" ry="5" fill="#F97316"/>
<rect x="220" y="252" width="190" height="24" rx="5" ry="5" fill="#94A3B8"/>
<text x="140" y="269" font-family="Microsoft YaHei,SimHei,Arial,sans-serif" font-size="10" font-weight="normal" fill="#FFFFFF" text-anchor="middle">sys B</text>
<text x="315" y="269" font-family="Microsoft YaHei,SimHei,Arial,sans-serif" font-size="10" font-weight="normal" fill="#FFFFFF" text-anchor="middle">Q5</text>
<rect x="60" y="282" width="160" height="24" rx="5" ry="5" fill="#2F6FEB"/>
<rect x="220" y="282" width="190" height="24" rx="5" ry="5" fill="#94A3B8"/>
<text x="140" y="299" font-family="Microsoft YaHei,SimHei,Arial,sans-serif" font-size="10" font-weight="normal" fill="#FFFFFF" text-anchor="middle">sys A</text>
<text x="315" y="299" font-family="Microsoft YaHei,SimHei,Arial,sans-serif" font-size="10" font-weight="normal" fill="#FFFFFF" text-anchor="middle">Q6</text>
<rect x="60" y="312" width="160" height="24" rx="5" ry="5" fill="#2F6FEB"/>
<rect x="220" y="312" width="190" height="24" rx="5" ry="5" fill="#94A3B8"/>
<text x="140" y="329" font-family="Microsoft YaHei,SimHei,Arial,sans-serif" font-size="10" font-weight="normal" fill="#FFFFFF" text-anchor="middle">sys A</text>
<text x="315" y="329" font-family="Microsoft YaHei,SimHei,Arial,sans-serif" font-size="10" font-weight="normal" fill="#FFFFFF" text-anchor="middle">Q7</text>
<rect x="60" y="342" width="160" height="24" rx="5" ry="5" fill="#F97316"/>
<rect x="220" y="342" width="190" height="24" rx="5" ry="5" fill="#94A3B8"/>
<text x="140" y="359" font-family="Microsoft YaHei,SimHei,Arial,sans-serif" font-size="10" font-weight="normal" fill="#FFFFFF" text-anchor="middle">sys B</text>
<text x="315" y="359" font-family="Microsoft YaHei,SimHei,Arial,sans-serif" font-size="10" font-weight="normal" fill="#FFFFFF" text-anchor="middle">Q8</text>
<text x="105" y="397" font-family="Microsoft YaHei,SimHei,Arial,sans-serif" font-size="11" font-weight="normal" fill="#DC2626" text-anchor="start">风险：prefix 相同但缓存命中机会分散</text>
<line x1="450" y1="242" x2="525" y2="242" stroke="#334155" stroke-width="3"/><polygon points="525,242 515,236 515,248" fill="#334155"/>
<rect x="575" y="132" width="405" height="76" rx="8" ry="8" fill="#E7F0FF" stroke="#2F6FEB" stroke-width="2"/>
<rect x="578" y="135" width="6" height="70" rx="3" ry="3" fill="#2F6FEB"/>
<text x="597" y="163" font-family="Microsoft YaHei,SimHei,Arial,sans-serif" font-size="16" font-weight="bold" fill="#2F6FEB" text-anchor="start">sys A</text>
<text x="597" y="188" font-family="Microsoft YaHei,SimHei,Arial,sans-serif" font-size="12" font-weight="normal" fill="#172033" text-anchor="start">4 行：Q1 / Q3 / Q6 / Q7</text>
<rect x="840" y="145" width="117" height="24" rx="5" ry="5" fill="#16A34A"/>
<text x="898" y="161" font-family="Microsoft YaHei,SimHei,Arial,sans-serif" font-size="10" font-weight="normal" fill="#FFFFFF" text-anchor="middle">缓存命中条件</text>
<rect x="575" y="224" width="405" height="76" rx="8" ry="8" fill="#FFF1E6" stroke="#F97316" stroke-width="2"/>
<rect x="578" y="227" width="6" height="70" rx="3" ry="3" fill="#F97316"/>
<text x="597" y="255" font-family="Microsoft YaHei,SimHei,Arial,sans-serif" font-size="16" font-weight="bold" fill="#F97316" text-anchor="start">sys B</text>
<text x="597" y="280" font-family="Microsoft YaHei,SimHei,Arial,sans-serif" font-size="12" font-weight="normal" fill="#172033" text-anchor="start">3 行：Q2 / Q5 / Q8</text>
<rect x="840" y="237" width="117" height="24" rx="5" ry="5" fill="#16A34A"/>
<text x="898" y="253" font-family="Microsoft YaHei,SimHei,Arial,sans-serif" font-size="10" font-weight="normal" fill="#FFFFFF" text-anchor="middle">缓存命中条件</text>
<rect x="575" y="316" width="405" height="76" rx="8" ry="8" fill="#F0FDF4" stroke="#16A34A" stroke-width="2"/>
<rect x="578" y="319" width="6" height="70" rx="3" ry="3" fill="#16A34A"/>
<text x="597" y="347" font-family="Microsoft YaHei,SimHei,Arial,sans-serif" font-size="16" font-weight="bold" fill="#16A34A" text-anchor="start">sys C</text>
<text x="597" y="372" font-family="Microsoft YaHei,SimHei,Arial,sans-serif" font-size="12" font-weight="normal" fill="#172033" text-anchor="start">1 行：Q4</text>
<rect x="840" y="329" width="117" height="24" rx="5" ry="5" fill="#16A34A"/>
<text x="898" y="345" font-family="Microsoft YaHei,SimHei,Arial,sans-serif" font-size="10" font-weight="normal" fill="#FFFFFF" text-anchor="middle">缓存命中条件</text>
<text x="55" y="416" font-family="Microsoft YaHei,SimHei,Arial,sans-serif" font-size="12" font-weight="normal" fill="#475569" text-anchor="start">图注建议：该图说明 prefix-aware grouping 只是上游创造 prefix locality；最终是否提高 APC 命中率和端到端性能必须由 vLLM 指标验证。</text>
</svg>