<svg xmlns="http://www.w3.org/2000/svg" width="1150" height="510" viewBox="0 0 1150 510">
<rect width="1150" height="510" fill="#F8FAFC"/>
<text x="575" y="40" font-family="Microsoft YaHei,SimHei,Arial,sans-serif" font-size="26" font-weight="bold" fill="#172033" text-anchor="middle">提交控制策略二：队列自适应提交</text>
<text x="575" y="61" font-family="Microsoft YaHei,SimHei,Arial,sans-serif" font-size="14" font-weight="normal" fill="#475569" text-anchor="middle">候选机制：Ray actor 感知 vLLM 队列状态，动态调节请求发送节奏</text>
<rect x="45" y="80" width="495" height="338" rx="10" ry="10" fill="#FEF2F2"/>
<rect x="610" y="80" width="495" height="338" rx="10" ry="10" fill="#F0FDF4"/>
<text x="67" y="114" font-family="Microsoft YaHei,SimHei,Arial,sans-serif" font-size="16" font-weight="bold" fill="#172033" text-anchor="start">固定节奏提交：无视服务状态</text>
<text x="632" y="114" font-family="Microsoft YaHei,SimHei,Arial,sans-serif" font-size="16" font-weight="bold" fill="#172033" text-anchor="start">队列自适应提交：闭环反馈</text>
<rect x="73" y="128" width="150" height="170" rx="8" ry="8" fill="#FFFFFF" stroke="#2F6FEB" stroke-width="2"/>
<text x="148" y="158" font-family="Microsoft YaHei,SimHei,Arial,sans-serif" font-size="12" font-weight="normal" fill="#2F6FEB" text-anchor="middle">Ray Actor</text>
<text x="87" y="184" font-family="Microsoft YaHei,SimHei,Arial,sans-serif" font-size="10" font-weight="normal" fill="#172033" text-anchor="start">每 200ms 发送一批</text>
<text x="87" y="206" font-family="Microsoft YaHei,SimHei,Arial,sans-serif" font-size="10" font-weight="normal" fill="#172033" text-anchor="start">或每 N 行触发 flush</text>
<text x="87" y="232" font-family="Microsoft YaHei,SimHei,Arial,sans-serif" font-size="10" font-weight="normal" fill="#DC2626" text-anchor="start">→ 不关心下游状态</text>
<rect x="87" y="246" width="122" height="36" rx="6" ry="6" fill="#F1F5F9" stroke="#94A3B8" stroke-width="1"/>
<text x="148" y="270" font-family="Microsoft YaHei,SimHei,Arial,sans-serif" font-size="10" font-weight="normal" fill="#475569" text-anchor="middle">定时器 / 行计数器</text>
<line x1="231" y1="213" x2="277" y2="213" stroke="#334155" stroke-width="3"/><polygon points="277,213 267,207 267,219" fill="#334155"/>
<rect x="283" y="128" width="235" height="170" rx="8" ry="8" fill="#FFFFFF" stroke="#DC2626" stroke-width="1"/>
<rect x="293" y="142" width="215" height="66" rx="6" ry="6" fill="#F0FDF4" stroke="#16A34A" stroke-width="1"/>
<text x="303" y="167" font-family="Microsoft YaHei,SimHei,Arial,sans-serif" font-size="11" font-weight="normal" fill="#16A34A" text-anchor="start">队列空闲时</text>
<text x="303" y="190" font-family="Microsoft YaHei,SimHei,Arial,sans-serif" font-size="10" font-weight="normal" fill="#16A34A" text-anchor="start">→ 浪费吞吐机会</text>
<rect x="293" y="218" width="215" height="68" rx="6" ry="6" fill="#FEF2F2" stroke="#DC2626" stroke-width="1"/>
<text x="303" y="243" font-family="Microsoft YaHei,SimHei,Arial,sans-serif" font-size="11" font-weight="normal" fill="#DC2626" text-anchor="start">队列积压时</text>
<text x="303" y="266" font-family="Microsoft YaHei,SimHei,Arial,sans-serif" font-size="10" font-weight="normal" fill="#DC2626" text-anchor="start">→ 继续塞入，加剧拥塞</text>
<rect x="303" y="268" width="18" height="14" rx="3" ry="3" fill="#DC2626"/>
<rect x="325" y="268" width="18" height="14" rx="3" ry="3" fill="#DC2626"/>
<rect x="347" y="268" width="18" height="14" rx="3" ry="3" fill="#DC2626"/>
<rect x="369" y="268" width="18" height="14" rx="3" ry="3" fill="#DC2626"/>
<rect x="391" y="268" width="18" height="14" rx="3" ry="3" fill="#DC2626"/>
<rect x="413" y="268" width="18" height="14" rx="3" ry="3" fill="#DC2626"/>
<text x="73" y="369" font-family="Microsoft YaHei,SimHei,Arial,sans-serif" font-size="11" font-weight="normal" fill="#DC2626" text-anchor="start">问题：提交节奏与模型服务状态解耦</text>
<text x="73" y="393" font-family="Microsoft YaHei,SimHei,Arial,sans-serif" font-size="11" font-weight="normal" fill="#DC2626" text-anchor="start">→ 空闲时吞吐不足，拥塞时加剧尾部延迟</text>
<line x1="555" y1="234" x2="585" y2="234" stroke="#334155" stroke-width="3"/><polygon points="585,234 575,228 575,240" fill="#334155"/>
<rect x="630" y="128" width="145" height="170" rx="8" ry="8" fill="#FFFFFF" stroke="#2F6FEB" stroke-width="2"/>
<text x="702" y="158" font-family="Microsoft YaHei,SimHei,Arial,sans-serif" font-size="12" font-weight="normal" fill="#2F6FEB" text-anchor="middle">Ray Actor</text>
<rect x="642" y="170" width="121" height="26" rx="5" ry="5" fill="#E7F0FF" stroke="#2F6FEB" stroke-width="1"/>
<text x="648" y="188" font-family="Microsoft YaHei,SimHei,Arial,sans-serif" font-size="10" font-weight="normal" fill="#172033" text-anchor="start">① 轮询 vLLM 队列状态</text>
<rect x="642" y="210" width="121" height="26" rx="5" ry="5" fill="#16A34A"/>
<text x="702" y="228" font-family="Microsoft YaHei,SimHei,Arial,sans-serif" font-size="10" font-weight="normal" fill="#FFFFFF" text-anchor="middle">空闲 → 加大发送</text>
<rect x="642" y="250" width="121" height="26" rx="5" ry="5" fill="#F97316"/>
<text x="702" y="268" font-family="Microsoft YaHei,SimHei,Arial,sans-serif" font-size="10" font-weight="normal" fill="#FFFFFF" text-anchor="middle">积压 → 暂缓发送</text>
<line x1="783" y1="213" x2="821" y2="213" stroke="#334155" stroke-width="3"/><polygon points="821,213 811,207 811,219" fill="#334155"/>
<rect x="827" y="128" width="256" height="170" rx="8" ry="8" fill="#FFFFFF" stroke="#16A34A" stroke-width="2"/>
<text x="955" y="158" font-family="Microsoft YaHei,SimHei,Arial,sans-serif" font-size="12" font-weight="normal" fill="#16A34A" text-anchor="middle">vLLM 模型服务</text>
<rect x="837" y="164" width="236" height="22" rx="5" ry="5" fill="#E7F0FF" stroke="#2F6FEB" stroke-width="1"/>
<text x="845" y="182" font-family="Microsoft YaHei,SimHei,Arial,sans-serif" font-size="10" font-weight="normal" fill="#2F6FEB" text-anchor="start">队列可观测：running=3  waiting=1</text>
<rect x="845" y="200" width="22" height="18" rx="4" ry="4" fill="#16A34A"/>
<rect x="873" y="200" width="22" height="18" rx="4" ry="4" fill="#16A34A"/>
<rect x="901" y="200" width="22" height="18" rx="4" ry="4" fill="#16A34A"/>
<rect x="929" y="200" width="22" height="18" rx="4" ry="4" fill="#16A34A"/>
<rect x="845" y="232" width="16" height="14" rx="3" ry="3" fill="#F97316"/>
<rect x="865" y="232" width="16" height="14" rx="3" ry="3" fill="#F97316"/>
<rect x="885" y="232" width="16" height="14" rx="3" ry="3" fill="#F97316"/>
<text x="845" y="268" font-family="Microsoft YaHei,SimHei,Arial,sans-serif" font-size="10" font-weight="normal" fill="#172033" text-anchor="start">running + waiting 实时可见</text>
<text x="845" y="288" font-family="Microsoft YaHei,SimHei,Arial,sans-serif" font-size="10" font-weight="normal" fill="#16A34A" text-anchor="start">←──────────── ▲ 反馈信号</text>
<line x1="827" y1="283" x2="781" y2="283" stroke="#16A34A" stroke-width="2"/><polygon points="781,283 791,277 791,289" fill="#16A34A"/>
<text x="638" y="369" font-family="Microsoft YaHei,SimHei,Arial,sans-serif" font-size="11" font-weight="normal" fill="#16A34A" text-anchor="start">效果：提交节奏与模型服务状态闭环</text>
<text x="638" y="393" font-family="Microsoft YaHei,SimHei,Arial,sans-serif" font-size="11" font-weight="normal" fill="#16A34A" text-anchor="start">→ 空闲自填充，拥塞自退避 | 当前：二段式控制器</text>
<text x="45" y="470" font-family="Microsoft YaHei,SimHei,Arial,sans-serif" font-size="12" font-weight="normal" fill="#475569" text-anchor="start">图注建议：该图说明队列自适应提交的闭环逻辑——actor 轮询 vLLM 队列状态后动态调节发送量；当前实现（二段式 min/max K_max + 阈值）效果不如静态 K_max=8，详见 b24/b25。</text>
<text x="45" y="490" font-family="Microsoft YaHei,SimHei,Arial,sans-serif" font-size="10" font-weight="normal" fill="#475569" text-anchor="start">实验来源：b24_local_vllm_interference_sweep_small_job · b25_local_vllm_interference_sweep_bulk_tradeoff</text>
</svg>