<svg xmlns="http://www.w3.org/2000/svg" width="1180" height="500" viewBox="0 0 1180 500">
<rect width="1180" height="500" fill="#FFFFFF"/>
<text x="590.0" y="44" font-family="Microsoft YaHei,SimHei,Arial,sans-serif" font-size="27" font-weight="700" fill="#172033" text-anchor="middle">提交控制策略一：队列自适应提交</text>
<text x="590.0" y="68" font-family="Microsoft YaHei,SimHei,Arial,sans-serif" font-size="14" font-weight="400" fill="#536276" text-anchor="middle">提交时机：根据服务入口压力调节 flush 节奏</text>
<rect x="48" y="94" width="514" height="320" rx="10" ry="10" fill="#F8FAFC" stroke="#D9E0EA" stroke-width="1"/>
<rect x="68" y="114" width="5" height="280" rx="2" ry="2" fill="#94A3B8"/>
<text x="86" y="133" font-family="Microsoft YaHei,SimHei,Arial,sans-serif" font-size="17" font-weight="700" fill="#172033" text-anchor="start">固定节奏：提交与服务状态脱节</text>
<rect x="618" y="94" width="514" height="320" rx="10" ry="10" fill="#F8FAFC" stroke="#D9E0EA" stroke-width="1"/>
<rect x="638" y="114" width="5" height="280" rx="2" ry="2" fill="#2F6FEB"/>
<text x="656" y="133" font-family="Microsoft YaHei,SimHei,Arial,sans-serif" font-size="17" font-weight="700" fill="#172033" text-anchor="start">闭环提交：观测队列后再发送</text>
<line x1="580" y1="254" x2="600" y2="254" stroke="#334155" stroke-width="3"/><polygon points="600,254 589,248 589,260" fill="#334155"/>
<rect x="88" y="158" width="152" height="127" rx="8" ry="8" fill="#FFFFFF" stroke="#2F6FEB" stroke-width="2"/>
<text x="106" y="190" font-family="Microsoft YaHei,SimHei,Arial,sans-serif" font-size="14" font-weight="700" fill="#2F6FEB" text-anchor="start">Ray actor</text>
<text x="106" y="208" font-family="Microsoft YaHei,SimHei,Arial,sans-serif" font-size="10" font-weight="400" fill="#172033" text-anchor="start">定时或按行数触发</text>
<text x="106" y="232" font-family="Microsoft YaHei,SimHei,Arial,sans-serif" font-size="10" font-weight="400" fill="#DC2626" text-anchor="start">不读取下游状态</text>
<rect x="106" y="244" width="108" height="26" rx="5" ry="5" fill="#F1F5F9" stroke="#94A3B8" stroke-width="1"/>
<text x="160.0" y="260" font-family="Microsoft YaHei,SimHei,Arial,sans-serif" font-size="10" font-weight="400" fill="#536276" text-anchor="middle">固定 flush</text>
<rect x="314" y="142" width="206" height="158" rx="8" ry="8" fill="#FFFFFF" stroke="#DC2626" stroke-width="2"/>
<text x="332" y="174" font-family="Microsoft YaHei,SimHei,Arial,sans-serif" font-size="14" font-weight="700" fill="#DC2626" text-anchor="start">服务入口队列</text>
<text x="336" y="196" font-family="Microsoft YaHei,SimHei,Arial,sans-serif" font-size="10" font-weight="400" fill="#16A34A" text-anchor="start">空闲时仍等待</text>
<text x="336" y="242" font-family="Microsoft YaHei,SimHei,Arial,sans-serif" font-size="10" font-weight="400" fill="#DC2626" text-anchor="start">拥塞时继续塞入</text>
<rect x="341.5" y="250" width="16" height="14" rx="4" ry="4" fill="#DC2626"/>
<rect x="364.5" y="250" width="16" height="14" rx="4" ry="4" fill="#DC2626"/>
<rect x="387.5" y="250" width="16" height="14" rx="4" ry="4" fill="#DC2626"/>
<rect x="410.5" y="250" width="16" height="14" rx="4" ry="4" fill="#DC2626"/>
<rect x="433.5" y="250" width="16" height="14" rx="4" ry="4" fill="#DC2626"/>
<rect x="456.5" y="250" width="16" height="14" rx="4" ry="4" fill="#DC2626"/>
<line x1="240" y1="220" x2="314" y2="220" stroke="#334155" stroke-width="3"/><polygon points="314,220 303,214 303,226" fill="#334155"/>
<text x="92" y="357" font-family="Microsoft YaHei,SimHei,Arial,sans-serif" font-size="11" font-weight="400" fill="#DC2626" text-anchor="start">风险：空闲阶段吞吐不足，拥塞阶段尾延迟放大</text>
<rect x="658" y="148" width="160" height="152" rx="8" ry="8" fill="#FFFFFF" stroke="#2F6FEB" stroke-width="2"/>
<text x="676" y="180" font-family="Microsoft YaHei,SimHei,Arial,sans-serif" font-size="14" font-weight="700" fill="#2F6FEB" text-anchor="start">Ray actor</text>
<rect x="676" y="188" width="124" height="26" rx="5" ry="5" fill="#EAF2FF" stroke="#2F6FEB" stroke-width="1"/>
<text x="738.0" y="204" font-family="Microsoft YaHei,SimHei,Arial,sans-serif" font-size="10" font-weight="400" fill="#2F6FEB" text-anchor="middle">读取 queue</text>
<rect x="676" y="228" width="124" height="26" rx="5" ry="5" fill="#16A34A"/>
<text x="738.0" y="244" font-family="Microsoft YaHei,SimHei,Arial,sans-serif" font-size="10" font-weight="400" fill="#FFFFFF" text-anchor="middle">空闲：提前/增量</text>
<rect x="676" y="264" width="124" height="26" rx="5" ry="5" fill="#D97706"/>
<text x="738.0" y="280" font-family="Microsoft YaHei,SimHei,Arial,sans-serif" font-size="10" font-weight="400" fill="#FFFFFF" text-anchor="middle">拥塞：暂缓/减量</text>
<rect x="884" y="142" width="218" height="158" rx="8" ry="8" fill="#FFFFFF" stroke="#16A34A" stroke-width="2"/>
<text x="902" y="174" font-family="Microsoft YaHei,SimHei,Arial,sans-serif" font-size="14" font-weight="700" fill="#16A34A" text-anchor="start">服务入口队列</text>
<rect x="910" y="182" width="166" height="24" rx="5" ry="5" fill="#EAF2FF" stroke="#2F6FEB" stroke-width="1"/>
<text x="993.0" y="198" font-family="Microsoft YaHei,SimHei,Arial,sans-serif" font-size="10" font-weight="400" fill="#2F6FEB" text-anchor="middle">running / waiting / wait</text>
<rect x="911.0" y="228" width="18" height="18" rx="4" ry="4" fill="#16A34A"/>
<rect x="937.0" y="228" width="18" height="18" rx="4" ry="4" fill="#16A34A"/>
<rect x="963.0" y="228" width="18" height="18" rx="4" ry="4" fill="#16A34A"/>
<rect x="989.0" y="228" width="18" height="18" rx="4" ry="4" fill="#16A34A"/>
<rect x="1015.0" y="228" width="18" height="18" rx="4" ry="4" fill="#F1F5F9" stroke="#94A3B8" stroke-width="1"/>
<rect x="1041.0" y="228" width="18" height="18" rx="4" ry="4" fill="#F1F5F9" stroke="#94A3B8" stroke-width="1"/>
<rect x="931.0" y="264" width="18" height="14" rx="4" ry="4" fill="#D97706"/>
<rect x="957.0" y="264" width="18" height="14" rx="4" ry="4" fill="#D97706"/>
<rect x="983.0" y="264" width="18" height="14" rx="4" ry="4" fill="#D97706"/>
<line x1="818" y1="222" x2="884" y2="222" stroke="#334155" stroke-width="3"/><polygon points="884,222 873,216 873,228" fill="#334155"/>
<line x1="884" y1="284" x2="818" y2="284" stroke="#16A34A" stroke-width="2"/><polygon points="818,284 829,278 829,290" fill="#16A34A"/>
<text x="662" y="357" font-family="Microsoft YaHei,SimHei,Arial,sans-serif" font-size="11" font-weight="400" fill="#16A34A" text-anchor="start">验证：queue wait、P95/P99、tokens/s、端到端耗时</text>
<text x="48" y="471" font-family="Microsoft YaHei,SimHei,Arial,sans-serif" font-size="12" font-weight="400" fill="#536276" text-anchor="start">图注建议：队列自适应提交把固定 flush 改为状态反馈机制；该图说明候选机制，最终需通过队列压力和尾延迟消融验证。</text>
</svg>