<svg xmlns="http://www.w3.org/2000/svg" width="1600" height="1000" viewBox="0 0 1600 1000">
<rect width="1600" height="1000" fill="#F8FAFC"/>
<text x="64" y="74" font-family="Microsoft YaHei, Arial, sans-serif" font-size="32" font-weight="700" fill="#1F2937" text-anchor="start">数据库驱动 AI workload 的分布式数据执行与存储协同架构</text>
<text x="66" y="112" font-family="Microsoft YaHei, Arial, sans-serif" font-size="17" font-weight="400" fill="#667085" text-anchor="start">数据库提供 workload 入口和结果落点，数据组织、Ray 执行、GPU 服务和 AI 数据 sink 共同决定端到端性能。</text>
<rect x="354" y="132" width="1116" height="118" rx="18" fill="#FFF8D9" stroke="#D6A000" stroke-width="2"/>
<text x="912.0" y="170.35" font-family="Microsoft YaHei, Arial, sans-serif" font-size="21" font-weight="700" fill="#1F2937" text-anchor="middle">观测与策略层</text>
<rect x="414.0" y="192" width="132.0" height="32" rx="10" fill="#FFFDF0" stroke="#E2BE45" stroke-width="1"/>
<text x="480.0" y="213.6" font-family="Microsoft YaHei, Arial, sans-serif" font-size="16" font-weight="400" fill="#667085" text-anchor="middle">阶段耗时</text>
<rect x="558.0" y="192" width="132.0" height="32" rx="10" fill="#FFFDF0" stroke="#E2BE45" stroke-width="1"/>
<text x="624.0" y="213.6" font-family="Microsoft YaHei, Arial, sans-serif" font-size="16" font-weight="400" fill="#667085" text-anchor="middle">排队等待</text>
<rect x="702.0" y="192" width="132.0" height="32" rx="10" fill="#FFFDF0" stroke="#E2BE45" stroke-width="1"/>
<text x="768.0" y="213.6" font-family="Microsoft YaHei, Arial, sans-serif" font-size="16" font-weight="400" fill="#667085" text-anchor="middle">GPU 利用率</text>
<rect x="846.0" y="192" width="132.0" height="32" rx="10" fill="#FFFDF0" stroke="#E2BE45" stroke-width="1"/>
<text x="912.0" y="213.6" font-family="Microsoft YaHei, Arial, sans-serif" font-size="16" font-weight="400" fill="#667085" text-anchor="middle">写回耗时</text>
<rect x="990.0" y="192" width="132.0" height="32" rx="10" fill="#FFFDF0" stroke="#E2BE45" stroke-width="1"/>
<text x="1056.0" y="213.6" font-family="Microsoft YaHei, Arial, sans-serif" font-size="16" font-weight="400" fill="#667085" text-anchor="middle">数据批量</text>
<rect x="1134.0" y="192" width="132.0" height="32" rx="10" fill="#FFFDF0" stroke="#E2BE45" stroke-width="1"/>
<text x="1200.0" y="213.6" font-family="Microsoft YaHei, Arial, sans-serif" font-size="16" font-weight="400" fill="#667085" text-anchor="middle">routing</text>
<rect x="1278.0" y="192" width="132.0" height="32" rx="10" fill="#FFFDF0" stroke="#E2BE45" stroke-width="1"/>
<text x="1344.0" y="213.6" font-family="Microsoft YaHei, Arial, sans-serif" font-size="16" font-weight="400" fill="#667085" text-anchor="middle">micro-batch</text>
<rect x="64" y="318" width="246" height="226" rx="18" fill="#EEF2F6" stroke="#64748B" stroke-width="2"/>
<text x="187.0" y="362.35" font-family="Microsoft YaHei, Arial, sans-serif" font-size="21" font-weight="700" fill="#1F2937" text-anchor="middle">数据库入口</text>
<rect x="90" y="394" width="194" height="30" rx="10" fill="#FFFFFF" stroke="#D8DEE8" stroke-width="1"/>
<text x="187.0" y="414.6" font-family="Microsoft YaHei, Arial, sans-serif" font-size="16" font-weight="400" fill="#667085" text-anchor="middle">PostgreSQL</text>
<rect x="90" y="432" width="194" height="30" rx="10" fill="#FFFFFF" stroke="#D8DEE8" stroke-width="1"/>
<text x="187.0" y="452.6" font-family="Microsoft YaHei, Arial, sans-serif" font-size="16" font-weight="400" fill="#667085" text-anchor="middle">SQL workflow</text>
<rect x="90" y="470" width="194" height="30" rx="10" fill="#FFFFFF" stroke="#D8DEE8" stroke-width="1"/>
<text x="187.0" y="490.6" font-family="Microsoft YaHei, Arial, sans-serif" font-size="16" font-weight="400" fill="#667085" text-anchor="middle">表数据与行集</text>
<rect x="90" y="508" width="194" height="30" rx="10" fill="#FFFFFF" stroke="#D8DEE8" stroke-width="1"/>
<text x="187.0" y="528.6" font-family="Microsoft YaHei, Arial, sans-serif" font-size="16" font-weight="400" fill="#667085" text-anchor="middle">触发执行</text>
<rect x="354" y="318" width="246" height="226" rx="18" fill="#E7F0FF" stroke="#2F6FEB" stroke-width="2"/>
<circle cx="385" cy="352" r="17" fill="#2F6FEB"/><text x="385" y="358" font-family="Microsoft YaHei, Arial, sans-serif" font-size="17" font-weight="700" fill="#FFFFFF" text-anchor="middle">1</text>
<text x="497.0" y="361.65" font-family="Microsoft YaHei, Arial, sans-serif" font-size="19" font-weight="700" fill="#1F2937" text-anchor="middle">Daft + Arrow 数据层</text>
<rect x="380" y="394" width="194" height="30" rx="10" fill="#FFFFFF" stroke="#D8DEE8" stroke-width="1"/>
<text x="477.0" y="414.6" font-family="Microsoft YaHei, Arial, sans-serif" font-size="16" font-weight="400" fill="#667085" text-anchor="middle">RecordBatch</text>
<rect x="380" y="432" width="194" height="30" rx="10" fill="#FFFFFF" stroke="#D8DEE8" stroke-width="1"/>
<text x="477.0" y="452.6" font-family="Microsoft YaHei, Arial, sans-serif" font-size="16" font-weight="400" fill="#667085" text-anchor="middle">数据批量</text>
<rect x="380" y="470" width="194" height="30" rx="10" fill="#FFFFFF" stroke="#D8DEE8" stroke-width="1"/>
<text x="477.0" y="490.6" font-family="Microsoft YaHei, Arial, sans-serif" font-size="16" font-weight="400" fill="#667085" text-anchor="middle">partition</text>
<rect x="380" y="508" width="194" height="30" rx="10" fill="#FFFFFF" stroke="#D8DEE8" stroke-width="1"/>
<text x="477.0" y="528.6" font-family="Microsoft YaHei, Arial, sans-serif" font-size="16" font-weight="400" fill="#667085" text-anchor="middle">shuffle</text>
<rect x="644" y="318" width="246" height="226" rx="18" fill="#EAF7EF" stroke="#16A34A" stroke-width="2"/>
<circle cx="675" cy="352" r="17" fill="#16A34A"/><text x="675" y="358" font-family="Microsoft YaHei, Arial, sans-serif" font-size="17" font-weight="700" fill="#FFFFFF" text-anchor="middle">2</text>
<text x="787.0" y="361.65" font-family="Microsoft YaHei, Arial, sans-serif" font-size="19" font-weight="700" fill="#1F2937" text-anchor="middle">Ray 执行层</text>
<rect x="670" y="394" width="194" height="30" rx="10" fill="#FFFFFF" stroke="#D8DEE8" stroke-width="1"/>
<text x="767.0" y="414.6" font-family="Microsoft YaHei, Arial, sans-serif" font-size="16" font-weight="400" fill="#667085" text-anchor="middle">task</text>
<rect x="670" y="432" width="194" height="30" rx="10" fill="#FFFFFF" stroke="#D8DEE8" stroke-width="1"/>
<text x="767.0" y="452.6" font-family="Microsoft YaHei, Arial, sans-serif" font-size="16" font-weight="400" fill="#667085" text-anchor="middle">actor pool</text>
<rect x="670" y="470" width="194" height="30" rx="10" fill="#FFFFFF" stroke="#D8DEE8" stroke-width="1"/>
<text x="767.0" y="490.6" font-family="Microsoft YaHei, Arial, sans-serif" font-size="16" font-weight="400" fill="#667085" text-anchor="middle">object refs</text>
<rect x="670" y="508" width="194" height="30" rx="10" fill="#FFFFFF" stroke="#D8DEE8" stroke-width="1"/>
<text x="767.0" y="528.6" font-family="Microsoft YaHei, Arial, sans-serif" font-size="16" font-weight="400" fill="#667085" text-anchor="middle">fan-in</text>
<rect x="934" y="318" width="246" height="226" rx="18" fill="#FFF1E6" stroke="#F97316" stroke-width="2"/>
<circle cx="965" cy="352" r="17" fill="#F97316"/><text x="965" y="358" font-family="Microsoft YaHei, Arial, sans-serif" font-size="17" font-weight="700" fill="#FFFFFF" text-anchor="middle">2</text>
<text x="1077.0" y="361.65" font-family="Microsoft YaHei, Arial, sans-serif" font-size="19" font-weight="700" fill="#1F2937" text-anchor="middle">GPU 模型服务</text>
<rect x="960" y="394" width="194" height="30" rx="10" fill="#FFFFFF" stroke="#D8DEE8" stroke-width="1"/>
<text x="1057.0" y="414.6" font-family="Microsoft YaHei, Arial, sans-serif" font-size="16" font-weight="400" fill="#667085" text-anchor="middle">embedding</text>
<rect x="960" y="432" width="194" height="30" rx="10" fill="#FFFFFF" stroke="#D8DEE8" stroke-width="1"/>
<text x="1057.0" y="452.6" font-family="Microsoft YaHei, Arial, sans-serif" font-size="16" font-weight="400" fill="#667085" text-anchor="middle">classify</text>
<rect x="960" y="470" width="194" height="30" rx="10" fill="#FFFFFF" stroke="#D8DEE8" stroke-width="1"/>
<text x="1057.0" y="490.6" font-family="Microsoft YaHei, Arial, sans-serif" font-size="16" font-weight="400" fill="#667085" text-anchor="middle">LLM</text>
<rect x="960" y="508" width="194" height="30" rx="10" fill="#FFFFFF" stroke="#D8DEE8" stroke-width="1"/>
<text x="1057.0" y="528.6" font-family="Microsoft YaHei, Arial, sans-serif" font-size="16" font-weight="400" fill="#667085" text-anchor="middle">micro-batch</text>
<rect x="1224" y="318" width="246" height="226" rx="18" fill="#F2ECFF" stroke="#7C3AED" stroke-width="2"/>
<circle cx="1255" cy="352" r="17" fill="#7C3AED"/><text x="1255" y="358" font-family="Microsoft YaHei, Arial, sans-serif" font-size="17" font-weight="700" fill="#FFFFFF" text-anchor="middle">3</text>
<text x="1367.0" y="361.65" font-family="Microsoft YaHei, Arial, sans-serif" font-size="19" font-weight="700" fill="#1F2937" text-anchor="middle">AI 结果存储</text>
<rect x="1250" y="394" width="194" height="30" rx="10" fill="#FFFFFF" stroke="#D8DEE8" stroke-width="1"/>
<text x="1347.0" y="414.6" font-family="Microsoft YaHei, Arial, sans-serif" font-size="16" font-weight="400" fill="#667085" text-anchor="middle">Lance</text>
<rect x="1250" y="432" width="194" height="30" rx="10" fill="#FFFFFF" stroke="#D8DEE8" stroke-width="1"/>
<text x="1347.0" y="452.6" font-family="Microsoft YaHei, Arial, sans-serif" font-size="16" font-weight="400" fill="#667085" text-anchor="middle">pgvector</text>
<rect x="1250" y="470" width="194" height="30" rx="10" fill="#FFFFFF" stroke="#D8DEE8" stroke-width="1"/>
<text x="1347.0" y="490.6" font-family="Microsoft YaHei, Arial, sans-serif" font-size="16" font-weight="400" fill="#667085" text-anchor="middle">PostgreSQL</text>
<rect x="1250" y="508" width="194" height="30" rx="10" fill="#FFFFFF" stroke="#D8DEE8" stroke-width="1"/>
<text x="1347.0" y="528.6" font-family="Microsoft YaHei, Arial, sans-serif" font-size="16" font-weight="400" fill="#667085" text-anchor="middle">worker writeback</text>
<line x1="320" y1="431" x2="344" y2="431" stroke="#8A95A6" stroke-width="4"/><polygon points="344,431 330,424 330,438" fill="#8A95A6"/>
<line x1="610" y1="431" x2="634" y2="431" stroke="#8A95A6" stroke-width="4"/><polygon points="634,431 620,424 620,438" fill="#8A95A6"/>
<line x1="900" y1="431" x2="924" y2="431" stroke="#8A95A6" stroke-width="4"/><polygon points="924,431 910,424 910,438" fill="#8A95A6"/>
<line x1="1190" y1="431" x2="1214" y2="431" stroke="#8A95A6" stroke-width="4"/><polygon points="1214,431 1200,424 1200,438" fill="#8A95A6"/>
<line x1="477" y1="258" x2="477" y2="302" stroke="#D6A000" stroke-width="3"/><polygon points="477,302 470,288 484,288" fill="#D6A000"/>
<line x1="767" y1="258" x2="767" y2="302" stroke="#D6A000" stroke-width="3"/><polygon points="767,302 760,288 774,288" fill="#D6A000"/>
<line x1="1057" y1="258" x2="1057" y2="302" stroke="#D6A000" stroke-width="3"/><polygon points="1057,302 1050,288 1064,288" fill="#D6A000"/>
<line x1="1347" y1="258" x2="1347" y2="302" stroke="#D6A000" stroke-width="3"/><polygon points="1347,302 1340,288 1354,288" fill="#D6A000"/>
<rect x="160" y="592" width="1280" height="60" rx="15" fill="#FFFFFF" stroke="#D0D7E2" stroke-width="2"/>
<text x="800.0" y="627.6" font-family="Microsoft YaHei, Arial, sans-serif" font-size="16" font-weight="400" fill="#1F2937" text-anchor="middle">统一观测指标：e2e_s   rows/s   tokens/s   operator_wall_s   queue_wait   fan-in   writeback_s</text>
<rect x="96" y="714" width="410" height="208" rx="18" fill="#FFFFFF" stroke="#CBD5E1" stroke-width="2"/>
<circle cx="134" cy="748" r="17" fill="#64748B"/><text x="134" y="754" font-family="Microsoft YaHei, Arial, sans-serif" font-size="17" font-weight="700" fill="#FFFFFF" text-anchor="middle">1</text>
<text x="174" y="759" font-family="Microsoft YaHei, Arial, sans-serif" font-size="21" font-weight="700" fill="#1F2937" text-anchor="start">数据组织与批处理构造</text>
<rect x="124" y="786" width="354" height="28" rx="10" fill="#F8FAFC" stroke="#E1E7EF" stroke-width="1"/>
<text x="301.0" y="805.6" font-family="Microsoft YaHei, Arial, sans-serif" font-size="16" font-weight="400" fill="#667085" text-anchor="middle">AI workload 特征感知</text>
<rect x="124" y="824" width="354" height="28" rx="10" fill="#F8FAFC" stroke="#E1E7EF" stroke-width="1"/>
<text x="301.0" y="843.6" font-family="Microsoft YaHei, Arial, sans-serif" font-size="16" font-weight="400" fill="#667085" text-anchor="middle">batch / partition / operator 粒度</text>
<rect x="124" y="862" width="354" height="28" rx="10" fill="#F8FAFC" stroke="#E1E7EF" stroke-width="1"/>
<text x="301.0" y="881.6" font-family="Microsoft YaHei, Arial, sans-serif" font-size="16" font-weight="400" fill="#667085" text-anchor="middle">object 合并与 fan-in 形态</text>
<rect x="595" y="714" width="410" height="208" rx="18" fill="#FFFFFF" stroke="#CBD5E1" stroke-width="2"/>
<circle cx="633" cy="748" r="17" fill="#64748B"/><text x="633" y="754" font-family="Microsoft YaHei, Arial, sans-serif" font-size="17" font-weight="700" fill="#FFFFFF" text-anchor="middle">2</text>
<text x="673" y="759" font-family="Microsoft YaHei, Arial, sans-serif" font-size="21" font-weight="700" fill="#1F2937" text-anchor="start">运行层调度与服务端批处理</text>
<rect x="623" y="786" width="354" height="28" rx="10" fill="#F8FAFC" stroke="#E1E7EF" stroke-width="1"/>
<text x="800.0" y="805.6" font-family="Microsoft YaHei, Arial, sans-serif" font-size="16" font-weight="400" fill="#667085" text-anchor="middle">K_max 门控与 backpressure</text>
<rect x="623" y="824" width="354" height="28" rx="10" fill="#F8FAFC" stroke="#E1E7EF" stroke-width="1"/>
<text x="800.0" y="843.6" font-family="Microsoft YaHei, Arial, sans-serif" font-size="16" font-weight="400" fill="#667085" text-anchor="middle">endpoint routing / actor pool</text>
<rect x="623" y="862" width="354" height="28" rx="10" fill="#F8FAFC" stroke="#E1E7EF" stroke-width="1"/>
<text x="800.0" y="881.6" font-family="Microsoft YaHei, Arial, sans-serif" font-size="16" font-weight="400" fill="#667085" text-anchor="middle">服务端 micro-batch 形成</text>
<rect x="1094" y="714" width="410" height="208" rx="18" fill="#FFFFFF" stroke="#CBD5E1" stroke-width="2"/>
<circle cx="1132" cy="748" r="17" fill="#64748B"/><text x="1132" y="754" font-family="Microsoft YaHei, Arial, sans-serif" font-size="17" font-weight="700" fill="#FFFFFF" text-anchor="middle">3</text>
<text x="1172" y="759" font-family="Microsoft YaHei, Arial, sans-serif" font-size="21" font-weight="700" fill="#1F2937" text-anchor="start">写回瓶颈判定与轻量优化</text>
<rect x="1122" y="786" width="354" height="28" rx="10" fill="#F8FAFC" stroke="#E1E7EF" stroke-width="1"/>
<text x="1299.0" y="805.6" font-family="Microsoft YaHei, Arial, sans-serif" font-size="16" font-weight="400" fill="#667085" text-anchor="middle">writeback ratio 判定</text>
<rect x="1122" y="824" width="354" height="28" rx="10" fill="#F8FAFC" stroke="#E1E7EF" stroke-width="1"/>
<text x="1299.0" y="843.6" font-family="Microsoft YaHei, Arial, sans-serif" font-size="16" font-weight="400" fill="#667085" text-anchor="middle">driver / worker / queue 写回</text>
<rect x="1122" y="862" width="354" height="28" rx="10" fill="#F8FAFC" stroke="#E1E7EF" stroke-width="1"/>
<text x="1299.0" y="881.6" font-family="Microsoft YaHei, Arial, sans-serif" font-size="16" font-weight="400" fill="#667085" text-anchor="middle">Lance / pgvector / PostgreSQL</text>
<text x="72" y="952" font-family="Microsoft YaHei, Arial, sans-serif" font-size="13" font-weight="400" fill="#667085" text-anchor="start">图注：研究内容 1、2 分别关注计划层数据组织、运行层入口调度与服务端动态批处理；研究内容 3 用于判定写回是否吞噬上游收益。</text>
</svg>