<svg xmlns="http://www.w3.org/2000/svg" width="1600" height="1000" viewBox="0 0 1600 1000">
<rect width="1600" height="1000" fill="#F8FAFC"/>
<text x="64" y="74" font-family="Microsoft YaHei, Arial, sans-serif" font-size="32" font-weight="700" fill="#1F2937" text-anchor="start">数据库驱动 AI workload 的分布式数据执行与存储协同架构</text>
<text x="66" y="112" font-family="Microsoft YaHei, Arial, sans-serif" font-size="17" font-weight="400" fill="#667085" text-anchor="start">数据库提供 workload 入口和结果落点，数据组织、Ray 执行、GPU 服务和 AI 数据 sink 共同决定端到端性能。</text>
<rect x="354" y="132" width="1116" height="118" rx="18" fill="#FFF8D9" stroke="#D6A000" stroke-width="2"/>
<text x="912.0" y="170.35" font-family="Microsoft YaHei, Arial, sans-serif" font-size="21" font-weight="700" fill="#1F2937" text-anchor="middle">观测与策略层</text>
<rect x="414.0" y="192" width="132.0" height="32" rx="10" fill="#FFFDF0" stroke="#E2BE45" stroke-width="1"/>
<text x="480.0" y="213.6" font-family="Microsoft YaHei, Arial, sans-serif" font-size="16" font-weight="400" fill="#667085" text-anchor="middle">stage time</text>
<rect x="558.0" y="192" width="132.0" height="32" rx="10" fill="#FFFDF0" stroke="#E2BE45" stroke-width="1"/>
<text x="624.0" y="213.6" font-family="Microsoft YaHei, Arial, sans-serif" font-size="16" font-weight="400" fill="#667085" text-anchor="middle">queue wait</text>
<rect x="702.0" y="192" width="132.0" height="32" rx="10" fill="#FFFDF0" stroke="#E2BE45" stroke-width="1"/>
<text x="768.0" y="213.6" font-family="Microsoft YaHei, Arial, sans-serif" font-size="16" font-weight="400" fill="#667085" text-anchor="middle">GPU utilization</text>
<rect x="846.0" y="192" width="132.0" height="32" rx="10" fill="#FFFDF0" stroke="#E2BE45" stroke-width="1"/>
<text x="912.0" y="213.6" font-family="Microsoft YaHei, Arial, sans-serif" font-size="16" font-weight="400" fill="#667085" text-anchor="middle">writeback time</text>
<rect x="990.0" y="192" width="132.0" height="32" rx="10" fill="#FFFDF0" stroke="#E2BE45" stroke-width="1"/>
<text x="1056.0" y="213.6" font-family="Microsoft YaHei, Arial, sans-serif" font-size="16" font-weight="400" fill="#667085" text-anchor="middle">batch</text>
<rect x="1134.0" y="192" width="132.0" height="32" rx="10" fill="#FFFDF0" stroke="#E2BE45" stroke-width="1"/>
<text x="1200.0" y="213.6" font-family="Microsoft YaHei, Arial, sans-serif" font-size="16" font-weight="400" fill="#667085" text-anchor="middle">routing</text>
<rect x="1278.0" y="192" width="132.0" height="32" rx="10" fill="#FFFDF0" stroke="#E2BE45" stroke-width="1"/>
<text x="1344.0" y="213.6" font-family="Microsoft YaHei, Arial, sans-serif" font-size="16" font-weight="400" fill="#667085" text-anchor="middle">in-flight</text>
<rect x="64" y="318" width="246" height="226" rx="18" fill="#EEF2F6" stroke="#64748B" stroke-width="2"/>
<text x="187.0" y="362.35" font-family="Microsoft YaHei, Arial, sans-serif" font-size="21" font-weight="700" fill="#1F2937" text-anchor="middle">Database source</text>
<rect x="90" y="394" width="194" height="30" rx="10" fill="#FFFFFF" stroke="#D8DEE8" stroke-width="1"/>
<text x="187.0" y="414.6" font-family="Microsoft YaHei, Arial, sans-serif" font-size="16" font-weight="400" fill="#667085" text-anchor="middle">PostgreSQL</text>
<rect x="90" y="432" width="194" height="30" rx="10" fill="#FFFFFF" stroke="#D8DEE8" stroke-width="1"/>
<text x="187.0" y="452.6" font-family="Microsoft YaHei, Arial, sans-serif" font-size="16" font-weight="400" fill="#667085" text-anchor="middle">SQL workflow</text>
<rect x="90" y="470" width="194" height="30" rx="10" fill="#FFFFFF" stroke="#D8DEE8" stroke-width="1"/>
<text x="187.0" y="490.6" font-family="Microsoft YaHei, Arial, sans-serif" font-size="16" font-weight="400" fill="#667085" text-anchor="middle">tables + rows</text>
<rect x="90" y="508" width="194" height="30" rx="10" fill="#FFFFFF" stroke="#D8DEE8" stroke-width="1"/>
<text x="187.0" y="528.6" font-family="Microsoft YaHei, Arial, sans-serif" font-size="16" font-weight="400" fill="#667085" text-anchor="middle">triggers</text>
<rect x="354" y="318" width="246" height="226" rx="18" fill="#E7F0FF" stroke="#2F6FEB" stroke-width="2"/>
<circle cx="385" cy="352" r="17" fill="#2F6FEB"/><text x="385" y="358" font-family="Microsoft YaHei, Arial, sans-serif" font-size="17" font-weight="700" fill="#FFFFFF" text-anchor="middle">1</text>
<text x="497.0" y="361.65" font-family="Microsoft YaHei, Arial, sans-serif" font-size="19" font-weight="700" fill="#1F2937" text-anchor="middle">Daft + Arrow</text>
<rect x="380" y="394" width="194" height="30" rx="10" fill="#FFFFFF" stroke="#D8DEE8" stroke-width="1"/>
<text x="477.0" y="414.6" font-family="Microsoft YaHei, Arial, sans-serif" font-size="16" font-weight="400" fill="#667085" text-anchor="middle">RecordBatch</text>
<rect x="380" y="432" width="194" height="30" rx="10" fill="#FFFFFF" stroke="#D8DEE8" stroke-width="1"/>
<text x="477.0" y="452.6" font-family="Microsoft YaHei, Arial, sans-serif" font-size="16" font-weight="400" fill="#667085" text-anchor="middle">batch</text>
<rect x="380" y="470" width="194" height="30" rx="10" fill="#FFFFFF" stroke="#D8DEE8" stroke-width="1"/>
<text x="477.0" y="490.6" font-family="Microsoft YaHei, Arial, sans-serif" font-size="16" font-weight="400" fill="#667085" text-anchor="middle">partition</text>
<rect x="380" y="508" width="194" height="30" rx="10" fill="#FFFFFF" stroke="#D8DEE8" stroke-width="1"/>
<text x="477.0" y="528.6" font-family="Microsoft YaHei, Arial, sans-serif" font-size="16" font-weight="400" fill="#667085" text-anchor="middle">shuffle</text>
<rect x="644" y="318" width="246" height="226" rx="18" fill="#EAF7EF" stroke="#16A34A" stroke-width="2"/>
<circle cx="675" cy="352" r="17" fill="#16A34A"/><text x="675" y="358" font-family="Microsoft YaHei, Arial, sans-serif" font-size="17" font-weight="700" fill="#FFFFFF" text-anchor="middle">2</text>
<text x="787.0" y="361.65" font-family="Microsoft YaHei, Arial, sans-serif" font-size="19" font-weight="700" fill="#1F2937" text-anchor="middle">Ray execution</text>
<rect x="670" y="394" width="194" height="30" rx="10" fill="#FFFFFF" stroke="#D8DEE8" stroke-width="1"/>
<text x="767.0" y="414.6" font-family="Microsoft YaHei, Arial, sans-serif" font-size="16" font-weight="400" fill="#667085" text-anchor="middle">task</text>
<rect x="670" y="432" width="194" height="30" rx="10" fill="#FFFFFF" stroke="#D8DEE8" stroke-width="1"/>
<text x="767.0" y="452.6" font-family="Microsoft YaHei, Arial, sans-serif" font-size="16" font-weight="400" fill="#667085" text-anchor="middle">actor pool</text>
<rect x="670" y="470" width="194" height="30" rx="10" fill="#FFFFFF" stroke="#D8DEE8" stroke-width="1"/>
<text x="767.0" y="490.6" font-family="Microsoft YaHei, Arial, sans-serif" font-size="16" font-weight="400" fill="#667085" text-anchor="middle">object refs</text>
<rect x="670" y="508" width="194" height="30" rx="10" fill="#FFFFFF" stroke="#D8DEE8" stroke-width="1"/>
<text x="767.0" y="528.6" font-family="Microsoft YaHei, Arial, sans-serif" font-size="16" font-weight="400" fill="#667085" text-anchor="middle">fan-in</text>
<rect x="934" y="318" width="246" height="226" rx="18" fill="#FFF1E6" stroke="#F97316" stroke-width="2"/>
<circle cx="965" cy="352" r="17" fill="#F97316"/><text x="965" y="358" font-family="Microsoft YaHei, Arial, sans-serif" font-size="17" font-weight="700" fill="#FFFFFF" text-anchor="middle">2</text>
<text x="1077.0" y="361.65" font-family="Microsoft YaHei, Arial, sans-serif" font-size="19" font-weight="700" fill="#1F2937" text-anchor="middle">GPU model service</text>
<rect x="960" y="394" width="194" height="30" rx="10" fill="#FFFFFF" stroke="#D8DEE8" stroke-width="1"/>
<text x="1057.0" y="414.6" font-family="Microsoft YaHei, Arial, sans-serif" font-size="16" font-weight="400" fill="#667085" text-anchor="middle">embedding</text>
<rect x="960" y="432" width="194" height="30" rx="10" fill="#FFFFFF" stroke="#D8DEE8" stroke-width="1"/>
<text x="1057.0" y="452.6" font-family="Microsoft YaHei, Arial, sans-serif" font-size="16" font-weight="400" fill="#667085" text-anchor="middle">classify</text>
<rect x="960" y="470" width="194" height="30" rx="10" fill="#FFFFFF" stroke="#D8DEE8" stroke-width="1"/>
<text x="1057.0" y="490.6" font-family="Microsoft YaHei, Arial, sans-serif" font-size="16" font-weight="400" fill="#667085" text-anchor="middle">LLM</text>
<rect x="960" y="508" width="194" height="30" rx="10" fill="#FFFFFF" stroke="#D8DEE8" stroke-width="1"/>
<text x="1057.0" y="528.6" font-family="Microsoft YaHei, Arial, sans-serif" font-size="16" font-weight="400" fill="#667085" text-anchor="middle">queue</text>
<rect x="1224" y="318" width="246" height="226" rx="18" fill="#F2ECFF" stroke="#7C3AED" stroke-width="2"/>
<circle cx="1255" cy="352" r="17" fill="#7C3AED"/><text x="1255" y="358" font-family="Microsoft YaHei, Arial, sans-serif" font-size="17" font-weight="700" fill="#FFFFFF" text-anchor="middle">3</text>
<text x="1367.0" y="361.65" font-family="Microsoft YaHei, Arial, sans-serif" font-size="19" font-weight="700" fill="#1F2937" text-anchor="middle">AI data sink</text>
<rect x="1250" y="394" width="194" height="30" rx="10" fill="#FFFFFF" stroke="#D8DEE8" stroke-width="1"/>
<text x="1347.0" y="414.6" font-family="Microsoft YaHei, Arial, sans-serif" font-size="16" font-weight="400" fill="#667085" text-anchor="middle">Lance</text>
<rect x="1250" y="432" width="194" height="30" rx="10" fill="#FFFFFF" stroke="#D8DEE8" stroke-width="1"/>
<text x="1347.0" y="452.6" font-family="Microsoft YaHei, Arial, sans-serif" font-size="16" font-weight="400" fill="#667085" text-anchor="middle">pgvector</text>
<rect x="1250" y="470" width="194" height="30" rx="10" fill="#FFFFFF" stroke="#D8DEE8" stroke-width="1"/>
<text x="1347.0" y="490.6" font-family="Microsoft YaHei, Arial, sans-serif" font-size="16" font-weight="400" fill="#667085" text-anchor="middle">PostgreSQL</text>
<rect x="1250" y="508" width="194" height="30" rx="10" fill="#FFFFFF" stroke="#D8DEE8" stroke-width="1"/>
<text x="1347.0" y="528.6" font-family="Microsoft YaHei, Arial, sans-serif" font-size="16" font-weight="400" fill="#667085" text-anchor="middle">worker writeback</text>
<line x1="320" y1="431" x2="344" y2="431" stroke="#8A95A6" stroke-width="4"/><polygon points="344,431 330,424 330,438" fill="#8A95A6"/>
<line x1="610" y1="431" x2="634" y2="431" stroke="#8A95A6" stroke-width="4"/><polygon points="634,431 620,424 620,438" fill="#8A95A6"/>
<line x1="900" y1="431" x2="924" y2="431" stroke="#8A95A6" stroke-width="4"/><polygon points="924,431 910,424 910,438" fill="#8A95A6"/>
<line x1="1190" y1="431" x2="1214" y2="431" stroke="#8A95A6" stroke-width="4"/><polygon points="1214,431 1200,424 1200,438" fill="#8A95A6"/>
<line x1="477" y1="258" x2="477" y2="302" stroke="#D6A000" stroke-width="3"/><polygon points="477,302 470,288 484,288" fill="#D6A000"/>
<line x1="767" y1="258" x2="767" y2="302" stroke="#D6A000" stroke-width="3"/><polygon points="767,302 760,288 774,288" fill="#D6A000"/>
<line x1="1057" y1="258" x2="1057" y2="302" stroke="#D6A000" stroke-width="3"/><polygon points="1057,302 1050,288 1064,288" fill="#D6A000"/>
<line x1="1347" y1="258" x2="1347" y2="302" stroke="#D6A000" stroke-width="3"/><polygon points="1347,302 1340,288 1354,288" fill="#D6A000"/>
<rect x="160" y="592" width="1280" height="60" rx="15" fill="#FFFFFF" stroke="#D0D7E2" stroke-width="2"/>
<text x="800.0" y="627.6" font-family="Microsoft YaHei, Arial, sans-serif" font-size="16" font-weight="400" fill="#1F2937" text-anchor="middle">统一观测指标：e2e_s   rows/s   tokens/s   operator_wall_s   queue_wait   fan-in   writeback_s</text>
<rect x="96" y="714" width="410" height="208" rx="18" fill="#FFFFFF" stroke="#CBD5E1" stroke-width="2"/>
<circle cx="134" cy="748" r="17" fill="#2F6FEB"/><text x="134" y="754" font-family="Microsoft YaHei, Arial, sans-serif" font-size="17" font-weight="700" fill="#FFFFFF" text-anchor="middle">1</text>
<text x="174" y="759" font-family="Microsoft YaHei, Arial, sans-serif" font-size="21" font-weight="700" fill="#1F2937" text-anchor="start">数据组织与批处理调度</text>
<rect x="124" y="786" width="354" height="28" rx="10" fill="#F8FAFC" stroke="#E1E7EF" stroke-width="1"/>
<text x="301.0" y="805.6" font-family="Microsoft YaHei, Arial, sans-serif" font-size="16" font-weight="400" fill="#667085" text-anchor="middle">workload 特征</text>
<rect x="124" y="824" width="354" height="28" rx="10" fill="#F8FAFC" stroke="#E1E7EF" stroke-width="1"/>
<text x="301.0" y="843.6" font-family="Microsoft YaHei, Arial, sans-serif" font-size="16" font-weight="400" fill="#667085" text-anchor="middle">batch 与 partition</text>
<rect x="124" y="862" width="354" height="28" rx="10" fill="#F8FAFC" stroke="#E1E7EF" stroke-width="1"/>
<text x="301.0" y="881.6" font-family="Microsoft YaHei, Arial, sans-serif" font-size="16" font-weight="400" fill="#667085" text-anchor="middle">RecordBatch 粒度</text>
<rect x="595" y="714" width="410" height="208" rx="18" fill="#FFFFFF" stroke="#CBD5E1" stroke-width="2"/>
<circle cx="633" cy="748" r="17" fill="#16A34A"/><text x="633" y="754" font-family="Microsoft YaHei, Arial, sans-serif" font-size="17" font-weight="700" fill="#FFFFFF" text-anchor="middle">2</text>
<text x="673" y="759" font-family="Microsoft YaHei, Arial, sans-serif" font-size="21" font-weight="700" fill="#1F2937" text-anchor="start">GPU 服务感知 Ray 调度</text>
<rect x="623" y="786" width="354" height="28" rx="10" fill="#F8FAFC" stroke="#E1E7EF" stroke-width="1"/>
<text x="800.0" y="805.6" font-family="Microsoft YaHei, Arial, sans-serif" font-size="16" font-weight="400" fill="#667085" text-anchor="middle">endpoint 状态</text>
<rect x="623" y="824" width="354" height="28" rx="10" fill="#F8FAFC" stroke="#E1E7EF" stroke-width="1"/>
<text x="800.0" y="843.6" font-family="Microsoft YaHei, Arial, sans-serif" font-size="16" font-weight="400" fill="#667085" text-anchor="middle">actor pool 与 routing</text>
<rect x="623" y="862" width="354" height="28" rx="10" fill="#F8FAFC" stroke="#E1E7EF" stroke-width="1"/>
<text x="800.0" y="881.6" font-family="Microsoft YaHei, Arial, sans-serif" font-size="16" font-weight="400" fill="#667085" text-anchor="middle">bounded in-flight</text>
<rect x="1094" y="714" width="410" height="208" rx="18" fill="#FFFFFF" stroke="#CBD5E1" stroke-width="2"/>
<circle cx="1132" cy="748" r="17" fill="#7C3AED"/><text x="1132" y="754" font-family="Microsoft YaHei, Arial, sans-serif" font-size="17" font-weight="700" fill="#FFFFFF" text-anchor="middle">3</text>
<text x="1172" y="759" font-family="Microsoft YaHei, Arial, sans-serif" font-size="21" font-weight="700" fill="#1F2937" text-anchor="start">结果汇聚与持久化协同</text>
<rect x="1122" y="786" width="354" height="28" rx="10" fill="#F8FAFC" stroke="#E1E7EF" stroke-width="1"/>
<text x="1299.0" y="805.6" font-family="Microsoft YaHei, Arial, sans-serif" font-size="16" font-weight="400" fill="#667085" text-anchor="middle">fan-in 位置</text>
<rect x="1122" y="824" width="354" height="28" rx="10" fill="#F8FAFC" stroke="#E1E7EF" stroke-width="1"/>
<text x="1299.0" y="843.6" font-family="Microsoft YaHei, Arial, sans-serif" font-size="16" font-weight="400" fill="#667085" text-anchor="middle">worker writeback</text>
<rect x="1122" y="862" width="354" height="28" rx="10" fill="#F8FAFC" stroke="#E1E7EF" stroke-width="1"/>
<text x="1299.0" y="881.6" font-family="Microsoft YaHei, Arial, sans-serif" font-size="16" font-weight="400" fill="#667085" text-anchor="middle">Lance 与 pgvector</text>
<text x="72" y="952" font-family="Microsoft YaHei, Arial, sans-serif" font-size="13" font-weight="400" fill="#667085" text-anchor="start">图注：数据库驱动 AI workload 进入 Daft/Arrow、Ray、GPU 服务和 AI 数据 sink 后，三个研究内容分别对应编号 1、2、3。</text>
</svg>