<?xml version="1.0" encoding="utf-8" standalone="no"?>
<!DOCTYPE svg PUBLIC "-//W3C//DTD SVG 1.1//EN"
  "http://www.w3.org/Graphics/SVG/1.1/DTD/svg11.dtd">
<svg xmlns:xlink="http://www.w3.org/1999/xlink" width="846.144pt" height="520.356437pt" viewBox="0 0 846.144 520.356437" xmlns="http://www.w3.org/2000/svg" version="1.1">
 <metadata>
  <rdf:RDF xmlns:dc="http://purl.org/dc/elements/1.1/" xmlns:cc="http://creativecommons.org/ns#" xmlns:rdf="http://www.w3.org/1999/02/22-rdf-syntax-ns#">
   <cc:Work>
    <dc:type rdf:resource="http://purl.org/dc/dcmitype/StillImage"/>
    <dc:date>2026-07-13T17:33:04.599040</dc:date>
    <dc:format>image/svg+xml</dc:format>
    <dc:creator>
     <cc:Agent>
      <dc:title>Matplotlib v3.10.0, https://matplotlib.org/</dc:title>
     </cc:Agent>
    </dc:creator>
   </cc:Work>
  </rdf:RDF>
 </metadata>
 <defs>
  <style type="text/css">*{stroke-linejoin: round; stroke-linecap: butt}</style>
 </defs>
 <g id="figure_1">
  <g id="patch_1">
   <path d="M 0 520.356437 
L 846.144 520.356437 
L 846.144 0 
L 0 0 
z
" style="fill: #f8fafc"/>
  </g>
  <g id="axes_1">
   <g id="patch_2">
    <path d="M 59.04 429.811875 
L 833.184 429.811875 
L 833.184 98.035875 
L 59.04 98.035875 
z
" style="fill: #f8fafc"/>
   </g>
   <g id="matplotlib.axis_1">
    <g id="xtick_1">
     <g id="line2d_1">
      <defs>
       <path id="m37a88ee62f" d="M 0 0 
L 0 3.5 
" style="stroke: #64748b; stroke-width: 0.8"/>
      </defs>
      <g>
       <use xlink:href="#m37a88ee62f" x="208.352786" y="429.811875" style="fill: #64748b; stroke: #64748b; stroke-width: 0.8"/>
      </g>
     </g>
     <g id="text_1">
      <!-- coalesced -->
      <g style="fill: #64748b" transform="translate(184.947317 444.805625) scale(0.1 -0.1)">
       <defs>
        <path id="MicrosoftYaHei-63" d="M 2934 156 
Q 2538 -81 1978 -81 
Q 1228 -81 772 400 
Q 316 881 316 1647 
Q 316 2497 808 3017 
Q 1300 3538 2125 3538 
Q 2600 3538 2938 3369 
L 2938 2763 
Q 2572 3031 2125 3031 
Q 1600 3031 1270 2667 
Q 941 2303 941 1697 
Q 941 1100 1252 762 
Q 1563 425 2091 425 
Q 2538 425 2934 719 
L 2934 156 
z
" transform="scale(0.015625)"/>
        <path id="MicrosoftYaHei-6f" d="M 316 1691 
Q 316 2547 794 3042 
Q 1272 3538 2091 3538 
Q 2869 3538 3311 3061 
Q 3753 2584 3753 1744 
Q 3753 925 3281 422 
Q 2809 -81 2016 -81 
Q 1241 -81 778 406 
Q 316 894 316 1691 
z
M 941 1709 
Q 941 1113 1242 769 
Q 1544 425 2053 425 
Q 2578 425 2853 761 
Q 3128 1097 3128 1725 
Q 3128 2356 2853 2693 
Q 2578 3031 2053 3031 
Q 1538 3031 1239 2678 
Q 941 2325 941 1709 
z
" transform="scale(0.015625)"/>
        <path id="MicrosoftYaHei-61" d="M 628 3216 
Q 1144 3538 1819 3538 
Q 3069 3538 3069 2225 
L 3069 0 
L 2463 0 
L 2463 534 
L 2447 534 
Q 2088 -81 1388 -81 
Q 884 -81 587 191 
Q 291 463 291 925 
Q 291 1894 1438 2053 
L 2463 2197 
Q 2463 3044 1763 3044 
Q 1141 3044 628 2625 
L 628 3216 
z
M 1653 1625 
Q 1228 1569 1067 1412 
Q 906 1256 906 975 
Q 906 728 1081 572 
Q 1256 416 1544 416 
Q 1944 416 2203 697 
Q 2463 978 2463 1403 
L 2463 1734 
L 1653 1625 
z
" transform="scale(0.015625)"/>
        <path id="MicrosoftYaHei-6c" d="M 544 0 
L 544 5116 
L 1156 5116 
L 1156 0 
L 544 0 
z
" transform="scale(0.015625)"/>
        <path id="MicrosoftYaHei-65" d="M 3363 1572 
L 944 1572 
Q 959 1019 1246 717 
Q 1534 416 2050 416 
Q 2631 416 3116 788 
L 3116 241 
Q 2659 -81 1906 -81 
Q 1156 -81 736 394 
Q 316 869 316 1713 
Q 316 2506 777 3022 
Q 1238 3538 1922 3538 
Q 2600 3538 2981 3102 
Q 3363 2666 3363 1881 
L 3363 1572 
z
M 2750 2063 
Q 2747 2531 2528 2787 
Q 2309 3044 1913 3044 
Q 1547 3044 1280 2772 
Q 1013 2500 944 2063 
L 2750 2063 
z
" transform="scale(0.015625)"/>
        <path id="MicrosoftYaHei-73" d="M 353 747 
Q 816 413 1350 413 
Q 2066 413 2066 881 
Q 2066 1081 1909 1211 
Q 1753 1341 1275 1519 
Q 700 1750 528 1976 
Q 356 2203 356 2525 
Q 356 2984 745 3261 
Q 1134 3538 1703 3538 
Q 2144 3538 2522 3384 
L 2522 2794 
Q 2134 3044 1644 3044 
Q 1350 3044 1165 2916 
Q 981 2788 981 2578 
Q 981 2372 1114 2256 
Q 1247 2141 1703 1959 
Q 2281 1744 2484 1512 
Q 2688 1281 2688 941 
Q 2688 466 2298 192 
Q 1909 -81 1291 -81 
Q 753 -81 353 122 
L 353 747 
z
" transform="scale(0.015625)"/>
        <path id="MicrosoftYaHei-64" d="M 3547 0 
L 2934 0 
L 2934 575 
L 2922 575 
Q 2544 -81 1747 -81 
Q 1091 -81 703 386 
Q 316 853 316 1647 
Q 316 2503 753 3020 
Q 1191 3538 1897 3538 
Q 2603 3538 2922 2988 
L 2934 2988 
L 2934 5116 
L 3547 5116 
L 3547 0 
z
M 2938 2056 
Q 2938 2472 2664 2751 
Q 2391 3031 1991 3031 
Q 1503 3031 1222 2667 
Q 941 2303 941 1675 
Q 941 1097 1211 761 
Q 1481 425 1931 425 
Q 2375 425 2656 754 
Q 2938 1084 2938 1575 
L 2938 2056 
z
" transform="scale(0.015625)"/>
       </defs>
       <use xlink:href="#MicrosoftYaHei-63"/>
       <use xlink:href="#MicrosoftYaHei-6f" transform="translate(50.146484 0)"/>
       <use xlink:href="#MicrosoftYaHei-61" transform="translate(112.345703 0)"/>
       <use xlink:href="#MicrosoftYaHei-6c" transform="translate(167.619141 0)"/>
       <use xlink:href="#MicrosoftYaHei-65" transform="translate(194.230469 0)"/>
       <use xlink:href="#MicrosoftYaHei-73" transform="translate(250.96875 0)"/>
       <use xlink:href="#MicrosoftYaHei-63" transform="translate(297.257812 0)"/>
       <use xlink:href="#MicrosoftYaHei-65" transform="translate(347.404297 0)"/>
       <use xlink:href="#MicrosoftYaHei-64" transform="translate(404.142578 0)"/>
      </g>
      <!-- 4 calls -->
      <g style="fill: #64748b" transform="translate(193.694192 456.884062) scale(0.1 -0.1)">
       <defs>
        <path id="MicrosoftYaHei-34" d="M 2906 4841 
L 2906 1644 
L 3631 1644 
L 3631 1138 
L 2906 1138 
L 2906 0 
L 2313 0 
L 2313 1138 
L 53 1138 
L 53 1616 
Q 656 2294 1265 3178 
Q 1875 4063 2272 4841 
L 2906 4841 
z
M 741 1644 
L 2313 1644 
L 2313 3950 
Q 1988 3366 1616 2817 
Q 1244 2269 741 1644 
z
" transform="scale(0.015625)"/>
        <path id="MicrosoftYaHei-20" transform="scale(0.015625)"/>
       </defs>
       <use xlink:href="#MicrosoftYaHei-34"/>
       <use xlink:href="#MicrosoftYaHei-20" transform="translate(58.642578 0)"/>
       <use xlink:href="#MicrosoftYaHei-63" transform="translate(88.232422 0)"/>
       <use xlink:href="#MicrosoftYaHei-61" transform="translate(138.378906 0)"/>
       <use xlink:href="#MicrosoftYaHei-6c" transform="translate(193.652344 0)"/>
       <use xlink:href="#MicrosoftYaHei-6c" transform="translate(220.263672 0)"/>
       <use xlink:href="#MicrosoftYaHei-73" transform="translate(246.875 0)"/>
      </g>
     </g>
    </g>
    <g id="xtick_2">
     <g id="line2d_2">
      <g>
       <use xlink:href="#m37a88ee62f" x="683.871214" y="429.811875" style="fill: #64748b; stroke: #64748b; stroke-width: 0.8"/>
      </g>
     </g>
     <g id="text_2">
      <!-- fine -->
      <g style="fill: #64748b" transform="translate(674.889183 444.805625) scale(0.1 -0.1)">
       <defs>
        <path id="MicrosoftYaHei-66" d="M 2319 4594 
Q 2147 4684 1947 4684 
Q 1372 4684 1372 3972 
L 1372 3456 
L 2181 3456 
L 2181 2950 
L 1372 2950 
L 1372 0 
L 766 0 
L 766 2950 
L 175 2950 
L 175 3456 
L 766 3456 
L 766 4000 
Q 766 4556 1086 4873 
Q 1406 5191 1900 5191 
Q 2163 5191 2319 5131 
L 2319 4594 
z
" transform="scale(0.015625)"/>
        <path id="MicrosoftYaHei-69" d="M 472 4675 
Q 472 4838 583 4948 
Q 694 5059 856 5059 
Q 1022 5059 1136 4950 
Q 1250 4841 1250 4675 
Q 1250 4513 1136 4405 
Q 1022 4297 856 4297 
Q 691 4297 581 4405 
Q 472 4513 472 4675 
z
M 544 0 
L 544 3456 
L 1156 3456 
L 1156 0 
L 544 0 
z
" transform="scale(0.015625)"/>
        <path id="MicrosoftYaHei-6e" d="M 3469 0 
L 2859 0 
L 2859 1966 
Q 2859 3031 2081 3031 
Q 1678 3031 1418 2731 
Q 1159 2431 1159 1972 
L 1159 0 
L 547 0 
L 547 3456 
L 1159 3456 
L 1159 2884 
L 1172 2884 
Q 1563 3538 2306 3538 
Q 2875 3538 3172 3173 
Q 3469 2809 3469 2113 
L 3469 0 
z
" transform="scale(0.015625)"/>
       </defs>
       <use xlink:href="#MicrosoftYaHei-66"/>
       <use xlink:href="#MicrosoftYaHei-69" transform="translate(34.667969 0)"/>
       <use xlink:href="#MicrosoftYaHei-6e" transform="translate(61.279297 0)"/>
       <use xlink:href="#MicrosoftYaHei-65" transform="translate(122.900391 0)"/>
      </g>
      <!-- 1024 calls -->
      <g style="fill: #64748b" transform="translate(660.416526 456.884062) scale(0.1 -0.1)">
       <defs>
        <path id="MicrosoftYaHei-31" d="M 1781 0 
L 1781 4141 
Q 1638 3997 1295 3819 
Q 953 3641 663 3569 
L 663 4169 
Q 1047 4275 1484 4508 
Q 1922 4741 2156 4947 
L 2388 4947 
L 2388 0 
L 1781 0 
z
" transform="scale(0.015625)"/>
        <path id="MicrosoftYaHei-30" d="M 284 2325 
Q 284 3606 709 4264 
Q 1134 4922 1941 4922 
Q 3478 4922 3478 2441 
Q 3478 1216 3045 567 
Q 2613 -81 1831 -81 
Q 1094 -81 689 534 
Q 284 1150 284 2325 
z
M 909 2353 
Q 909 425 1888 425 
Q 2850 425 2850 2384 
Q 2850 4413 1906 4413 
Q 909 4413 909 2353 
z
" transform="scale(0.015625)"/>
        <path id="MicrosoftYaHei-32" d="M 2666 3572 
Q 2666 3963 2419 4186 
Q 2172 4409 1747 4409 
Q 1447 4409 1140 4256 
Q 834 4103 569 3819 
L 569 4413 
Q 806 4659 1107 4790 
Q 1409 4922 1816 4922 
Q 2472 4922 2872 4570 
Q 3272 4219 3272 3619 
Q 3272 3084 3026 2693 
Q 2781 2303 2188 1894 
Q 1581 1475 1376 1294 
Q 1172 1113 1090 947 
Q 1009 781 1009 544 
L 3416 544 
L 3416 0 
L 372 0 
L 372 241 
Q 372 659 486 951 
Q 600 1244 862 1520 
Q 1125 1797 1681 2184 
Q 2250 2584 2458 2886 
Q 2666 3188 2666 3572 
z
" transform="scale(0.015625)"/>
       </defs>
       <use xlink:href="#MicrosoftYaHei-31"/>
       <use xlink:href="#MicrosoftYaHei-30" transform="translate(58.642578 0)"/>
       <use xlink:href="#MicrosoftYaHei-32" transform="translate(117.285156 0)"/>
       <use xlink:href="#MicrosoftYaHei-34" transform="translate(175.927734 0)"/>
       <use xlink:href="#MicrosoftYaHei-20" transform="translate(234.570312 0)"/>
       <use xlink:href="#MicrosoftYaHei-63" transform="translate(264.160156 0)"/>
       <use xlink:href="#MicrosoftYaHei-61" transform="translate(314.306641 0)"/>
       <use xlink:href="#MicrosoftYaHei-6c" transform="translate(369.580078 0)"/>
       <use xlink:href="#MicrosoftYaHei-6c" transform="translate(396.191406 0)"/>
       <use xlink:href="#MicrosoftYaHei-73" transform="translate(422.802734 0)"/>
      </g>
     </g>
    </g>
   </g>
   <g id="matplotlib.axis_2">
    <g id="ytick_1">
     <g id="line2d_3">
      <path d="M 59.04 429.811875 
L 833.184 429.811875 
" clip-path="url(#p498b749675)" style="fill: none; stroke: #e2e8f0; stroke-opacity: 0.9; stroke-width: 0.9; stroke-linecap: square"/>
     </g>
     <g id="line2d_4">
      <defs>
       <path id="m65ba2211d4" d="M 0 0 
L -3.5 0 
" style="stroke: #1f2937; stroke-width: 0.8"/>
      </defs>
      <g>
       <use xlink:href="#m65ba2211d4" x="59.04" y="429.811875" style="fill: #1f2937; stroke: #1f2937; stroke-width: 0.8"/>
      </g>
     </g>
     <g id="text_3">
      <!-- 0 -->
      <g style="fill: #1f2937" transform="translate(46.175938 433.80875) scale(0.1 -0.1)">
       <use xlink:href="#MicrosoftYaHei-30"/>
      </g>
     </g>
    </g>
    <g id="ytick_2">
     <g id="line2d_5">
      <path d="M 59.04 384.574577 
L 833.184 384.574577 
" clip-path="url(#p498b749675)" style="fill: none; stroke: #e2e8f0; stroke-opacity: 0.9; stroke-width: 0.9; stroke-linecap: square"/>
     </g>
     <g id="line2d_6">
      <g>
       <use xlink:href="#m65ba2211d4" x="59.04" y="384.574577" style="fill: #1f2937; stroke: #1f2937; stroke-width: 0.8"/>
      </g>
     </g>
     <g id="text_4">
      <!-- 2 -->
      <g style="fill: #1f2937" transform="translate(46.175938 388.571452) scale(0.1 -0.1)">
       <use xlink:href="#MicrosoftYaHei-32"/>
      </g>
     </g>
    </g>
    <g id="ytick_3">
     <g id="line2d_7">
      <path d="M 59.04 339.337278 
L 833.184 339.337278 
" clip-path="url(#p498b749675)" style="fill: none; stroke: #e2e8f0; stroke-opacity: 0.9; stroke-width: 0.9; stroke-linecap: square"/>
     </g>
     <g id="line2d_8">
      <g>
       <use xlink:href="#m65ba2211d4" x="59.04" y="339.337278" style="fill: #1f2937; stroke: #1f2937; stroke-width: 0.8"/>
      </g>
     </g>
     <g id="text_5">
      <!-- 4 -->
      <g style="fill: #1f2937" transform="translate(46.175938 343.334153) scale(0.1 -0.1)">
       <use xlink:href="#MicrosoftYaHei-34"/>
      </g>
     </g>
    </g>
    <g id="ytick_4">
     <g id="line2d_9">
      <path d="M 59.04 294.09998 
L 833.184 294.09998 
" clip-path="url(#p498b749675)" style="fill: none; stroke: #e2e8f0; stroke-opacity: 0.9; stroke-width: 0.9; stroke-linecap: square"/>
     </g>
     <g id="line2d_10">
      <g>
       <use xlink:href="#m65ba2211d4" x="59.04" y="294.09998" style="fill: #1f2937; stroke: #1f2937; stroke-width: 0.8"/>
      </g>
     </g>
     <g id="text_6">
      <!-- 6 -->
      <g style="fill: #1f2937" transform="translate(46.175938 298.096855) scale(0.1 -0.1)">
       <defs>
        <path id="MicrosoftYaHei-36" d="M 3181 4219 
Q 2803 4413 2391 4413 
Q 1763 4413 1381 3866 
Q 1000 3319 994 2372 
L 1009 2372 
Q 1353 3038 2106 3038 
Q 2734 3038 3109 2628 
Q 3484 2219 3484 1541 
Q 3484 831 3051 375 
Q 2619 -81 1947 -81 
Q 1209 -81 789 495 
Q 369 1072 369 2131 
Q 369 3413 920 4167 
Q 1472 4922 2372 4922 
Q 2888 4922 3181 4781 
L 3181 4219 
z
M 1031 1584 
Q 1031 1106 1286 765 
Q 1541 425 1963 425 
Q 2363 425 2613 719 
Q 2863 1013 2863 1475 
Q 2863 1975 2627 2253 
Q 2391 2531 1956 2531 
Q 1544 2531 1287 2250 
Q 1031 1969 1031 1584 
z
" transform="scale(0.015625)"/>
       </defs>
       <use xlink:href="#MicrosoftYaHei-36"/>
      </g>
     </g>
    </g>
    <g id="ytick_5">
     <g id="line2d_11">
      <path d="M 59.04 248.862682 
L 833.184 248.862682 
" clip-path="url(#p498b749675)" style="fill: none; stroke: #e2e8f0; stroke-opacity: 0.9; stroke-width: 0.9; stroke-linecap: square"/>
     </g>
     <g id="line2d_12">
      <g>
       <use xlink:href="#m65ba2211d4" x="59.04" y="248.862682" style="fill: #1f2937; stroke: #1f2937; stroke-width: 0.8"/>
      </g>
     </g>
     <g id="text_7">
      <!-- 8 -->
      <g style="fill: #1f2937" transform="translate(46.175938 252.859557) scale(0.1 -0.1)">
       <defs>
        <path id="MicrosoftYaHei-38" d="M 306 1350 
Q 306 1769 556 2122 
Q 806 2475 1200 2625 
Q 884 2803 700 3081 
Q 516 3359 516 3684 
Q 516 4028 692 4312 
Q 869 4597 1183 4759 
Q 1497 4922 1875 4922 
Q 2256 4922 2572 4761 
Q 2888 4600 3063 4315 
Q 3238 4031 3238 3684 
Q 3238 3366 3058 3086 
Q 2878 2806 2559 2625 
Q 2953 2472 3200 2119 
Q 3447 1766 3447 1350 
Q 3447 938 3250 611 
Q 3053 284 2690 103 
Q 2328 -78 1875 -78 
Q 1425 -78 1065 103 
Q 706 284 506 612 
Q 306 941 306 1350 
z
M 906 1378 
Q 906 947 1172 687 
Q 1438 428 1878 428 
Q 2309 428 2582 692 
Q 2856 956 2856 1378 
Q 2856 1778 2579 2051 
Q 2303 2325 1878 2325 
Q 1456 2325 1181 2058 
Q 906 1791 906 1378 
z
M 1081 3634 
Q 1081 3309 1312 3076 
Q 1544 2844 1878 2844 
Q 2206 2844 2445 3078 
Q 2684 3313 2684 3634 
Q 2684 3963 2454 4191 
Q 2225 4419 1878 4419 
Q 1534 4419 1307 4195 
Q 1081 3972 1081 3634 
z
" transform="scale(0.015625)"/>
       </defs>
       <use xlink:href="#MicrosoftYaHei-38"/>
      </g>
     </g>
    </g>
    <g id="ytick_6">
     <g id="line2d_13">
      <path d="M 59.04 203.625384 
L 833.184 203.625384 
" clip-path="url(#p498b749675)" style="fill: none; stroke: #e2e8f0; stroke-opacity: 0.9; stroke-width: 0.9; stroke-linecap: square"/>
     </g>
     <g id="line2d_14">
      <g>
       <use xlink:href="#m65ba2211d4" x="59.04" y="203.625384" style="fill: #1f2937; stroke: #1f2937; stroke-width: 0.8"/>
      </g>
     </g>
     <g id="text_8">
      <!-- 10 -->
      <g style="fill: #1f2937" transform="translate(40.311875 207.622259) scale(0.1 -0.1)">
       <use xlink:href="#MicrosoftYaHei-31"/>
       <use xlink:href="#MicrosoftYaHei-30" transform="translate(58.642578 0)"/>
      </g>
     </g>
    </g>
    <g id="ytick_7">
     <g id="line2d_15">
      <path d="M 59.04 158.388085 
L 833.184 158.388085 
" clip-path="url(#p498b749675)" style="fill: none; stroke: #e2e8f0; stroke-opacity: 0.9; stroke-width: 0.9; stroke-linecap: square"/>
     </g>
     <g id="line2d_16">
      <g>
       <use xlink:href="#m65ba2211d4" x="59.04" y="158.388085" style="fill: #1f2937; stroke: #1f2937; stroke-width: 0.8"/>
      </g>
     </g>
     <g id="text_9">
      <!-- 12 -->
      <g style="fill: #1f2937" transform="translate(40.311875 162.38496) scale(0.1 -0.1)">
       <use xlink:href="#MicrosoftYaHei-31"/>
       <use xlink:href="#MicrosoftYaHei-32" transform="translate(58.642578 0)"/>
      </g>
     </g>
    </g>
    <g id="ytick_8">
     <g id="line2d_17">
      <path d="M 59.04 113.150787 
L 833.184 113.150787 
" clip-path="url(#p498b749675)" style="fill: none; stroke: #e2e8f0; stroke-opacity: 0.9; stroke-width: 0.9; stroke-linecap: square"/>
     </g>
     <g id="line2d_18">
      <g>
       <use xlink:href="#m65ba2211d4" x="59.04" y="113.150787" style="fill: #1f2937; stroke: #1f2937; stroke-width: 0.8"/>
      </g>
     </g>
     <g id="text_10">
      <!-- 14 -->
      <g style="fill: #1f2937" transform="translate(40.311875 117.147662) scale(0.1 -0.1)">
       <use xlink:href="#MicrosoftYaHei-31"/>
       <use xlink:href="#MicrosoftYaHei-34" transform="translate(58.642578 0)"/>
      </g>
     </g>
    </g>
    <g id="text_11">
     <!-- 端到端耗时 (s) -->
     <g style="fill: #64748b" transform="translate(33.825938 296.059031) rotate(-90) scale(0.1 -0.1)">
      <defs>
       <path id="MicrosoftYaHei-7aef" d="M 2263 2953 
L 6306 2953 
L 6306 2547 
L 4431 2547 
L 4259 1866 
L 6013 1866 
L 6013 -209 
Q 6013 -747 5538 -747 
Q 5375 -747 5081 -741 
Q 5038 -484 4956 -278 
Q 5169 -297 5388 -297 
Q 5575 -297 5575 -103 
L 5575 1478 
L 4931 1478 
L 4931 -484 
L 4513 -484 
L 4513 1478 
L 3894 1478 
L 3894 -447 
L 3475 -447 
L 3475 1478 
L 2850 1478 
L 2850 -803 
L 2413 -803 
L 2413 1866 
L 3806 1866 
L 3950 2547 
L 2263 2547 
L 2263 2953 
z
M 5406 3359 
L 5406 3553 
L 2581 3553 
L 2581 4959 
L 3019 4959 
L 3019 3941 
L 3988 3941 
L 3988 5353 
L 4438 5353 
L 4438 3941 
L 5406 3941 
L 5406 4959 
L 5844 4959 
L 5844 3359 
L 5406 3359 
z
M 2088 3178 
Q 1969 2256 1644 584 
Q 1966 653 2238 722 
Q 2231 478 2244 278 
Q 1538 103 181 -172 
L 88 297 
Q 716 400 1231 500 
Q 1538 2378 1644 3259 
L 2088 3178 
z
M 238 3091 
L 663 3184 
Q 869 2291 1075 991 
L 644 878 
Q 475 2128 238 3091 
z
M 156 4072 
L 2300 4072 
L 2300 3666 
L 156 3666 
L 156 4072 
z
M 669 5091 
L 1050 5316 
Q 1419 4859 1681 4378 
L 1269 4128 
Q 1044 4566 669 5091 
z
" transform="scale(0.015625)"/>
       <path id="MicrosoftYaHei-5230" d="M 2856 4122 
Q 3356 3384 3794 2584 
Q 3556 2472 3313 2334 
Q 3203 2566 3088 2791 
Q 1741 2659 531 2534 
L 306 3053 
Q 669 3247 931 3672 
Q 1172 4034 1403 4484 
L 238 4484 
L 238 4947 
L 3825 4947 
L 3825 4484 
L 1994 4484 
Q 1528 3694 1050 3047 
Q 1941 3113 2863 3209 
Q 2656 3569 2431 3909 
L 2856 4122 
z
M 281 1734 
L 1750 1734 
L 1750 2509 
L 2250 2509 
L 2250 1734 
L 3681 1734 
L 3681 1272 
L 2250 1272 
L 2250 172 
Q 2988 266 3769 372 
Q 3769 153 3794 -116 
Q 2025 -334 238 -597 
L 94 -72 
Q 891 9 1750 113 
L 1750 1272 
L 281 1272 
L 281 1734 
z
M 5519 5322 
L 6038 5322 
L 6038 34 
Q 6038 -747 5281 -747 
Q 5025 -747 4369 -741 
Q 4331 -484 4275 -178 
Q 4825 -228 5125 -228 
Q 5519 -234 5519 178 
L 5519 5322 
z
M 4163 4647 
L 4669 4647 
L 4669 666 
L 4163 666 
L 4163 4647 
z
" transform="scale(0.015625)"/>
       <path id="MicrosoftYaHei-8017" d="M 2506 1622 
L 3913 1753 
L 3913 2878 
L 2738 2772 
L 2706 3197 
L 3913 3303 
L 3913 4459 
Q 3381 4403 2794 4353 
Q 2769 4584 2700 4809 
Q 4225 4916 5706 5172 
L 5819 4697 
Q 5188 4603 4381 4509 
L 4381 3347 
L 5825 3478 
L 5850 3053 
L 4381 2916 
L 4381 1797 
L 6150 1966 
L 6175 1541 
L 4381 1366 
L 4381 128 
Q 4381 -241 4706 -241 
L 5400 -241 
Q 5688 -241 5750 147 
Q 5813 566 5844 991 
Q 6094 866 6319 791 
Q 6250 291 6194 -28 
Q 6094 -691 5456 -691 
L 4588 -691 
Q 3913 -691 3913 72 
L 3913 1322 
L 2538 1197 
L 2506 1622 
z
M 88 191 
Q 769 1072 1088 2022 
L 138 2022 
L 138 2422 
L 1250 2422 
L 1250 3028 
L 363 3028 
L 363 3428 
L 1250 3428 
L 1250 4016 
L 231 4016 
L 231 4416 
L 1250 4416 
L 1250 5303 
L 1675 5303 
L 1675 4416 
L 2631 4416 
L 2631 4016 
L 1675 4016 
L 1675 3428 
L 2519 3428 
L 2519 3028 
L 1675 3028 
L 1675 2422 
L 2700 2422 
L 2700 2022 
L 1675 2022 
L 1675 1334 
L 1894 1547 
Q 2381 1078 2806 622 
L 2463 316 
Q 2125 747 1675 1203 
L 1675 -841 
L 1250 -841 
L 1250 1491 
Q 869 434 281 -297 
Q 188 -16 88 191 
z
" transform="scale(0.015625)"/>
       <path id="MicrosoftYaHei-65f6" d="M 344 4728 
L 2500 4728 
L 2500 -366 
L 2006 -366 
L 2006 153 
L 838 153 
L 838 -441 
L 344 -441 
L 344 4728 
z
M 2706 3941 
L 4925 3941 
L 4925 5322 
L 5425 5322 
L 5425 3941 
L 6313 3941 
L 6313 3478 
L 5425 3478 
L 5425 116 
Q 5425 -722 4625 -722 
Q 4263 -722 3563 -703 
Q 3531 -478 3463 -178 
Q 4119 -228 4488 -228 
Q 4925 -228 4925 216 
L 4925 3478 
L 2706 3478 
L 2706 3941 
z
M 838 616 
L 2006 616 
L 2006 2234 
L 838 2234 
L 838 616 
z
M 2006 4266 
L 838 4266 
L 838 2684 
L 2006 2684 
L 2006 4266 
z
M 3406 2878 
Q 3906 1966 4163 1422 
Q 4000 1347 3663 1172 
Q 3419 1766 2963 2653 
L 3406 2878 
z
" transform="scale(0.015625)"/>
       <path id="MicrosoftYaHei-28" d="M 1531 -1100 
Q 478 100 478 1847 
Q 478 3594 1531 4841 
L 2072 4841 
Q 1016 3544 1016 1853 
Q 1016 166 2066 -1100 
L 1531 -1100 
z
" transform="scale(0.015625)"/>
       <path id="MicrosoftYaHei-29" d="M 78 -1100 
Q 1131 163 1131 1853 
Q 1131 3547 72 4841 
L 616 4841 
Q 1672 3603 1672 1847 
Q 1672 91 616 -1100 
L 78 -1100 
z
" transform="scale(0.015625)"/>
      </defs>
      <use xlink:href="#MicrosoftYaHei-7aef"/>
      <use xlink:href="#MicrosoftYaHei-5230" transform="translate(100 0)"/>
      <use xlink:href="#MicrosoftYaHei-7aef" transform="translate(200 0)"/>
      <use xlink:href="#MicrosoftYaHei-8017" transform="translate(300 0)"/>
      <use xlink:href="#MicrosoftYaHei-65f6" transform="translate(400 0)"/>
      <use xlink:href="#MicrosoftYaHei-20" transform="translate(500 0)"/>
      <use xlink:href="#MicrosoftYaHei-28" transform="translate(529.589844 0)"/>
      <use xlink:href="#MicrosoftYaHei-73" transform="translate(562.988281 0)"/>
      <use xlink:href="#MicrosoftYaHei-29" transform="translate(609.277344 0)"/>
     </g>
    </g>
   </g>
   <g id="patch_3">
    <path d="M 94.228364 429.811875 
L 322.477209 429.811875 
L 322.477209 409.718168 
L 94.228364 409.718168 
z
" clip-path="url(#p498b749675)" style="fill: #2563eb"/>
   </g>
   <g id="patch_4">
    <path d="M 569.746791 429.811875 
L 797.995636 429.811875 
L 797.995636 160.07529 
L 569.746791 160.07529 
z
" clip-path="url(#p498b749675)" style="fill: #f97316"/>
   </g>
   <g id="patch_5">
    <path d="M 59.04 429.811875 
L 59.04 98.035875 
" style="fill: none; stroke: #e2e8f0; stroke-width: 0.8; stroke-linejoin: miter; stroke-linecap: square"/>
   </g>
   <g id="patch_6">
    <path d="M 59.04 429.811875 
L 833.184 429.811875 
" style="fill: none; stroke: #e2e8f0; stroke-width: 0.8; stroke-linejoin: miter; stroke-linecap: square"/>
   </g>
   <g id="text_12">
    <!-- 0.89s -->
    <g style="fill: #1f2937" transform="translate(191.261849 399.743035) scale(0.13 -0.13)">
     <defs>
      <path id="MicrosoftYaHei-Bold-30" d="M 244 2341 
Q 244 3597 706 4259 
Q 1169 4922 2044 4922 
Q 3713 4922 3713 2453 
Q 3713 1238 3259 577 
Q 2806 -84 1950 -84 
Q 244 -84 244 2341 
z
M 1266 2366 
Q 1266 691 1981 691 
Q 2684 691 2684 2416 
Q 2684 4147 2000 4147 
Q 1266 4147 1266 2366 
z
" transform="scale(0.015625)"/>
      <path id="MicrosoftYaHei-Bold-2e" d="M 313 453 
Q 313 688 491 838 
Q 669 988 916 988 
Q 1166 988 1337 834 
Q 1509 681 1509 453 
Q 1509 213 1337 64 
Q 1166 -84 903 -84 
Q 659 -84 486 69 
Q 313 222 313 453 
z
" transform="scale(0.015625)"/>
      <path id="MicrosoftYaHei-Bold-38" d="M 269 1303 
Q 269 1725 512 2053 
Q 756 2381 1219 2534 
Q 850 2719 648 3003 
Q 447 3288 447 3634 
Q 447 3997 645 4292 
Q 844 4588 1200 4755 
Q 1556 4922 1997 4922 
Q 2441 4922 2800 4758 
Q 3159 4594 3359 4298 
Q 3559 4003 3559 3647 
Q 3559 3309 3339 3018 
Q 3119 2728 2747 2559 
Q 3200 2403 3453 2076 
Q 3706 1750 3706 1313 
Q 3706 697 3228 309 
Q 2750 -78 1988 -78 
Q 1225 -78 747 309 
Q 269 697 269 1303 
z
M 1278 1394 
Q 1278 1056 1472 853 
Q 1666 650 1991 650 
Q 2303 650 2503 853 
Q 2703 1056 2703 1394 
Q 2703 1709 2500 1920 
Q 2297 2131 1991 2131 
Q 1675 2131 1476 1920 
Q 1278 1709 1278 1394 
z
M 1428 3531 
Q 1428 3266 1592 3077 
Q 1756 2888 2006 2888 
Q 2247 2888 2415 3072 
Q 2584 3256 2584 3531 
Q 2584 3806 2420 3997 
Q 2256 4188 2006 4188 
Q 1750 4188 1589 3997 
Q 1428 3806 1428 3531 
z
" transform="scale(0.015625)"/>
      <path id="MicrosoftYaHei-Bold-39" d="M 544 941 
Q 931 691 1456 691 
Q 2628 691 2653 2216 
L 2634 2222 
Q 2316 1731 1650 1731 
Q 1047 1731 658 2154 
Q 269 2578 269 3222 
Q 269 3978 737 4450 
Q 1206 4922 1959 4922 
Q 2744 4922 3191 4325 
Q 3638 3728 3638 2659 
Q 3638 1391 3098 653 
Q 2559 -84 1547 -84 
Q 975 -84 544 100 
L 544 941 
z
M 1259 3313 
Q 1259 2928 1445 2709 
Q 1631 2491 1953 2491 
Q 2241 2491 2427 2700 
Q 2613 2909 2613 3219 
Q 2613 3591 2427 3869 
Q 2241 4147 1928 4147 
Q 1625 4147 1442 3906 
Q 1259 3666 1259 3313 
z
" transform="scale(0.015625)"/>
      <path id="MicrosoftYaHei-Bold-73" d="M 369 928 
Q 888 613 1384 613 
Q 2009 613 2009 947 
Q 2009 1184 1494 1344 
Q 850 1544 609 1789 
Q 369 2034 369 2453 
Q 369 2963 781 3252 
Q 1194 3541 1863 3541 
Q 2338 3541 2778 3400 
L 2778 2606 
Q 2375 2844 1891 2844 
Q 1650 2844 1503 2758 
Q 1356 2672 1356 2531 
Q 1356 2294 1794 2147 
Q 2263 1991 2498 1862 
Q 2734 1734 2857 1525 
Q 2981 1316 2981 1041 
Q 2981 506 2553 211 
Q 2125 -84 1409 -84 
Q 847 -84 369 94 
L 369 928 
z
" transform="scale(0.015625)"/>
     </defs>
     <use xlink:href="#MicrosoftYaHei-Bold-30"/>
     <use xlink:href="#MicrosoftYaHei-Bold-2e" transform="translate(61.669922 0)"/>
     <use xlink:href="#MicrosoftYaHei-Bold-38" transform="translate(90.234375 0)"/>
     <use xlink:href="#MicrosoftYaHei-Bold-39" transform="translate(151.904297 0)"/>
     <use xlink:href="#MicrosoftYaHei-Bold-73" transform="translate(213.574219 0)"/>
    </g>
   </g>
   <g id="text_13">
    <!-- 11.93s -->
    <g style="fill: #1f2937" transform="translate(662.771604 150.100156) scale(0.13 -0.13)">
     <defs>
      <path id="MicrosoftYaHei-Bold-31" d="M 2716 4947 
L 2716 0 
L 1700 0 
L 1700 3809 
Q 1513 3647 1188 3517 
Q 863 3388 591 3356 
L 591 4222 
Q 1447 4472 2072 4947 
L 2716 4947 
z
" transform="scale(0.015625)"/>
      <path id="MicrosoftYaHei-Bold-33" d="M 494 1053 
Q 978 691 1625 691 
Q 2034 691 2275 872 
Q 2516 1053 2516 1388 
Q 2516 1731 2230 1912 
Q 1944 2094 1428 2094 
L 997 2094 
L 997 2872 
L 1394 2872 
Q 2369 2872 2369 3528 
Q 2369 4147 1622 4147 
Q 1134 4147 675 3828 
L 675 4663 
Q 1175 4922 1853 4922 
Q 2541 4922 2969 4605 
Q 3397 4288 3397 3725 
Q 3397 2775 2434 2531 
L 2434 2516 
Q 2941 2459 3244 2145 
Q 3547 1831 3547 1381 
Q 3547 691 3042 303 
Q 2538 -84 1697 -84 
Q 950 -84 494 163 
L 494 1053 
z
" transform="scale(0.015625)"/>
     </defs>
     <use xlink:href="#MicrosoftYaHei-Bold-31"/>
     <use xlink:href="#MicrosoftYaHei-Bold-31" transform="translate(61.669922 0)"/>
     <use xlink:href="#MicrosoftYaHei-Bold-2e" transform="translate(123.339844 0)"/>
     <use xlink:href="#MicrosoftYaHei-Bold-39" transform="translate(151.904297 0)"/>
     <use xlink:href="#MicrosoftYaHei-Bold-33" transform="translate(213.574219 0)"/>
     <use xlink:href="#MicrosoftYaHei-Bold-73" transform="translate(275.244141 0)"/>
    </g>
   </g>
   <g id="patch_7">
    <path d="M 516.201268 195.819384 
Q 599.057638 178.155957 680.273812 160.842188 
" style="fill: none; stroke: #64748b; stroke-width: 1.5; stroke-linecap: round"/>
    <path d="M 674.646001 159.383508 
L 680.273812 160.842188 
L 675.730182 164.469229 
" style="fill: none; stroke: #64748b; stroke-width: 1.5; stroke-linecap: round"/>
   </g>
   <g id="text_14">
    <!-- 13.4x slower -->
    <g style="fill: #1f2937" transform="translate(431.846447 208.627875) scale(0.13 -0.13)">
     <defs>
      <path id="MicrosoftYaHei-Bold-34" d="M 3184 4841 
L 3184 1766 
L 3869 1766 
L 3869 1031 
L 3184 1031 
L 3184 0 
L 2266 0 
L 2266 1031 
L 103 1031 
L 103 1772 
Q 775 2522 1362 3359 
Q 1950 4197 2250 4841 
L 3184 4841 
z
M 997 1766 
L 2266 1766 
L 2266 3541 
Q 2116 3259 1836 2859 
Q 1556 2459 997 1766 
z
" transform="scale(0.015625)"/>
      <path id="MicrosoftYaHei-Bold-78" d="M 3706 3456 
L 2563 1772 
L 3697 0 
L 2531 0 
L 2016 953 
Q 1909 1150 1869 1263 
L 1856 1263 
Q 1800 1113 1716 963 
L 1191 0 
L 31 0 
L 1200 1719 
L 100 3456 
L 1269 3456 
L 1781 2463 
Q 1856 2319 1922 2144 
L 1934 2144 
Q 1966 2250 2078 2466 
L 2606 3456 
L 3706 3456 
z
" transform="scale(0.015625)"/>
      <path id="MicrosoftYaHei-Bold-20" transform="scale(0.015625)"/>
      <path id="MicrosoftYaHei-Bold-6c" d="M 444 0 
L 444 5116 
L 1450 5116 
L 1450 0 
L 444 0 
z
" transform="scale(0.015625)"/>
      <path id="MicrosoftYaHei-Bold-6f" d="M 253 1713 
Q 253 2566 764 3053 
Q 1275 3541 2138 3541 
Q 2972 3541 3462 3061 
Q 3953 2581 3953 1772 
Q 3953 922 3450 419 
Q 2947 -84 2088 -84 
Q 1244 -84 748 398 
Q 253 881 253 1713 
z
M 1275 1725 
Q 1275 691 2119 691 
Q 2928 691 2928 1753 
Q 2928 2766 2113 2766 
Q 1716 2766 1495 2494 
Q 1275 2222 1275 1725 
z
" transform="scale(0.015625)"/>
      <path id="MicrosoftYaHei-Bold-77" d="M 5391 3456 
L 4391 0 
L 3331 0 
L 2800 2075 
Q 2747 2284 2744 2503 
L 2722 2503 
Q 2700 2256 2656 2088 
L 2084 0 
L 1038 0 
L 53 3456 
L 1084 3456 
L 1588 1163 
Q 1619 1025 1638 784 
L 1659 784 
Q 1675 1016 1719 1175 
L 2338 3456 
L 3294 3456 
L 3847 1159 
Q 3869 1066 3894 778 
L 3919 778 
Q 3928 944 3972 1159 
L 4453 3456 
L 5391 3456 
z
" transform="scale(0.015625)"/>
      <path id="MicrosoftYaHei-Bold-65" d="M 3528 1444 
L 1253 1444 
Q 1306 641 2222 641 
Q 2794 641 3231 922 
L 3231 181 
Q 2759 -84 1994 -84 
Q 1169 -84 711 381 
Q 253 847 253 1678 
Q 253 2506 740 3023 
Q 1228 3541 1966 3541 
Q 2700 3541 3114 3095 
Q 3528 2650 3528 1872 
L 3528 1444 
z
M 2588 2075 
Q 2588 2850 1959 2850 
Q 1700 2850 1500 2637 
Q 1300 2425 1250 2075 
L 2588 2075 
z
" transform="scale(0.015625)"/>
      <path id="MicrosoftYaHei-Bold-72" d="M 2663 2541 
Q 2478 2647 2216 2647 
Q 1872 2647 1670 2384 
Q 1469 2122 1469 1663 
L 1469 0 
L 459 0 
L 459 3456 
L 1469 3456 
L 1469 2806 
L 1481 2806 
Q 1731 3516 2391 3516 
Q 2569 3516 2663 3475 
L 2663 2541 
z
" transform="scale(0.015625)"/>
     </defs>
     <use xlink:href="#MicrosoftYaHei-Bold-31"/>
     <use xlink:href="#MicrosoftYaHei-Bold-33" transform="translate(61.669922 0)"/>
     <use xlink:href="#MicrosoftYaHei-Bold-2e" transform="translate(123.339844 0)"/>
     <use xlink:href="#MicrosoftYaHei-Bold-34" transform="translate(151.904297 0)"/>
     <use xlink:href="#MicrosoftYaHei-Bold-78" transform="translate(213.574219 0)"/>
     <use xlink:href="#MicrosoftYaHei-Bold-20" transform="translate(272.070312 0)"/>
     <use xlink:href="#MicrosoftYaHei-Bold-73" transform="translate(301.855469 0)"/>
     <use xlink:href="#MicrosoftYaHei-Bold-6c" transform="translate(351.220703 0)"/>
     <use xlink:href="#MicrosoftYaHei-Bold-6f" transform="translate(380.810547 0)"/>
     <use xlink:href="#MicrosoftYaHei-Bold-77" transform="translate(446.533203 0)"/>
     <use xlink:href="#MicrosoftYaHei-Bold-65" transform="translate(531.189453 0)"/>
     <use xlink:href="#MicrosoftYaHei-Bold-72" transform="translate(589.392578 0)"/>
    </g>
   </g>
  </g>
  <g id="text_15">
   <!-- 调用粒度决定 GPU-backed AI_EMBED 的端到端耗时 -->
   <g style="fill: #1f2937" transform="translate(12.96 28.051875) scale(0.18 -0.18)">
    <defs>
     <path id="MicrosoftYaHei-Bold-8c03" d="M 5225 4341 
L 2644 4341 
L 2644 2078 
Q 2644 184 2088 -884 
Q 1706 -622 1225 -366 
Q 1856 484 1856 1997 
L 1856 5078 
L 6013 5078 
L 6013 84 
Q 6013 -753 5281 -791 
Q 4988 -816 4400 -816 
Q 4313 -384 4213 16 
Q 4631 -16 4900 -9 
Q 5225 -9 5225 303 
L 5225 4341 
z
M 2894 -41 
L 2894 1978 
L 4931 1978 
L 4931 266 
L 3581 266 
L 3581 -41 
L 2894 -41 
z
M 1663 1853 
Q 1656 1372 1738 891 
Q 1369 553 769 -147 
L 325 459 
Q 481 641 488 991 
L 488 2641 
L 100 2641 
L 100 3453 
L 1281 3453 
L 1281 1441 
Q 1406 1578 1663 1853 
z
M 2775 2891 
L 3550 2891 
L 3550 3253 
L 2881 3253 
L 2881 3841 
L 3550 3841 
L 3550 4228 
L 4313 4228 
L 4313 3841 
L 4994 3841 
L 4994 3253 
L 4313 3253 
L 4313 2891 
L 5094 2891 
L 5094 2303 
L 2775 2303 
L 2775 2891 
z
M 938 5247 
Q 1375 4684 1694 4172 
Q 1394 3991 963 3734 
Q 644 4334 263 4853 
L 938 5247 
z
M 4244 1391 
L 3581 1391 
L 3581 853 
L 4244 853 
L 4244 1391 
z
" transform="scale(0.015625)"/>
     <path id="MicrosoftYaHei-Bold-7528" d="M 5925 134 
Q 5925 -263 5744 -480 
Q 5563 -697 5189 -736 
Q 4816 -775 4206 -766 
Q 4100 -284 3956 141 
Q 4600 103 4656 103 
Q 5050 103 5050 484 
L 5050 1053 
L 3750 1053 
L 3750 -697 
L 2869 -697 
L 2869 1053 
L 1516 1053 
Q 1419 -325 988 -872 
Q 588 -584 181 -347 
Q 688 341 669 2097 
L 669 5041 
L 5925 5041 
L 5925 134 
z
M 1544 3441 
L 2869 3441 
L 2869 4216 
L 1544 4216 
L 1544 3441 
z
M 5050 4216 
L 3750 4216 
L 3750 3441 
L 5050 3441 
L 5050 4216 
z
M 1544 1859 
L 2869 1859 
L 2869 2634 
L 1544 2634 
L 1544 1859 
z
M 3750 1859 
L 5050 1859 
L 5050 2634 
L 3750 2634 
L 3750 1859 
z
" transform="scale(0.015625)"/>
     <path id="MicrosoftYaHei-Bold-7c92" d="M 2350 4841 
L 2900 4659 
Q 2838 4472 2775 4297 
L 4022 4297 
Q 3878 4700 3713 5122 
L 4563 5366 
Q 4775 4928 4969 4447 
L 4425 4297 
L 6119 4297 
L 6119 3509 
L 2750 3509 
L 2750 4222 
Q 2578 3747 2406 3341 
L 1881 3566 
Q 2156 4191 2350 4841 
z
M 100 3141 
L 1050 3141 
L 1050 5334 
L 1850 5334 
L 1850 3141 
L 2775 3141 
L 2775 2397 
L 1850 2397 
L 1850 1950 
L 2169 2153 
Q 2500 1772 2881 1222 
L 2250 797 
Q 2044 1131 1850 1416 
L 1850 -822 
L 1050 -822 
L 1050 1081 
Q 756 447 363 -72 
Q 238 441 81 928 
Q 581 1566 944 2397 
L 100 2397 
L 100 3141 
z
M 650 4822 
Q 844 4178 988 3522 
L 425 3372 
Q 300 3991 125 4678 
L 650 4822 
z
M 2450 203 
L 4422 203 
Q 4809 1528 5131 3209 
L 6025 3003 
L 5238 203 
L 6319 203 
L 6319 -584 
L 2450 -584 
L 2450 203 
z
M 3600 3166 
Q 3969 1953 4275 734 
L 3444 509 
Q 3169 1791 2838 2941 
L 3600 3166 
z
" transform="scale(0.015625)"/>
     <path id="MicrosoftYaHei-Bold-5ea6" d="M 5656 1697 
L 5656 1022 
Q 5156 447 4656 97 
Q 5344 -34 6306 -66 
Q 6119 -428 5938 -822 
Q 4556 -653 3719 -353 
Q 2825 -653 1494 -872 
Q 1338 -522 1088 -178 
Q 2100 -128 2888 78 
Q 2369 453 1938 1022 
L 1538 1022 
L 1538 1697 
L 5656 1697 
z
M 1325 2478 
Q 1338 134 700 -884 
Q 356 -553 19 -297 
Q 550 697 525 2591 
L 525 4772 
L 3013 4772 
Q 2944 4953 2831 5209 
L 3869 5359 
Q 3981 5072 4094 4772 
L 6256 4772 
L 6256 4072 
L 1325 4072 
L 1325 2478 
z
M 1463 3684 
L 2144 3684 
L 2144 3947 
L 2944 3947 
L 2944 3684 
L 4494 3684 
L 4494 3947 
L 5294 3947 
L 5294 3684 
L 6144 3684 
L 6144 3009 
L 5294 3009 
L 5294 1991 
L 2144 1991 
L 2144 3009 
L 1463 3009 
L 1463 3684 
z
M 3756 378 
Q 4325 641 4725 1022 
L 2825 1022 
Q 3225 622 3756 378 
z
M 4494 2628 
L 4494 3009 
L 2944 3009 
L 2944 2628 
L 4494 2628 
z
" transform="scale(0.015625)"/>
     <path id="MicrosoftYaHei-Bold-51b3" d="M 1775 2341 
L 2981 2341 
Q 3019 2878 3047 3541 
L 1950 3541 
L 1950 4366 
L 3072 4366 
L 3088 5309 
L 3944 5309 
Q 3941 4828 3928 4366 
L 5738 4366 
L 5738 2341 
L 6238 2341 
L 6238 1516 
L 4078 1516 
Q 4703 356 6163 -16 
Q 5900 -434 5669 -853 
Q 4175 -353 3472 1066 
Q 3084 19 1725 -884 
Q 1488 -491 1156 -91 
Q 2356 466 2778 1516 
L 1775 1516 
L 1775 2341 
z
M 4913 3541 
L 3900 3541 
Q 3875 2928 3838 2341 
L 4913 2341 
L 4913 3541 
z
M 681 5028 
Q 1275 4434 1775 3834 
L 1075 3234 
Q 569 3922 69 4491 
L 681 5028 
z
M 931 2572 
Q 1244 2403 1688 2197 
L 806 -509 
Q 469 -303 69 -78 
Q 506 1103 931 2572 
z
" transform="scale(0.015625)"/>
     <path id="MicrosoftYaHei-Bold-5b9a" d="M 2581 5128 
L 3538 5353 
Q 3666 5028 3806 4634 
L 6063 4634 
L 6063 3403 
L 5200 3403 
L 5200 3872 
L 1225 3872 
L 1225 3403 
L 363 3403 
L 363 4634 
L 2772 4634 
L 2581 5128 
z
M 5831 1741 
L 5831 972 
L 3744 972 
L 3744 125 
Q 4766 103 6313 147 
Q 6138 -372 6044 -697 
Q 3819 -697 2809 -630 
Q 1800 -563 1388 219 
Q 1069 -425 613 -859 
Q 331 -441 94 -134 
Q 875 659 1094 2122 
L 1931 2022 
Q 1850 1541 1728 1122 
Q 2047 300 2850 175 
L 2850 2416 
L 263 2416 
L 263 3184 
L 6156 3184 
L 6156 2416 
L 3744 2416 
L 3744 1741 
L 5831 1741 
z
" transform="scale(0.015625)"/>
     <path id="MicrosoftYaHei-Bold-47" d="M 4494 325 
Q 3784 -84 2750 -84 
Q 1594 -84 925 566 
Q 256 1216 256 2344 
Q 256 3488 992 4205 
Q 1728 4922 2931 4922 
Q 3706 4922 4284 4703 
L 4284 3725 
Q 3722 4053 2909 4053 
Q 2209 4053 1775 3597 
Q 1341 3141 1341 2394 
Q 1341 1634 1733 1209 
Q 2125 784 2803 784 
Q 3206 784 3463 909 
L 3463 1903 
L 2484 1903 
L 2484 2731 
L 4494 2731 
L 4494 325 
z
" transform="scale(0.015625)"/>
     <path id="MicrosoftYaHei-Bold-50" d="M 1591 1688 
L 1591 0 
L 559 0 
L 559 4841 
L 2225 4841 
Q 4031 4841 4031 3309 
Q 4031 2566 3486 2117 
Q 2941 1669 2122 1688 
L 1591 1688 
z
M 1591 4041 
L 1591 2478 
L 2038 2478 
Q 2947 2478 2947 3269 
Q 2947 4041 2047 4041 
L 1591 4041 
z
" transform="scale(0.015625)"/>
     <path id="MicrosoftYaHei-Bold-55" d="M 4466 2081 
Q 4466 -84 2453 -84 
Q 509 -84 509 2025 
L 509 4841 
L 1544 4841 
L 1544 2019 
Q 1544 809 2497 809 
Q 3434 809 3434 1975 
L 3434 4841 
L 4466 4841 
L 4466 2081 
z
" transform="scale(0.015625)"/>
     <path id="MicrosoftYaHei-Bold-2d" d="M 2328 1497 
L 481 1497 
L 481 2209 
L 2328 2209 
L 2328 1497 
z
" transform="scale(0.015625)"/>
     <path id="MicrosoftYaHei-Bold-62" d="M 1469 416 
L 1469 0 
L 459 0 
L 459 5116 
L 1469 5116 
L 1469 2928 
L 1481 2928 
Q 1878 3541 2613 3541 
Q 3266 3541 3636 3084 
Q 4006 2628 4006 1825 
Q 4006 966 3581 441 
Q 3156 -84 2453 -84 
Q 1809 -84 1481 416 
L 1469 416 
z
M 1453 1494 
Q 1453 1153 1656 922 
Q 1859 691 2172 691 
Q 2550 691 2761 984 
Q 2972 1278 2972 1816 
Q 2972 2263 2780 2514 
Q 2588 2766 2231 2766 
Q 1894 2766 1673 2512 
Q 1453 2259 1453 1863 
L 1453 1494 
z
" transform="scale(0.015625)"/>
     <path id="MicrosoftYaHei-Bold-61" d="M 544 3247 
Q 778 3378 1170 3459 
Q 1563 3541 1841 3541 
Q 3291 3541 3291 2088 
L 3291 0 
L 2331 0 
L 2331 503 
L 2319 503 
Q 1966 -84 1284 -84 
Q 794 -84 498 195 
Q 203 475 203 956 
Q 203 1950 1388 2113 
L 2338 2241 
Q 2338 2844 1709 2844 
Q 1091 2844 544 2469 
L 544 3247 
z
M 1684 1566 
Q 1138 1494 1138 1072 
Q 1138 878 1270 759 
Q 1403 641 1628 641 
Q 1938 641 2138 859 
Q 2338 1078 2338 1403 
L 2338 1650 
L 1684 1566 
z
" transform="scale(0.015625)"/>
     <path id="MicrosoftYaHei-Bold-63" d="M 3050 128 
Q 2688 -84 2019 -84 
Q 1228 -84 740 397 
Q 253 878 253 1644 
Q 253 2525 778 3033 
Q 1303 3541 2178 3541 
Q 2769 3541 3053 3378 
L 3053 2513 
Q 2706 2766 2297 2766 
Q 1834 2766 1554 2484 
Q 1275 2203 1275 1713 
Q 1275 1238 1540 964 
Q 1806 691 2263 691 
Q 2666 691 3050 947 
L 3050 128 
z
" transform="scale(0.015625)"/>
     <path id="MicrosoftYaHei-Bold-6b" d="M 3856 0 
L 2631 0 
L 1481 1709 
L 1469 1709 
L 1469 0 
L 459 0 
L 459 5116 
L 1469 5116 
L 1469 1859 
L 1481 1859 
L 2559 3456 
L 3763 3456 
L 2481 1825 
L 3856 0 
z
" transform="scale(0.015625)"/>
     <path id="MicrosoftYaHei-Bold-64" d="M 3794 0 
L 2788 0 
L 2788 488 
L 2772 488 
Q 2406 -84 1691 -84 
Q 1031 -84 642 381 
Q 253 847 253 1650 
Q 253 2500 689 3020 
Q 1125 3541 1828 3541 
Q 2503 3541 2772 3053 
L 2788 3053 
L 2788 5116 
L 3794 5116 
L 3794 0 
z
M 2803 1956 
Q 2803 2306 2592 2536 
Q 2381 2766 2066 2766 
Q 1697 2766 1486 2473 
Q 1275 2181 1275 1681 
Q 1275 1206 1478 948 
Q 1681 691 2038 691 
Q 2372 691 2587 962 
Q 2803 1234 2803 1669 
L 2803 1956 
z
" transform="scale(0.015625)"/>
     <path id="MicrosoftYaHei-Bold-41" d="M 4759 0 
L 3634 0 
L 3272 1109 
L 1513 1109 
L 1156 0 
L 38 0 
L 1809 4841 
L 3022 4841 
L 4759 0 
z
M 3028 1906 
L 2478 3584 
Q 2425 3744 2403 4006 
L 2375 4006 
Q 2356 3794 2291 3597 
L 1738 1906 
L 3028 1906 
z
" transform="scale(0.015625)"/>
     <path id="MicrosoftYaHei-Bold-49" d="M 1588 4841 
L 1588 0 
L 556 0 
L 556 4841 
L 1588 4841 
z
" transform="scale(0.015625)"/>
     <path id="MicrosoftYaHei-Bold-5f" d="M 2869 -1675 
L 0 -1675 
L 0 -1272 
L 2869 -1272 
L 2869 -1675 
z
" transform="scale(0.015625)"/>
     <path id="MicrosoftYaHei-Bold-45" d="M 3425 0 
L 559 0 
L 559 4841 
L 3313 4841 
L 3313 3997 
L 1591 3997 
L 1591 2856 
L 3191 2856 
L 3191 2016 
L 1591 2016 
L 1591 844 
L 3425 844 
L 3425 0 
z
" transform="scale(0.015625)"/>
     <path id="MicrosoftYaHei-Bold-4d" d="M 4991 0 
L 4991 2938 
Q 4991 3344 5031 3959 
L 5006 3959 
Q 4913 3494 4856 3338 
L 3663 0 
L 2841 0 
L 1631 3306 
Q 1588 3425 1478 3959 
L 1450 3959 
Q 1491 3350 1491 2738 
L 1491 0 
L 559 0 
L 559 4841 
L 2059 4841 
L 3103 1916 
Q 3234 1553 3281 1234 
L 3303 1234 
Q 3400 1631 3503 1922 
L 4550 4841 
L 6009 4841 
L 6009 0 
L 4991 0 
z
" transform="scale(0.015625)"/>
     <path id="MicrosoftYaHei-Bold-42" d="M 559 0 
L 559 4841 
L 2278 4841 
Q 3069 4841 3497 4541 
Q 3925 4241 3925 3709 
Q 3925 3316 3659 3019 
Q 3394 2722 2991 2609 
L 2991 2597 
Q 3497 2534 3808 2221 
Q 4119 1909 4119 1438 
Q 4119 778 3650 389 
Q 3181 0 2369 0 
L 559 0 
z
M 1591 4072 
L 1591 2875 
L 2081 2875 
Q 2434 2875 2637 3044 
Q 2841 3213 2841 3516 
Q 2841 4072 2028 4072 
L 1591 4072 
z
M 1591 2097 
L 1591 769 
L 2203 769 
Q 2594 769 2814 950 
Q 3034 1131 3034 1453 
Q 3034 1759 2815 1928 
Q 2597 2097 2194 2097 
L 1591 2097 
z
" transform="scale(0.015625)"/>
     <path id="MicrosoftYaHei-Bold-44" d="M 559 0 
L 559 4841 
L 2231 4841 
Q 4809 4841 4809 2481 
Q 4809 1359 4087 679 
Q 3366 0 2225 0 
L 559 0 
z
M 1591 3997 
L 1591 844 
L 2153 844 
Q 2888 844 3306 1281 
Q 3725 1719 3725 2466 
Q 3725 3188 3287 3592 
Q 2850 3997 2150 3997 
L 1591 3997 
z
" transform="scale(0.015625)"/>
     <path id="MicrosoftYaHei-Bold-7684" d="M 1250 5303 
L 2181 5159 
L 1900 4309 
L 2963 4309 
L 2963 3091 
Q 3466 3934 3925 5316 
L 4788 5091 
Q 4650 4675 4494 4278 
L 6106 4278 
L 6034 681 
Q 6019 100 5937 -133 
Q 5856 -366 5684 -512 
Q 5513 -659 5205 -712 
Q 4897 -766 3863 -766 
Q 3769 -216 3625 178 
Q 4088 141 4609 141 
Q 4759 141 4868 175 
Q 4978 209 5048 279 
Q 5119 350 5144 437 
Q 5169 525 5184 1206 
L 5213 2484 
Q 5225 3081 5225 3453 
L 4138 3453 
Q 3931 3016 3700 2603 
Q 3403 2797 2963 2988 
L 2963 -734 
L 2094 -734 
L 2094 -284 
L 1206 -284 
L 1206 -772 
L 338 -772 
L 338 4309 
L 997 4309 
Q 1178 4922 1250 5303 
z
M 2094 3491 
L 1206 3491 
L 1206 2422 
L 2094 2422 
L 2094 3491 
z
M 1206 534 
L 2094 534 
L 2094 1603 
L 1206 1603 
L 1206 534 
z
M 3944 2703 
Q 4394 2166 4913 1397 
L 4125 872 
Q 3650 1653 3219 2203 
L 3944 2703 
z
" transform="scale(0.015625)"/>
     <path id="MicrosoftYaHei-Bold-7aef" d="M 2513 3541 
L 2513 4966 
L 3238 4966 
L 3238 4266 
L 3813 4266 
L 3813 5359 
L 4619 5359 
L 4619 4266 
L 5200 4266 
L 5200 4966 
L 5925 4966 
L 5925 3541 
L 2513 3541 
z
M 156 4241 
L 909 4241 
Q 703 4738 538 5059 
L 1275 5353 
Q 1444 5047 1731 4472 
L 1159 4241 
L 2225 4241 
L 2225 3453 
L 156 3453 
L 156 4241 
z
M 1438 3322 
L 2194 3228 
L 1766 728 
L 2194 803 
Q 2169 603 2138 16 
Q 1263 -134 225 -359 
L 88 459 
L 1116 622 
Q 1294 1909 1438 3322 
z
M 838 3297 
L 1163 1034 
L 469 916 
Q 344 2078 163 3184 
L 838 3297 
z
M 2288 3184 
L 6175 3184 
L 6175 2447 
L 4488 2447 
L 4388 2053 
L 6088 2053 
L 6088 -322 
Q 6088 -650 5878 -747 
Q 5669 -844 5384 -844 
Q 5178 -844 4969 -809 
L 4928 -497 
L 4381 -497 
L 4381 1316 
L 4025 1316 
L 4025 -497 
L 3413 -497 
L 3413 1316 
L 3056 1316 
L 3056 -809 
L 2319 -809 
L 2319 2053 
L 3609 2053 
L 3691 2447 
L 2288 2447 
L 2288 3184 
z
M 5350 1316 
L 4994 1316 
L 4994 -116 
Q 5169 -134 5216 -134 
Q 5356 -134 5350 22 
L 5350 1316 
z
" transform="scale(0.015625)"/>
     <path id="MicrosoftYaHei-Bold-5230" d="M 5125 5266 
L 5981 5266 
L 5981 166 
Q 5981 -297 5787 -537 
Q 5594 -778 5136 -800 
Q 4678 -822 4194 -822 
Q 4144 -547 3975 59 
Q 4506 47 4794 47 
Q 5125 47 5125 403 
L 5125 5266 
z
M 169 4984 
L 3625 4984 
L 3625 4222 
L 2063 4222 
Q 1681 3684 1306 3216 
Q 1578 3219 2491 3256 
Q 2303 3556 2175 3747 
L 2806 4097 
Q 3231 3509 3775 2666 
L 3106 2228 
L 2909 2563 
L 1725 2509 
Q 909 2469 765 2448 
Q 622 2428 413 2384 
L 150 3103 
Q 509 3284 1097 4222 
L 169 4222 
L 169 4984 
z
M 3844 4653 
L 4675 4653 
L 4675 659 
L 3844 659 
L 3844 4653 
z
M 313 1728 
L 1500 1728 
L 1500 2347 
L 2331 2347 
L 2331 1728 
L 3425 1728 
L 3425 966 
L 2331 966 
L 2331 328 
L 3613 422 
L 3563 -397 
Q 1650 -522 169 -653 
L 106 197 
L 1500 272 
L 1500 966 
L 313 966 
L 313 1728 
z
" transform="scale(0.015625)"/>
     <path id="MicrosoftYaHei-Bold-8017" d="M 100 2428 
L 1125 2428 
L 1125 2816 
L 275 2816 
L 275 3516 
L 1125 3516 
L 1125 3903 
L 175 3903 
L 175 4603 
L 1125 4603 
L 1125 5297 
L 1931 5297 
L 1931 4603 
L 2625 4603 
L 2625 3903 
L 1931 3903 
L 1931 3516 
L 2538 3516 
L 2538 2816 
L 1931 2816 
L 1931 2428 
L 2713 2428 
L 2713 1822 
L 3706 1897 
L 3706 2606 
L 2819 2541 
L 2775 3322 
L 3706 3394 
L 3706 4103 
Q 3334 4066 2944 4034 
Q 2869 4409 2706 4822 
Q 4169 4891 5800 5141 
L 6044 4391 
Q 5353 4284 4550 4191 
L 4550 3459 
L 5906 3566 
L 5950 2778 
L 4550 2672 
L 4550 1963 
L 6169 2091 
L 6206 1309 
L 4550 1181 
L 4550 322 
Q 4550 34 4844 34 
L 5050 34 
Q 5228 34 5336 153 
Q 5444 272 5488 1116 
Q 6006 897 6325 809 
Q 6200 -281 5884 -492 
Q 5569 -703 5119 -703 
L 4519 -703 
Q 3706 -703 3706 128 
L 3706 1119 
L 2675 1041 
L 2641 1728 
L 1931 1728 
L 1931 1172 
L 2213 1428 
Q 2663 1028 3025 684 
L 2469 147 
Q 2275 381 1931 725 
L 1931 -828 
L 1125 -828 
L 1125 713 
Q 816 103 369 -441 
L 81 491 
Q 634 1066 991 1728 
L 100 1728 
L 100 2428 
z
" transform="scale(0.015625)"/>
     <path id="MicrosoftYaHei-Bold-65f6" d="M 3038 4241 
L 4888 4241 
L 4888 5291 
L 5781 5291 
L 5781 4241 
L 6306 4241 
L 6306 3409 
L 5781 3409 
L 5781 316 
Q 5781 -209 5547 -478 
Q 5313 -747 4898 -762 
Q 4484 -778 3669 -778 
Q 3569 -209 3456 134 
Q 4344 109 4431 109 
Q 4888 109 4888 584 
L 4888 3409 
L 3038 3409 
L 3038 4241 
z
M 394 -497 
L 394 4897 
L 2856 4897 
L 2856 -459 
L 2031 -459 
L 2031 -28 
L 1219 -28 
L 1219 -497 
L 394 -497 
z
M 2031 4072 
L 1219 4072 
L 1219 2834 
L 2031 2834 
L 2031 4072 
z
M 1219 797 
L 2031 797 
L 2031 2034 
L 1219 2034 
L 1219 797 
z
M 3588 3072 
Q 4013 2541 4713 1559 
L 3956 1066 
Q 3388 2009 2938 2641 
L 3588 3072 
z
" transform="scale(0.015625)"/>
    </defs>
    <use xlink:href="#MicrosoftYaHei-Bold-8c03"/>
    <use xlink:href="#MicrosoftYaHei-Bold-7528" transform="translate(100 0)"/>
    <use xlink:href="#MicrosoftYaHei-Bold-7c92" transform="translate(200 0)"/>
    <use xlink:href="#MicrosoftYaHei-Bold-5ea6" transform="translate(300 0)"/>
    <use xlink:href="#MicrosoftYaHei-Bold-51b3" transform="translate(400 0)"/>
    <use xlink:href="#MicrosoftYaHei-Bold-5b9a" transform="translate(500 0)"/>
    <use xlink:href="#MicrosoftYaHei-Bold-20" transform="translate(600 0)"/>
    <use xlink:href="#MicrosoftYaHei-Bold-47" transform="translate(629.785156 0)"/>
    <use xlink:href="#MicrosoftYaHei-Bold-50" transform="translate(706.298828 0)"/>
    <use xlink:href="#MicrosoftYaHei-Bold-55" transform="translate(772.021484 0)"/>
    <use xlink:href="#MicrosoftYaHei-Bold-2d" transform="translate(849.658203 0)"/>
    <use xlink:href="#MicrosoftYaHei-Bold-62" transform="translate(893.310547 0)"/>
    <use xlink:href="#MicrosoftYaHei-Bold-61" transform="translate(958.787109 0)"/>
    <use xlink:href="#MicrosoftYaHei-Bold-63" transform="translate(1016.550781 0)"/>
    <use xlink:href="#MicrosoftYaHei-Bold-6b" transform="translate(1068.210938 0)"/>
    <use xlink:href="#MicrosoftYaHei-Bold-65" transform="translate(1126.330078 0)"/>
    <use xlink:href="#MicrosoftYaHei-Bold-64" transform="translate(1184.533203 0)"/>
    <use xlink:href="#MicrosoftYaHei-Bold-20" transform="translate(1250.988281 0)"/>
    <use xlink:href="#MicrosoftYaHei-Bold-41" transform="translate(1280.773438 0)"/>
    <use xlink:href="#MicrosoftYaHei-Bold-49" transform="translate(1355.96875 0)"/>
    <use xlink:href="#MicrosoftYaHei-Bold-5f" transform="translate(1389.513672 0)"/>
    <use xlink:href="#MicrosoftYaHei-Bold-45" transform="translate(1434.337891 0)"/>
    <use xlink:href="#MicrosoftYaHei-Bold-4d" transform="translate(1491.515625 0)"/>
    <use xlink:href="#MicrosoftYaHei-Bold-42" transform="translate(1594.347656 0)"/>
    <use xlink:href="#MicrosoftYaHei-Bold-45" transform="translate(1662.707031 0)"/>
    <use xlink:href="#MicrosoftYaHei-Bold-44" transform="translate(1719.884766 0)"/>
    <use xlink:href="#MicrosoftYaHei-Bold-20" transform="translate(1799.035156 0)"/>
    <use xlink:href="#MicrosoftYaHei-Bold-7684" transform="translate(1828.820312 0)"/>
    <use xlink:href="#MicrosoftYaHei-Bold-7aef" transform="translate(1928.820312 0)"/>
    <use xlink:href="#MicrosoftYaHei-Bold-5230" transform="translate(2028.820312 0)"/>
    <use xlink:href="#MicrosoftYaHei-Bold-7aef" transform="translate(2128.820312 0)"/>
    <use xlink:href="#MicrosoftYaHei-Bold-8017" transform="translate(2228.820312 0)"/>
    <use xlink:href="#MicrosoftYaHei-Bold-65f6" transform="translate(2328.820312 0)"/>
   </g>
  </g>
  <g id="text_16">
   <!-- PostgreSQL 18.4 本地预演；Ray actor；真实 CUDA embedding endpoint；formal repeats 平均。 -->
   <g style="fill: #64748b" transform="translate(12.96 48.787875) scale(0.11 -0.11)">
    <defs>
     <path id="MicrosoftYaHei-50" d="M 1250 1809 
L 1250 0 
L 625 0 
L 625 4841 
L 2000 4841 
Q 2784 4841 3217 4462 
Q 3650 4084 3650 3381 
Q 3650 2669 3144 2226 
Q 2638 1784 1878 1809 
L 1250 1809 
z
M 1250 4291 
L 1250 2359 
L 1828 2359 
Q 2400 2359 2697 2617 
Q 2994 2875 2994 3356 
Q 2994 4291 1888 4291 
L 1250 4291 
z
" transform="scale(0.015625)"/>
     <path id="MicrosoftYaHei-74" d="M 2206 34 
Q 2006 -75 1666 -75 
Q 738 -75 738 953 
L 738 2950 
L 144 2950 
L 144 3456 
L 738 3456 
L 738 4288 
L 1347 4481 
L 1347 3456 
L 2206 3456 
L 2206 2950 
L 1347 2950 
L 1347 1063 
Q 1347 722 1462 575 
Q 1578 428 1847 428 
Q 2053 428 2206 544 
L 2206 34 
z
" transform="scale(0.015625)"/>
     <path id="MicrosoftYaHei-67" d="M 3547 291 
Q 3547 -1628 1684 -1628 
Q 1041 -1628 566 -1388 
L 566 -797 
Q 1144 -1119 1675 -1119 
Q 2934 -1119 2934 206 
L 2934 572 
L 2922 572 
Q 2528 -81 1747 -81 
Q 1097 -81 706 384 
Q 316 850 316 1619 
Q 316 2503 747 3020 
Q 1178 3538 1897 3538 
Q 2588 3538 2922 2988 
L 2934 2988 
L 2934 3456 
L 3547 3456 
L 3547 291 
z
M 2934 2056 
Q 2938 2456 2666 2743 
Q 2394 3031 1997 3031 
Q 1497 3031 1219 2664 
Q 941 2297 941 1656 
Q 941 1106 1209 765 
Q 1478 425 1922 425 
Q 2369 425 2653 750 
Q 2938 1075 2934 1575 
L 2934 2056 
z
" transform="scale(0.015625)"/>
     <path id="MicrosoftYaHei-72" d="M 2400 2850 
Q 2247 2959 1978 2959 
Q 1622 2959 1390 2626 
Q 1159 2294 1159 1750 
L 1159 0 
L 547 0 
L 547 3456 
L 1159 3456 
L 1159 2753 
L 1172 2753 
Q 1434 3516 2078 3516 
Q 2288 3516 2400 3469 
L 2400 2850 
z
" transform="scale(0.015625)"/>
     <path id="MicrosoftYaHei-53" d="M 400 909 
Q 622 716 994 591 
Q 1366 466 1700 466 
Q 2719 466 2719 1191 
Q 2719 1394 2609 1556 
Q 2500 1719 2309 1844 
Q 2119 1969 1594 2228 
Q 866 2591 634 2902 
Q 403 3213 403 3613 
Q 403 4216 887 4569 
Q 1372 4922 2109 4922 
Q 2831 4922 3169 4747 
L 3169 4066 
Q 2731 4369 2063 4369 
Q 1619 4369 1339 4183 
Q 1059 3997 1059 3666 
Q 1059 3372 1253 3187 
Q 1447 3003 2094 2684 
Q 2806 2344 3090 2003 
Q 3375 1663 3375 1238 
Q 3375 600 2912 259 
Q 2450 -81 1628 -81 
Q 1341 -81 958 -1 
Q 575 78 400 197 
L 400 909 
z
" transform="scale(0.015625)"/>
     <path id="MicrosoftYaHei-51" d="M 313 2363 
Q 313 3534 947 4228 
Q 1581 4922 2666 4922 
Q 3675 4922 4290 4244 
Q 4906 3566 4906 2478 
Q 4906 1300 4275 609 
Q 4125 447 3953 322 
L 5313 -653 
L 4284 -653 
L 3366 28 
Q 3009 -81 2588 -81 
Q 1556 -81 934 597 
Q 313 1275 313 2363 
z
M 969 2413 
Q 969 1534 1417 1004 
Q 1866 475 2588 475 
Q 3363 475 3805 983 
Q 4247 1491 4247 2403 
Q 4247 3341 3814 3850 
Q 3381 4359 2628 4359 
Q 1888 4359 1428 3821 
Q 969 3284 969 2413 
z
" transform="scale(0.015625)"/>
     <path id="MicrosoftYaHei-4c" d="M 3178 0 
L 625 0 
L 625 4841 
L 1250 4841 
L 1250 553 
L 3178 553 
L 3178 0 
z
" transform="scale(0.015625)"/>
     <path id="MicrosoftYaHei-2e" d="M 372 322 
Q 372 491 487 606 
Q 603 722 775 722 
Q 950 722 1065 605 
Q 1181 488 1181 322 
Q 1181 159 1065 42 
Q 950 -75 772 -75 
Q 600 -75 486 42 
Q 372 159 372 322 
z
" transform="scale(0.015625)"/>
     <path id="MicrosoftYaHei-672c" d="M 6281 803 
Q 6119 641 5856 366 
Q 4344 1531 3444 3353 
L 3444 878 
L 4875 878 
L 4875 441 
L 3444 441 
L 3444 -841 
L 2956 -841 
L 2956 441 
L 1475 441 
L 1475 878 
L 2956 878 
L 2956 3353 
Q 2159 1766 513 291 
Q 269 522 100 666 
Q 1878 2125 2759 3753 
L 238 3753 
L 238 4216 
L 2956 4216 
L 2956 5341 
L 3444 5341 
L 3444 4216 
L 6163 4216 
L 6163 3753 
L 3622 3753 
Q 4616 1884 6281 803 
z
" transform="scale(0.015625)"/>
     <path id="MicrosoftYaHei-5730" d="M 3975 5303 
L 4463 5303 
L 4463 3688 
L 5981 4147 
Q 5944 2916 5906 2134 
Q 5869 1291 5231 1284 
Q 4944 1278 4669 1284 
Q 4631 1516 4575 1803 
Q 4875 1766 5094 1766 
Q 5419 1759 5431 2241 
Q 5469 2809 5475 3534 
L 4463 3219 
L 4463 509 
L 3975 509 
L 3975 3069 
L 3031 2775 
L 3031 353 
Q 3031 -134 3563 -134 
L 5094 -134 
Q 5669 -134 5731 328 
Q 5806 728 5856 1259 
Q 6106 1159 6375 1078 
Q 6288 478 6206 103 
Q 6056 -609 5225 -609 
L 3444 -609 
Q 2544 -609 2544 272 
L 2544 2622 
L 2075 2478 
L 1994 2941 
L 2544 3106 
L 2544 4566 
L 3031 4566 
L 3031 3253 
L 3975 3538 
L 3975 5303 
z
M 44 303 
Q 491 447 944 597 
L 944 3091 
L 138 3091 
L 138 3528 
L 944 3528 
L 944 5272 
L 1406 5272 
L 1406 3528 
L 2131 3528 
L 2131 3091 
L 1406 3091 
L 1406 753 
Q 1803 891 2206 1034 
Q 2219 772 2250 572 
Q 1225 203 219 -178 
L 44 303 
z
" transform="scale(0.015625)"/>
     <path id="MicrosoftYaHei-9884" d="M 531 3872 
L 844 4147 
Q 1069 3947 1275 3747 
L 1938 4553 
L 175 4553 
L 175 4991 
L 2513 4991 
L 2513 4553 
L 1588 3434 
Q 1694 3322 1794 3216 
L 1544 2997 
L 2681 2997 
L 2681 2578 
Q 2581 2097 2369 1466 
Q 2175 1534 1938 1609 
Q 2094 2003 2213 2559 
L 1588 2559 
L 1588 -72 
Q 1588 -784 888 -784 
L 225 -784 
Q 194 -559 138 -278 
Q 450 -316 769 -316 
Q 1119 -316 1119 84 
L 1119 2559 
L 113 2559 
L 113 2997 
L 1344 2997 
Q 938 3484 531 3872 
z
M 2969 3716 
L 4025 3716 
L 4181 4572 
L 2744 4572 
L 2744 5009 
L 6294 5009 
L 6294 4572 
L 4688 4572 
L 4506 3716 
L 6006 3716 
L 6006 641 
L 5550 641 
L 5550 3284 
L 3425 3284 
L 3425 641 
L 2969 641 
L 2969 3716 
z
M 4244 3028 
L 4706 3028 
L 4706 2097 
Q 4706 1366 4519 841 
Q 5500 184 6306 -441 
L 5963 -847 
Q 5200 -197 4325 428 
Q 4263 334 4200 247 
Q 3694 -397 2613 -897 
Q 2413 -641 2263 -484 
Q 3381 -22 3831 572 
Q 4244 1109 4244 2128 
L 4244 3028 
z
" transform="scale(0.015625)"/>
     <path id="MicrosoftYaHei-6f14" d="M 2125 2816 
L 3688 2816 
L 3688 3309 
L 2400 3309 
L 2400 3716 
L 5450 3716 
L 5450 3309 
L 4125 3309 
L 4125 2816 
L 5688 2816 
L 5688 366 
L 5250 366 
L 5250 584 
L 2563 584 
L 2563 366 
L 2125 366 
L 2125 2816 
z
M 1794 4634 
L 3722 4634 
Q 3575 4875 3406 5122 
L 3850 5341 
Q 4116 4931 4278 4634 
L 6063 4634 
L 6063 3628 
L 5606 3628 
L 5606 4228 
L 2250 4228 
L 2250 3622 
L 1794 3622 
L 1794 4634 
z
M 1019 1772 
Q 1200 1659 1494 1566 
Q 1100 303 788 -747 
L 275 -534 
Q 713 603 1019 1772 
z
M 3263 409 
L 3569 47 
Q 2756 -466 1994 -847 
Q 1863 -628 1700 -447 
Q 2588 -53 3263 409 
z
M 4238 9 
L 4500 366 
Q 5356 -22 6088 -397 
L 5800 -816 
Q 5000 -353 4238 9 
z
M 406 3591 
Q 1044 3128 1488 2747 
L 1125 2334 
Q 600 2816 94 3228 
L 406 3591 
z
M 700 5209 
Q 1344 4709 1713 4378 
L 1356 3991 
Q 869 4472 375 4878 
L 700 5209 
z
M 2563 1884 
L 3688 1884 
L 3688 2428 
L 2563 2428 
L 2563 1884 
z
M 2563 972 
L 3688 972 
L 3688 1516 
L 2563 1516 
L 2563 972 
z
M 4125 972 
L 5250 972 
L 5250 1516 
L 4125 1516 
L 4125 972 
z
M 5250 2428 
L 4125 2428 
L 4125 1884 
L 5250 1884 
L 5250 2428 
z
" transform="scale(0.015625)"/>
     <path id="MicrosoftYaHei-ff1b" d="M 1606 3531 
Q 1772 3531 1890 3415 
Q 2009 3300 2009 3138 
Q 2009 2975 1893 2858 
Q 1778 2741 1606 2741 
Q 1434 2741 1318 2858 
Q 1203 2975 1203 3138 
Q 1203 3300 1322 3415 
Q 1441 3531 1606 3531 
z
M 1931 775 
L 1403 -891 
L 966 -891 
L 1350 775 
L 1931 775 
z
" transform="scale(0.015625)"/>
     <path id="MicrosoftYaHei-52" d="M 4159 0 
L 3422 0 
L 2619 1344 
Q 2378 1747 2178 1892 
Q 1978 2038 1700 2038 
L 1250 2038 
L 1250 0 
L 625 0 
L 625 4841 
L 2100 4841 
Q 2806 4841 3206 4500 
Q 3606 4159 3606 3547 
Q 3606 2541 2531 2241 
L 2531 2225 
Q 2731 2141 2876 1984 
Q 3022 1828 3253 1450 
L 4159 0 
z
M 1250 4294 
L 1250 2584 
L 1988 2584 
Q 2416 2584 2683 2834 
Q 2950 3084 2950 3491 
Q 2950 3869 2706 4081 
Q 2463 4294 1997 4294 
L 1250 4294 
z
" transform="scale(0.015625)"/>
     <path id="MicrosoftYaHei-79" d="M 3359 3456 
L 1791 -522 
Q 1353 -1628 556 -1628 
Q 328 -1628 166 -1578 
L 166 -1041 
Q 344 -1109 509 -1109 
Q 925 -1109 1131 -622 
L 1397 6 
L 41 3456 
L 719 3456 
L 1622 859 
L 1697 575 
L 1713 575 
Q 1731 672 1788 853 
L 2731 3456 
L 3359 3456 
z
" transform="scale(0.015625)"/>
     <path id="MicrosoftYaHei-771f" d="M 156 778 
L 1056 778 
L 1056 3978 
L 2894 3978 
L 2894 4428 
L 250 4428 
L 250 4828 
L 2894 4828 
L 2894 5328 
L 3381 5328 
L 3381 4828 
L 6144 4828 
L 6144 4428 
L 3381 4428 
L 3381 3978 
L 5344 3978 
L 5344 778 
L 6263 778 
L 6263 378 
L 156 378 
L 156 778 
z
M 1531 778 
L 4869 778 
L 4869 1209 
L 1531 1209 
L 1531 778 
z
M 4869 3591 
L 1531 3591 
L 1531 3166 
L 4869 3166 
L 4869 3591 
z
M 1531 2372 
L 4869 2372 
L 4869 2797 
L 1531 2797 
L 1531 2372 
z
M 1531 1578 
L 4869 1578 
L 4869 2003 
L 1531 2003 
L 1531 1578 
z
M 3744 -72 
L 3975 316 
Q 4925 28 6169 -416 
L 5944 -859 
Q 4819 -422 3744 -72 
z
M 2369 334 
L 2663 -41 
Q 1656 -503 481 -891 
Q 388 -691 256 -453 
Q 1219 -172 2369 334 
z
" transform="scale(0.015625)"/>
     <path id="MicrosoftYaHei-5b9e" d="M 113 -397 
Q 2419 34 3081 972 
L 213 972 
L 213 1434 
L 3313 1434 
Q 3525 2084 3506 3703 
L 4031 3703 
Q 4031 2097 3856 1434 
L 6225 1434 
L 6225 972 
L 3681 972 
Q 3631 872 3563 759 
Q 4900 197 6181 -403 
L 5906 -878 
Q 4569 -197 3263 391 
Q 2413 -441 413 -891 
Q 269 -616 113 -397 
z
M 331 4422 
L 3194 4422 
Q 3038 4703 2775 5078 
L 3231 5334 
Q 3438 5059 3731 4609 
L 3388 4422 
L 6063 4422 
L 6063 3303 
L 5563 3303 
L 5563 3959 
L 831 3959 
L 831 3303 
L 331 3303 
L 331 4422 
z
M 1100 2734 
Q 1819 2409 2450 2053 
L 2181 1622 
Q 1556 2003 863 2334 
L 1100 2734 
z
M 1663 3691 
Q 2388 3341 2981 2984 
L 2700 2559 
Q 2119 2934 1419 3322 
L 1663 3691 
z
" transform="scale(0.015625)"/>
     <path id="MicrosoftYaHei-43" d="M 3938 200 
Q 3403 -81 2597 -81 
Q 1556 -81 934 580 
Q 313 1241 313 2328 
Q 313 3497 1013 4209 
Q 1713 4922 2791 4922 
Q 3484 4922 3938 4725 
L 3938 4072 
Q 3419 4359 2797 4359 
Q 1988 4359 1478 3820 
Q 969 3281 969 2366 
Q 969 1497 1444 986 
Q 1919 475 2688 475 
Q 3406 475 3938 800 
L 3938 200 
z
" transform="scale(0.015625)"/>
     <path id="MicrosoftYaHei-55" d="M 4213 1972 
Q 4213 -81 2350 -81 
Q 566 -81 566 1900 
L 566 4841 
L 1191 4841 
L 1191 1928 
Q 1191 475 2409 475 
Q 3588 475 3588 1881 
L 3588 4841 
L 4213 4841 
L 4213 1972 
z
" transform="scale(0.015625)"/>
     <path id="MicrosoftYaHei-44" d="M 625 0 
L 625 4841 
L 2006 4841 
Q 3106 4841 3836 4200 
Q 4566 3559 4566 2481 
Q 4566 1356 3836 678 
Q 3106 0 1956 0 
L 625 0 
z
M 1250 4284 
L 1250 553 
L 1953 553 
Q 2875 553 3392 1056 
Q 3909 1559 3909 2466 
Q 3909 3372 3378 3828 
Q 2847 4284 1981 4284 
L 1250 4284 
z
" transform="scale(0.015625)"/>
     <path id="MicrosoftYaHei-41" d="M 4428 0 
L 3738 0 
L 3244 1325 
L 1228 1325 
L 763 0 
L 72 0 
L 1916 4841 
L 2584 4841 
L 4428 0 
z
M 3050 1872 
L 2319 3884 
Q 2284 3981 2244 4222 
L 2228 4222 
Q 2194 4003 2150 3884 
L 1425 1872 
L 3050 1872 
z
" transform="scale(0.015625)"/>
     <path id="MicrosoftYaHei-6d" d="M 5522 0 
L 4909 0 
L 4909 1984 
Q 4909 2547 4734 2789 
Q 4559 3031 4159 3031 
Q 3822 3031 3581 2715 
Q 3341 2400 3341 1969 
L 3341 0 
L 2728 0 
L 2728 2047 
Q 2728 3031 1969 3031 
Q 1619 3031 1389 2731 
Q 1159 2431 1159 1966 
L 1159 0 
L 547 0 
L 547 3456 
L 1159 3456 
L 1159 2909 
L 1172 2909 
Q 1541 3538 2250 3538 
Q 2597 3538 2862 3347 
Q 3128 3156 3231 2831 
Q 3616 3538 4381 3538 
Q 5522 3538 5522 2131 
L 5522 0 
z
" transform="scale(0.015625)"/>
     <path id="MicrosoftYaHei-62" d="M 1159 488 
L 1159 0 
L 547 0 
L 547 5116 
L 1159 5116 
L 1159 2859 
L 1172 2859 
Q 1578 3538 2359 3538 
Q 3009 3538 3392 3080 
Q 3775 2622 3775 1828 
Q 3775 953 3345 436 
Q 2916 -81 2200 -81 
Q 1525 -81 1172 488 
L 1159 488 
z
M 1156 1422 
Q 1156 1003 1428 714 
Q 1700 425 2109 425 
Q 2597 425 2872 800 
Q 3147 1175 3147 1838 
Q 3147 2384 2890 2707 
Q 2634 3031 2191 3031 
Q 1741 3031 1448 2709 
Q 1156 2388 1156 1891 
L 1156 1422 
z
" transform="scale(0.015625)"/>
     <path id="MicrosoftYaHei-70" d="M 1159 488 
L 1159 -1591 
L 547 -1591 
L 547 3456 
L 1159 3456 
L 1159 2859 
L 1172 2859 
Q 1578 3538 2359 3538 
Q 3022 3538 3398 3073 
Q 3775 2609 3775 1828 
Q 3775 966 3348 442 
Q 2922 -81 2200 -81 
Q 1534 -81 1172 488 
L 1159 488 
z
M 1156 1425 
Q 1156 1003 1428 714 
Q 1700 425 2109 425 
Q 2597 425 2872 800 
Q 3147 1175 3147 1838 
Q 3147 2397 2890 2714 
Q 2634 3031 2191 3031 
Q 1738 3031 1447 2709 
Q 1156 2388 1156 1884 
L 1156 1425 
z
" transform="scale(0.015625)"/>
     <path id="MicrosoftYaHei-5e73" d="M 169 1934 
L 2938 1934 
L 2938 4547 
L 450 4547 
L 450 5028 
L 5975 5028 
L 5975 4547 
L 3463 4547 
L 3463 1934 
L 6250 1934 
L 6250 1453 
L 3463 1453 
L 3463 -847 
L 2938 -847 
L 2938 1453 
L 169 1453 
L 169 1934 
z
M 3950 2559 
Q 4638 3284 5188 4159 
L 5656 3859 
Q 4950 2891 4338 2234 
L 3950 2559 
z
M 769 3859 
L 1163 4134 
Q 1863 3316 2369 2553 
L 1925 2222 
Q 1444 3003 769 3859 
z
" transform="scale(0.015625)"/>
     <path id="MicrosoftYaHei-5747" d="M 2244 2803 
Q 2931 3953 3338 5322 
L 3838 5172 
Q 3691 4744 3531 4347 
L 6013 4347 
Q 5925 1053 5875 297 
Q 5831 -697 4806 -697 
Q 4188 -697 3706 -672 
Q 3669 -422 3606 -141 
L 3625 -141 
Q 4250 -209 4775 -209 
Q 5350 -209 5394 378 
Q 5456 1447 5513 3891 
L 3341 3891 
Q 3028 3172 2675 2572 
Q 2481 2691 2244 2803 
z
M 81 428 
Q 559 600 1006 769 
L 1006 3253 
L 169 3253 
L 169 3697 
L 1006 3697 
L 1006 5259 
L 1469 5259 
L 1469 3697 
L 2281 3697 
L 2281 3253 
L 1469 3253 
L 1469 947 
Q 1922 1125 2338 1303 
Q 2350 991 2369 784 
Q 1363 403 250 -53 
L 81 428 
z
M 2513 853 
Q 3769 1353 5119 1934 
Q 5150 1641 5188 1434 
Q 4031 947 2706 359 
L 2513 853 
z
M 3138 2909 
L 3481 3216 
Q 4025 2716 4531 2216 
L 4125 1859 
Q 3644 2409 3138 2909 
z
" transform="scale(0.015625)"/>
     <path id="MicrosoftYaHei-3002" d="M 1219 863 
Q 1525 863 1750 625 
Q 1975 388 1975 72 
Q 1975 -284 1747 -507 
Q 1519 -731 1197 -731 
Q 875 -731 642 -503 
Q 409 -275 409 66 
Q 409 413 656 638 
Q 903 863 1219 863 
z
M 1209 -275 
Q 1328 -275 1431 -184 
Q 1534 -94 1534 50 
Q 1534 209 1434 304 
Q 1334 400 1191 400 
Q 1056 400 959 304 
Q 863 209 863 53 
Q 863 -100 977 -187 
Q 1091 -275 1209 -275 
z
" transform="scale(0.015625)"/>
    </defs>
    <use xlink:href="#MicrosoftYaHei-50"/>
    <use xlink:href="#MicrosoftYaHei-6f" transform="translate(57.181641 0)"/>
    <use xlink:href="#MicrosoftYaHei-73" transform="translate(120.755859 0)"/>
    <use xlink:href="#MicrosoftYaHei-74" transform="translate(167.044922 0)"/>
    <use xlink:href="#MicrosoftYaHei-67" transform="translate(203.425781 0)"/>
    <use xlink:href="#MicrosoftYaHei-72" transform="translate(267.390625 0)"/>
    <use xlink:href="#MicrosoftYaHei-65" transform="translate(304.199219 0)"/>
    <use xlink:href="#MicrosoftYaHei-53" transform="translate(360.9375 0)"/>
    <use xlink:href="#MicrosoftYaHei-51" transform="translate(418.652344 0)"/>
    <use xlink:href="#MicrosoftYaHei-4c" transform="translate(500.146484 0)"/>
    <use xlink:href="#MicrosoftYaHei-20" transform="translate(551.464844 0)"/>
    <use xlink:href="#MicrosoftYaHei-31" transform="translate(581.054688 0)"/>
    <use xlink:href="#MicrosoftYaHei-38" transform="translate(639.697266 0)"/>
    <use xlink:href="#MicrosoftYaHei-2e" transform="translate(698.339844 0)"/>
    <use xlink:href="#MicrosoftYaHei-34" transform="translate(722.412109 0)"/>
    <use xlink:href="#MicrosoftYaHei-20" transform="translate(781.054688 0)"/>
    <use xlink:href="#MicrosoftYaHei-672c" transform="translate(810.644531 0)"/>
    <use xlink:href="#MicrosoftYaHei-5730" transform="translate(910.644531 0)"/>
    <use xlink:href="#MicrosoftYaHei-9884" transform="translate(1010.644531 0)"/>
    <use xlink:href="#MicrosoftYaHei-6f14" transform="translate(1110.644531 0)"/>
    <use xlink:href="#MicrosoftYaHei-ff1b" transform="translate(1210.644531 0)"/>
    <use xlink:href="#MicrosoftYaHei-52" transform="translate(1310.644531 0)"/>
    <use xlink:href="#MicrosoftYaHei-61" transform="translate(1375.927734 0)"/>
    <use xlink:href="#MicrosoftYaHei-79" transform="translate(1431.201172 0)"/>
    <use xlink:href="#MicrosoftYaHei-20" transform="translate(1484.130859 0)"/>
    <use xlink:href="#MicrosoftYaHei-61" transform="translate(1513.720703 0)"/>
    <use xlink:href="#MicrosoftYaHei-63" transform="translate(1568.994141 0)"/>
    <use xlink:href="#MicrosoftYaHei-74" transform="translate(1619.140625 0)"/>
    <use xlink:href="#MicrosoftYaHei-6f" transform="translate(1655.521484 0)"/>
    <use xlink:href="#MicrosoftYaHei-72" transform="translate(1719.095703 0)"/>
    <use xlink:href="#MicrosoftYaHei-ff1b" transform="translate(1757.279297 0)"/>
    <use xlink:href="#MicrosoftYaHei-771f" transform="translate(1857.279297 0)"/>
    <use xlink:href="#MicrosoftYaHei-5b9e" transform="translate(1957.279297 0)"/>
    <use xlink:href="#MicrosoftYaHei-20" transform="translate(2057.279297 0)"/>
    <use xlink:href="#MicrosoftYaHei-43" transform="translate(2086.869141 0)"/>
    <use xlink:href="#MicrosoftYaHei-55" transform="translate(2153.763672 0)"/>
    <use xlink:href="#MicrosoftYaHei-44" transform="translate(2228.421875 0)"/>
    <use xlink:href="#MicrosoftYaHei-41" transform="translate(2302.84375 0)"/>
    <use xlink:href="#MicrosoftYaHei-20" transform="translate(2373.205078 0)"/>
    <use xlink:href="#MicrosoftYaHei-65" transform="translate(2402.794922 0)"/>
    <use xlink:href="#MicrosoftYaHei-6d" transform="translate(2459.533203 0)"/>
    <use xlink:href="#MicrosoftYaHei-62" transform="translate(2553.234375 0)"/>
    <use xlink:href="#MicrosoftYaHei-65" transform="translate(2617.101562 0)"/>
    <use xlink:href="#MicrosoftYaHei-64" transform="translate(2673.839844 0)"/>
    <use xlink:href="#MicrosoftYaHei-64" transform="translate(2737.804688 0)"/>
    <use xlink:href="#MicrosoftYaHei-69" transform="translate(2801.769531 0)"/>
    <use xlink:href="#MicrosoftYaHei-6e" transform="translate(2828.380859 0)"/>
    <use xlink:href="#MicrosoftYaHei-67" transform="translate(2890.001953 0)"/>
    <use xlink:href="#MicrosoftYaHei-20" transform="translate(2953.966797 0)"/>
    <use xlink:href="#MicrosoftYaHei-65" transform="translate(2983.556641 0)"/>
    <use xlink:href="#MicrosoftYaHei-6e" transform="translate(3040.294922 0)"/>
    <use xlink:href="#MicrosoftYaHei-64" transform="translate(3101.916016 0)"/>
    <use xlink:href="#MicrosoftYaHei-70" transform="translate(3165.880859 0)"/>
    <use xlink:href="#MicrosoftYaHei-6f" transform="translate(3229.748047 0)"/>
    <use xlink:href="#MicrosoftYaHei-69" transform="translate(3293.322266 0)"/>
    <use xlink:href="#MicrosoftYaHei-6e" transform="translate(3319.933594 0)"/>
    <use xlink:href="#MicrosoftYaHei-74" transform="translate(3381.554688 0)"/>
    <use xlink:href="#MicrosoftYaHei-ff1b" transform="translate(3418.810547 0)"/>
    <use xlink:href="#MicrosoftYaHei-66" transform="translate(3518.810547 0)"/>
    <use xlink:href="#MicrosoftYaHei-6f" transform="translate(3553.478516 0)"/>
    <use xlink:href="#MicrosoftYaHei-72" transform="translate(3617.052734 0)"/>
    <use xlink:href="#MicrosoftYaHei-6d" transform="translate(3654.986328 0)"/>
    <use xlink:href="#MicrosoftYaHei-61" transform="translate(3748.6875 0)"/>
    <use xlink:href="#MicrosoftYaHei-6c" transform="translate(3803.960938 0)"/>
    <use xlink:href="#MicrosoftYaHei-20" transform="translate(3830.572266 0)"/>
    <use xlink:href="#MicrosoftYaHei-72" transform="translate(3860.162109 0)"/>
    <use xlink:href="#MicrosoftYaHei-65" transform="translate(3896.970703 0)"/>
    <use xlink:href="#MicrosoftYaHei-70" transform="translate(3953.708984 0)"/>
    <use xlink:href="#MicrosoftYaHei-65" transform="translate(4017.576172 0)"/>
    <use xlink:href="#MicrosoftYaHei-61" transform="translate(4074.314453 0)"/>
    <use xlink:href="#MicrosoftYaHei-74" transform="translate(4129.587891 0)"/>
    <use xlink:href="#MicrosoftYaHei-73" transform="translate(4166.84375 0)"/>
    <use xlink:href="#MicrosoftYaHei-20" transform="translate(4213.132812 0)"/>
    <use xlink:href="#MicrosoftYaHei-5e73" transform="translate(4242.722656 0)"/>
    <use xlink:href="#MicrosoftYaHei-5747" transform="translate(4342.722656 0)"/>
    <use xlink:href="#MicrosoftYaHei-3002" transform="translate(4442.722656 0)"/>
   </g>
  </g>
  <g id="text_17">
   <!-- 边界：当前写回为 PostgreSQL JSON text，不是 PostgreSQL 18.3 内部平台或 384 维 pgvector 写回结果。 -->
   <g style="fill: #64748b" transform="translate(12.96 504.979875) scale(0.095 -0.095)">
    <defs>
     <path id="MicrosoftYaHei-8fb9" d="M 2050 4172 
L 3291 4172 
Q 3306 4772 3306 5291 
L 3831 5291 
Q 3825 4788 3806 4172 
L 5925 4172 
Q 5850 2334 5781 1441 
Q 5694 372 4819 372 
Q 4363 372 3831 397 
Q 3794 653 3738 959 
Q 4344 897 4681 897 
Q 5219 897 5275 1503 
Q 5350 2372 5394 3697 
L 3791 3697 
Q 3744 1225 2044 259 
Q 1894 447 1681 672 
Q 3219 1528 3278 3697 
L 2050 3697 
L 2050 4172 
z
M 2909 -153 
L 4425 -172 
L 6313 -109 
Q 6206 -366 6113 -609 
L 4356 -634 
L 2897 -619 
Q 1644 -597 1156 122 
Q 775 -209 369 -697 
L 100 -166 
Q 609 275 931 550 
L 931 2678 
L 131 2678 
L 131 3134 
L 1431 3134 
L 1431 456 
Q 1894 -125 2909 -153 
z
M 794 5266 
Q 1175 4803 1656 4147 
Q 1431 4016 1206 3853 
Q 819 4453 406 4997 
L 794 5266 
z
" transform="scale(0.015625)"/>
     <path id="MicrosoftYaHei-754c" d="M 5656 5028 
L 5656 2041 
L 5181 2041 
L 5181 2266 
L 3913 2266 
Q 4772 1494 6319 1147 
Q 6113 866 5988 666 
Q 5213 916 4588 1281 
L 4588 -797 
L 4088 -797 
L 4088 1391 
L 4409 1391 
Q 3813 1769 3356 2266 
L 3113 2266 
Q 2619 1809 1994 1416 
L 2350 1416 
Q 2350 472 2044 22 
Q 1750 -447 888 -859 
Q 744 -666 525 -453 
Q 1331 -97 1606 284 
Q 1841 591 1856 1328 
Q 1206 934 425 603 
Q 306 778 94 1009 
Q 1588 1553 2466 2266 
L 1225 2266 
L 1225 2041 
L 750 2041 
L 750 5028 
L 5656 5028 
z
M 3438 2678 
L 5181 2678 
L 5181 3441 
L 3438 3441 
L 3438 2678 
z
M 5181 4616 
L 3438 4616 
L 3438 3853 
L 5181 3853 
L 5181 4616 
z
M 1225 3853 
L 2963 3853 
L 2963 4616 
L 1225 4616 
L 1225 3853 
z
M 1225 2678 
L 2963 2678 
L 2963 3441 
L 1225 3441 
L 1225 2678 
z
" transform="scale(0.015625)"/>
     <path id="MicrosoftYaHei-ff1a" d="M 1606 3531 
Q 1772 3531 1890 3415 
Q 2009 3300 2009 3138 
Q 2009 2975 1893 2858 
Q 1778 2741 1606 2741 
Q 1434 2741 1318 2858 
Q 1203 2975 1203 3138 
Q 1203 3300 1322 3415 
Q 1441 3531 1606 3531 
z
M 1606 716 
Q 1772 716 1890 600 
Q 2009 484 2009 319 
Q 2009 150 1890 36 
Q 1772 -78 1606 -78 
Q 1441 -78 1322 36 
Q 1203 150 1203 319 
Q 1203 484 1322 600 
Q 1441 716 1606 716 
z
" transform="scale(0.015625)"/>
     <path id="MicrosoftYaHei-5f53" d="M 344 -41 
L 5294 -41 
L 5294 1034 
L 725 1034 
L 725 1478 
L 5294 1478 
L 5294 2534 
L 525 2534 
L 525 2978 
L 2944 2978 
L 2944 5297 
L 3463 5297 
L 3463 2978 
L 5813 2978 
L 5813 -859 
L 5294 -859 
L 5294 -484 
L 344 -484 
L 344 -41 
z
M 5725 4653 
Q 5056 3897 4394 3291 
L 4019 3628 
Q 4656 4203 5300 4997 
L 5725 4653 
z
M 725 4678 
L 1075 4991 
Q 1750 4359 2331 3672 
L 1913 3316 
Q 1388 4003 725 4678 
z
" transform="scale(0.015625)"/>
     <path id="MicrosoftYaHei-524d" d="M 1038 -841 
L 563 -841 
L 563 3322 
L 3300 3322 
L 3300 -172 
Q 3300 -784 2669 -772 
Q 2406 -772 1950 -759 
Q 1913 -516 1856 -297 
Q 2238 -328 2563 -328 
Q 2825 -334 2825 -72 
L 2825 722 
L 1038 722 
L 1038 -841 
z
M 150 4372 
L 2169 4372 
Q 1963 4697 1644 5078 
L 2038 5347 
Q 2425 4916 2663 4578 
L 2353 4372 
L 4063 4372 
L 3813 4509 
Q 4144 4916 4388 5359 
L 4863 5084 
Q 4575 4691 4284 4372 
L 6263 4372 
L 6263 3934 
L 150 3934 
L 150 4372 
z
M 5331 3522 
L 5819 3522 
L 5819 28 
Q 5819 -741 5094 -747 
Q 4763 -753 4269 -741 
Q 4238 -484 4181 -216 
Q 4644 -266 4931 -266 
Q 5331 -266 5331 141 
L 5331 3522 
z
M 4044 3222 
L 4519 3222 
L 4519 409 
L 4044 409 
L 4044 3222 
z
M 2825 2897 
L 1038 2897 
L 1038 2228 
L 2825 2228 
L 2825 2897 
z
M 1038 1141 
L 2825 1141 
L 2825 1809 
L 1038 1809 
L 1038 1141 
z
" transform="scale(0.015625)"/>
     <path id="MicrosoftYaHei-5199" d="M 1125 1853 
L 1125 2303 
L 1550 4303 
L 2075 4303 
L 1922 3559 
L 5588 3559 
L 5588 3097 
L 1828 3097 
L 1669 2322 
L 5750 2322 
Q 5688 1016 5606 172 
Q 5500 -722 4550 -728 
Q 3956 -728 3194 -697 
Q 3163 -447 3106 -153 
Q 3781 -228 4456 -228 
Q 5019 -228 5100 272 
Q 5163 872 5206 1853 
L 1125 1853 
z
M 369 4959 
L 6038 4959 
L 6038 3784 
L 5525 3784 
L 5525 4491 
L 881 4491 
L 881 3784 
L 369 3784 
L 369 4959 
z
M 113 1072 
L 4725 1072 
L 4725 609 
L 113 609 
L 113 1072 
z
" transform="scale(0.015625)"/>
     <path id="MicrosoftYaHei-56de" d="M 475 4947 
L 5938 4947 
L 5938 -778 
L 5413 -778 
L 5413 -378 
L 1000 -378 
L 1000 -778 
L 475 -778 
L 475 4947 
z
M 5413 4484 
L 1000 4484 
L 1000 72 
L 5413 72 
L 5413 4484 
z
M 1875 3528 
L 4531 3528 
L 4531 797 
L 4044 797 
L 4044 1147 
L 2363 1147 
L 2363 797 
L 1875 797 
L 1875 3528 
z
M 4044 3091 
L 2363 3091 
L 2363 1584 
L 4044 1584 
L 4044 3091 
z
" transform="scale(0.015625)"/>
     <path id="MicrosoftYaHei-4e3a" d="M 356 3684 
L 2703 3684 
Q 2794 4450 2794 5341 
L 3331 5341 
Q 3331 4413 3244 3684 
L 5900 3684 
Q 5863 1753 5788 497 
Q 5725 -672 4550 -672 
Q 4063 -672 3394 -641 
Q 3369 -397 3300 -59 
Q 3888 -141 4456 -141 
Q 5206 -141 5244 597 
Q 5331 1822 5356 3197 
L 3175 3197 
Q 2716 441 606 -903 
Q 431 -684 225 -441 
Q 2169 706 2628 3197 
L 356 3197 
L 356 3684 
z
M 3325 2072 
L 3669 2378 
Q 4269 1822 4756 1284 
L 4369 934 
Q 3888 1503 3325 2072 
z
M 800 4922 
L 1138 5234 
Q 1656 4784 2138 4309 
L 1756 3953 
Q 1294 4459 800 4922 
z
" transform="scale(0.015625)"/>
     <path id="MicrosoftYaHei-4a" d="M 1950 1756 
Q 1950 878 1578 398 
Q 1206 -81 566 -81 
Q 269 -81 75 6 
L 75 616 
Q 269 475 563 475 
Q 1325 475 1325 1756 
L 1325 4841 
L 1950 4841 
L 1950 1756 
z
" transform="scale(0.015625)"/>
     <path id="MicrosoftYaHei-4f" d="M 313 2363 
Q 313 3534 947 4228 
Q 1581 4922 2666 4922 
Q 3675 4922 4290 4244 
Q 4906 3566 4906 2478 
Q 4906 1300 4275 609 
Q 3644 -81 2588 -81 
Q 1556 -81 934 597 
Q 313 1275 313 2363 
z
M 969 2413 
Q 969 1534 1417 1004 
Q 1866 475 2588 475 
Q 3363 475 3805 983 
Q 4247 1491 4247 2403 
Q 4247 3341 3814 3850 
Q 3381 4359 2628 4359 
Q 1888 4359 1428 3821 
Q 969 3284 969 2413 
z
" transform="scale(0.015625)"/>
     <path id="MicrosoftYaHei-4e" d="M 4578 0 
L 3838 0 
L 1403 3766 
Q 1300 3925 1238 4081 
L 1219 4081 
Q 1244 3919 1244 3403 
L 1244 0 
L 625 0 
L 625 4841 
L 1409 4841 
L 3778 1141 
Q 3947 878 3978 806 
L 3991 806 
Q 3959 1013 3959 1513 
L 3959 4841 
L 4578 4841 
L 4578 0 
z
" transform="scale(0.015625)"/>
     <path id="MicrosoftYaHei-78" d="M 3163 3456 
L 2006 1716 
L 3147 0 
L 2434 0 
L 1775 1100 
Q 1722 1188 1625 1369 
L 1613 1369 
Q 1609 1350 1456 1100 
L 784 0 
L 81 0 
L 1256 1697 
L 134 3456 
L 847 3456 
L 1494 2300 
Q 1553 2194 1638 2025 
L 1650 2025 
L 2491 3456 
L 3163 3456 
z
" transform="scale(0.015625)"/>
     <path id="MicrosoftYaHei-ff0c" d="M 1931 775 
L 1403 -891 
L 966 -891 
L 1350 775 
L 1931 775 
z
" transform="scale(0.015625)"/>
     <path id="MicrosoftYaHei-4e0d" d="M 225 4772 
L 6181 4772 
L 6181 4284 
L 3881 4284 
Q 3581 3766 3081 3053 
L 3444 3053 
L 3444 -866 
L 2906 -866 
L 2906 2859 
Q 1838 1541 388 609 
Q 231 834 38 1059 
Q 2006 2291 3213 4284 
L 225 4284 
L 225 4772 
z
M 4069 2859 
Q 5238 2147 6325 1409 
L 5969 916 
Q 4681 1872 3763 2434 
L 4069 2859 
z
" transform="scale(0.015625)"/>
     <path id="MicrosoftYaHei-662f" d="M 1088 5078 
L 5338 5078 
L 5338 2472 
L 4863 2472 
L 4863 2722 
L 1563 2722 
L 1563 2472 
L 1088 2472 
L 1088 5078 
z
M 1400 1553 
L 1875 1409 
Q 1775 1081 1647 788 
Q 2122 19 3063 -134 
L 3063 1747 
L 213 1747 
L 213 2184 
L 6225 2184 
L 6225 1747 
L 3563 1747 
L 3563 1122 
L 5788 1122 
L 5788 697 
L 3563 697 
L 3563 -172 
Q 4763 -197 6344 -147 
Q 6244 -416 6169 -641 
Q 4331 -647 3344 -622 
Q 2022 -606 1434 359 
Q 1006 -413 350 -891 
Q 225 -703 44 -484 
Q 1050 191 1400 1553 
z
M 1563 3147 
L 4863 3147 
L 4863 3697 
L 1563 3697 
L 1563 3147 
z
M 4863 4653 
L 1563 4653 
L 1563 4109 
L 4863 4109 
L 4863 4653 
z
" transform="scale(0.015625)"/>
     <path id="MicrosoftYaHei-33" d="M 447 809 
Q 944 425 1569 425 
Q 2069 425 2361 670 
Q 2653 916 2653 1328 
Q 2653 2247 1338 2247 
L 934 2247 
L 934 2753 
L 1319 2753 
Q 2484 2753 2484 3616 
Q 2484 4413 1594 4413 
Q 1084 4413 634 4069 
L 634 4647 
Q 1109 4922 1744 4922 
Q 2363 4922 2738 4598 
Q 3113 4275 3113 3759 
Q 3113 2809 2144 2538 
L 2144 2525 
Q 2669 2469 2973 2155 
Q 3278 1841 3278 1372 
Q 3278 719 2808 319 
Q 2338 -81 1556 -81 
Q 869 -81 447 175 
L 447 809 
z
" transform="scale(0.015625)"/>
     <path id="MicrosoftYaHei-5185" d="M 638 4184 
L 2944 4184 
L 2944 5259 
L 3456 5259 
L 3456 4184 
L 5750 4184 
L 5750 59 
Q 5750 -734 4969 -728 
Q 4556 -728 3956 -716 
Q 3938 -503 3863 -172 
Q 4456 -222 4850 -228 
Q 5244 -241 5244 166 
L 5244 3709 
L 3444 3709 
Q 3419 3141 3306 2697 
Q 4413 1809 5094 1134 
L 4713 728 
Q 4044 1459 3156 2247 
Q 2731 1328 1538 647 
Q 1275 1009 1188 1097 
Q 2206 1634 2581 2291 
Q 2881 2772 2931 3709 
L 1144 3709 
L 1144 -784 
L 638 -784 
L 638 4184 
z
" transform="scale(0.015625)"/>
     <path id="MicrosoftYaHei-90e8" d="M 6288 1247 
Q 6288 172 5444 84 
Q 5125 47 4594 109 
Q 4563 334 4513 659 
Q 4969 584 5294 584 
Q 5844 584 5794 1341 
Q 5769 2009 4838 2709 
Q 5244 3516 5663 4503 
L 4388 4503 
L 4388 -828 
L 3913 -828 
L 3913 4966 
L 6163 4966 
L 6163 4453 
Q 5919 3822 5406 2816 
Q 6288 2128 6288 1247 
z
M 575 1753 
L 3275 1753 
L 3275 -791 
L 2813 -791 
L 2813 -328 
L 1038 -328 
L 1038 -797 
L 575 -797 
L 575 1753 
z
M 2813 1334 
L 1038 1334 
L 1038 103 
L 2813 103 
L 2813 1334 
z
M 125 2822 
L 2125 2822 
Q 2497 3466 2731 3997 
L 3194 3759 
Q 2922 3284 2616 2822 
L 3706 2822 
L 3706 2403 
L 125 2403 
L 125 2822 
z
M 263 4472 
L 1825 4472 
Q 1703 4753 1456 5159 
L 1888 5359 
Q 2169 4891 2288 4616 
L 1981 4472 
L 3594 4472 
L 3594 4053 
L 263 4053 
L 263 4472 
z
M 681 3728 
L 1063 3959 
Q 1375 3516 1631 3072 
L 1206 2828 
Q 1013 3222 681 3728 
z
" transform="scale(0.015625)"/>
     <path id="MicrosoftYaHei-53f0" d="M 5431 2022 
L 5431 -816 
L 4919 -816 
L 4919 -403 
L 1481 -403 
L 1481 -816 
L 969 -816 
L 969 2022 
L 5431 2022 
z
M 4513 4503 
Q 5494 3591 6369 2634 
L 5925 2266 
Q 5675 2559 5419 2844 
Q 2613 2725 1131 2641 
Q 788 2616 469 2541 
L 263 3078 
Q 550 3184 781 3372 
Q 1850 4247 2738 5391 
L 3206 5103 
Q 2269 4003 1250 3147 
Q 3166 3206 5019 3284 
Q 4591 3750 4150 4191 
L 4513 4503 
z
M 4919 1559 
L 1481 1559 
L 1481 47 
L 4919 47 
L 4919 1559 
z
" transform="scale(0.015625)"/>
     <path id="MicrosoftYaHei-6216" d="M 2675 -484 
Q 3456 50 4044 741 
Q 3644 1847 3569 3741 
L 200 3741 
L 200 4203 
L 3550 4203 
Q 3525 4725 3506 5291 
L 4019 5291 
Q 4022 4725 4038 4203 
L 6250 4203 
L 6250 3741 
L 4047 3741 
Q 4088 2188 4397 1197 
Q 5000 2044 5350 3097 
L 5844 2891 
Q 5334 1619 4603 659 
Q 4884 59 5275 -191 
Q 5650 -434 5738 16 
Q 5831 484 5881 978 
Q 6138 866 6363 797 
Q 6244 78 6138 -291 
Q 6006 -778 5569 -791 
Q 5206 -791 4863 -528 
Q 4513 -234 4259 244 
Q 3706 -384 3038 -853 
Q 2894 -691 2675 -484 
z
M 644 3134 
L 2894 3134 
L 2894 947 
L 2444 947 
L 2444 1234 
L 1094 1234 
L 1094 797 
L 644 797 
L 644 3134 
z
M 106 91 
Q 1300 247 3219 578 
Q 3225 309 3238 103 
Q 1831 -109 231 -409 
L 106 91 
z
M 2444 2697 
L 1094 2697 
L 1094 1672 
L 2444 1672 
L 2444 2697 
z
M 4494 4991 
L 4756 5316 
Q 5263 5022 5781 4659 
L 5481 4284 
Q 5013 4647 4494 4991 
z
" transform="scale(0.015625)"/>
     <path id="MicrosoftYaHei-7ef4" d="M 1900 2791 
Q 2713 3909 3256 5334 
L 3738 5178 
Q 3488 4634 3247 4166 
L 6175 4166 
L 6175 3741 
L 4806 3741 
L 4806 2797 
L 6125 2797 
L 6125 2372 
L 4806 2372 
L 4806 1428 
L 6125 1428 
L 6125 1003 
L 4806 1003 
L 4806 34 
L 6250 34 
L 6250 -391 
L 3075 -391 
L 3075 -816 
L 2600 -816 
L 2600 2981 
Q 2400 2650 2213 2378 
Q 2094 2572 1900 2791 
z
M 794 1616 
Q 1388 1684 2100 1766 
Q 2069 1459 2050 1316 
Q 906 1184 275 1072 
L 181 1534 
Q 534 1863 1097 2872 
Q 550 2834 200 2803 
L 81 3197 
Q 681 4153 1138 5347 
L 1625 5172 
Q 1100 4053 613 3234 
Q 834 3234 1297 3244 
Q 1516 3656 1763 4159 
L 2213 3959 
Q 1338 2403 794 1616 
z
M 3075 34 
L 4331 34 
L 4331 1003 
L 3075 1003 
L 3075 34 
z
M 3075 1428 
L 4331 1428 
L 4331 2372 
L 3075 2372 
L 3075 1428 
z
M 3075 2797 
L 4331 2797 
L 4331 3741 
L 3075 3741 
L 3075 2797 
z
M 119 72 
Q 1113 247 2288 503 
Q 2269 247 2269 22 
Q 1025 -241 238 -397 
L 119 72 
z
M 4119 5078 
L 4506 5322 
Q 4869 4866 5100 4472 
L 4688 4209 
Q 4463 4609 4119 5078 
z
" transform="scale(0.015625)"/>
     <path id="MicrosoftYaHei-76" d="M 3331 3456 
L 1963 0 
L 1344 0 
L 44 3456 
L 713 3456 
L 1556 988 
Q 1659 691 1678 491 
L 1694 491 
Q 1725 753 1803 975 
L 2688 3456 
L 3331 3456 
z
" transform="scale(0.015625)"/>
     <path id="MicrosoftYaHei-7ed3" d="M 2625 1709 
L 5925 1709 
L 5925 -828 
L 5438 -828 
L 5438 -441 
L 3113 -441 
L 3113 -828 
L 2625 -828 
L 2625 1709 
z
M 2500 2897 
L 4025 2897 
L 4025 3872 
L 2294 3872 
L 2294 4322 
L 4025 4322 
L 4025 5322 
L 4525 5322 
L 4525 4322 
L 6275 4322 
L 6275 3872 
L 4525 3872 
L 4525 2897 
L 6056 2897 
L 6056 2447 
L 2500 2447 
L 2500 2897 
z
M 894 1566 
Q 1725 1684 2269 1778 
Q 2231 1534 2213 1303 
Q 1519 1203 319 1009 
L 219 1472 
Q 619 1888 1172 2791 
Q 647 2756 219 2722 
L 100 3147 
Q 675 3916 1294 5366 
L 1769 5178 
Q 1094 3853 663 3184 
Q 1025 3194 1419 3206 
Q 1631 3569 1863 3997 
L 2325 3766 
Q 1613 2578 894 1566 
z
M 5438 1272 
L 3113 1272 
L 3113 -3 
L 5438 -3 
L 5438 1272 
z
M 75 91 
Q 1231 316 2331 584 
Q 2313 334 2313 109 
Q 1300 -103 213 -391 
L 75 91 
z
" transform="scale(0.015625)"/>
     <path id="MicrosoftYaHei-679c" d="M 6338 -53 
Q 6100 -309 5944 -522 
Q 4425 -41 3438 1181 
L 3438 -841 
L 2963 -841 
L 2963 1188 
Q 2084 172 450 -603 
Q 300 -416 75 -203 
Q 1550 363 2472 1259 
L 213 1259 
L 213 1709 
L 2963 1709 
L 2963 2384 
L 1306 2384 
L 1306 2141 
L 831 2141 
L 831 5016 
L 5569 5016 
L 5569 2141 
L 5094 2141 
L 5094 2384 
L 3438 2384 
L 3438 1709 
L 6200 1709 
L 6200 1259 
L 3856 1259 
Q 4769 294 6338 -53 
z
M 3438 2809 
L 5094 2809 
L 5094 3497 
L 3438 3497 
L 3438 2809 
z
M 5094 4591 
L 3438 4591 
L 3438 3903 
L 5094 3903 
L 5094 4591 
z
M 1306 2809 
L 2963 2809 
L 2963 3497 
L 1306 3497 
L 1306 2809 
z
M 1306 3903 
L 2963 3903 
L 2963 4591 
L 1306 4591 
L 1306 3903 
z
" transform="scale(0.015625)"/>
    </defs>
    <use xlink:href="#MicrosoftYaHei-8fb9"/>
    <use xlink:href="#MicrosoftYaHei-754c" transform="translate(100 0)"/>
    <use xlink:href="#MicrosoftYaHei-ff1a" transform="translate(200 0)"/>
    <use xlink:href="#MicrosoftYaHei-5f53" transform="translate(300 0)"/>
    <use xlink:href="#MicrosoftYaHei-524d" transform="translate(400 0)"/>
    <use xlink:href="#MicrosoftYaHei-5199" transform="translate(500 0)"/>
    <use xlink:href="#MicrosoftYaHei-56de" transform="translate(600 0)"/>
    <use xlink:href="#MicrosoftYaHei-4e3a" transform="translate(700 0)"/>
    <use xlink:href="#MicrosoftYaHei-20" transform="translate(800 0)"/>
    <use xlink:href="#MicrosoftYaHei-50" transform="translate(829.589844 0)"/>
    <use xlink:href="#MicrosoftYaHei-6f" transform="translate(886.771484 0)"/>
    <use xlink:href="#MicrosoftYaHei-73" transform="translate(950.345703 0)"/>
    <use xlink:href="#MicrosoftYaHei-74" transform="translate(996.634766 0)"/>
    <use xlink:href="#MicrosoftYaHei-67" transform="translate(1033.015625 0)"/>
    <use xlink:href="#MicrosoftYaHei-72" transform="translate(1096.980469 0)"/>
    <use xlink:href="#MicrosoftYaHei-65" transform="translate(1133.789062 0)"/>
    <use xlink:href="#MicrosoftYaHei-53" transform="translate(1190.527344 0)"/>
    <use xlink:href="#MicrosoftYaHei-51" transform="translate(1248.242188 0)"/>
    <use xlink:href="#MicrosoftYaHei-4c" transform="translate(1329.736328 0)"/>
    <use xlink:href="#MicrosoftYaHei-20" transform="translate(1381.054688 0)"/>
    <use xlink:href="#MicrosoftYaHei-4a" transform="translate(1410.644531 0)"/>
    <use xlink:href="#MicrosoftYaHei-53" transform="translate(1450.244141 0)"/>
    <use xlink:href="#MicrosoftYaHei-4f" transform="translate(1507.958984 0)"/>
    <use xlink:href="#MicrosoftYaHei-4e" transform="translate(1589.453125 0)"/>
    <use xlink:href="#MicrosoftYaHei-20" transform="translate(1670.751953 0)"/>
    <use xlink:href="#MicrosoftYaHei-74" transform="translate(1700.341797 0)"/>
    <use xlink:href="#MicrosoftYaHei-65" transform="translate(1736.722656 0)"/>
    <use xlink:href="#MicrosoftYaHei-78" transform="translate(1793.460938 0)"/>
    <use xlink:href="#MicrosoftYaHei-74" transform="translate(1844.144531 0)"/>
    <use xlink:href="#MicrosoftYaHei-ff0c" transform="translate(1881.400391 0)"/>
    <use xlink:href="#MicrosoftYaHei-4e0d" transform="translate(1981.400391 0)"/>
    <use xlink:href="#MicrosoftYaHei-662f" transform="translate(2081.400391 0)"/>
    <use xlink:href="#MicrosoftYaHei-20" transform="translate(2181.400391 0)"/>
    <use xlink:href="#MicrosoftYaHei-50" transform="translate(2210.990234 0)"/>
    <use xlink:href="#MicrosoftYaHei-6f" transform="translate(2268.171875 0)"/>
    <use xlink:href="#MicrosoftYaHei-73" transform="translate(2331.746094 0)"/>
    <use xlink:href="#MicrosoftYaHei-74" transform="translate(2378.035156 0)"/>
    <use xlink:href="#MicrosoftYaHei-67" transform="translate(2414.416016 0)"/>
    <use xlink:href="#MicrosoftYaHei-72" transform="translate(2478.380859 0)"/>
    <use xlink:href="#MicrosoftYaHei-65" transform="translate(2515.189453 0)"/>
    <use xlink:href="#MicrosoftYaHei-53" transform="translate(2571.927734 0)"/>
    <use xlink:href="#MicrosoftYaHei-51" transform="translate(2629.642578 0)"/>
    <use xlink:href="#MicrosoftYaHei-4c" transform="translate(2711.136719 0)"/>
    <use xlink:href="#MicrosoftYaHei-20" transform="translate(2762.455078 0)"/>
    <use xlink:href="#MicrosoftYaHei-31" transform="translate(2792.044922 0)"/>
    <use xlink:href="#MicrosoftYaHei-38" transform="translate(2850.6875 0)"/>
    <use xlink:href="#MicrosoftYaHei-2e" transform="translate(2909.330078 0)"/>
    <use xlink:href="#MicrosoftYaHei-33" transform="translate(2933.402344 0)"/>
    <use xlink:href="#MicrosoftYaHei-20" transform="translate(2992.044922 0)"/>
    <use xlink:href="#MicrosoftYaHei-5185" transform="translate(3021.634766 0)"/>
    <use xlink:href="#MicrosoftYaHei-90e8" transform="translate(3121.634766 0)"/>
    <use xlink:href="#MicrosoftYaHei-5e73" transform="translate(3221.634766 0)"/>
    <use xlink:href="#MicrosoftYaHei-53f0" transform="translate(3321.634766 0)"/>
    <use xlink:href="#MicrosoftYaHei-6216" transform="translate(3421.634766 0)"/>
    <use xlink:href="#MicrosoftYaHei-20" transform="translate(3521.634766 0)"/>
    <use xlink:href="#MicrosoftYaHei-33" transform="translate(3551.224609 0)"/>
    <use xlink:href="#MicrosoftYaHei-38" transform="translate(3609.867188 0)"/>
    <use xlink:href="#MicrosoftYaHei-34" transform="translate(3668.509766 0)"/>
    <use xlink:href="#MicrosoftYaHei-20" transform="translate(3727.152344 0)"/>
    <use xlink:href="#MicrosoftYaHei-7ef4" transform="translate(3756.742188 0)"/>
    <use xlink:href="#MicrosoftYaHei-20" transform="translate(3856.742188 0)"/>
    <use xlink:href="#MicrosoftYaHei-70" transform="translate(3886.332031 0)"/>
    <use xlink:href="#MicrosoftYaHei-67" transform="translate(3950.199219 0)"/>
    <use xlink:href="#MicrosoftYaHei-76" transform="translate(4014.164062 0)"/>
    <use xlink:href="#MicrosoftYaHei-65" transform="translate(4066.029297 0)"/>
    <use xlink:href="#MicrosoftYaHei-63" transform="translate(4122.767578 0)"/>
    <use xlink:href="#MicrosoftYaHei-74" transform="translate(4172.914062 0)"/>
    <use xlink:href="#MicrosoftYaHei-6f" transform="translate(4209.294922 0)"/>
    <use xlink:href="#MicrosoftYaHei-72" transform="translate(4272.869141 0)"/>
    <use xlink:href="#MicrosoftYaHei-20" transform="translate(4311.052734 0)"/>
    <use xlink:href="#MicrosoftYaHei-5199" transform="translate(4340.642578 0)"/>
    <use xlink:href="#MicrosoftYaHei-56de" transform="translate(4440.642578 0)"/>
    <use xlink:href="#MicrosoftYaHei-7ed3" transform="translate(4540.642578 0)"/>
    <use xlink:href="#MicrosoftYaHei-679c" transform="translate(4640.642578 0)"/>
    <use xlink:href="#MicrosoftYaHei-3002" transform="translate(4740.642578 0)"/>
   </g>
  </g>
 </g>
 <defs>
  <clipPath id="p498b749675">
   <rect x="59.04" y="98.035875" width="774.144" height="331.776"/>
  </clipPath>
 </defs>
</svg>
