<?xml version="1.0" encoding="utf-8" standalone="no"?>
<!DOCTYPE svg PUBLIC "-//W3C//DTD SVG 1.1//EN"
  "http://www.w3.org/Graphics/SVG/1.1/DTD/svg11.dtd">
<svg xmlns:xlink="http://www.w3.org/1999/xlink" width="846.144pt" height="520.319875pt" viewBox="0 0 846.144 520.319875" xmlns="http://www.w3.org/2000/svg" version="1.1">
 <metadata>
  <rdf:RDF xmlns:dc="http://purl.org/dc/elements/1.1/" xmlns:cc="http://creativecommons.org/ns#" xmlns:rdf="http://www.w3.org/1999/02/22-rdf-syntax-ns#">
   <cc:Work>
    <dc:type rdf:resource="http://purl.org/dc/dcmitype/StillImage"/>
    <dc:date>2026-07-13T17:33:05.170126</dc:date>
    <dc:format>image/svg+xml</dc:format>
    <dc:creator>
     <cc:Agent>
      <dc:title>Matplotlib v3.10.0, https://matplotlib.org/</dc:title>
     </cc:Agent>
    </dc:creator>
   </cc:Work>
  </rdf:RDF>
 </metadata>
 <defs>
  <style type="text/css">*{stroke-linejoin: round; stroke-linecap: butt}</style>
 </defs>
 <g id="figure_1">
  <g id="patch_1">
   <path d="M 0 520.319875 
L 846.144 520.319875 
L 846.144 0 
L 0 0 
z
" style="fill: #f8fafc"/>
  </g>
  <g id="axes_1">
   <g id="patch_2">
    <path d="M 49.824 419.407312 
L 833.184 419.407312 
L 833.184 108.367312 
L 49.824 108.367312 
z
" style="fill: #f8fafc"/>
   </g>
   <g id="matplotlib.axis_1">
    <g id="xtick_1">
     <g id="line2d_1">
      <defs>
       <path id="m7921024d99" d="M 0 0 
L 0 3.5 
" style="stroke: #64748b; stroke-width: 0.8"/>
      </defs>
      <g>
       <use xlink:href="#m7921024d99" x="156.645818" y="419.407312" style="fill: #64748b; stroke: #64748b; stroke-width: 0.8"/>
      </g>
     </g>
     <g id="text_1">
      <!-- 4K -->
      <g style="fill: #64748b" transform="translate(150.539568 434.401062) scale(0.1 -0.1)">
       <defs>
        <path id="MicrosoftYaHei-34" d="M 2906 4841 
L 2906 1644 
L 3631 1644 
L 3631 1138 
L 2906 1138 
L 2906 0 
L 2313 0 
L 2313 1138 
L 53 1138 
L 53 1616 
Q 656 2294 1265 3178 
Q 1875 4063 2272 4841 
L 2906 4841 
z
M 741 1644 
L 2313 1644 
L 2313 3950 
Q 1988 3366 1616 2817 
Q 1244 2269 741 1644 
z
" transform="scale(0.015625)"/>
        <path id="MicrosoftYaHei-4b" d="M 4069 0 
L 3213 0 
L 1394 2200 
Q 1300 2316 1266 2381 
L 1250 2381 
L 1250 0 
L 625 0 
L 625 4841 
L 1250 4841 
L 1250 2563 
L 1266 2563 
Q 1319 2647 1394 2741 
L 3150 4841 
L 3922 4841 
L 1891 2519 
L 4069 0 
z
" transform="scale(0.015625)"/>
       </defs>
       <use xlink:href="#MicrosoftYaHei-34"/>
       <use xlink:href="#MicrosoftYaHei-4b" transform="translate(58.642578 0)"/>
      </g>
      <!-- single -->
      <g style="fill: #64748b" transform="translate(142.553631 446.4795) scale(0.1 -0.1)">
       <defs>
        <path id="MicrosoftYaHei-73" d="M 353 747 
Q 816 413 1350 413 
Q 2066 413 2066 881 
Q 2066 1081 1909 1211 
Q 1753 1341 1275 1519 
Q 700 1750 528 1976 
Q 356 2203 356 2525 
Q 356 2984 745 3261 
Q 1134 3538 1703 3538 
Q 2144 3538 2522 3384 
L 2522 2794 
Q 2134 3044 1644 3044 
Q 1350 3044 1165 2916 
Q 981 2788 981 2578 
Q 981 2372 1114 2256 
Q 1247 2141 1703 1959 
Q 2281 1744 2484 1512 
Q 2688 1281 2688 941 
Q 2688 466 2298 192 
Q 1909 -81 1291 -81 
Q 753 -81 353 122 
L 353 747 
z
" transform="scale(0.015625)"/>
        <path id="MicrosoftYaHei-69" d="M 472 4675 
Q 472 4838 583 4948 
Q 694 5059 856 5059 
Q 1022 5059 1136 4950 
Q 1250 4841 1250 4675 
Q 1250 4513 1136 4405 
Q 1022 4297 856 4297 
Q 691 4297 581 4405 
Q 472 4513 472 4675 
z
M 544 0 
L 544 3456 
L 1156 3456 
L 1156 0 
L 544 0 
z
" transform="scale(0.015625)"/>
        <path id="MicrosoftYaHei-6e" d="M 3469 0 
L 2859 0 
L 2859 1966 
Q 2859 3031 2081 3031 
Q 1678 3031 1418 2731 
Q 1159 2431 1159 1972 
L 1159 0 
L 547 0 
L 547 3456 
L 1159 3456 
L 1159 2884 
L 1172 2884 
Q 1563 3538 2306 3538 
Q 2875 3538 3172 3173 
Q 3469 2809 3469 2113 
L 3469 0 
z
" transform="scale(0.015625)"/>
        <path id="MicrosoftYaHei-67" d="M 3547 291 
Q 3547 -1628 1684 -1628 
Q 1041 -1628 566 -1388 
L 566 -797 
Q 1144 -1119 1675 -1119 
Q 2934 -1119 2934 206 
L 2934 572 
L 2922 572 
Q 2528 -81 1747 -81 
Q 1097 -81 706 384 
Q 316 850 316 1619 
Q 316 2503 747 3020 
Q 1178 3538 1897 3538 
Q 2588 3538 2922 2988 
L 2934 2988 
L 2934 3456 
L 3547 3456 
L 3547 291 
z
M 2934 2056 
Q 2938 2456 2666 2743 
Q 2394 3031 1997 3031 
Q 1497 3031 1219 2664 
Q 941 2297 941 1656 
Q 941 1106 1209 765 
Q 1478 425 1922 425 
Q 2369 425 2653 750 
Q 2938 1075 2934 1575 
L 2934 2056 
z
" transform="scale(0.015625)"/>
        <path id="MicrosoftYaHei-6c" d="M 544 0 
L 544 5116 
L 1156 5116 
L 1156 0 
L 544 0 
z
" transform="scale(0.015625)"/>
        <path id="MicrosoftYaHei-65" d="M 3363 1572 
L 944 1572 
Q 959 1019 1246 717 
Q 1534 416 2050 416 
Q 2631 416 3116 788 
L 3116 241 
Q 2659 -81 1906 -81 
Q 1156 -81 736 394 
Q 316 869 316 1713 
Q 316 2506 777 3022 
Q 1238 3538 1922 3538 
Q 2600 3538 2981 3102 
Q 3363 2666 3363 1881 
L 3363 1572 
z
M 2750 2063 
Q 2747 2531 2528 2787 
Q 2309 3044 1913 3044 
Q 1547 3044 1280 2772 
Q 1013 2500 944 2063 
L 2750 2063 
z
" transform="scale(0.015625)"/>
       </defs>
       <use xlink:href="#MicrosoftYaHei-73"/>
       <use xlink:href="#MicrosoftYaHei-69" transform="translate(46.289062 0)"/>
       <use xlink:href="#MicrosoftYaHei-6e" transform="translate(72.900391 0)"/>
       <use xlink:href="#MicrosoftYaHei-67" transform="translate(134.521484 0)"/>
       <use xlink:href="#MicrosoftYaHei-6c" transform="translate(198.486328 0)"/>
       <use xlink:href="#MicrosoftYaHei-65" transform="translate(225.097656 0)"/>
      </g>
     </g>
    </g>
    <g id="xtick_2">
     <g id="line2d_2">
      <g>
       <use xlink:href="#m7921024d99" x="346.551273" y="419.407312" style="fill: #64748b; stroke: #64748b; stroke-width: 0.8"/>
      </g>
     </g>
     <g id="text_2">
      <!-- 4K -->
      <g style="fill: #64748b" transform="translate(340.445023 434.401062) scale(0.1 -0.1)">
       <use xlink:href="#MicrosoftYaHei-34"/>
       <use xlink:href="#MicrosoftYaHei-4b" transform="translate(58.642578 0)"/>
      </g>
      <!-- dual -->
      <g style="fill: #64748b" transform="translate(336.177054 446.4795) scale(0.1 -0.1)">
       <defs>
        <path id="MicrosoftYaHei-64" d="M 3547 0 
L 2934 0 
L 2934 575 
L 2922 575 
Q 2544 -81 1747 -81 
Q 1091 -81 703 386 
Q 316 853 316 1647 
Q 316 2503 753 3020 
Q 1191 3538 1897 3538 
Q 2603 3538 2922 2988 
L 2934 2988 
L 2934 5116 
L 3547 5116 
L 3547 0 
z
M 2938 2056 
Q 2938 2472 2664 2751 
Q 2391 3031 1991 3031 
Q 1503 3031 1222 2667 
Q 941 2303 941 1675 
Q 941 1097 1211 761 
Q 1481 425 1931 425 
Q 2375 425 2656 754 
Q 2938 1084 2938 1575 
L 2938 2056 
z
" transform="scale(0.015625)"/>
        <path id="MicrosoftYaHei-75" d="M 3400 0 
L 2784 0 
L 2784 544 
L 2772 544 
Q 2425 -81 1706 -81 
Q 478 -81 478 1388 
L 478 3456 
L 1084 3456 
L 1084 1478 
Q 1084 425 1891 425 
Q 2291 425 2537 720 
Q 2784 1016 2784 1466 
L 2784 3456 
L 3400 3456 
L 3400 0 
z
" transform="scale(0.015625)"/>
        <path id="MicrosoftYaHei-61" d="M 628 3216 
Q 1144 3538 1819 3538 
Q 3069 3538 3069 2225 
L 3069 0 
L 2463 0 
L 2463 534 
L 2447 534 
Q 2088 -81 1388 -81 
Q 884 -81 587 191 
Q 291 463 291 925 
Q 291 1894 1438 2053 
L 2463 2197 
Q 2463 3044 1763 3044 
Q 1141 3044 628 2625 
L 628 3216 
z
M 1653 1625 
Q 1228 1569 1067 1412 
Q 906 1256 906 975 
Q 906 728 1081 572 
Q 1256 416 1544 416 
Q 1944 416 2203 697 
Q 2463 978 2463 1403 
L 2463 1734 
L 1653 1625 
z
" transform="scale(0.015625)"/>
       </defs>
       <use xlink:href="#MicrosoftYaHei-64"/>
       <use xlink:href="#MicrosoftYaHei-75" transform="translate(63.964844 0)"/>
       <use xlink:href="#MicrosoftYaHei-61" transform="translate(125.585938 0)"/>
       <use xlink:href="#MicrosoftYaHei-6c" transform="translate(180.859375 0)"/>
      </g>
     </g>
    </g>
    <g id="xtick_3">
     <g id="line2d_3">
      <g>
       <use xlink:href="#m7921024d99" x="536.456727" y="419.407312" style="fill: #64748b; stroke: #64748b; stroke-width: 0.8"/>
      </g>
     </g>
     <g id="text_3">
      <!-- 16K -->
      <g style="fill: #64748b" transform="translate(527.418446 434.401062) scale(0.1 -0.1)">
       <defs>
        <path id="MicrosoftYaHei-31" d="M 1781 0 
L 1781 4141 
Q 1638 3997 1295 3819 
Q 953 3641 663 3569 
L 663 4169 
Q 1047 4275 1484 4508 
Q 1922 4741 2156 4947 
L 2388 4947 
L 2388 0 
L 1781 0 
z
" transform="scale(0.015625)"/>
        <path id="MicrosoftYaHei-36" d="M 3181 4219 
Q 2803 4413 2391 4413 
Q 1763 4413 1381 3866 
Q 1000 3319 994 2372 
L 1009 2372 
Q 1353 3038 2106 3038 
Q 2734 3038 3109 2628 
Q 3484 2219 3484 1541 
Q 3484 831 3051 375 
Q 2619 -81 1947 -81 
Q 1209 -81 789 495 
Q 369 1072 369 2131 
Q 369 3413 920 4167 
Q 1472 4922 2372 4922 
Q 2888 4922 3181 4781 
L 3181 4219 
z
M 1031 1584 
Q 1031 1106 1286 765 
Q 1541 425 1963 425 
Q 2363 425 2613 719 
Q 2863 1013 2863 1475 
Q 2863 1975 2627 2253 
Q 2391 2531 1956 2531 
Q 1544 2531 1287 2250 
Q 1031 1969 1031 1584 
z
" transform="scale(0.015625)"/>
       </defs>
       <use xlink:href="#MicrosoftYaHei-31"/>
       <use xlink:href="#MicrosoftYaHei-36" transform="translate(58.642578 0)"/>
       <use xlink:href="#MicrosoftYaHei-4b" transform="translate(117.285156 0)"/>
      </g>
      <!-- single -->
      <g style="fill: #64748b" transform="translate(522.36454 446.4795) scale(0.1 -0.1)">
       <use xlink:href="#MicrosoftYaHei-73"/>
       <use xlink:href="#MicrosoftYaHei-69" transform="translate(46.289062 0)"/>
       <use xlink:href="#MicrosoftYaHei-6e" transform="translate(72.900391 0)"/>
       <use xlink:href="#MicrosoftYaHei-67" transform="translate(134.521484 0)"/>
       <use xlink:href="#MicrosoftYaHei-6c" transform="translate(198.486328 0)"/>
       <use xlink:href="#MicrosoftYaHei-65" transform="translate(225.097656 0)"/>
      </g>
     </g>
    </g>
    <g id="xtick_4">
     <g id="line2d_4">
      <g>
       <use xlink:href="#m7921024d99" x="726.362182" y="419.407312" style="fill: #64748b; stroke: #64748b; stroke-width: 0.8"/>
      </g>
     </g>
     <g id="text_4">
      <!-- 16K -->
      <g style="fill: #64748b" transform="translate(717.323901 434.401062) scale(0.1 -0.1)">
       <use xlink:href="#MicrosoftYaHei-31"/>
       <use xlink:href="#MicrosoftYaHei-36" transform="translate(58.642578 0)"/>
       <use xlink:href="#MicrosoftYaHei-4b" transform="translate(117.285156 0)"/>
      </g>
      <!-- dual -->
      <g style="fill: #64748b" transform="translate(715.987963 446.4795) scale(0.1 -0.1)">
       <use xlink:href="#MicrosoftYaHei-64"/>
       <use xlink:href="#MicrosoftYaHei-75" transform="translate(63.964844 0)"/>
       <use xlink:href="#MicrosoftYaHei-61" transform="translate(125.585938 0)"/>
       <use xlink:href="#MicrosoftYaHei-6c" transform="translate(180.859375 0)"/>
      </g>
     </g>
    </g>
   </g>
   <g id="matplotlib.axis_2">
    <g id="ytick_1">
     <g id="line2d_5">
      <path d="M 49.824 419.407312 
L 833.184 419.407312 
" clip-path="url(#p4f4446b949)" style="fill: none; stroke: #e2e8f0; stroke-opacity: 0.9; stroke-width: 0.9; stroke-linecap: square"/>
     </g>
     <g id="line2d_6">
      <defs>
       <path id="m275cdf96c6" d="M 0 0 
L -3.5 0 
" style="stroke: #1f2937; stroke-width: 0.8"/>
      </defs>
      <g>
       <use xlink:href="#m275cdf96c6" x="49.824" y="419.407312" style="fill: #1f2937; stroke: #1f2937; stroke-width: 0.8"/>
      </g>
     </g>
     <g id="text_5">
      <!-- 0 -->
      <g style="fill: #1f2937" transform="translate(36.959938 423.404187) scale(0.1 -0.1)">
       <defs>
        <path id="MicrosoftYaHei-30" d="M 284 2325 
Q 284 3606 709 4264 
Q 1134 4922 1941 4922 
Q 3478 4922 3478 2441 
Q 3478 1216 3045 567 
Q 2613 -81 1831 -81 
Q 1094 -81 689 534 
Q 284 1150 284 2325 
z
M 909 2353 
Q 909 425 1888 425 
Q 2850 425 2850 2384 
Q 2850 4413 1906 4413 
Q 909 4413 909 2353 
z
" transform="scale(0.015625)"/>
       </defs>
       <use xlink:href="#MicrosoftYaHei-30"/>
      </g>
     </g>
    </g>
    <g id="ytick_2">
     <g id="line2d_7">
      <path d="M 49.824 380.684305 
L 833.184 380.684305 
" clip-path="url(#p4f4446b949)" style="fill: none; stroke: #e2e8f0; stroke-opacity: 0.9; stroke-width: 0.9; stroke-linecap: square"/>
     </g>
     <g id="line2d_8">
      <g>
       <use xlink:href="#m275cdf96c6" x="49.824" y="380.684305" style="fill: #1f2937; stroke: #1f2937; stroke-width: 0.8"/>
      </g>
     </g>
     <g id="text_6">
      <!-- 2 -->
      <g style="fill: #1f2937" transform="translate(36.959938 384.68118) scale(0.1 -0.1)">
       <defs>
        <path id="MicrosoftYaHei-32" d="M 2666 3572 
Q 2666 3963 2419 4186 
Q 2172 4409 1747 4409 
Q 1447 4409 1140 4256 
Q 834 4103 569 3819 
L 569 4413 
Q 806 4659 1107 4790 
Q 1409 4922 1816 4922 
Q 2472 4922 2872 4570 
Q 3272 4219 3272 3619 
Q 3272 3084 3026 2693 
Q 2781 2303 2188 1894 
Q 1581 1475 1376 1294 
Q 1172 1113 1090 947 
Q 1009 781 1009 544 
L 3416 544 
L 3416 0 
L 372 0 
L 372 241 
Q 372 659 486 951 
Q 600 1244 862 1520 
Q 1125 1797 1681 2184 
Q 2250 2584 2458 2886 
Q 2666 3188 2666 3572 
z
" transform="scale(0.015625)"/>
       </defs>
       <use xlink:href="#MicrosoftYaHei-32"/>
      </g>
     </g>
    </g>
    <g id="ytick_3">
     <g id="line2d_9">
      <path d="M 49.824 341.961297 
L 833.184 341.961297 
" clip-path="url(#p4f4446b949)" style="fill: none; stroke: #e2e8f0; stroke-opacity: 0.9; stroke-width: 0.9; stroke-linecap: square"/>
     </g>
     <g id="line2d_10">
      <g>
       <use xlink:href="#m275cdf96c6" x="49.824" y="341.961297" style="fill: #1f2937; stroke: #1f2937; stroke-width: 0.8"/>
      </g>
     </g>
     <g id="text_7">
      <!-- 4 -->
      <g style="fill: #1f2937" transform="translate(36.959938 345.958172) scale(0.1 -0.1)">
       <use xlink:href="#MicrosoftYaHei-34"/>
      </g>
     </g>
    </g>
    <g id="ytick_4">
     <g id="line2d_11">
      <path d="M 49.824 303.23829 
L 833.184 303.23829 
" clip-path="url(#p4f4446b949)" style="fill: none; stroke: #e2e8f0; stroke-opacity: 0.9; stroke-width: 0.9; stroke-linecap: square"/>
     </g>
     <g id="line2d_12">
      <g>
       <use xlink:href="#m275cdf96c6" x="49.824" y="303.23829" style="fill: #1f2937; stroke: #1f2937; stroke-width: 0.8"/>
      </g>
     </g>
     <g id="text_8">
      <!-- 6 -->
      <g style="fill: #1f2937" transform="translate(36.959938 307.235165) scale(0.1 -0.1)">
       <use xlink:href="#MicrosoftYaHei-36"/>
      </g>
     </g>
    </g>
    <g id="ytick_5">
     <g id="line2d_13">
      <path d="M 49.824 264.515282 
L 833.184 264.515282 
" clip-path="url(#p4f4446b949)" style="fill: none; stroke: #e2e8f0; stroke-opacity: 0.9; stroke-width: 0.9; stroke-linecap: square"/>
     </g>
     <g id="line2d_14">
      <g>
       <use xlink:href="#m275cdf96c6" x="49.824" y="264.515282" style="fill: #1f2937; stroke: #1f2937; stroke-width: 0.8"/>
      </g>
     </g>
     <g id="text_9">
      <!-- 8 -->
      <g style="fill: #1f2937" transform="translate(36.959938 268.512157) scale(0.1 -0.1)">
       <defs>
        <path id="MicrosoftYaHei-38" d="M 306 1350 
Q 306 1769 556 2122 
Q 806 2475 1200 2625 
Q 884 2803 700 3081 
Q 516 3359 516 3684 
Q 516 4028 692 4312 
Q 869 4597 1183 4759 
Q 1497 4922 1875 4922 
Q 2256 4922 2572 4761 
Q 2888 4600 3063 4315 
Q 3238 4031 3238 3684 
Q 3238 3366 3058 3086 
Q 2878 2806 2559 2625 
Q 2953 2472 3200 2119 
Q 3447 1766 3447 1350 
Q 3447 938 3250 611 
Q 3053 284 2690 103 
Q 2328 -78 1875 -78 
Q 1425 -78 1065 103 
Q 706 284 506 612 
Q 306 941 306 1350 
z
M 906 1378 
Q 906 947 1172 687 
Q 1438 428 1878 428 
Q 2309 428 2582 692 
Q 2856 956 2856 1378 
Q 2856 1778 2579 2051 
Q 2303 2325 1878 2325 
Q 1456 2325 1181 2058 
Q 906 1791 906 1378 
z
M 1081 3634 
Q 1081 3309 1312 3076 
Q 1544 2844 1878 2844 
Q 2206 2844 2445 3078 
Q 2684 3313 2684 3634 
Q 2684 3963 2454 4191 
Q 2225 4419 1878 4419 
Q 1534 4419 1307 4195 
Q 1081 3972 1081 3634 
z
" transform="scale(0.015625)"/>
       </defs>
       <use xlink:href="#MicrosoftYaHei-38"/>
      </g>
     </g>
    </g>
    <g id="ytick_6">
     <g id="line2d_15">
      <path d="M 49.824 225.792275 
L 833.184 225.792275 
" clip-path="url(#p4f4446b949)" style="fill: none; stroke: #e2e8f0; stroke-opacity: 0.9; stroke-width: 0.9; stroke-linecap: square"/>
     </g>
     <g id="line2d_16">
      <g>
       <use xlink:href="#m275cdf96c6" x="49.824" y="225.792275" style="fill: #1f2937; stroke: #1f2937; stroke-width: 0.8"/>
      </g>
     </g>
     <g id="text_10">
      <!-- 10 -->
      <g style="fill: #1f2937" transform="translate(31.095875 229.78915) scale(0.1 -0.1)">
       <use xlink:href="#MicrosoftYaHei-31"/>
       <use xlink:href="#MicrosoftYaHei-30" transform="translate(58.642578 0)"/>
      </g>
     </g>
    </g>
    <g id="ytick_7">
     <g id="line2d_17">
      <path d="M 49.824 187.069267 
L 833.184 187.069267 
" clip-path="url(#p4f4446b949)" style="fill: none; stroke: #e2e8f0; stroke-opacity: 0.9; stroke-width: 0.9; stroke-linecap: square"/>
     </g>
     <g id="line2d_18">
      <g>
       <use xlink:href="#m275cdf96c6" x="49.824" y="187.069267" style="fill: #1f2937; stroke: #1f2937; stroke-width: 0.8"/>
      </g>
     </g>
     <g id="text_11">
      <!-- 12 -->
      <g style="fill: #1f2937" transform="translate(31.095875 191.066142) scale(0.1 -0.1)">
       <use xlink:href="#MicrosoftYaHei-31"/>
       <use xlink:href="#MicrosoftYaHei-32" transform="translate(58.642578 0)"/>
      </g>
     </g>
    </g>
    <g id="ytick_8">
     <g id="line2d_19">
      <path d="M 49.824 148.34626 
L 833.184 148.34626 
" clip-path="url(#p4f4446b949)" style="fill: none; stroke: #e2e8f0; stroke-opacity: 0.9; stroke-width: 0.9; stroke-linecap: square"/>
     </g>
     <g id="line2d_20">
      <g>
       <use xlink:href="#m275cdf96c6" x="49.824" y="148.34626" style="fill: #1f2937; stroke: #1f2937; stroke-width: 0.8"/>
      </g>
     </g>
     <g id="text_12">
      <!-- 14 -->
      <g style="fill: #1f2937" transform="translate(31.095875 152.343135) scale(0.1 -0.1)">
       <use xlink:href="#MicrosoftYaHei-31"/>
       <use xlink:href="#MicrosoftYaHei-34" transform="translate(58.642578 0)"/>
      </g>
     </g>
    </g>
    <g id="ytick_9">
     <g id="line2d_21">
      <path d="M 49.824 109.623252 
L 833.184 109.623252 
" clip-path="url(#p4f4446b949)" style="fill: none; stroke: #e2e8f0; stroke-opacity: 0.9; stroke-width: 0.9; stroke-linecap: square"/>
     </g>
     <g id="line2d_22">
      <g>
       <use xlink:href="#m275cdf96c6" x="49.824" y="109.623252" style="fill: #1f2937; stroke: #1f2937; stroke-width: 0.8"/>
      </g>
     </g>
     <g id="text_13">
      <!-- 16 -->
      <g style="fill: #1f2937" transform="translate(31.095875 113.620127) scale(0.1 -0.1)">
       <use xlink:href="#MicrosoftYaHei-31"/>
       <use xlink:href="#MicrosoftYaHei-36" transform="translate(58.642578 0)"/>
      </g>
     </g>
    </g>
    <g id="text_14">
     <!-- 耗时 (s) -->
     <g style="fill: #64748b" transform="translate(24.609938 281.022469) rotate(-90) scale(0.1 -0.1)">
      <defs>
       <path id="MicrosoftYaHei-8017" d="M 2506 1622 
L 3913 1753 
L 3913 2878 
L 2738 2772 
L 2706 3197 
L 3913 3303 
L 3913 4459 
Q 3381 4403 2794 4353 
Q 2769 4584 2700 4809 
Q 4225 4916 5706 5172 
L 5819 4697 
Q 5188 4603 4381 4509 
L 4381 3347 
L 5825 3478 
L 5850 3053 
L 4381 2916 
L 4381 1797 
L 6150 1966 
L 6175 1541 
L 4381 1366 
L 4381 128 
Q 4381 -241 4706 -241 
L 5400 -241 
Q 5688 -241 5750 147 
Q 5813 566 5844 991 
Q 6094 866 6319 791 
Q 6250 291 6194 -28 
Q 6094 -691 5456 -691 
L 4588 -691 
Q 3913 -691 3913 72 
L 3913 1322 
L 2538 1197 
L 2506 1622 
z
M 88 191 
Q 769 1072 1088 2022 
L 138 2022 
L 138 2422 
L 1250 2422 
L 1250 3028 
L 363 3028 
L 363 3428 
L 1250 3428 
L 1250 4016 
L 231 4016 
L 231 4416 
L 1250 4416 
L 1250 5303 
L 1675 5303 
L 1675 4416 
L 2631 4416 
L 2631 4016 
L 1675 4016 
L 1675 3428 
L 2519 3428 
L 2519 3028 
L 1675 3028 
L 1675 2422 
L 2700 2422 
L 2700 2022 
L 1675 2022 
L 1675 1334 
L 1894 1547 
Q 2381 1078 2806 622 
L 2463 316 
Q 2125 747 1675 1203 
L 1675 -841 
L 1250 -841 
L 1250 1491 
Q 869 434 281 -297 
Q 188 -16 88 191 
z
" transform="scale(0.015625)"/>
       <path id="MicrosoftYaHei-65f6" d="M 344 4728 
L 2500 4728 
L 2500 -366 
L 2006 -366 
L 2006 153 
L 838 153 
L 838 -441 
L 344 -441 
L 344 4728 
z
M 2706 3941 
L 4925 3941 
L 4925 5322 
L 5425 5322 
L 5425 3941 
L 6313 3941 
L 6313 3478 
L 5425 3478 
L 5425 116 
Q 5425 -722 4625 -722 
Q 4263 -722 3563 -703 
Q 3531 -478 3463 -178 
Q 4119 -228 4488 -228 
Q 4925 -228 4925 216 
L 4925 3478 
L 2706 3478 
L 2706 3941 
z
M 838 616 
L 2006 616 
L 2006 2234 
L 838 2234 
L 838 616 
z
M 2006 4266 
L 838 4266 
L 838 2684 
L 2006 2684 
L 2006 4266 
z
M 3406 2878 
Q 3906 1966 4163 1422 
Q 4000 1347 3663 1172 
Q 3419 1766 2963 2653 
L 3406 2878 
z
" transform="scale(0.015625)"/>
       <path id="MicrosoftYaHei-20" transform="scale(0.015625)"/>
       <path id="MicrosoftYaHei-28" d="M 1531 -1100 
Q 478 100 478 1847 
Q 478 3594 1531 4841 
L 2072 4841 
Q 1016 3544 1016 1853 
Q 1016 166 2066 -1100 
L 1531 -1100 
z
" transform="scale(0.015625)"/>
       <path id="MicrosoftYaHei-29" d="M 78 -1100 
Q 1131 163 1131 1853 
Q 1131 3547 72 4841 
L 616 4841 
Q 1672 3603 1672 1847 
Q 1672 91 616 -1100 
L 78 -1100 
z
" transform="scale(0.015625)"/>
      </defs>
      <use xlink:href="#MicrosoftYaHei-8017"/>
      <use xlink:href="#MicrosoftYaHei-65f6" transform="translate(100 0)"/>
      <use xlink:href="#MicrosoftYaHei-20" transform="translate(200 0)"/>
      <use xlink:href="#MicrosoftYaHei-28" transform="translate(229.589844 0)"/>
      <use xlink:href="#MicrosoftYaHei-73" transform="translate(262.988281 0)"/>
      <use xlink:href="#MicrosoftYaHei-29" transform="translate(309.277344 0)"/>
     </g>
    </g>
   </g>
   <g id="patch_3">
    <path d="M 85.431273 419.407312 
L 132.907636 419.407312 
L 132.907636 354.445266 
L 85.431273 354.445266 
z
" clip-path="url(#p4f4446b949)" style="fill: #2563eb"/>
   </g>
   <g id="patch_4">
    <path d="M 275.336727 419.407312 
L 322.813091 419.407312 
L 322.813091 365.57784 
L 275.336727 365.57784 
z
" clip-path="url(#p4f4446b949)" style="fill: #2563eb"/>
   </g>
   <g id="patch_5">
    <path d="M 465.242182 419.407312 
L 512.718545 419.407312 
L 512.718545 164.456493 
L 465.242182 164.456493 
z
" clip-path="url(#p4f4446b949)" style="fill: #2563eb"/>
   </g>
   <g id="patch_6">
    <path d="M 655.147636 419.407312 
L 702.624 419.407312 
L 702.624 204.496557 
L 655.147636 204.496557 
z
" clip-path="url(#p4f4446b949)" style="fill: #2563eb"/>
   </g>
   <g id="patch_7">
    <path d="M 132.907636 419.407312 
L 180.384 419.407312 
L 180.384 386.930549 
L 132.907636 386.930549 
z
" clip-path="url(#p4f4446b949)" style="fill: #f97316"/>
   </g>
   <g id="patch_8">
    <path d="M 322.813091 419.407312 
L 370.289455 419.407312 
L 370.289455 396.402419 
L 322.813091 396.402419 
z
" clip-path="url(#p4f4446b949)" style="fill: #f97316"/>
   </g>
   <g id="patch_9">
    <path d="M 512.718545 419.407312 
L 560.194909 419.407312 
L 560.194909 294.083735 
L 512.718545 294.083735 
z
" clip-path="url(#p4f4446b949)" style="fill: #f97316"/>
   </g>
   <g id="patch_10">
    <path d="M 702.624 419.407312 
L 750.100364 419.407312 
L 750.100364 329.801344 
L 702.624 329.801344 
z
" clip-path="url(#p4f4446b949)" style="fill: #f97316"/>
   </g>
   <g id="patch_11">
    <path d="M 180.384 419.407312 
L 227.860364 419.407312 
L 227.860364 387.449727 
L 180.384 387.449727 
z
" clip-path="url(#p4f4446b949)" style="fill: #7c3aed"/>
   </g>
   <g id="patch_12">
    <path d="M 370.289455 419.407312 
L 417.765818 419.407312 
L 417.765818 389.114691 
L 370.289455 389.114691 
z
" clip-path="url(#p4f4446b949)" style="fill: #7c3aed"/>
   </g>
   <g id="patch_13">
    <path d="M 560.194909 419.407312 
L 607.671273 419.407312 
L 607.671273 291.890716 
L 560.194909 291.890716 
z
" clip-path="url(#p4f4446b949)" style="fill: #7c3aed"/>
   </g>
   <g id="patch_14">
    <path d="M 750.100364 419.407312 
L 797.576727 419.407312 
L 797.576727 296.200654 
L 750.100364 296.200654 
z
" clip-path="url(#p4f4446b949)" style="fill: #7c3aed"/>
   </g>
   <g id="patch_15">
    <path d="M 49.824 419.407312 
L 49.824 108.367312 
" style="fill: none; stroke: #e2e8f0; stroke-width: 0.8; stroke-linejoin: miter; stroke-linecap: square"/>
   </g>
   <g id="patch_16">
    <path d="M 49.824 419.407312 
L 833.184 419.407312 
" style="fill: none; stroke: #e2e8f0; stroke-width: 0.8; stroke-linejoin: miter; stroke-linecap: square"/>
   </g>
   <g id="text_15">
    <!-- 3.4 -->
    <g style="fill: #1f2937" transform="translate(102.454884 349.373015) scale(0.095 -0.095)">
     <defs>
      <path id="MicrosoftYaHei-33" d="M 447 809 
Q 944 425 1569 425 
Q 2069 425 2361 670 
Q 2653 916 2653 1328 
Q 2653 2247 1338 2247 
L 934 2247 
L 934 2753 
L 1319 2753 
Q 2484 2753 2484 3616 
Q 2484 4413 1594 4413 
Q 1084 4413 634 4069 
L 634 4647 
Q 1109 4922 1744 4922 
Q 2363 4922 2738 4598 
Q 3113 4275 3113 3759 
Q 3113 2809 2144 2538 
L 2144 2525 
Q 2669 2469 2973 2155 
Q 3278 1841 3278 1372 
Q 3278 719 2808 319 
Q 2338 -81 1556 -81 
Q 869 -81 447 175 
L 447 809 
z
" transform="scale(0.015625)"/>
      <path id="MicrosoftYaHei-2e" d="M 372 322 
Q 372 491 487 606 
Q 603 722 775 722 
Q 950 722 1065 605 
Q 1181 488 1181 322 
Q 1181 159 1065 42 
Q 950 -75 772 -75 
Q 600 -75 486 42 
Q 372 159 372 322 
z
" transform="scale(0.015625)"/>
     </defs>
     <use xlink:href="#MicrosoftYaHei-33"/>
     <use xlink:href="#MicrosoftYaHei-2e" transform="translate(58.642578 0)"/>
     <use xlink:href="#MicrosoftYaHei-34" transform="translate(82.714844 0)"/>
    </g>
   </g>
   <g id="text_16">
    <!-- 2.8 -->
    <g style="fill: #1f2937" transform="translate(292.360339 360.505589) scale(0.095 -0.095)">
     <use xlink:href="#MicrosoftYaHei-32"/>
     <use xlink:href="#MicrosoftYaHei-2e" transform="translate(58.642578 0)"/>
     <use xlink:href="#MicrosoftYaHei-38" transform="translate(82.714844 0)"/>
    </g>
   </g>
   <g id="text_17">
    <!-- 13.2 -->
    <g style="fill: #1f2937" transform="translate(479.480364 159.384242) scale(0.095 -0.095)">
     <use xlink:href="#MicrosoftYaHei-31"/>
     <use xlink:href="#MicrosoftYaHei-33" transform="translate(58.642578 0)"/>
     <use xlink:href="#MicrosoftYaHei-2e" transform="translate(117.285156 0)"/>
     <use xlink:href="#MicrosoftYaHei-32" transform="translate(141.357422 0)"/>
    </g>
   </g>
   <g id="text_18">
    <!-- 11.1 -->
    <g style="fill: #1f2937" transform="translate(669.385818 199.424306) scale(0.095 -0.095)">
     <use xlink:href="#MicrosoftYaHei-31"/>
     <use xlink:href="#MicrosoftYaHei-31" transform="translate(58.642578 0)"/>
     <use xlink:href="#MicrosoftYaHei-2e" transform="translate(117.285156 0)"/>
     <use xlink:href="#MicrosoftYaHei-31" transform="translate(141.357422 0)"/>
    </g>
   </g>
   <g id="text_19">
    <!-- 1.7 -->
    <g style="fill: #1f2937" transform="translate(149.931248 381.858298) scale(0.095 -0.095)">
     <defs>
      <path id="MicrosoftYaHei-37" d="M 3422 4463 
Q 2659 3131 2223 1998 
Q 1788 866 1684 0 
L 1047 0 
Q 1163 853 1594 1947 
Q 2025 3041 2747 4300 
L 347 4300 
L 347 4841 
L 3422 4841 
L 3422 4463 
z
" transform="scale(0.015625)"/>
     </defs>
     <use xlink:href="#MicrosoftYaHei-31"/>
     <use xlink:href="#MicrosoftYaHei-2e" transform="translate(58.642578 0)"/>
     <use xlink:href="#MicrosoftYaHei-37" transform="translate(82.714844 0)"/>
    </g>
   </g>
   <g id="text_20">
    <!-- 1.2 -->
    <g style="fill: #1f2937" transform="translate(339.836702 391.330168) scale(0.095 -0.095)">
     <use xlink:href="#MicrosoftYaHei-31"/>
     <use xlink:href="#MicrosoftYaHei-2e" transform="translate(58.642578 0)"/>
     <use xlink:href="#MicrosoftYaHei-32" transform="translate(82.714844 0)"/>
    </g>
   </g>
   <g id="text_21">
    <!-- 6.5 -->
    <g style="fill: #1f2937" transform="translate(529.742157 289.011484) scale(0.095 -0.095)">
     <defs>
      <path id="MicrosoftYaHei-35" d="M 3294 1494 
Q 3294 784 2823 350 
Q 2353 -84 1559 -84 
Q 878 -84 544 119 
L 544 744 
Q 1034 425 1544 425 
Q 2050 425 2361 704 
Q 2672 984 2672 1447 
Q 2672 1909 2348 2167 
Q 2025 2425 1434 2425 
Q 978 2425 613 2384 
L 791 4841 
L 3053 4841 
L 3053 4303 
L 1306 4303 
L 1206 2931 
L 1647 2950 
Q 2416 2950 2855 2567 
Q 3294 2184 3294 1494 
z
" transform="scale(0.015625)"/>
     </defs>
     <use xlink:href="#MicrosoftYaHei-36"/>
     <use xlink:href="#MicrosoftYaHei-2e" transform="translate(58.642578 0)"/>
     <use xlink:href="#MicrosoftYaHei-35" transform="translate(82.714844 0)"/>
    </g>
   </g>
   <g id="text_22">
    <!-- 4.6 -->
    <g style="fill: #1f2937" transform="translate(719.647612 324.729093) scale(0.095 -0.095)">
     <use xlink:href="#MicrosoftYaHei-34"/>
     <use xlink:href="#MicrosoftYaHei-2e" transform="translate(58.642578 0)"/>
     <use xlink:href="#MicrosoftYaHei-36" transform="translate(82.714844 0)"/>
    </g>
   </g>
   <g id="text_23">
    <!-- 1.7 -->
    <g style="fill: #1f2937" transform="translate(197.407612 382.377476) scale(0.095 -0.095)">
     <use xlink:href="#MicrosoftYaHei-31"/>
     <use xlink:href="#MicrosoftYaHei-2e" transform="translate(58.642578 0)"/>
     <use xlink:href="#MicrosoftYaHei-37" transform="translate(82.714844 0)"/>
    </g>
   </g>
   <g id="text_24">
    <!-- 1.6 -->
    <g style="fill: #1f2937" transform="translate(387.313066 384.04244) scale(0.095 -0.095)">
     <use xlink:href="#MicrosoftYaHei-31"/>
     <use xlink:href="#MicrosoftYaHei-2e" transform="translate(58.642578 0)"/>
     <use xlink:href="#MicrosoftYaHei-36" transform="translate(82.714844 0)"/>
    </g>
   </g>
   <g id="text_25">
    <!-- 6.6 -->
    <g style="fill: #1f2937" transform="translate(577.218521 286.818465) scale(0.095 -0.095)">
     <use xlink:href="#MicrosoftYaHei-36"/>
     <use xlink:href="#MicrosoftYaHei-2e" transform="translate(58.642578 0)"/>
     <use xlink:href="#MicrosoftYaHei-36" transform="translate(82.714844 0)"/>
    </g>
   </g>
   <g id="text_26">
    <!-- 6.4 -->
    <g style="fill: #1f2937" transform="translate(767.123975 291.128403) scale(0.095 -0.095)">
     <use xlink:href="#MicrosoftYaHei-36"/>
     <use xlink:href="#MicrosoftYaHei-2e" transform="translate(58.642578 0)"/>
     <use xlink:href="#MicrosoftYaHei-34" transform="translate(82.714844 0)"/>
    </g>
   </g>
   <g id="legend_1">
    <g id="patch_17">
     <path d="M 595.8215 125.361062 
L 615.8215 125.361062 
L 615.8215 118.361062 
L 595.8215 118.361062 
z
" style="fill: #2563eb"/>
    </g>
    <g id="text_27">
     <!-- E2E -->
     <g style="fill: #1f2937" transform="translate(623.8215 125.361062) scale(0.1 -0.1)">
      <defs>
       <path id="MicrosoftYaHei-45" d="M 3228 0 
L 625 0 
L 625 4841 
L 3119 4841 
L 3119 4284 
L 1250 4284 
L 1250 2734 
L 2981 2734 
L 2981 2181 
L 1250 2181 
L 1250 553 
L 3228 553 
L 3228 0 
z
" transform="scale(0.015625)"/>
      </defs>
      <use xlink:href="#MicrosoftYaHei-45"/>
      <use xlink:href="#MicrosoftYaHei-32" transform="translate(54.980469 0)"/>
      <use xlink:href="#MicrosoftYaHei-45" transform="translate(113.623047 0)"/>
     </g>
    </g>
    <g id="patch_18">
     <path d="M 660.682437 125.361062 
L 680.682437 125.361062 
L 680.682437 118.361062 
L 660.682437 118.361062 
z
" style="fill: #f97316"/>
    </g>
    <g id="text_28">
     <!-- operator -->
     <g style="fill: #1f2937" transform="translate(688.682437 125.361062) scale(0.1 -0.1)">
      <defs>
       <path id="MicrosoftYaHei-6f" d="M 316 1691 
Q 316 2547 794 3042 
Q 1272 3538 2091 3538 
Q 2869 3538 3311 3061 
Q 3753 2584 3753 1744 
Q 3753 925 3281 422 
Q 2809 -81 2016 -81 
Q 1241 -81 778 406 
Q 316 894 316 1691 
z
M 941 1709 
Q 941 1113 1242 769 
Q 1544 425 2053 425 
Q 2578 425 2853 761 
Q 3128 1097 3128 1725 
Q 3128 2356 2853 2693 
Q 2578 3031 2053 3031 
Q 1538 3031 1239 2678 
Q 941 2325 941 1709 
z
" transform="scale(0.015625)"/>
       <path id="MicrosoftYaHei-70" d="M 1159 488 
L 1159 -1591 
L 547 -1591 
L 547 3456 
L 1159 3456 
L 1159 2859 
L 1172 2859 
Q 1578 3538 2359 3538 
Q 3022 3538 3398 3073 
Q 3775 2609 3775 1828 
Q 3775 966 3348 442 
Q 2922 -81 2200 -81 
Q 1534 -81 1172 488 
L 1159 488 
z
M 1156 1425 
Q 1156 1003 1428 714 
Q 1700 425 2109 425 
Q 2597 425 2872 800 
Q 3147 1175 3147 1838 
Q 3147 2397 2890 2714 
Q 2634 3031 2191 3031 
Q 1738 3031 1447 2709 
Q 1156 2388 1156 1884 
L 1156 1425 
z
" transform="scale(0.015625)"/>
       <path id="MicrosoftYaHei-72" d="M 2400 2850 
Q 2247 2959 1978 2959 
Q 1622 2959 1390 2626 
Q 1159 2294 1159 1750 
L 1159 0 
L 547 0 
L 547 3456 
L 1159 3456 
L 1159 2753 
L 1172 2753 
Q 1434 3516 2078 3516 
Q 2288 3516 2400 3469 
L 2400 2850 
z
" transform="scale(0.015625)"/>
       <path id="MicrosoftYaHei-74" d="M 2206 34 
Q 2006 -75 1666 -75 
Q 738 -75 738 953 
L 738 2950 
L 144 2950 
L 144 3456 
L 738 3456 
L 738 4288 
L 1347 4481 
L 1347 3456 
L 2206 3456 
L 2206 2950 
L 1347 2950 
L 1347 1063 
Q 1347 722 1462 575 
Q 1578 428 1847 428 
Q 2053 428 2206 544 
L 2206 34 
z
" transform="scale(0.015625)"/>
      </defs>
      <use xlink:href="#MicrosoftYaHei-6f"/>
      <use xlink:href="#MicrosoftYaHei-70" transform="translate(63.574219 0)"/>
      <use xlink:href="#MicrosoftYaHei-65" transform="translate(127.441406 0)"/>
      <use xlink:href="#MicrosoftYaHei-72" transform="translate(184.179688 0)"/>
      <use xlink:href="#MicrosoftYaHei-61" transform="translate(222.363281 0)"/>
      <use xlink:href="#MicrosoftYaHei-74" transform="translate(277.636719 0)"/>
      <use xlink:href="#MicrosoftYaHei-6f" transform="translate(314.017578 0)"/>
      <use xlink:href="#MicrosoftYaHei-72" transform="translate(377.591797 0)"/>
     </g>
    </g>
    <g id="patch_19">
     <path d="M 750.262125 125.361062 
L 770.262125 125.361062 
L 770.262125 118.361062 
L 750.262125 118.361062 
z
" style="fill: #7c3aed"/>
    </g>
    <g id="text_29">
     <!-- writeback -->
     <g style="fill: #1f2937" transform="translate(778.262125 125.361062) scale(0.1 -0.1)">
      <defs>
       <path id="MicrosoftYaHei-77" d="M 4975 3456 
L 3944 0 
L 3306 0 
L 2619 2425 
Q 2575 2581 2563 2756 
L 2550 2756 
Q 2541 2625 2478 2431 
L 1734 0 
L 1116 0 
L 78 3456 
L 716 3456 
L 1406 894 
Q 1438 778 1453 578 
L 1478 578 
Q 1491 750 1538 903 
L 2281 3456 
L 2847 3456 
L 3572 891 
Q 3603 778 3622 572 
L 3650 572 
Q 3656 709 3706 891 
L 4381 3456 
L 4975 3456 
z
" transform="scale(0.015625)"/>
       <path id="MicrosoftYaHei-62" d="M 1159 488 
L 1159 0 
L 547 0 
L 547 5116 
L 1159 5116 
L 1159 2859 
L 1172 2859 
Q 1578 3538 2359 3538 
Q 3009 3538 3392 3080 
Q 3775 2622 3775 1828 
Q 3775 953 3345 436 
Q 2916 -81 2200 -81 
Q 1525 -81 1172 488 
L 1159 488 
z
M 1156 1422 
Q 1156 1003 1428 714 
Q 1700 425 2109 425 
Q 2597 425 2872 800 
Q 3147 1175 3147 1838 
Q 3147 2384 2890 2707 
Q 2634 3031 2191 3031 
Q 1741 3031 1448 2709 
Q 1156 2388 1156 1891 
L 1156 1422 
z
" transform="scale(0.015625)"/>
       <path id="MicrosoftYaHei-63" d="M 2934 156 
Q 2538 -81 1978 -81 
Q 1228 -81 772 400 
Q 316 881 316 1647 
Q 316 2497 808 3017 
Q 1300 3538 2125 3538 
Q 2600 3538 2938 3369 
L 2938 2763 
Q 2572 3031 2125 3031 
Q 1600 3031 1270 2667 
Q 941 2303 941 1697 
Q 941 1100 1252 762 
Q 1563 425 2091 425 
Q 2538 425 2934 719 
L 2934 156 
z
" transform="scale(0.015625)"/>
       <path id="MicrosoftYaHei-6b" d="M 3484 0 
L 2650 0 
L 1172 1666 
L 1159 1666 
L 1159 0 
L 547 0 
L 547 5116 
L 1159 5116 
L 1159 1872 
L 1172 1872 
L 2575 3456 
L 3363 3456 
L 1800 1794 
L 3484 0 
z
" transform="scale(0.015625)"/>
      </defs>
      <use xlink:href="#MicrosoftYaHei-77"/>
      <use xlink:href="#MicrosoftYaHei-72" transform="translate(78.955078 0)"/>
      <use xlink:href="#MicrosoftYaHei-69" transform="translate(117.138672 0)"/>
      <use xlink:href="#MicrosoftYaHei-74" transform="translate(143.75 0)"/>
      <use xlink:href="#MicrosoftYaHei-65" transform="translate(180.130859 0)"/>
      <use xlink:href="#MicrosoftYaHei-62" transform="translate(236.869141 0)"/>
      <use xlink:href="#MicrosoftYaHei-61" transform="translate(299.361328 0)"/>
      <use xlink:href="#MicrosoftYaHei-63" transform="translate(354.634766 0)"/>
      <use xlink:href="#MicrosoftYaHei-6b" transform="translate(404.78125 0)"/>
     </g>
    </g>
   </g>
  </g>
  <g id="text_30">
   <!-- Ray actor 单 / 双 endpoint 扩展对比 -->
   <g style="fill: #1f2937" transform="translate(12.96 28.015312) scale(0.18 -0.18)">
    <defs>
     <path id="MicrosoftYaHei-Bold-52" d="M 4553 0 
L 3366 0 
L 2606 1259 
Q 2372 1650 2222 1762 
Q 2072 1875 1903 1875 
L 1591 1875 
L 1591 0 
L 559 0 
L 559 4841 
L 2256 4841 
Q 3984 4841 3984 3528 
Q 3984 3034 3695 2681 
Q 3406 2328 2900 2184 
L 2900 2172 
Q 3234 2059 3641 1434 
L 4553 0 
z
M 1591 4056 
L 1591 2663 
L 2097 2663 
Q 2459 2663 2679 2873 
Q 2900 3084 2900 3400 
Q 2900 4056 2116 4056 
L 1591 4056 
z
" transform="scale(0.015625)"/>
     <path id="MicrosoftYaHei-Bold-61" d="M 544 3247 
Q 778 3378 1170 3459 
Q 1563 3541 1841 3541 
Q 3291 3541 3291 2088 
L 3291 0 
L 2331 0 
L 2331 503 
L 2319 503 
Q 1966 -84 1284 -84 
Q 794 -84 498 195 
Q 203 475 203 956 
Q 203 1950 1388 2113 
L 2338 2241 
Q 2338 2844 1709 2844 
Q 1091 2844 544 2469 
L 544 3247 
z
M 1684 1566 
Q 1138 1494 1138 1072 
Q 1138 878 1270 759 
Q 1403 641 1628 641 
Q 1938 641 2138 859 
Q 2338 1078 2338 1403 
L 2338 1650 
L 1684 1566 
z
" transform="scale(0.015625)"/>
     <path id="MicrosoftYaHei-Bold-79" d="M 3691 3456 
L 2266 -309 
Q 1769 -1622 778 -1622 
Q 388 -1622 172 -1541 
L 172 -731 
Q 375 -847 619 -847 
Q 1031 -847 1200 -447 
L 1391 6 
L -6 3456 
L 1113 3456 
L 1788 1291 
Q 1850 1094 1878 850 
L 1897 850 
Q 1919 1016 2000 1284 
L 2691 3456 
L 3691 3456 
z
" transform="scale(0.015625)"/>
     <path id="MicrosoftYaHei-Bold-20" transform="scale(0.015625)"/>
     <path id="MicrosoftYaHei-Bold-63" d="M 3050 128 
Q 2688 -84 2019 -84 
Q 1228 -84 740 397 
Q 253 878 253 1644 
Q 253 2525 778 3033 
Q 1303 3541 2178 3541 
Q 2769 3541 3053 3378 
L 3053 2513 
Q 2706 2766 2297 2766 
Q 1834 2766 1554 2484 
Q 1275 2203 1275 1713 
Q 1275 1238 1540 964 
Q 1806 691 2263 691 
Q 2666 691 3050 947 
L 3050 128 
z
" transform="scale(0.015625)"/>
     <path id="MicrosoftYaHei-Bold-74" d="M 2494 41 
Q 2266 -84 1803 -84 
Q 703 -84 703 1072 
L 703 2703 
L 134 2703 
L 134 3456 
L 703 3456 
L 703 4216 
L 1706 4503 
L 1706 3456 
L 2494 3456 
L 2494 2703 
L 1706 2703 
L 1706 1247 
Q 1706 694 2144 694 
Q 2313 694 2494 794 
L 2494 41 
z
" transform="scale(0.015625)"/>
     <path id="MicrosoftYaHei-Bold-6f" d="M 253 1713 
Q 253 2566 764 3053 
Q 1275 3541 2138 3541 
Q 2972 3541 3462 3061 
Q 3953 2581 3953 1772 
Q 3953 922 3450 419 
Q 2947 -84 2088 -84 
Q 1244 -84 748 398 
Q 253 881 253 1713 
z
M 1275 1725 
Q 1275 691 2119 691 
Q 2928 691 2928 1753 
Q 2928 2766 2113 2766 
Q 1716 2766 1495 2494 
Q 1275 2222 1275 1725 
z
" transform="scale(0.015625)"/>
     <path id="MicrosoftYaHei-Bold-72" d="M 2663 2541 
Q 2478 2647 2216 2647 
Q 1872 2647 1670 2384 
Q 1469 2122 1469 1663 
L 1469 0 
L 459 0 
L 459 3456 
L 1469 3456 
L 1469 2806 
L 1481 2806 
Q 1731 3516 2391 3516 
Q 2569 3516 2663 3475 
L 2663 2541 
z
" transform="scale(0.015625)"/>
     <path id="MicrosoftYaHei-Bold-5355" d="M 606 4403 
L 1750 4403 
Q 1534 4713 1306 5003 
L 2056 5341 
L 2706 4578 
L 2313 4403 
L 3569 4403 
Q 3944 4884 4244 5353 
L 5188 5016 
Q 4969 4781 4628 4403 
L 5806 4403 
L 5806 1297 
L 3644 1297 
L 3644 866 
L 6288 866 
L 6288 97 
L 3644 97 
L 3644 -834 
L 2769 -834 
L 2769 97 
L 113 97 
L 113 866 
L 2769 866 
L 2769 1297 
L 606 1297 
L 606 4403 
z
M 4981 3678 
L 3644 3678 
L 3644 3172 
L 4981 3172 
L 4981 3678 
z
M 1431 3172 
L 2769 3172 
L 2769 3678 
L 1431 3678 
L 1431 3172 
z
M 4981 2022 
L 4981 2528 
L 3644 2528 
L 3644 2022 
L 4981 2022 
z
M 1431 2022 
L 2769 2022 
L 2769 2528 
L 1431 2528 
L 1431 2022 
z
" transform="scale(0.015625)"/>
     <path id="MicrosoftYaHei-Bold-2f" d="M 3100 4841 
L 747 -803 
L -156 -803 
L 2188 4841 
L 3100 4841 
z
" transform="scale(0.015625)"/>
     <path id="MicrosoftYaHei-Bold-53cc" d="M 6050 4903 
Q 6006 2691 5013 1119 
Q 5559 422 6338 -84 
Q 6269 -172 5638 -859 
Q 4931 -331 4409 325 
Q 3813 -344 3000 -866 
Q 2713 -441 2425 -97 
Q 3284 431 3875 1119 
Q 3259 2194 3038 3553 
L 3863 3728 
Q 4053 2756 4466 1969 
Q 4988 2906 5113 4078 
L 2919 4078 
L 2919 4903 
L 6050 4903 
z
M 844 3897 
L 1672 2622 
Q 1872 3300 1944 4078 
L 175 4078 
L 175 4903 
L 2831 4903 
Q 2838 3091 2278 1681 
L 2950 641 
Q 2556 384 2181 103 
L 1806 731 
Q 1297 -119 531 -791 
Q 313 -366 75 41 
Q 822 713 1278 1619 
L 163 3453 
L 844 3897 
z
" transform="scale(0.015625)"/>
     <path id="MicrosoftYaHei-Bold-65" d="M 3528 1444 
L 1253 1444 
Q 1306 641 2222 641 
Q 2794 641 3231 922 
L 3231 181 
Q 2759 -84 1994 -84 
Q 1169 -84 711 381 
Q 253 847 253 1678 
Q 253 2506 740 3023 
Q 1228 3541 1966 3541 
Q 2700 3541 3114 3095 
Q 3528 2650 3528 1872 
L 3528 1444 
z
M 2588 2075 
Q 2588 2850 1959 2850 
Q 1700 2850 1500 2637 
Q 1300 2425 1250 2075 
L 2588 2075 
z
" transform="scale(0.015625)"/>
     <path id="MicrosoftYaHei-Bold-6e" d="M 3744 0 
L 2741 0 
L 2741 1928 
Q 2741 2766 2138 2766 
Q 1850 2766 1659 2542 
Q 1469 2319 1469 1972 
L 1469 0 
L 459 0 
L 459 3456 
L 1469 3456 
L 1469 2906 
L 1481 2906 
Q 1859 3541 2594 3541 
Q 3744 3541 3744 2116 
L 3744 0 
z
" transform="scale(0.015625)"/>
     <path id="MicrosoftYaHei-Bold-64" d="M 3794 0 
L 2788 0 
L 2788 488 
L 2772 488 
Q 2406 -84 1691 -84 
Q 1031 -84 642 381 
Q 253 847 253 1650 
Q 253 2500 689 3020 
Q 1125 3541 1828 3541 
Q 2503 3541 2772 3053 
L 2788 3053 
L 2788 5116 
L 3794 5116 
L 3794 0 
z
M 2803 1956 
Q 2803 2306 2592 2536 
Q 2381 2766 2066 2766 
Q 1697 2766 1486 2473 
Q 1275 2181 1275 1681 
Q 1275 1206 1478 948 
Q 1681 691 2038 691 
Q 2372 691 2587 962 
Q 2803 1234 2803 1669 
L 2803 1956 
z
" transform="scale(0.015625)"/>
     <path id="MicrosoftYaHei-Bold-70" d="M 1469 416 
L 1469 -1591 
L 459 -1591 
L 459 3456 
L 1469 3456 
L 1469 2928 
L 1481 2928 
Q 1878 3541 2603 3541 
Q 3263 3541 3634 3080 
Q 4006 2619 4006 1825 
Q 4006 959 3575 437 
Q 3144 -84 2444 -84 
Q 1809 -84 1481 416 
L 1469 416 
z
M 1453 1528 
Q 1453 1159 1653 925 
Q 1853 691 2172 691 
Q 2550 691 2761 984 
Q 2972 1278 2972 1816 
Q 2972 2766 2231 2766 
Q 1888 2766 1670 2503 
Q 1453 2241 1453 1828 
L 1453 1528 
z
" transform="scale(0.015625)"/>
     <path id="MicrosoftYaHei-Bold-69" d="M 369 4572 
Q 369 4803 533 4948 
Q 697 5094 953 5094 
Q 1216 5094 1378 4945 
Q 1541 4797 1541 4572 
Q 1541 4344 1375 4192 
Q 1209 4041 953 4041 
Q 700 4041 534 4194 
Q 369 4347 369 4572 
z
M 444 0 
L 444 3456 
L 1450 3456 
L 1450 0 
L 444 0 
z
" transform="scale(0.015625)"/>
     <path id="MicrosoftYaHei-Bold-6269" d="M 3863 5122 
L 4769 5328 
Q 4906 4994 5097 4491 
L 6225 4491 
L 6225 3722 
L 3388 3722 
L 3388 2322 
Q 3388 372 2606 -878 
Q 2338 -616 1850 -278 
Q 2538 897 2538 2341 
L 2538 4491 
L 4119 4491 
Q 3991 4825 3863 5122 
z
M 150 4222 
L 819 4222 
L 819 5266 
L 1669 5266 
L 1669 4222 
L 2300 4222 
L 2300 3409 
L 1669 3409 
L 1669 2491 
L 2306 2666 
Q 2313 2147 2325 1878 
L 1669 1672 
L 1669 3 
Q 1669 -344 1483 -578 
Q 1297 -813 331 -822 
Q 275 -509 119 34 
Q 375 16 553 16 
Q 709 16 764 84 
Q 819 153 819 316 
L 819 1406 
L 225 1222 
L 94 2072 
L 819 2259 
L 819 3409 
L 150 3409 
L 150 4222 
z
" transform="scale(0.015625)"/>
     <path id="MicrosoftYaHei-Bold-5c55" d="M 5988 684 
L 5069 263 
Q 5588 56 6238 -9 
Q 6175 -91 5700 -797 
Q 4450 -456 3703 325 
Q 3688 -28 3694 -422 
Q 2481 -722 2056 -897 
L 1763 -234 
Q 1906 -91 1894 447 
L 1894 1091 
L 1397 1091 
Q 1275 -72 800 -909 
Q 488 -466 169 -116 
Q 606 797 613 3072 
L 613 5066 
L 5913 5066 
L 5913 3278 
L 4900 3278 
L 4900 2803 
L 6000 2803 
L 6000 2191 
L 4900 2191 
L 4900 1716 
L 6175 1716 
L 6175 1091 
L 5697 1091 
L 5988 684 
z
M 5075 3891 
L 5075 4378 
L 1475 4378 
L 1475 3891 
L 5075 3891 
z
M 3138 2803 
L 4100 2803 
L 4100 3278 
L 3138 3278 
L 3138 2803 
z
M 1472 2803 
L 2338 2803 
L 2338 3278 
L 1475 3278 
L 1472 2803 
z
M 3138 1716 
L 4100 1716 
L 4100 2191 
L 3138 2191 
L 3138 1716 
z
M 1441 1716 
L 2338 1716 
L 2338 2191 
L 1459 2191 
Q 1453 1938 1441 1716 
z
M 3147 1091 
L 2731 1091 
L 2731 84 
Q 3128 200 3678 350 
Q 3369 681 3147 1091 
z
M 4388 634 
L 5178 1091 
L 3891 1091 
Q 4113 834 4388 634 
z
" transform="scale(0.015625)"/>
     <path id="MicrosoftYaHei-Bold-5bf9" d="M 3050 4234 
L 4850 4234 
L 4850 5309 
L 5744 5309 
L 5744 4234 
L 6319 4234 
L 6319 3409 
L 5744 3409 
L 5744 216 
Q 5744 -250 5539 -490 
Q 5334 -731 4987 -754 
Q 4641 -778 3656 -778 
Q 3594 -359 3450 147 
Q 3931 109 4409 109 
Q 4850 109 4850 516 
L 4850 3409 
L 3050 3409 
L 3050 4234 
z
M 863 3772 
L 1691 2509 
Q 1934 3206 2025 4016 
L 188 4016 
L 188 4834 
L 2900 4834 
L 2900 4028 
Q 2709 2722 2247 1669 
L 3169 278 
L 2394 -228 
L 1781 778 
Q 1269 -47 550 -684 
Q 369 -316 88 153 
Q 816 772 1278 1594 
L 181 3341 
L 863 3772 
z
M 3463 3047 
Q 4069 2278 4588 1528 
L 3844 1041 
Q 3375 1841 2813 2609 
L 3463 3047 
z
" transform="scale(0.015625)"/>
     <path id="MicrosoftYaHei-Bold-6bd4" d="M 5481 4441 
L 6294 3803 
Q 5234 2791 4119 1894 
L 4119 547 
Q 4119 153 4438 153 
L 4875 153 
Q 5119 153 5197 325 
Q 5275 497 5363 1597 
Q 5856 1409 6294 1278 
Q 6231 688 6131 248 
Q 6031 -191 5900 -358 
Q 5769 -525 5511 -617 
Q 5253 -709 4881 -709 
L 4094 -709 
Q 3194 -709 3194 247 
L 3194 5316 
L 4119 5316 
L 4119 3009 
Q 4797 3656 5481 4441 
z
M 1419 5241 
L 1419 3453 
L 2850 3453 
L 2850 2591 
L 1419 2591 
L 1419 372 
L 2869 866 
Q 2856 372 2888 -78 
Q 1500 -503 725 -922 
L 275 -184 
Q 494 -16 494 366 
L 494 5241 
L 1419 5241 
z
" transform="scale(0.015625)"/>
    </defs>
    <use xlink:href="#MicrosoftYaHei-Bold-52"/>
    <use xlink:href="#MicrosoftYaHei-Bold-61" transform="translate(69.824219 0)"/>
    <use xlink:href="#MicrosoftYaHei-Bold-79" transform="translate(127.587891 0)"/>
    <use xlink:href="#MicrosoftYaHei-Bold-20" transform="translate(185.009766 0)"/>
    <use xlink:href="#MicrosoftYaHei-Bold-61" transform="translate(214.794922 0)"/>
    <use xlink:href="#MicrosoftYaHei-Bold-63" transform="translate(272.558594 0)"/>
    <use xlink:href="#MicrosoftYaHei-Bold-74" transform="translate(324.21875 0)"/>
    <use xlink:href="#MicrosoftYaHei-Bold-6f" transform="translate(365.125 0)"/>
    <use xlink:href="#MicrosoftYaHei-Bold-72" transform="translate(430.847656 0)"/>
    <use xlink:href="#MicrosoftYaHei-Bold-20" transform="translate(473.230469 0)"/>
    <use xlink:href="#MicrosoftYaHei-Bold-5355" transform="translate(503.015625 0)"/>
    <use xlink:href="#MicrosoftYaHei-Bold-20" transform="translate(603.015625 0)"/>
    <use xlink:href="#MicrosoftYaHei-Bold-2f" transform="translate(632.800781 0)"/>
    <use xlink:href="#MicrosoftYaHei-Bold-20" transform="translate(680.066406 0)"/>
    <use xlink:href="#MicrosoftYaHei-Bold-53cc" transform="translate(709.851562 0)"/>
    <use xlink:href="#MicrosoftYaHei-Bold-20" transform="translate(809.851562 0)"/>
    <use xlink:href="#MicrosoftYaHei-Bold-65" transform="translate(839.636719 0)"/>
    <use xlink:href="#MicrosoftYaHei-Bold-6e" transform="translate(897.839844 0)"/>
    <use xlink:href="#MicrosoftYaHei-Bold-64" transform="translate(962.634766 0)"/>
    <use xlink:href="#MicrosoftYaHei-Bold-70" transform="translate(1029.089844 0)"/>
    <use xlink:href="#MicrosoftYaHei-Bold-6f" transform="translate(1095.691406 0)"/>
    <use xlink:href="#MicrosoftYaHei-Bold-69" transform="translate(1161.414062 0)"/>
    <use xlink:href="#MicrosoftYaHei-Bold-6e" transform="translate(1191.003906 0)"/>
    <use xlink:href="#MicrosoftYaHei-Bold-74" transform="translate(1255.798828 0)"/>
    <use xlink:href="#MicrosoftYaHei-Bold-20" transform="translate(1297.205078 0)"/>
    <use xlink:href="#MicrosoftYaHei-Bold-6269" transform="translate(1326.990234 0)"/>
    <use xlink:href="#MicrosoftYaHei-Bold-5c55" transform="translate(1426.990234 0)"/>
    <use xlink:href="#MicrosoftYaHei-Bold-5bf9" transform="translate(1526.990234 0)"/>
    <use xlink:href="#MicrosoftYaHei-Bold-6bd4" transform="translate(1626.990234 0)"/>
   </g>
  </g>
  <g id="text_31">
   <!-- Ray actor coalesced；4K / 16K rows；single endpoint 来自 chain breakdown，dual endpoint 来自 multi-endpoint test。 -->
   <g style="fill: #64748b" transform="translate(12.96 48.751312) scale(0.11 -0.11)">
    <defs>
     <path id="MicrosoftYaHei-52" d="M 4159 0 
L 3422 0 
L 2619 1344 
Q 2378 1747 2178 1892 
Q 1978 2038 1700 2038 
L 1250 2038 
L 1250 0 
L 625 0 
L 625 4841 
L 2100 4841 
Q 2806 4841 3206 4500 
Q 3606 4159 3606 3547 
Q 3606 2541 2531 2241 
L 2531 2225 
Q 2731 2141 2876 1984 
Q 3022 1828 3253 1450 
L 4159 0 
z
M 1250 4294 
L 1250 2584 
L 1988 2584 
Q 2416 2584 2683 2834 
Q 2950 3084 2950 3491 
Q 2950 3869 2706 4081 
Q 2463 4294 1997 4294 
L 1250 4294 
z
" transform="scale(0.015625)"/>
     <path id="MicrosoftYaHei-79" d="M 3359 3456 
L 1791 -522 
Q 1353 -1628 556 -1628 
Q 328 -1628 166 -1578 
L 166 -1041 
Q 344 -1109 509 -1109 
Q 925 -1109 1131 -622 
L 1397 6 
L 41 3456 
L 719 3456 
L 1622 859 
L 1697 575 
L 1713 575 
Q 1731 672 1788 853 
L 2731 3456 
L 3359 3456 
z
" transform="scale(0.015625)"/>
     <path id="MicrosoftYaHei-ff1b" d="M 1606 3531 
Q 1772 3531 1890 3415 
Q 2009 3300 2009 3138 
Q 2009 2975 1893 2858 
Q 1778 2741 1606 2741 
Q 1434 2741 1318 2858 
Q 1203 2975 1203 3138 
Q 1203 3300 1322 3415 
Q 1441 3531 1606 3531 
z
M 1931 775 
L 1403 -891 
L 966 -891 
L 1350 775 
L 1931 775 
z
" transform="scale(0.015625)"/>
     <path id="MicrosoftYaHei-2f" d="M 2791 4841 
L 469 -803 
L -103 -803 
L 2219 4841 
L 2791 4841 
z
" transform="scale(0.015625)"/>
     <path id="MicrosoftYaHei-6765" d="M 6325 141 
Q 6119 -122 5975 -334 
Q 4344 403 3438 1550 
L 3438 -841 
L 2963 -841 
L 2963 1584 
Q 2050 516 413 -409 
Q 281 -222 75 22 
Q 1706 841 2806 1922 
L 181 1922 
L 181 2359 
L 2963 2359 
L 2963 4003 
L 550 4003 
L 550 4441 
L 2963 4441 
L 2963 5341 
L 3438 5341 
L 3438 4441 
L 5900 4441 
L 5900 4003 
L 3438 4003 
L 3438 2359 
L 6225 2359 
L 6225 1922 
L 3566 1922 
Q 4594 778 6325 141 
z
M 4056 2766 
Q 4631 3378 4950 3828 
L 5381 3497 
Q 4913 2941 4419 2453 
L 4056 2766 
z
M 1075 3509 
L 1438 3803 
Q 1900 3347 2313 2828 
L 1900 2484 
Q 1581 2922 1075 3509 
z
" transform="scale(0.015625)"/>
     <path id="MicrosoftYaHei-81ea" d="M 775 4466 
L 2391 4466 
Q 2525 4828 2688 5328 
L 3219 5166 
Q 3059 4778 2909 4466 
L 5625 4466 
L 5625 -822 
L 5125 -822 
L 5125 -447 
L 1275 -447 
L 1275 -822 
L 775 -822 
L 775 4466 
z
M 1275 3 
L 5125 3 
L 5125 1053 
L 1275 1053 
L 1275 3 
z
M 1275 1497 
L 5125 1497 
L 5125 2534 
L 1275 2534 
L 1275 1497 
z
M 5125 4016 
L 1275 4016 
L 1275 2978 
L 5125 2978 
L 5125 4016 
z
" transform="scale(0.015625)"/>
     <path id="MicrosoftYaHei-68" d="M 3466 0 
L 2856 0 
L 2856 1988 
Q 2856 3031 2081 3031 
Q 1684 3031 1421 2726 
Q 1159 2422 1159 1959 
L 1159 0 
L 547 0 
L 547 5116 
L 1159 5116 
L 1159 2888 
L 1172 2888 
Q 1569 3538 2300 3538 
Q 3466 3538 3466 2128 
L 3466 0 
z
" transform="scale(0.015625)"/>
     <path id="MicrosoftYaHei-ff0c" d="M 1931 775 
L 1403 -891 
L 966 -891 
L 1350 775 
L 1931 775 
z
" transform="scale(0.015625)"/>
     <path id="MicrosoftYaHei-6d" d="M 5522 0 
L 4909 0 
L 4909 1984 
Q 4909 2547 4734 2789 
Q 4559 3031 4159 3031 
Q 3822 3031 3581 2715 
Q 3341 2400 3341 1969 
L 3341 0 
L 2728 0 
L 2728 2047 
Q 2728 3031 1969 3031 
Q 1619 3031 1389 2731 
Q 1159 2431 1159 1966 
L 1159 0 
L 547 0 
L 547 3456 
L 1159 3456 
L 1159 2909 
L 1172 2909 
Q 1541 3538 2250 3538 
Q 2597 3538 2862 3347 
Q 3128 3156 3231 2831 
Q 3616 3538 4381 3538 
Q 5522 3538 5522 2131 
L 5522 0 
z
" transform="scale(0.015625)"/>
     <path id="MicrosoftYaHei-2d" d="M 2328 1681 
L 488 1681 
L 488 2153 
L 2328 2153 
L 2328 1681 
z
" transform="scale(0.015625)"/>
     <path id="MicrosoftYaHei-3002" d="M 1219 863 
Q 1525 863 1750 625 
Q 1975 388 1975 72 
Q 1975 -284 1747 -507 
Q 1519 -731 1197 -731 
Q 875 -731 642 -503 
Q 409 -275 409 66 
Q 409 413 656 638 
Q 903 863 1219 863 
z
M 1209 -275 
Q 1328 -275 1431 -184 
Q 1534 -94 1534 50 
Q 1534 209 1434 304 
Q 1334 400 1191 400 
Q 1056 400 959 304 
Q 863 209 863 53 
Q 863 -100 977 -187 
Q 1091 -275 1209 -275 
z
" transform="scale(0.015625)"/>
    </defs>
    <use xlink:href="#MicrosoftYaHei-52"/>
    <use xlink:href="#MicrosoftYaHei-61" transform="translate(65.283203 0)"/>
    <use xlink:href="#MicrosoftYaHei-79" transform="translate(120.556641 0)"/>
    <use xlink:href="#MicrosoftYaHei-20" transform="translate(173.486328 0)"/>
    <use xlink:href="#MicrosoftYaHei-61" transform="translate(203.076172 0)"/>
    <use xlink:href="#MicrosoftYaHei-63" transform="translate(258.349609 0)"/>
    <use xlink:href="#MicrosoftYaHei-74" transform="translate(308.496094 0)"/>
    <use xlink:href="#MicrosoftYaHei-6f" transform="translate(344.876953 0)"/>
    <use xlink:href="#MicrosoftYaHei-72" transform="translate(408.451172 0)"/>
    <use xlink:href="#MicrosoftYaHei-20" transform="translate(446.634766 0)"/>
    <use xlink:href="#MicrosoftYaHei-63" transform="translate(476.224609 0)"/>
    <use xlink:href="#MicrosoftYaHei-6f" transform="translate(526.371094 0)"/>
    <use xlink:href="#MicrosoftYaHei-61" transform="translate(588.570312 0)"/>
    <use xlink:href="#MicrosoftYaHei-6c" transform="translate(643.84375 0)"/>
    <use xlink:href="#MicrosoftYaHei-65" transform="translate(670.455078 0)"/>
    <use xlink:href="#MicrosoftYaHei-73" transform="translate(727.193359 0)"/>
    <use xlink:href="#MicrosoftYaHei-63" transform="translate(773.482422 0)"/>
    <use xlink:href="#MicrosoftYaHei-65" transform="translate(823.628906 0)"/>
    <use xlink:href="#MicrosoftYaHei-64" transform="translate(880.367188 0)"/>
    <use xlink:href="#MicrosoftYaHei-ff1b" transform="translate(944.332031 0)"/>
    <use xlink:href="#MicrosoftYaHei-34" transform="translate(1044.332031 0)"/>
    <use xlink:href="#MicrosoftYaHei-4b" transform="translate(1102.974609 0)"/>
    <use xlink:href="#MicrosoftYaHei-20" transform="translate(1166.451172 0)"/>
    <use xlink:href="#MicrosoftYaHei-2f" transform="translate(1196.041016 0)"/>
    <use xlink:href="#MicrosoftYaHei-20" transform="translate(1238.765625 0)"/>
    <use xlink:href="#MicrosoftYaHei-31" transform="translate(1268.355469 0)"/>
    <use xlink:href="#MicrosoftYaHei-36" transform="translate(1326.998047 0)"/>
    <use xlink:href="#MicrosoftYaHei-4b" transform="translate(1385.640625 0)"/>
    <use xlink:href="#MicrosoftYaHei-20" transform="translate(1449.117188 0)"/>
    <use xlink:href="#MicrosoftYaHei-72" transform="translate(1478.707031 0)"/>
    <use xlink:href="#MicrosoftYaHei-6f" transform="translate(1515.515625 0)"/>
    <use xlink:href="#MicrosoftYaHei-77" transform="translate(1579.089844 0)"/>
    <use xlink:href="#MicrosoftYaHei-73" transform="translate(1658.044922 0)"/>
    <use xlink:href="#MicrosoftYaHei-ff1b" transform="translate(1704.333984 0)"/>
    <use xlink:href="#MicrosoftYaHei-73" transform="translate(1804.333984 0)"/>
    <use xlink:href="#MicrosoftYaHei-69" transform="translate(1850.623047 0)"/>
    <use xlink:href="#MicrosoftYaHei-6e" transform="translate(1877.234375 0)"/>
    <use xlink:href="#MicrosoftYaHei-67" transform="translate(1938.855469 0)"/>
    <use xlink:href="#MicrosoftYaHei-6c" transform="translate(2002.820312 0)"/>
    <use xlink:href="#MicrosoftYaHei-65" transform="translate(2029.431641 0)"/>
    <use xlink:href="#MicrosoftYaHei-20" transform="translate(2086.169922 0)"/>
    <use xlink:href="#MicrosoftYaHei-65" transform="translate(2115.759766 0)"/>
    <use xlink:href="#MicrosoftYaHei-6e" transform="translate(2172.498047 0)"/>
    <use xlink:href="#MicrosoftYaHei-64" transform="translate(2234.119141 0)"/>
    <use xlink:href="#MicrosoftYaHei-70" transform="translate(2298.083984 0)"/>
    <use xlink:href="#MicrosoftYaHei-6f" transform="translate(2361.951172 0)"/>
    <use xlink:href="#MicrosoftYaHei-69" transform="translate(2425.525391 0)"/>
    <use xlink:href="#MicrosoftYaHei-6e" transform="translate(2452.136719 0)"/>
    <use xlink:href="#MicrosoftYaHei-74" transform="translate(2513.757812 0)"/>
    <use xlink:href="#MicrosoftYaHei-20" transform="translate(2551.013672 0)"/>
    <use xlink:href="#MicrosoftYaHei-6765" transform="translate(2580.603516 0)"/>
    <use xlink:href="#MicrosoftYaHei-81ea" transform="translate(2680.603516 0)"/>
    <use xlink:href="#MicrosoftYaHei-20" transform="translate(2780.603516 0)"/>
    <use xlink:href="#MicrosoftYaHei-63" transform="translate(2810.193359 0)"/>
    <use xlink:href="#MicrosoftYaHei-68" transform="translate(2860.339844 0)"/>
    <use xlink:href="#MicrosoftYaHei-61" transform="translate(2921.912109 0)"/>
    <use xlink:href="#MicrosoftYaHei-69" transform="translate(2977.185547 0)"/>
    <use xlink:href="#MicrosoftYaHei-6e" transform="translate(3003.796875 0)"/>
    <use xlink:href="#MicrosoftYaHei-20" transform="translate(3065.417969 0)"/>
    <use xlink:href="#MicrosoftYaHei-62" transform="translate(3095.007812 0)"/>
    <use xlink:href="#MicrosoftYaHei-72" transform="translate(3158.875 0)"/>
    <use xlink:href="#MicrosoftYaHei-65" transform="translate(3195.683594 0)"/>
    <use xlink:href="#MicrosoftYaHei-61" transform="translate(3252.421875 0)"/>
    <use xlink:href="#MicrosoftYaHei-6b" transform="translate(3307.695312 0)"/>
    <use xlink:href="#MicrosoftYaHei-64" transform="translate(3360.763672 0)"/>
    <use xlink:href="#MicrosoftYaHei-6f" transform="translate(3424.728516 0)"/>
    <use xlink:href="#MicrosoftYaHei-77" transform="translate(3488.302734 0)"/>
    <use xlink:href="#MicrosoftYaHei-6e" transform="translate(3567.257812 0)"/>
    <use xlink:href="#MicrosoftYaHei-ff0c" transform="translate(3628.878906 0)"/>
    <use xlink:href="#MicrosoftYaHei-64" transform="translate(3728.878906 0)"/>
    <use xlink:href="#MicrosoftYaHei-75" transform="translate(3792.84375 0)"/>
    <use xlink:href="#MicrosoftYaHei-61" transform="translate(3854.464844 0)"/>
    <use xlink:href="#MicrosoftYaHei-6c" transform="translate(3909.738281 0)"/>
    <use xlink:href="#MicrosoftYaHei-20" transform="translate(3936.349609 0)"/>
    <use xlink:href="#MicrosoftYaHei-65" transform="translate(3965.939453 0)"/>
    <use xlink:href="#MicrosoftYaHei-6e" transform="translate(4022.677734 0)"/>
    <use xlink:href="#MicrosoftYaHei-64" transform="translate(4084.298828 0)"/>
    <use xlink:href="#MicrosoftYaHei-70" transform="translate(4148.263672 0)"/>
    <use xlink:href="#MicrosoftYaHei-6f" transform="translate(4212.130859 0)"/>
    <use xlink:href="#MicrosoftYaHei-69" transform="translate(4275.705078 0)"/>
    <use xlink:href="#MicrosoftYaHei-6e" transform="translate(4302.316406 0)"/>
    <use xlink:href="#MicrosoftYaHei-74" transform="translate(4363.9375 0)"/>
    <use xlink:href="#MicrosoftYaHei-20" transform="translate(4401.193359 0)"/>
    <use xlink:href="#MicrosoftYaHei-6765" transform="translate(4430.783203 0)"/>
    <use xlink:href="#MicrosoftYaHei-81ea" transform="translate(4530.783203 0)"/>
    <use xlink:href="#MicrosoftYaHei-20" transform="translate(4630.783203 0)"/>
    <use xlink:href="#MicrosoftYaHei-6d" transform="translate(4660.373047 0)"/>
    <use xlink:href="#MicrosoftYaHei-75" transform="translate(4754.074219 0)"/>
    <use xlink:href="#MicrosoftYaHei-6c" transform="translate(4815.695312 0)"/>
    <use xlink:href="#MicrosoftYaHei-74" transform="translate(4842.306641 0)"/>
    <use xlink:href="#MicrosoftYaHei-69" transform="translate(4879.5625 0)"/>
    <use xlink:href="#MicrosoftYaHei-2d" transform="translate(4906.173828 0)"/>
    <use xlink:href="#MicrosoftYaHei-65" transform="translate(4949.435547 0)"/>
    <use xlink:href="#MicrosoftYaHei-6e" transform="translate(5006.173828 0)"/>
    <use xlink:href="#MicrosoftYaHei-64" transform="translate(5067.794922 0)"/>
    <use xlink:href="#MicrosoftYaHei-70" transform="translate(5131.759766 0)"/>
    <use xlink:href="#MicrosoftYaHei-6f" transform="translate(5195.626953 0)"/>
    <use xlink:href="#MicrosoftYaHei-69" transform="translate(5259.201172 0)"/>
    <use xlink:href="#MicrosoftYaHei-6e" transform="translate(5285.8125 0)"/>
    <use xlink:href="#MicrosoftYaHei-74" transform="translate(5347.433594 0)"/>
    <use xlink:href="#MicrosoftYaHei-20" transform="translate(5384.689453 0)"/>
    <use xlink:href="#MicrosoftYaHei-74" transform="translate(5414.279297 0)"/>
    <use xlink:href="#MicrosoftYaHei-65" transform="translate(5450.660156 0)"/>
    <use xlink:href="#MicrosoftYaHei-73" transform="translate(5507.398438 0)"/>
    <use xlink:href="#MicrosoftYaHei-74" transform="translate(5553.6875 0)"/>
    <use xlink:href="#MicrosoftYaHei-3002" transform="translate(5590.943359 0)"/>
   </g>
  </g>
  <g id="text_32">
   <!-- 读法：双 endpoint 降低 operator 阶段，但 16K 时 E2E 收益被 PostgreSQL JSON text writeback 明显限制。 -->
   <g style="fill: #64748b" transform="translate(12.96 504.943312) scale(0.095 -0.095)">
    <defs>
     <path id="MicrosoftYaHei-8bfb" d="M 1844 3516 
L 3750 3516 
L 3750 4141 
L 2075 4141 
L 2075 4578 
L 3750 4578 
L 3750 5303 
L 4225 5303 
L 4225 4578 
L 6013 4578 
L 6013 4141 
L 4225 4141 
L 4225 3516 
L 6138 3516 
L 6063 2291 
Q 5838 2316 5581 2322 
L 5650 3078 
L 1844 3078 
L 1844 3516 
z
M 1794 1291 
L 4063 1291 
Q 4188 1803 4156 2916 
L 4631 2916 
Q 4650 1741 4556 1291 
L 6219 1291 
L 6219 853 
L 4463 853 
Q 4419 734 4369 634 
Q 5300 134 6200 -391 
L 5888 -816 
Q 4950 -222 4125 247 
Q 3563 -434 2044 -884 
Q 1906 -666 1731 -434 
Q 3544 53 3950 853 
L 1794 853 
L 1794 1291 
z
M 2025 672 
Q 2038 384 2069 128 
Q 1381 -316 913 -691 
L 625 -278 
Q 838 -91 838 259 
L 838 2678 
L 88 2678 
L 88 3128 
L 1306 3128 
L 1306 166 
Q 1619 378 2025 672 
z
M 813 5147 
Q 1288 4672 1763 4141 
L 1331 3784 
Q 894 4334 431 4834 
L 813 5147 
z
M 2056 1997 
L 2281 2334 
Q 2869 2053 3425 1728 
L 3181 1353 
Q 2675 1678 2056 1997 
z
M 2513 2678 
L 2744 3022 
Q 3331 2734 3869 2434 
L 3619 2053 
Q 3088 2384 2513 2678 
z
" transform="scale(0.015625)"/>
     <path id="MicrosoftYaHei-6cd5" d="M 4888 1328 
Q 5488 509 6181 -553 
Q 5931 -697 5694 -841 
Q 5519 -550 5350 -278 
Q 3300 -447 2138 -559 
L 1906 -16 
Q 2300 159 2675 716 
Q 3088 1303 3441 1953 
L 1800 1953 
L 1800 2403 
L 3763 2403 
L 3763 3728 
L 2106 3728 
L 2106 4178 
L 3763 4178 
L 3763 5322 
L 4263 5322 
L 4263 4178 
L 5994 4178 
L 5994 3728 
L 4263 3728 
L 4263 2403 
L 6288 2403 
L 6288 1953 
L 4069 1953 
Q 3372 806 2706 -28 
Q 3897 28 5088 141 
Q 4766 644 4475 1066 
L 4888 1328 
z
M 1013 1828 
Q 1244 1728 1506 1622 
Q 1063 291 731 -784 
L 194 -603 
Q 606 497 1013 1828 
z
M 400 3622 
Q 869 3291 1500 2772 
Q 1269 2509 1138 2366 
Q 431 2997 88 3259 
L 400 3622 
z
M 644 5241 
Q 1144 4841 1719 4328 
Q 1506 4109 1350 3941 
Q 775 4509 325 4897 
L 644 5241 
z
" transform="scale(0.015625)"/>
     <path id="MicrosoftYaHei-ff1a" d="M 1606 3531 
Q 1772 3531 1890 3415 
Q 2009 3300 2009 3138 
Q 2009 2975 1893 2858 
Q 1778 2741 1606 2741 
Q 1434 2741 1318 2858 
Q 1203 2975 1203 3138 
Q 1203 3300 1322 3415 
Q 1441 3531 1606 3531 
z
M 1606 716 
Q 1772 716 1890 600 
Q 2009 484 2009 319 
Q 2009 150 1890 36 
Q 1772 -78 1606 -78 
Q 1441 -78 1322 36 
Q 1203 150 1203 319 
Q 1203 484 1322 600 
Q 1441 716 1606 716 
z
" transform="scale(0.015625)"/>
     <path id="MicrosoftYaHei-53cc" d="M 2950 4384 
L 2950 4859 
L 5894 4859 
L 5894 4403 
Q 5628 2144 4750 953 
Q 5413 184 6325 -241 
Q 6106 -503 5919 -716 
Q 5072 -181 4434 566 
Q 3728 -222 2525 -866 
Q 2413 -703 2194 -428 
Q 3406 159 4119 963 
Q 3269 2159 3119 4384 
L 2950 4384 
z
M 250 3634 
L 644 3878 
Q 1213 3041 1778 2156 
Q 2159 3163 2275 4372 
L 175 4372 
L 175 4847 
L 2775 4847 
L 2775 4372 
Q 2559 2756 2091 1659 
Q 2509 1000 2925 309 
L 2513 -9 
Q 2163 584 1831 1131 
Q 1297 153 456 -653 
Q 263 -447 69 -303 
Q 1047 616 1541 1606 
Q 850 2734 250 3634 
z
M 5369 4384 
L 3578 4384 
Q 3738 2388 4428 1366 
Q 5172 2488 5369 4384 
z
" transform="scale(0.015625)"/>
     <path id="MicrosoftYaHei-964d" d="M 2263 3616 
Q 3000 4322 3494 5309 
L 3919 5122 
Q 3803 4919 3688 4728 
L 5788 4728 
L 5788 4303 
Q 5403 3681 4713 3213 
Q 5269 2972 6325 2803 
Q 6294 2728 6125 2353 
Q 4900 2594 4247 2934 
Q 3481 2525 2419 2259 
Q 2319 2491 2194 2672 
Q 3122 2863 3828 3206 
Q 3438 3519 3156 3953 
Q 2878 3591 2588 3297 
Q 2444 3466 2263 3616 
z
M 2181 1678 
Q 2344 509 1588 334 
Q 1388 291 1044 328 
Q 975 597 906 834 
Q 1213 753 1419 784 
Q 1844 859 1706 1678 
Q 1594 2303 1206 2803 
Q 1481 3703 1688 4472 
L 869 4472 
L 869 -841 
L 400 -841 
L 400 4909 
L 2200 4909 
L 2200 4472 
Q 1806 3222 1700 2884 
Q 2094 2316 2181 1678 
z
M 2925 584 
L 4125 584 
L 4125 1591 
L 2500 1591 
L 2500 2016 
L 4125 2016 
L 4125 2597 
L 4594 2597 
L 4594 2016 
L 6088 2016 
L 6088 1591 
L 4594 1591 
L 4594 584 
L 6138 584 
L 6138 159 
L 4594 159 
L 4594 -847 
L 4125 -847 
L 4125 159 
L 2456 159 
L 2456 616 
L 2700 1422 
L 3169 1422 
L 2925 584 
z
M 5244 4303 
L 3422 4303 
Q 3806 3753 4269 3450 
Q 4850 3813 5244 4303 
z
" transform="scale(0.015625)"/>
     <path id="MicrosoftYaHei-4f4e" d="M 2275 4809 
Q 4069 4809 5994 5072 
L 6169 4603 
Q 5306 4522 4497 4469 
Q 4513 3594 4556 2872 
L 6250 2872 
L 6250 2422 
L 4591 2422 
Q 4775 250 5581 -172 
Q 5756 -247 5806 -41 
Q 5863 278 5913 897 
Q 6156 784 6363 728 
Q 6300 141 6225 -241 
Q 6119 -728 5738 -728 
Q 5275 -728 4856 -178 
Q 4259 644 4122 2422 
L 2750 2422 
L 2750 209 
Q 3425 597 3913 878 
Q 3950 591 4006 397 
Q 3206 -59 2744 -353 
Q 2563 -472 2388 -634 
L 2063 -222 
Q 2275 -41 2275 316 
L 2275 4809 
z
M 38 2397 
Q 1000 3697 1531 5334 
L 1988 5172 
Q 1678 4309 1306 3578 
L 1306 -828 
L 856 -828 
L 856 2778 
Q 550 2288 213 1872 
Q 138 2122 38 2397 
z
M 4016 4441 
Q 3366 4403 2750 4384 
L 2750 2872 
L 4094 2872 
Q 4059 3481 4016 4441 
z
M 3531 -116 
L 3856 141 
Q 4206 -191 4544 -566 
L 4181 -859 
Q 3888 -491 3531 -116 
z
" transform="scale(0.015625)"/>
     <path id="MicrosoftYaHei-9636" d="M 2213 1816 
Q 2388 616 1644 484 
Q 1406 441 1031 478 
Q 981 734 913 991 
Q 1206 916 1475 941 
Q 1894 991 1744 1797 
Q 1669 2222 1188 2853 
Q 1419 3616 1688 4578 
L 863 4578 
L 863 -853 
L 400 -853 
L 400 5016 
L 2194 5016 
L 2194 4578 
Q 1906 3672 1663 2934 
Q 2144 2284 2213 1816 
z
M 3469 2834 
L 3469 1841 
Q 3469 78 2450 -897 
Q 2269 -734 2031 -572 
Q 2994 297 2994 1859 
L 2994 2834 
L 3469 2834 
z
M 4806 2834 
L 5281 2834 
L 5281 -822 
L 4806 -822 
L 4806 2834 
z
M 4475 5278 
L 4388 5078 
Q 5169 3653 6338 3134 
Q 6175 2947 5994 2697 
Q 4856 3384 4144 4634 
Q 3494 3472 2356 2609 
Q 2206 2828 2031 3003 
Q 3244 3809 3981 5278 
L 4475 5278 
z
" transform="scale(0.015625)"/>
     <path id="MicrosoftYaHei-6bb5" d="M 2844 1978 
L 2844 2422 
L 5763 2422 
L 5763 1953 
Q 5397 1069 4731 416 
Q 5378 -63 6338 -266 
Q 6144 -516 6019 -747 
Q 5031 -456 4359 88 
Q 3638 -488 2631 -853 
Q 2450 -559 2331 -422 
Q 3313 -75 3997 428 
Q 3400 1069 3138 1978 
L 2844 1978 
z
M 88 722 
Q 325 744 569 769 
L 569 4897 
Q 1931 4972 2719 5116 
L 2888 4653 
Q 2175 4559 1031 4484 
L 1031 3616 
L 2613 3616 
L 2613 3203 
L 1031 3203 
L 1031 2259 
L 2594 2259 
L 2594 1847 
L 1031 1847 
L 1031 819 
Q 1891 916 2838 1041 
Q 2831 916 2831 591 
Q 1894 484 1031 366 
L 1031 -816 
L 569 -816 
L 569 303 
Q 381 275 200 247 
L 88 722 
z
M 5738 3209 
Q 5981 3209 6306 3228 
L 6219 2759 
Q 5906 2747 5625 2747 
Q 4988 2747 4988 3459 
L 4988 4553 
L 3831 4553 
L 3831 4216 
Q 3831 3053 2938 2522 
Q 2781 2709 2600 2909 
Q 3363 3272 3363 4241 
L 3363 4997 
L 5456 4997 
L 5456 3497 
Q 5456 3209 5738 3209 
z
M 5256 1978 
L 3613 1978 
Q 3863 1241 4363 731 
Q 4956 1275 5256 1978 
z
" transform="scale(0.015625)"/>
     <path id="MicrosoftYaHei-4f46" d="M 2419 4884 
L 5794 4884 
L 5794 647 
L 5306 647 
L 5306 1053 
L 2906 1053 
L 2906 647 
L 2419 647 
L 2419 4884 
z
M 81 2334 
Q 1069 3678 1556 5284 
L 2063 5116 
Q 1750 4247 1388 3516 
L 1388 -809 
L 913 -809 
L 913 2659 
Q 616 2175 288 1772 
Q 200 2034 81 2334 
z
M 2906 1491 
L 5306 1491 
L 5306 2759 
L 2906 2759 
L 2906 1491 
z
M 5306 4447 
L 2906 4447 
L 2906 3184 
L 5306 3184 
L 5306 4447 
z
M 1850 28 
L 6319 28 
L 6319 -403 
L 1850 -403 
L 1850 28 
z
" transform="scale(0.015625)"/>
     <path id="MicrosoftYaHei-6536" d="M 2244 2659 
Q 3044 4047 3400 5341 
L 3906 5197 
Q 3706 4619 3488 4091 
L 6213 4091 
L 6213 3628 
L 5478 3628 
Q 5384 1819 4550 681 
Q 5184 119 6350 -297 
Q 6156 -541 5994 -797 
Q 4881 -322 4219 300 
Q 3616 -294 2550 -853 
Q 2419 -647 2231 -434 
Q 3297 100 3878 672 
Q 3156 1575 2944 2916 
Q 2769 2575 2581 2259 
Q 2463 2441 2244 2659 
z
M 1681 5291 
L 2156 5291 
L 2156 -816 
L 1681 -816 
L 1681 1113 
Q 1300 900 906 641 
Q 744 522 588 359 
L 231 778 
Q 425 984 425 1316 
L 425 4416 
L 900 4416 
L 900 1216 
Q 1272 1413 1681 1634 
L 1681 5291 
z
M 4984 3628 
L 3322 3628 
Q 3413 2103 4203 1059 
Q 4916 2063 4984 3628 
z
" transform="scale(0.015625)"/>
     <path id="MicrosoftYaHei-76ca" d="M 113 -103 
L 1019 -103 
L 1019 1997 
L 5406 1997 
L 5406 -103 
L 6269 -103 
L 6269 -541 
L 113 -541 
L 113 -103 
z
M 263 4116 
L 3672 4116 
Q 4225 4650 4744 5334 
L 5200 5047 
Q 4775 4553 4331 4116 
L 6175 4116 
L 6175 3678 
L 263 3678 
L 263 4116 
z
M 4956 1572 
L 4081 1572 
L 4081 -103 
L 4956 -103 
L 4956 1572 
z
M 1469 -103 
L 2338 -103 
L 2338 1572 
L 1469 1572 
L 1469 -103 
z
M 2775 -103 
L 3644 -103 
L 3644 1572 
L 2775 1572 
L 2775 -103 
z
M 2338 3484 
L 2644 3078 
Q 1669 2484 456 1872 
Q 331 2116 200 2309 
Q 1369 2872 2338 3484 
z
M 3794 3091 
L 4050 3472 
Q 5300 2884 6213 2384 
L 5938 1922 
Q 4706 2634 3794 3091 
z
M 1238 5016 
L 1563 5341 
Q 2100 4953 2531 4584 
L 2175 4209 
Q 1769 4597 1238 5016 
z
" transform="scale(0.015625)"/>
     <path id="MicrosoftYaHei-88ab" d="M 2606 4391 
L 4225 4391 
L 4225 5303 
L 4675 5303 
L 4675 4391 
L 6163 4391 
L 6163 3997 
Q 6038 3566 5844 3159 
Q 5656 3247 5419 3322 
Q 5581 3647 5681 3978 
L 4675 3978 
L 4675 2753 
L 5794 2753 
L 5794 2378 
Q 5491 1194 4844 434 
Q 5363 -25 6313 -347 
Q 6125 -572 5956 -816 
Q 5056 -419 4509 103 
Q 3884 -459 3000 -834 
Q 2863 -622 2688 -422 
Q 3634 -59 4203 431 
Q 3575 1141 3356 2341 
L 3044 2341 
L 3044 2009 
Q 3044 197 2081 -834 
Q 1925 -616 1763 -447 
Q 2606 516 2606 2009 
L 2606 4391 
z
M 125 3641 
L 125 4097 
L 2175 4097 
L 2175 3628 
Q 1841 3038 1413 2484 
L 1413 2338 
Q 1538 2213 1650 2097 
Q 1947 2431 2138 2684 
L 2469 2409 
Q 2250 2147 1919 1816 
Q 2163 1556 2344 1347 
L 2031 1022 
Q 1772 1366 1413 1769 
L 1413 -797 
L 975 -797 
L 975 1963 
Q 641 1594 263 1241 
Q 194 1484 88 1784 
Q 1106 2634 1625 3641 
L 125 3641 
z
M 3044 2753 
L 4225 2753 
L 4225 3978 
L 3044 3978 
L 3044 2753 
z
M 5306 2341 
L 3788 2341 
Q 3988 1406 4528 766 
Q 5034 1391 5306 2341 
z
M 738 5141 
L 1163 5353 
Q 1444 4922 1656 4484 
L 1206 4259 
Q 1025 4653 738 5141 
z
" transform="scale(0.015625)"/>
     <path id="MicrosoftYaHei-50" d="M 1250 1809 
L 1250 0 
L 625 0 
L 625 4841 
L 2000 4841 
Q 2784 4841 3217 4462 
Q 3650 4084 3650 3381 
Q 3650 2669 3144 2226 
Q 2638 1784 1878 1809 
L 1250 1809 
z
M 1250 4291 
L 1250 2359 
L 1828 2359 
Q 2400 2359 2697 2617 
Q 2994 2875 2994 3356 
Q 2994 4291 1888 4291 
L 1250 4291 
z
" transform="scale(0.015625)"/>
     <path id="MicrosoftYaHei-53" d="M 400 909 
Q 622 716 994 591 
Q 1366 466 1700 466 
Q 2719 466 2719 1191 
Q 2719 1394 2609 1556 
Q 2500 1719 2309 1844 
Q 2119 1969 1594 2228 
Q 866 2591 634 2902 
Q 403 3213 403 3613 
Q 403 4216 887 4569 
Q 1372 4922 2109 4922 
Q 2831 4922 3169 4747 
L 3169 4066 
Q 2731 4369 2063 4369 
Q 1619 4369 1339 4183 
Q 1059 3997 1059 3666 
Q 1059 3372 1253 3187 
Q 1447 3003 2094 2684 
Q 2806 2344 3090 2003 
Q 3375 1663 3375 1238 
Q 3375 600 2912 259 
Q 2450 -81 1628 -81 
Q 1341 -81 958 -1 
Q 575 78 400 197 
L 400 909 
z
" transform="scale(0.015625)"/>
     <path id="MicrosoftYaHei-51" d="M 313 2363 
Q 313 3534 947 4228 
Q 1581 4922 2666 4922 
Q 3675 4922 4290 4244 
Q 4906 3566 4906 2478 
Q 4906 1300 4275 609 
Q 4125 447 3953 322 
L 5313 -653 
L 4284 -653 
L 3366 28 
Q 3009 -81 2588 -81 
Q 1556 -81 934 597 
Q 313 1275 313 2363 
z
M 969 2413 
Q 969 1534 1417 1004 
Q 1866 475 2588 475 
Q 3363 475 3805 983 
Q 4247 1491 4247 2403 
Q 4247 3341 3814 3850 
Q 3381 4359 2628 4359 
Q 1888 4359 1428 3821 
Q 969 3284 969 2413 
z
" transform="scale(0.015625)"/>
     <path id="MicrosoftYaHei-4c" d="M 3178 0 
L 625 0 
L 625 4841 
L 1250 4841 
L 1250 553 
L 3178 553 
L 3178 0 
z
" transform="scale(0.015625)"/>
     <path id="MicrosoftYaHei-4a" d="M 1950 1756 
Q 1950 878 1578 398 
Q 1206 -81 566 -81 
Q 269 -81 75 6 
L 75 616 
Q 269 475 563 475 
Q 1325 475 1325 1756 
L 1325 4841 
L 1950 4841 
L 1950 1756 
z
" transform="scale(0.015625)"/>
     <path id="MicrosoftYaHei-4f" d="M 313 2363 
Q 313 3534 947 4228 
Q 1581 4922 2666 4922 
Q 3675 4922 4290 4244 
Q 4906 3566 4906 2478 
Q 4906 1300 4275 609 
Q 3644 -81 2588 -81 
Q 1556 -81 934 597 
Q 313 1275 313 2363 
z
M 969 2413 
Q 969 1534 1417 1004 
Q 1866 475 2588 475 
Q 3363 475 3805 983 
Q 4247 1491 4247 2403 
Q 4247 3341 3814 3850 
Q 3381 4359 2628 4359 
Q 1888 4359 1428 3821 
Q 969 3284 969 2413 
z
" transform="scale(0.015625)"/>
     <path id="MicrosoftYaHei-4e" d="M 4578 0 
L 3838 0 
L 1403 3766 
Q 1300 3925 1238 4081 
L 1219 4081 
Q 1244 3919 1244 3403 
L 1244 0 
L 625 0 
L 625 4841 
L 1409 4841 
L 3778 1141 
Q 3947 878 3978 806 
L 3991 806 
Q 3959 1013 3959 1513 
L 3959 4841 
L 4578 4841 
L 4578 0 
z
" transform="scale(0.015625)"/>
     <path id="MicrosoftYaHei-78" d="M 3163 3456 
L 2006 1716 
L 3147 0 
L 2434 0 
L 1775 1100 
Q 1722 1188 1625 1369 
L 1613 1369 
Q 1609 1350 1456 1100 
L 784 0 
L 81 0 
L 1256 1697 
L 134 3456 
L 847 3456 
L 1494 2300 
Q 1553 2194 1638 2025 
L 1650 2025 
L 2491 3456 
L 3163 3456 
z
" transform="scale(0.015625)"/>
     <path id="MicrosoftYaHei-660e" d="M 2350 -872 
Q 2188 -691 1944 -491 
Q 2706 197 2950 853 
Q 3188 1472 3188 2816 
L 3188 5016 
L 5931 5016 
L 5931 -47 
Q 5931 -791 5213 -791 
Q 4769 -791 4150 -772 
Q 4113 -522 4056 -259 
Q 4675 -297 5056 -297 
Q 5438 -297 5438 72 
L 5438 1284 
L 3575 1284 
Q 3400 116 2350 -872 
z
M 475 4816 
L 2431 4816 
L 2431 566 
L 944 566 
L 944 109 
L 475 109 
L 475 4816 
z
M 3634 1734 
L 5438 1734 
L 5438 2922 
L 3681 2922 
Q 3688 2278 3634 1734 
z
M 5438 4547 
L 3681 4547 
L 3681 3372 
L 5438 3372 
L 5438 4547 
z
M 1963 1022 
L 1963 2491 
L 944 2491 
L 944 1022 
L 1963 1022 
z
M 1963 4359 
L 944 4359 
L 944 2934 
L 1963 2934 
L 1963 4359 
z
" transform="scale(0.015625)"/>
     <path id="MicrosoftYaHei-663e" d="M 875 5041 
L 5525 5041 
L 5525 2209 
L 5044 2209 
L 5044 2434 
L 1356 2434 
L 1356 2209 
L 875 2209 
L 875 5041 
z
M 156 -147 
L 2238 -147 
L 2238 2259 
L 2713 2259 
L 2713 -147 
L 3656 -147 
L 3656 2259 
L 4131 2259 
L 4131 -147 
L 6244 -147 
L 6244 -597 
L 156 -597 
L 156 -147 
z
M 5044 4591 
L 1356 4591 
L 1356 3947 
L 5044 3947 
L 5044 4591 
z
M 1356 2884 
L 5044 2884 
L 5044 3528 
L 1356 3528 
L 1356 2884 
z
M 506 1734 
L 875 2009 
Q 1519 1178 1888 597 
L 1456 284 
Q 1038 984 506 1734 
z
M 5925 1753 
Q 5413 941 4938 309 
L 4531 591 
Q 5006 1216 5481 2009 
L 5925 1753 
z
" transform="scale(0.015625)"/>
     <path id="MicrosoftYaHei-9650" d="M 2675 4984 
L 5638 4984 
L 5638 1872 
L 5175 1872 
L 5175 2041 
L 4119 2041 
Q 4313 1478 4650 1028 
Q 5213 1384 5838 1909 
L 6169 1516 
Q 5481 1034 4944 691 
Q 5488 141 6313 -191 
Q 6081 -416 5913 -647 
Q 4175 266 3675 2041 
L 3138 2041 
L 3138 -84 
Q 3556 103 4231 466 
Q 4238 178 4263 -28 
Q 3706 -297 3181 -609 
Q 3056 -678 2844 -872 
L 2488 -403 
Q 2675 -241 2675 9 
L 2675 4984 
z
M 2275 1603 
Q 2456 409 1681 266 
Q 1400 209 1050 253 
Q 1000 509 913 778 
Q 1244 697 1488 728 
Q 1913 809 1775 1622 
Q 1688 2122 1206 2747 
Q 1431 3428 1794 4566 
L 869 4566 
L 869 -891 
L 400 -891 
L 400 5003 
L 2294 5003 
L 2294 4566 
Q 1988 3684 1706 2828 
Q 2206 2147 2275 1603 
z
M 5175 2466 
L 5175 3309 
L 3138 3309 
L 3138 2466 
L 5175 2466 
z
M 5175 4559 
L 3138 4559 
L 3138 3728 
L 5175 3728 
L 5175 4559 
z
" transform="scale(0.015625)"/>
     <path id="MicrosoftYaHei-5236" d="M 1906 5266 
L 2394 5266 
L 2394 4309 
L 3750 4309 
L 3750 3872 
L 2394 3872 
L 2394 3034 
L 4025 3034 
L 4025 2597 
L 2394 2597 
L 2394 1897 
L 3763 1897 
L 3763 409 
Q 3763 -266 3150 -272 
Q 2956 -278 2631 -272 
Q 2600 -72 2538 178 
Q 2844 159 3038 159 
Q 3300 159 3300 472 
L 3300 1472 
L 2394 1472 
L 2394 -847 
L 1906 -847 
L 1906 1472 
L 1044 1472 
L 1044 -378 
L 581 -378 
L 581 1897 
L 1906 1897 
L 1906 2597 
L 113 2597 
L 113 3034 
L 1906 3034 
L 1906 3872 
L 981 3872 
Q 822 3513 619 3191 
Q 413 3309 194 3428 
Q 688 4172 881 5041 
L 1344 4922 
Q 1263 4603 1159 4309 
L 1906 4309 
L 1906 5266 
z
M 5469 5272 
L 5969 5272 
L 5969 122 
Q 5969 -722 5225 -722 
Q 4981 -722 4388 -716 
Q 4350 -472 4288 -172 
Q 4813 -222 5075 -222 
Q 5469 -222 5469 222 
L 5469 5272 
z
M 4750 822 
L 4269 822 
L 4269 4672 
L 4750 4672 
L 4750 822 
z
" transform="scale(0.015625)"/>
    </defs>
    <use xlink:href="#MicrosoftYaHei-8bfb"/>
    <use xlink:href="#MicrosoftYaHei-6cd5" transform="translate(100 0)"/>
    <use xlink:href="#MicrosoftYaHei-ff1a" transform="translate(200 0)"/>
    <use xlink:href="#MicrosoftYaHei-53cc" transform="translate(300 0)"/>
    <use xlink:href="#MicrosoftYaHei-20" transform="translate(400 0)"/>
    <use xlink:href="#MicrosoftYaHei-65" transform="translate(429.589844 0)"/>
    <use xlink:href="#MicrosoftYaHei-6e" transform="translate(486.328125 0)"/>
    <use xlink:href="#MicrosoftYaHei-64" transform="translate(547.949219 0)"/>
    <use xlink:href="#MicrosoftYaHei-70" transform="translate(611.914062 0)"/>
    <use xlink:href="#MicrosoftYaHei-6f" transform="translate(675.78125 0)"/>
    <use xlink:href="#MicrosoftYaHei-69" transform="translate(739.355469 0)"/>
    <use xlink:href="#MicrosoftYaHei-6e" transform="translate(765.966797 0)"/>
    <use xlink:href="#MicrosoftYaHei-74" transform="translate(827.587891 0)"/>
    <use xlink:href="#MicrosoftYaHei-20" transform="translate(864.84375 0)"/>
    <use xlink:href="#MicrosoftYaHei-964d" transform="translate(894.433594 0)"/>
    <use xlink:href="#MicrosoftYaHei-4f4e" transform="translate(994.433594 0)"/>
    <use xlink:href="#MicrosoftYaHei-20" transform="translate(1094.433594 0)"/>
    <use xlink:href="#MicrosoftYaHei-6f" transform="translate(1124.023438 0)"/>
    <use xlink:href="#MicrosoftYaHei-70" transform="translate(1187.597656 0)"/>
    <use xlink:href="#MicrosoftYaHei-65" transform="translate(1251.464844 0)"/>
    <use xlink:href="#MicrosoftYaHei-72" transform="translate(1308.203125 0)"/>
    <use xlink:href="#MicrosoftYaHei-61" transform="translate(1346.386719 0)"/>
    <use xlink:href="#MicrosoftYaHei-74" transform="translate(1401.660156 0)"/>
    <use xlink:href="#MicrosoftYaHei-6f" transform="translate(1438.041016 0)"/>
    <use xlink:href="#MicrosoftYaHei-72" transform="translate(1501.615234 0)"/>
    <use xlink:href="#MicrosoftYaHei-20" transform="translate(1539.798828 0)"/>
    <use xlink:href="#MicrosoftYaHei-9636" transform="translate(1569.388672 0)"/>
    <use xlink:href="#MicrosoftYaHei-6bb5" transform="translate(1669.388672 0)"/>
    <use xlink:href="#MicrosoftYaHei-ff0c" transform="translate(1769.388672 0)"/>
    <use xlink:href="#MicrosoftYaHei-4f46" transform="translate(1869.388672 0)"/>
    <use xlink:href="#MicrosoftYaHei-20" transform="translate(1969.388672 0)"/>
    <use xlink:href="#MicrosoftYaHei-31" transform="translate(1998.978516 0)"/>
    <use xlink:href="#MicrosoftYaHei-36" transform="translate(2057.621094 0)"/>
    <use xlink:href="#MicrosoftYaHei-4b" transform="translate(2116.263672 0)"/>
    <use xlink:href="#MicrosoftYaHei-20" transform="translate(2179.740234 0)"/>
    <use xlink:href="#MicrosoftYaHei-65f6" transform="translate(2209.330078 0)"/>
    <use xlink:href="#MicrosoftYaHei-20" transform="translate(2309.330078 0)"/>
    <use xlink:href="#MicrosoftYaHei-45" transform="translate(2338.919922 0)"/>
    <use xlink:href="#MicrosoftYaHei-32" transform="translate(2393.900391 0)"/>
    <use xlink:href="#MicrosoftYaHei-45" transform="translate(2452.542969 0)"/>
    <use xlink:href="#MicrosoftYaHei-20" transform="translate(2507.523438 0)"/>
    <use xlink:href="#MicrosoftYaHei-6536" transform="translate(2537.113281 0)"/>
    <use xlink:href="#MicrosoftYaHei-76ca" transform="translate(2637.113281 0)"/>
    <use xlink:href="#MicrosoftYaHei-88ab" transform="translate(2737.113281 0)"/>
    <use xlink:href="#MicrosoftYaHei-20" transform="translate(2837.113281 0)"/>
    <use xlink:href="#MicrosoftYaHei-50" transform="translate(2866.703125 0)"/>
    <use xlink:href="#MicrosoftYaHei-6f" transform="translate(2923.884766 0)"/>
    <use xlink:href="#MicrosoftYaHei-73" transform="translate(2987.458984 0)"/>
    <use xlink:href="#MicrosoftYaHei-74" transform="translate(3033.748047 0)"/>
    <use xlink:href="#MicrosoftYaHei-67" transform="translate(3070.128906 0)"/>
    <use xlink:href="#MicrosoftYaHei-72" transform="translate(3134.09375 0)"/>
    <use xlink:href="#MicrosoftYaHei-65" transform="translate(3170.902344 0)"/>
    <use xlink:href="#MicrosoftYaHei-53" transform="translate(3227.640625 0)"/>
    <use xlink:href="#MicrosoftYaHei-51" transform="translate(3285.355469 0)"/>
    <use xlink:href="#MicrosoftYaHei-4c" transform="translate(3366.849609 0)"/>
    <use xlink:href="#MicrosoftYaHei-20" transform="translate(3418.167969 0)"/>
    <use xlink:href="#MicrosoftYaHei-4a" transform="translate(3447.757812 0)"/>
    <use xlink:href="#MicrosoftYaHei-53" transform="translate(3487.357422 0)"/>
    <use xlink:href="#MicrosoftYaHei-4f" transform="translate(3545.072266 0)"/>
    <use xlink:href="#MicrosoftYaHei-4e" transform="translate(3626.566406 0)"/>
    <use xlink:href="#MicrosoftYaHei-20" transform="translate(3707.865234 0)"/>
    <use xlink:href="#MicrosoftYaHei-74" transform="translate(3737.455078 0)"/>
    <use xlink:href="#MicrosoftYaHei-65" transform="translate(3773.835938 0)"/>
    <use xlink:href="#MicrosoftYaHei-78" transform="translate(3830.574219 0)"/>
    <use xlink:href="#MicrosoftYaHei-74" transform="translate(3881.257812 0)"/>
    <use xlink:href="#MicrosoftYaHei-20" transform="translate(3918.513672 0)"/>
    <use xlink:href="#MicrosoftYaHei-77" transform="translate(3948.103516 0)"/>
    <use xlink:href="#MicrosoftYaHei-72" transform="translate(4027.058594 0)"/>
    <use xlink:href="#MicrosoftYaHei-69" transform="translate(4065.242188 0)"/>
    <use xlink:href="#MicrosoftYaHei-74" transform="translate(4091.853516 0)"/>
    <use xlink:href="#MicrosoftYaHei-65" transform="translate(4128.234375 0)"/>
    <use xlink:href="#MicrosoftYaHei-62" transform="translate(4184.972656 0)"/>
    <use xlink:href="#MicrosoftYaHei-61" transform="translate(4247.464844 0)"/>
    <use xlink:href="#MicrosoftYaHei-63" transform="translate(4302.738281 0)"/>
    <use xlink:href="#MicrosoftYaHei-6b" transform="translate(4352.884766 0)"/>
    <use xlink:href="#MicrosoftYaHei-20" transform="translate(4407.328125 0)"/>
    <use xlink:href="#MicrosoftYaHei-660e" transform="translate(4436.917969 0)"/>
    <use xlink:href="#MicrosoftYaHei-663e" transform="translate(4536.917969 0)"/>
    <use xlink:href="#MicrosoftYaHei-9650" transform="translate(4636.917969 0)"/>
    <use xlink:href="#MicrosoftYaHei-5236" transform="translate(4736.917969 0)"/>
    <use xlink:href="#MicrosoftYaHei-3002" transform="translate(4836.917969 0)"/>
   </g>
  </g>
 </g>
 <defs>
  <clipPath id="p4f4446b949">
   <rect x="49.824" y="108.367312" width="783.36" height="311.04"/>
  </clipPath>
 </defs>
</svg>
