<?xml version="1.0" encoding="utf-8" standalone="no"?>
<!DOCTYPE svg PUBLIC "-//W3C//DTD SVG 1.1//EN"
  "http://www.w3.org/Graphics/SVG/1.1/DTD/svg11.dtd">
<svg xmlns:xlink="http://www.w3.org/1999/xlink" width="592.077969pt" height="226.791582pt" viewBox="0 0 592.077969 226.791582" xmlns="http://www.w3.org/2000/svg" version="1.1">
 <metadata>
  <rdf:RDF xmlns:dc="http://purl.org/dc/elements/1.1/" xmlns:cc="http://creativecommons.org/ns#" xmlns:rdf="http://www.w3.org/1999/02/22-rdf-syntax-ns#">
   <cc:Work>
    <dc:type rdf:resource="http://purl.org/dc/dcmitype/StillImage"/>
    <dc:date>2026-07-20T10:41:16.963692</dc:date>
    <dc:format>image/svg+xml</dc:format>
    <dc:creator>
     <cc:Agent>
      <dc:title>Matplotlib v3.11.0, https://matplotlib.org/</dc:title>
     </cc:Agent>
    </dc:creator>
   </cc:Work>
  </rdf:RDF>
 </metadata>
 <defs>
  <style type="text/css">*{stroke-linejoin: round; stroke-linecap: butt}</style>
 </defs>
 <g id="figure_1">
  <g id="patch_1">
   <path d="M 0 226.791582 
L 592.077969 226.791582 
L 592.077969 0 
L 0 0 
z
" style="fill: #ffffff"/>
  </g>
  <g id="axes_1">
   <g id="patch_2">
    <path d="M 115.165391 159.128313 
L 533.485391 159.128313 
L 533.485391 39.320312 
L 115.165391 39.320312 
z
" style="fill: #ffffff"/>
   </g>
   <g id="matplotlib.axis_1">
    <g id="xtick_1">
     <g id="line2d_1">
      <path d="M 115.165391 159.128313 
L 115.165391 39.320312 
" clip-path="url(#p5c299b048c)" style="fill: none; stroke-dasharray: 2.96,1.28; stroke-dashoffset: 0; stroke: #b0b0b0; stroke-opacity: 0.25; stroke-width: 0.8"/>
     </g>
     <g id="line2d_2">
      <defs>
       <path id="m5887ad0879" d="M 0 0 
L 0 3.5 
" style="stroke: #000000; stroke-width: 0.8"/>
      </defs>
      <g>
       <use xlink:href="#m5887ad0879" x="115.165391" y="159.128313" style="stroke: #000000; stroke-width: 0.8"/>
      </g>
     </g>
     <g id="text_1">
      <!-- 0.0 -->
      <g transform="translate(108.804219 175.936418) scale(0.09 -0.09)">
       <defs>
        <path id="MicrosoftYaHei-16" d="M 284 2325 
Q 284 3606 709 4264 
Q 1134 4922 1941 4922 
Q 3478 4922 3478 2441 
Q 3478 1216 3045 567 
Q 2613 -81 1831 -81 
Q 1094 -81 689 534 
Q 284 1150 284 2325 
z
M 909 2353 
Q 909 425 1888 425 
Q 2850 425 2850 2384 
Q 2850 4413 1906 4413 
Q 909 4413 909 2353 
z
" transform="scale(0.015625)"/>
        <path id="MicrosoftYaHei-14" d="M 372 322 
Q 372 491 487 606 
Q 603 722 775 722 
Q 950 722 1065 605 
Q 1181 488 1181 322 
Q 1181 159 1065 42 
Q 950 -75 772 -75 
Q 600 -75 486 42 
Q 372 159 372 322 
z
" transform="scale(0.015625)"/>
       </defs>
       <use xlink:href="#MicrosoftYaHei-16"/>
       <use xlink:href="#MicrosoftYaHei-14" transform="translate(58.640625 0)"/>
       <use xlink:href="#MicrosoftYaHei-16" transform="translate(82.71875 0)"/>
      </g>
     </g>
    </g>
    <g id="xtick_2">
     <g id="line2d_3">
      <path d="M 184.204208 159.128313 
L 184.204208 39.320312 
" clip-path="url(#p5c299b048c)" style="fill: none; stroke-dasharray: 2.96,1.28; stroke-dashoffset: 0; stroke: #b0b0b0; stroke-opacity: 0.25; stroke-width: 0.8"/>
     </g>
     <g id="line2d_4">
      <g>
       <use xlink:href="#m5887ad0879" x="184.204208" y="159.128313" style="stroke: #000000; stroke-width: 0.8"/>
      </g>
     </g>
     <g id="text_2">
      <!-- 0.5 -->
      <g transform="translate(177.843036 175.936418) scale(0.09 -0.09)">
       <defs>
        <path id="MicrosoftYaHei-1b" d="M 3294 1494 
Q 3294 784 2823 350 
Q 2353 -84 1559 -84 
Q 878 -84 544 119 
L 544 744 
Q 1034 425 1544 425 
Q 2050 425 2361 704 
Q 2672 984 2672 1447 
Q 2672 1909 2348 2167 
Q 2025 2425 1434 2425 
Q 978 2425 613 2384 
L 791 4841 
L 3053 4841 
L 3053 4303 
L 1306 4303 
L 1206 2931 
L 1647 2950 
Q 2416 2950 2855 2567 
Q 3294 2184 3294 1494 
z
" transform="scale(0.015625)"/>
       </defs>
       <use xlink:href="#MicrosoftYaHei-16"/>
       <use xlink:href="#MicrosoftYaHei-14" transform="translate(58.640625 0)"/>
       <use xlink:href="#MicrosoftYaHei-1b" transform="translate(82.71875 0)"/>
      </g>
     </g>
    </g>
    <g id="xtick_3">
     <g id="line2d_5">
      <path d="M 253.243025 159.128313 
L 253.243025 39.320312 
" clip-path="url(#p5c299b048c)" style="fill: none; stroke-dasharray: 2.96,1.28; stroke-dashoffset: 0; stroke: #b0b0b0; stroke-opacity: 0.25; stroke-width: 0.8"/>
     </g>
     <g id="line2d_6">
      <g>
       <use xlink:href="#m5887ad0879" x="253.243025" y="159.128313" style="stroke: #000000; stroke-width: 0.8"/>
      </g>
     </g>
     <g id="text_3">
      <!-- 1.0 -->
      <g transform="translate(246.881853 175.936418) scale(0.09 -0.09)">
       <defs>
        <path id="MicrosoftYaHei-17" d="M 1781 0 
L 1781 4141 
Q 1638 3997 1295 3819 
Q 953 3641 663 3569 
L 663 4169 
Q 1047 4275 1484 4508 
Q 1922 4741 2156 4947 
L 2388 4947 
L 2388 0 
L 1781 0 
z
" transform="scale(0.015625)"/>
       </defs>
       <use xlink:href="#MicrosoftYaHei-17"/>
       <use xlink:href="#MicrosoftYaHei-14" transform="translate(58.640625 0)"/>
       <use xlink:href="#MicrosoftYaHei-16" transform="translate(82.71875 0)"/>
      </g>
     </g>
    </g>
    <g id="xtick_4">
     <g id="line2d_7">
      <path d="M 322.281842 159.128313 
L 322.281842 39.320312 
" clip-path="url(#p5c299b048c)" style="fill: none; stroke-dasharray: 2.96,1.28; stroke-dashoffset: 0; stroke: #b0b0b0; stroke-opacity: 0.25; stroke-width: 0.8"/>
     </g>
     <g id="line2d_8">
      <g>
       <use xlink:href="#m5887ad0879" x="322.281842" y="159.128313" style="stroke: #000000; stroke-width: 0.8"/>
      </g>
     </g>
     <g id="text_4">
      <!-- 1.5 -->
      <g transform="translate(315.92067 175.936418) scale(0.09 -0.09)">
       <use xlink:href="#MicrosoftYaHei-17"/>
       <use xlink:href="#MicrosoftYaHei-14" transform="translate(58.640625 0)"/>
       <use xlink:href="#MicrosoftYaHei-1b" transform="translate(82.71875 0)"/>
      </g>
     </g>
    </g>
    <g id="xtick_5">
     <g id="line2d_9">
      <path d="M 391.320659 159.128313 
L 391.320659 39.320312 
" clip-path="url(#p5c299b048c)" style="fill: none; stroke-dasharray: 2.96,1.28; stroke-dashoffset: 0; stroke: #b0b0b0; stroke-opacity: 0.25; stroke-width: 0.8"/>
     </g>
     <g id="line2d_10">
      <g>
       <use xlink:href="#m5887ad0879" x="391.320659" y="159.128313" style="stroke: #000000; stroke-width: 0.8"/>
      </g>
     </g>
     <g id="text_5">
      <!-- 2.0 -->
      <g transform="translate(384.959487 175.936418) scale(0.09 -0.09)">
       <defs>
        <path id="MicrosoftYaHei-18" d="M 2666 3572 
Q 2666 3963 2419 4186 
Q 2172 4409 1747 4409 
Q 1447 4409 1140 4256 
Q 834 4103 569 3819 
L 569 4413 
Q 806 4659 1107 4790 
Q 1409 4922 1816 4922 
Q 2472 4922 2872 4570 
Q 3272 4219 3272 3619 
Q 3272 3084 3026 2693 
Q 2781 2303 2188 1894 
Q 1581 1475 1376 1294 
Q 1172 1113 1090 947 
Q 1009 781 1009 544 
L 3416 544 
L 3416 0 
L 372 0 
L 372 241 
Q 372 659 486 951 
Q 600 1244 862 1520 
Q 1125 1797 1681 2184 
Q 2250 2584 2458 2886 
Q 2666 3188 2666 3572 
z
" transform="scale(0.015625)"/>
       </defs>
       <use xlink:href="#MicrosoftYaHei-18"/>
       <use xlink:href="#MicrosoftYaHei-14" transform="translate(58.640625 0)"/>
       <use xlink:href="#MicrosoftYaHei-16" transform="translate(82.71875 0)"/>
      </g>
     </g>
    </g>
    <g id="xtick_6">
     <g id="line2d_11">
      <path d="M 460.359476 159.128313 
L 460.359476 39.320312 
" clip-path="url(#p5c299b048c)" style="fill: none; stroke-dasharray: 2.96,1.28; stroke-dashoffset: 0; stroke: #b0b0b0; stroke-opacity: 0.25; stroke-width: 0.8"/>
     </g>
     <g id="line2d_12">
      <g>
       <use xlink:href="#m5887ad0879" x="460.359476" y="159.128313" style="stroke: #000000; stroke-width: 0.8"/>
      </g>
     </g>
     <g id="text_6">
      <!-- 2.5 -->
      <g transform="translate(453.998304 175.936418) scale(0.09 -0.09)">
       <use xlink:href="#MicrosoftYaHei-18"/>
       <use xlink:href="#MicrosoftYaHei-14" transform="translate(58.640625 0)"/>
       <use xlink:href="#MicrosoftYaHei-1b" transform="translate(82.71875 0)"/>
      </g>
     </g>
    </g>
    <g id="xtick_7">
     <g id="line2d_13">
      <path d="M 529.398293 159.128313 
L 529.398293 39.320312 
" clip-path="url(#p5c299b048c)" style="fill: none; stroke-dasharray: 2.96,1.28; stroke-dashoffset: 0; stroke: #b0b0b0; stroke-opacity: 0.25; stroke-width: 0.8"/>
     </g>
     <g id="line2d_14">
      <g>
       <use xlink:href="#m5887ad0879" x="529.398293" y="159.128313" style="stroke: #000000; stroke-width: 0.8"/>
      </g>
     </g>
     <g id="text_7">
      <!-- 3.0 -->
      <g transform="translate(523.037121 175.936418) scale(0.09 -0.09)">
       <defs>
        <path id="MicrosoftYaHei-19" d="M 447 809 
Q 944 425 1569 425 
Q 2069 425 2361 670 
Q 2653 916 2653 1328 
Q 2653 2247 1338 2247 
L 934 2247 
L 934 2753 
L 1319 2753 
Q 2484 2753 2484 3616 
Q 2484 4413 1594 4413 
Q 1084 4413 634 4069 
L 634 4647 
Q 1109 4922 1744 4922 
Q 2363 4922 2738 4598 
Q 3113 4275 3113 3759 
Q 3113 2809 2144 2538 
L 2144 2525 
Q 2669 2469 2973 2155 
Q 3278 1841 3278 1372 
Q 3278 719 2808 319 
Q 2338 -81 1556 -81 
Q 869 -81 447 175 
L 447 809 
z
" transform="scale(0.015625)"/>
       </defs>
       <use xlink:href="#MicrosoftYaHei-19"/>
       <use xlink:href="#MicrosoftYaHei-14" transform="translate(58.640625 0)"/>
       <use xlink:href="#MicrosoftYaHei-16" transform="translate(82.71875 0)"/>
      </g>
     </g>
    </g>
    <g id="text_8">
     <!-- Wall Time (seconds) -->
     <g transform="translate(281.337734 193.525285) scale(0.09 -0.09)">
      <defs>
       <path id="MicrosoftYaHei-3d" d="M 6431 4841 
L 5075 0 
L 4347 0 
L 3372 3488 
Q 3306 3725 3294 3988 
L 3281 3988 
Q 3263 3728 3194 3494 
L 2209 0 
L 1488 0 
L 84 4841 
L 775 4841 
L 1763 1184 
Q 1828 938 1841 688 
L 1859 688 
Q 1875 875 1963 1184 
L 3009 4841 
L 3625 4841 
L 4625 1156 
Q 4675 975 4706 694 
L 4719 694 
Q 4734 897 4809 1169 
L 5759 4841 
L 6431 4841 
z
" transform="scale(0.015625)"/>
       <path id="MicrosoftYaHei-47" d="M 628 3216 
Q 1144 3538 1819 3538 
Q 3069 3538 3069 2225 
L 3069 0 
L 2463 0 
L 2463 534 
L 2447 534 
Q 2088 -81 1388 -81 
Q 884 -81 587 191 
Q 291 463 291 925 
Q 291 1894 1438 2053 
L 2463 2197 
Q 2463 3044 1763 3044 
Q 1141 3044 628 2625 
L 628 3216 
z
M 1653 1625 
Q 1228 1569 1067 1412 
Q 906 1256 906 975 
Q 906 728 1081 572 
Q 1256 416 1544 416 
Q 1944 416 2203 697 
Q 2463 978 2463 1403 
L 2463 1734 
L 1653 1625 
z
" transform="scale(0.015625)"/>
       <path id="MicrosoftYaHei-52" d="M 544 0 
L 544 5116 
L 1156 5116 
L 1156 0 
L 544 0 
z
" transform="scale(0.015625)"/>
       <path id="MicrosoftYaHei-3" transform="scale(0.015625)"/>
       <path id="MicrosoftYaHei-3a" d="M 3550 4284 
L 2153 4284 
L 2153 0 
L 1525 0 
L 1525 4284 
L 134 4284 
L 134 4841 
L 3550 4841 
L 3550 4284 
z
" transform="scale(0.015625)"/>
       <path id="MicrosoftYaHei-4f" d="M 472 4675 
Q 472 4838 583 4948 
Q 694 5059 856 5059 
Q 1022 5059 1136 4950 
Q 1250 4841 1250 4675 
Q 1250 4513 1136 4405 
Q 1022 4297 856 4297 
Q 691 4297 581 4405 
Q 472 4513 472 4675 
z
M 544 0 
L 544 3456 
L 1156 3456 
L 1156 0 
L 544 0 
z
" transform="scale(0.015625)"/>
       <path id="MicrosoftYaHei-53" d="M 5522 0 
L 4909 0 
L 4909 1984 
Q 4909 2547 4734 2789 
Q 4559 3031 4159 3031 
Q 3822 3031 3581 2715 
Q 3341 2400 3341 1969 
L 3341 0 
L 2728 0 
L 2728 2047 
Q 2728 3031 1969 3031 
Q 1619 3031 1389 2731 
Q 1159 2431 1159 1966 
L 1159 0 
L 547 0 
L 547 3456 
L 1159 3456 
L 1159 2909 
L 1172 2909 
Q 1541 3538 2250 3538 
Q 2597 3538 2862 3347 
Q 3128 3156 3231 2831 
Q 3616 3538 4381 3538 
Q 5522 3538 5522 2131 
L 5522 0 
z
" transform="scale(0.015625)"/>
       <path id="MicrosoftYaHei-4b" d="M 3363 1572 
L 944 1572 
Q 959 1019 1246 717 
Q 1534 416 2050 416 
Q 2631 416 3116 788 
L 3116 241 
Q 2659 -81 1906 -81 
Q 1156 -81 736 394 
Q 316 869 316 1713 
Q 316 2506 777 3022 
Q 1238 3538 1922 3538 
Q 2600 3538 2981 3102 
Q 3363 2666 3363 1881 
L 3363 1572 
z
M 2750 2063 
Q 2747 2531 2528 2787 
Q 2309 3044 1913 3044 
Q 1547 3044 1280 2772 
Q 1013 2500 944 2063 
L 2750 2063 
z
" transform="scale(0.015625)"/>
       <path id="MicrosoftYaHei-e" d="M 1531 -1100 
Q 478 100 478 1847 
Q 478 3594 1531 4841 
L 2072 4841 
Q 1016 3544 1016 1853 
Q 1016 166 2066 -1100 
L 1531 -1100 
z
" transform="scale(0.015625)"/>
       <path id="MicrosoftYaHei-59" d="M 353 747 
Q 816 413 1350 413 
Q 2066 413 2066 881 
Q 2066 1081 1909 1211 
Q 1753 1341 1275 1519 
Q 700 1750 528 1976 
Q 356 2203 356 2525 
Q 356 2984 745 3261 
Q 1134 3538 1703 3538 
Q 2144 3538 2522 3384 
L 2522 2794 
Q 2134 3044 1644 3044 
Q 1350 3044 1165 2916 
Q 981 2788 981 2578 
Q 981 2372 1114 2256 
Q 1247 2141 1703 1959 
Q 2281 1744 2484 1512 
Q 2688 1281 2688 941 
Q 2688 466 2298 192 
Q 1909 -81 1291 -81 
Q 753 -81 353 122 
L 353 747 
z
" transform="scale(0.015625)"/>
       <path id="MicrosoftYaHei-49" d="M 2934 156 
Q 2538 -81 1978 -81 
Q 1228 -81 772 400 
Q 316 881 316 1647 
Q 316 2497 808 3017 
Q 1300 3538 2125 3538 
Q 2600 3538 2938 3369 
L 2938 2763 
Q 2572 3031 2125 3031 
Q 1600 3031 1270 2667 
Q 941 2303 941 1697 
Q 941 1100 1252 762 
Q 1563 425 2091 425 
Q 2538 425 2934 719 
L 2934 156 
z
" transform="scale(0.015625)"/>
       <path id="MicrosoftYaHei-55" d="M 316 1691 
Q 316 2547 794 3042 
Q 1272 3538 2091 3538 
Q 2869 3538 3311 3061 
Q 3753 2584 3753 1744 
Q 3753 925 3281 422 
Q 2809 -81 2016 -81 
Q 1241 -81 778 406 
Q 316 894 316 1691 
z
M 941 1709 
Q 941 1113 1242 769 
Q 1544 425 2053 425 
Q 2578 425 2853 761 
Q 3128 1097 3128 1725 
Q 3128 2356 2853 2693 
Q 2578 3031 2053 3031 
Q 1538 3031 1239 2678 
Q 941 2325 941 1709 
z
" transform="scale(0.015625)"/>
       <path id="MicrosoftYaHei-54" d="M 3469 0 
L 2859 0 
L 2859 1966 
Q 2859 3031 2081 3031 
Q 1678 3031 1418 2731 
Q 1159 2431 1159 1972 
L 1159 0 
L 547 0 
L 547 3456 
L 1159 3456 
L 1159 2884 
L 1172 2884 
Q 1563 3538 2306 3538 
Q 2875 3538 3172 3173 
Q 3469 2809 3469 2113 
L 3469 0 
z
" transform="scale(0.015625)"/>
       <path id="MicrosoftYaHei-4a" d="M 3547 0 
L 2934 0 
L 2934 575 
L 2922 575 
Q 2544 -81 1747 -81 
Q 1091 -81 703 386 
Q 316 853 316 1647 
Q 316 2503 753 3020 
Q 1191 3538 1897 3538 
Q 2603 3538 2922 2988 
L 2934 2988 
L 2934 5116 
L 3547 5116 
L 3547 0 
z
M 2938 2056 
Q 2938 2472 2664 2751 
Q 2391 3031 1991 3031 
Q 1503 3031 1222 2667 
Q 941 2303 941 1675 
Q 941 1097 1211 761 
Q 1481 425 1931 425 
Q 2375 425 2656 754 
Q 2938 1084 2938 1575 
L 2938 2056 
z
" transform="scale(0.015625)"/>
       <path id="MicrosoftYaHei-f" d="M 78 -1100 
Q 1131 163 1131 1853 
Q 1131 3547 72 4841 
L 616 4841 
Q 1672 3603 1672 1847 
Q 1672 91 616 -1100 
L 78 -1100 
z
" transform="scale(0.015625)"/>
      </defs>
      <use xlink:href="#MicrosoftYaHei-3d"/>
      <use xlink:href="#MicrosoftYaHei-47" transform="translate(97.765625 0)"/>
      <use xlink:href="#MicrosoftYaHei-52" transform="translate(153.046875 0)"/>
      <use xlink:href="#MicrosoftYaHei-52" transform="translate(179.65625 0)"/>
      <use xlink:href="#MicrosoftYaHei-3" transform="translate(206.265625 0)"/>
      <use xlink:href="#MicrosoftYaHei-3a" transform="translate(235.859375 0)"/>
      <use xlink:href="#MicrosoftYaHei-4f" transform="translate(293.1875 0)"/>
      <use xlink:href="#MicrosoftYaHei-53" transform="translate(319.796875 0)"/>
      <use xlink:href="#MicrosoftYaHei-4b" transform="translate(413.5 0)"/>
      <use xlink:href="#MicrosoftYaHei-3" transform="translate(470.234375 0)"/>
      <use xlink:href="#MicrosoftYaHei-e" transform="translate(499.828125 0)"/>
      <use xlink:href="#MicrosoftYaHei-59" transform="translate(533.234375 0)"/>
      <use xlink:href="#MicrosoftYaHei-4b" transform="translate(579.53125 0)"/>
      <use xlink:href="#MicrosoftYaHei-49" transform="translate(636.265625 0)"/>
      <use xlink:href="#MicrosoftYaHei-55" transform="translate(686.40625 0)"/>
      <use xlink:href="#MicrosoftYaHei-54" transform="translate(749.984375 0)"/>
      <use xlink:href="#MicrosoftYaHei-4a" transform="translate(811.609375 0)"/>
      <use xlink:href="#MicrosoftYaHei-59" transform="translate(875.578125 0)"/>
      <use xlink:href="#MicrosoftYaHei-f" transform="translate(921.875 0)"/>
     </g>
    </g>
   </g>
   <g id="matplotlib.axis_2">
    <g id="ytick_1">
     <g id="line2d_15">
      <defs>
       <path id="mfe4a1f9fb4" d="M 0 0 
L -3.5 0 
" style="stroke: #000000; stroke-width: 0.8"/>
      </defs>
      <g>
       <use xlink:href="#mfe4a1f9fb4" x="115.165391" y="61.162142" style="stroke: #000000; stroke-width: 0.8"/>
      </g>
     </g>
     <g id="text_9">
      <!-- arrow_postgres -->
      <g transform="translate(45.985234 60.067726) scale(0.085 -0.085)">
       <defs>
        <path id="MicrosoftYaHei-58" d="M 2400 2850 
Q 2247 2959 1978 2959 
Q 1622 2959 1390 2626 
Q 1159 2294 1159 1750 
L 1159 0 
L 547 0 
L 547 3456 
L 1159 3456 
L 1159 2753 
L 1172 2753 
Q 1434 3516 2078 3516 
Q 2288 3516 2400 3469 
L 2400 2850 
z
" transform="scale(0.015625)"/>
        <path id="MicrosoftYaHei-5d" d="M 4975 3456 
L 3944 0 
L 3306 0 
L 2619 2425 
Q 2575 2581 2563 2756 
L 2550 2756 
Q 2541 2625 2478 2431 
L 1734 0 
L 1116 0 
L 78 3456 
L 716 3456 
L 1406 894 
Q 1438 778 1453 578 
L 1478 578 
Q 1491 750 1538 903 
L 2281 3456 
L 2847 3456 
L 3572 891 
Q 3603 778 3622 572 
L 3650 572 
Q 3656 709 3706 891 
L 4381 3456 
L 4975 3456 
z
" transform="scale(0.015625)"/>
        <path id="MicrosoftYaHei-45" d="M 2869 -1634 
L 0 -1634 
L 0 -1231 
L 2869 -1231 
L 2869 -1634 
z
" transform="scale(0.015625)"/>
        <path id="MicrosoftYaHei-56" d="M 1159 488 
L 1159 -1591 
L 547 -1591 
L 547 3456 
L 1159 3456 
L 1159 2859 
L 1172 2859 
Q 1578 3538 2359 3538 
Q 3022 3538 3398 3073 
Q 3775 2609 3775 1828 
Q 3775 966 3348 442 
Q 2922 -81 2200 -81 
Q 1534 -81 1172 488 
L 1159 488 
z
M 1156 1425 
Q 1156 1003 1428 714 
Q 1700 425 2109 425 
Q 2597 425 2872 800 
Q 3147 1175 3147 1838 
Q 3147 2397 2890 2714 
Q 2634 3031 2191 3031 
Q 1738 3031 1447 2709 
Q 1156 2388 1156 1884 
L 1156 1425 
z
" transform="scale(0.015625)"/>
        <path id="MicrosoftYaHei-5a" d="M 2206 34 
Q 2006 -75 1666 -75 
Q 738 -75 738 953 
L 738 2950 
L 144 2950 
L 144 3456 
L 738 3456 
L 738 4288 
L 1347 4481 
L 1347 3456 
L 2206 3456 
L 2206 2950 
L 1347 2950 
L 1347 1063 
Q 1347 722 1462 575 
Q 1578 428 1847 428 
Q 2053 428 2206 544 
L 2206 34 
z
" transform="scale(0.015625)"/>
        <path id="MicrosoftYaHei-4d" d="M 3547 291 
Q 3547 -1628 1684 -1628 
Q 1041 -1628 566 -1388 
L 566 -797 
Q 1144 -1119 1675 -1119 
Q 2934 -1119 2934 206 
L 2934 572 
L 2922 572 
Q 2528 -81 1747 -81 
Q 1097 -81 706 384 
Q 316 850 316 1619 
Q 316 2503 747 3020 
Q 1178 3538 1897 3538 
Q 2588 3538 2922 2988 
L 2934 2988 
L 2934 3456 
L 3547 3456 
L 3547 291 
z
M 2934 2056 
Q 2938 2456 2666 2743 
Q 2394 3031 1997 3031 
Q 1497 3031 1219 2664 
Q 941 2297 941 1656 
Q 941 1106 1209 765 
Q 1478 425 1922 425 
Q 2369 425 2653 750 
Q 2938 1075 2934 1575 
L 2934 2056 
z
" transform="scale(0.015625)"/>
       </defs>
       <use xlink:href="#MicrosoftYaHei-47"/>
       <use xlink:href="#MicrosoftYaHei-58" transform="translate(55.28125 0)"/>
       <use xlink:href="#MicrosoftYaHei-58" transform="translate(93.46875 0)"/>
       <use xlink:href="#MicrosoftYaHei-55" transform="translate(130.234375 0)"/>
       <use xlink:href="#MicrosoftYaHei-5d" transform="translate(193.8125 0)"/>
       <use xlink:href="#MicrosoftYaHei-45" transform="translate(272.765625 0)"/>
       <use xlink:href="#MicrosoftYaHei-56" transform="translate(317.59375 0)"/>
       <use xlink:href="#MicrosoftYaHei-55" transform="translate(381.46875 0)"/>
       <use xlink:href="#MicrosoftYaHei-59" transform="translate(445.046875 0)"/>
       <use xlink:href="#MicrosoftYaHei-5a" transform="translate(491.34375 0)"/>
       <use xlink:href="#MicrosoftYaHei-4d" transform="translate(527.765625 0)"/>
       <use xlink:href="#MicrosoftYaHei-58" transform="translate(591.734375 0)"/>
       <use xlink:href="#MicrosoftYaHei-4b" transform="translate(628.5 0)"/>
       <use xlink:href="#MicrosoftYaHei-59" transform="translate(685.234375 0)"/>
      </g>
      <!-- (AI_EMBED, coalesced) -->
      <g transform="translate(16.965703 69.177335) scale(0.085 -0.085)">
       <defs>
        <path id="MicrosoftYaHei-27" d="M 4428 0 
L 3738 0 
L 3244 1325 
L 1228 1325 
L 763 0 
L 72 0 
L 1916 4841 
L 2584 4841 
L 4428 0 
z
M 3050 1872 
L 2319 3884 
Q 2284 3981 2244 4222 
L 2228 4222 
Q 2194 4003 2150 3884 
L 1425 1872 
L 3050 1872 
z
" transform="scale(0.015625)"/>
        <path id="MicrosoftYaHei-2f" d="M 1250 4841 
L 1250 0 
L 625 0 
L 625 4841 
L 1250 4841 
z
" transform="scale(0.015625)"/>
        <path id="MicrosoftYaHei-2b" d="M 3228 0 
L 625 0 
L 625 4841 
L 3119 4841 
L 3119 4284 
L 1250 4284 
L 1250 2734 
L 2981 2734 
L 2981 2181 
L 1250 2181 
L 1250 553 
L 3228 553 
L 3228 0 
z
" transform="scale(0.015625)"/>
        <path id="MicrosoftYaHei-33" d="M 5003 0 
L 5003 3206 
Q 5003 3603 5050 4159 
L 5034 4159 
Q 4953 3809 4891 3672 
L 3294 0 
L 2947 0 
L 1353 3644 
Q 1297 3769 1209 4159 
L 1191 4159 
Q 1222 3822 1222 3178 
L 1222 0 
L 625 0 
L 625 4841 
L 1472 4841 
L 2900 1522 
Q 3063 1141 3116 928 
L 3138 928 
Q 3300 1375 3366 1534 
L 4819 4841 
L 5625 4841 
L 5625 0 
L 5003 0 
z
" transform="scale(0.015625)"/>
        <path id="MicrosoftYaHei-28" d="M 625 0 
L 625 4841 
L 2047 4841 
Q 2684 4841 3065 4536 
Q 3447 4231 3447 3728 
Q 3447 3328 3220 3022 
Q 2994 2716 2597 2588 
L 2597 2575 
Q 3091 2519 3386 2201 
Q 3681 1884 3681 1397 
Q 3681 772 3232 386 
Q 2784 0 2084 0 
L 625 0 
z
M 1250 4294 
L 1250 2778 
L 1819 2778 
Q 2272 2778 2530 2998 
Q 2788 3219 2788 3609 
Q 2788 4294 1875 4294 
L 1250 4294 
z
M 1250 2234 
L 1250 547 
L 2000 547 
Q 2491 547 2758 773 
Q 3025 1000 3025 1403 
Q 3025 2234 1897 2234 
L 1250 2234 
z
" transform="scale(0.015625)"/>
        <path id="MicrosoftYaHei-2a" d="M 625 0 
L 625 4841 
L 2006 4841 
Q 3106 4841 3836 4200 
Q 4566 3559 4566 2481 
Q 4566 1356 3836 678 
Q 3106 0 1956 0 
L 625 0 
z
M 1250 4284 
L 1250 553 
L 1953 553 
Q 2875 553 3392 1056 
Q 3909 1559 3909 2466 
Q 3909 3372 3378 3828 
Q 2847 4284 1981 4284 
L 1250 4284 
z
" transform="scale(0.015625)"/>
        <path id="MicrosoftYaHei-12" d="M 1109 778 
L 575 -888 
L 131 -888 
L 519 778 
L 1109 778 
z
" transform="scale(0.015625)"/>
       </defs>
       <use xlink:href="#MicrosoftYaHei-e"/>
       <use xlink:href="#MicrosoftYaHei-27" transform="translate(33.40625 0)"/>
       <use xlink:href="#MicrosoftYaHei-2f" transform="translate(103.765625 0)"/>
       <use xlink:href="#MicrosoftYaHei-45" transform="translate(133.15625 0)"/>
       <use xlink:href="#MicrosoftYaHei-2b" transform="translate(177.984375 0)"/>
       <use xlink:href="#MicrosoftYaHei-33" transform="translate(232.96875 0)"/>
       <use xlink:href="#MicrosoftYaHei-28" transform="translate(330.671875 0)"/>
       <use xlink:href="#MicrosoftYaHei-2b" transform="translate(393.421875 0)"/>
       <use xlink:href="#MicrosoftYaHei-2a" transform="translate(448.40625 0)"/>
       <use xlink:href="#MicrosoftYaHei-12" transform="translate(517.796875 0)"/>
       <use xlink:href="#MicrosoftYaHei-3" transform="translate(541.875 0)"/>
       <use xlink:href="#MicrosoftYaHei-49" transform="translate(571.46875 0)"/>
       <use xlink:href="#MicrosoftYaHei-55" transform="translate(621.609375 0)"/>
       <use xlink:href="#MicrosoftYaHei-47" transform="translate(683.765625 0)"/>
       <use xlink:href="#MicrosoftYaHei-52" transform="translate(739.046875 0)"/>
       <use xlink:href="#MicrosoftYaHei-4b" transform="translate(765.65625 0)"/>
       <use xlink:href="#MicrosoftYaHei-59" transform="translate(822.390625 0)"/>
       <use xlink:href="#MicrosoftYaHei-49" transform="translate(868.6875 0)"/>
       <use xlink:href="#MicrosoftYaHei-4b" transform="translate(918.828125 0)"/>
       <use xlink:href="#MicrosoftYaHei-4a" transform="translate(975.5625 0)"/>
       <use xlink:href="#MicrosoftYaHei-f" transform="translate(1039.53125 0)"/>
      </g>
     </g>
    </g>
    <g id="ytick_2">
     <g id="line2d_16">
      <g>
       <use xlink:href="#mfe4a1f9fb4" x="115.165391" y="137.286483" style="stroke: #000000; stroke-width: 0.8"/>
      </g>
     </g>
     <g id="text_10">
      <!-- daft_postgres -->
      <g transform="translate(52.754687 136.192066) scale(0.085 -0.085)">
       <defs>
        <path id="MicrosoftYaHei-4c" d="M 2319 4594 
Q 2147 4684 1947 4684 
Q 1372 4684 1372 3972 
L 1372 3456 
L 2181 3456 
L 2181 2950 
L 1372 2950 
L 1372 0 
L 766 0 
L 766 2950 
L 175 2950 
L 175 3456 
L 766 3456 
L 766 4000 
Q 766 4556 1086 4873 
Q 1406 5191 1900 5191 
Q 2163 5191 2319 5131 
L 2319 4594 
z
" transform="scale(0.015625)"/>
       </defs>
       <use xlink:href="#MicrosoftYaHei-4a"/>
       <use xlink:href="#MicrosoftYaHei-47" transform="translate(63.96875 0)"/>
       <use xlink:href="#MicrosoftYaHei-4c" transform="translate(119.25 0)"/>
       <use xlink:href="#MicrosoftYaHei-5a" transform="translate(155.875 0)"/>
       <use xlink:href="#MicrosoftYaHei-45" transform="translate(193.125 0)"/>
       <use xlink:href="#MicrosoftYaHei-56" transform="translate(237.953125 0)"/>
       <use xlink:href="#MicrosoftYaHei-55" transform="translate(301.828125 0)"/>
       <use xlink:href="#MicrosoftYaHei-59" transform="translate(365.40625 0)"/>
       <use xlink:href="#MicrosoftYaHei-5a" transform="translate(411.703125 0)"/>
       <use xlink:href="#MicrosoftYaHei-4d" transform="translate(448.125 0)"/>
       <use xlink:href="#MicrosoftYaHei-58" transform="translate(512.09375 0)"/>
       <use xlink:href="#MicrosoftYaHei-4b" transform="translate(548.859375 0)"/>
       <use xlink:href="#MicrosoftYaHei-59" transform="translate(605.59375 0)"/>
      </g>
      <!-- (AI_COMPLETE, batch=8) -->
      <g transform="translate(7.2 145.301675) scale(0.085 -0.085)">
       <defs>
        <path id="MicrosoftYaHei-29" d="M 3938 200 
Q 3403 -81 2597 -81 
Q 1556 -81 934 580 
Q 313 1241 313 2328 
Q 313 3497 1013 4209 
Q 1713 4922 2791 4922 
Q 3484 4922 3938 4725 
L 3938 4072 
Q 3419 4359 2797 4359 
Q 1988 4359 1478 3820 
Q 969 3281 969 2366 
Q 969 1497 1444 986 
Q 1919 475 2688 475 
Q 3406 475 3938 800 
L 3938 200 
z
" transform="scale(0.015625)"/>
        <path id="MicrosoftYaHei-35" d="M 313 2363 
Q 313 3534 947 4228 
Q 1581 4922 2666 4922 
Q 3675 4922 4290 4244 
Q 4906 3566 4906 2478 
Q 4906 1300 4275 609 
Q 3644 -81 2588 -81 
Q 1556 -81 934 597 
Q 313 1275 313 2363 
z
M 969 2413 
Q 969 1534 1417 1004 
Q 1866 475 2588 475 
Q 3363 475 3805 983 
Q 4247 1491 4247 2403 
Q 4247 3341 3814 3850 
Q 3381 4359 2628 4359 
Q 1888 4359 1428 3821 
Q 969 3284 969 2413 
z
" transform="scale(0.015625)"/>
        <path id="MicrosoftYaHei-36" d="M 1250 1809 
L 1250 0 
L 625 0 
L 625 4841 
L 2000 4841 
Q 2784 4841 3217 4462 
Q 3650 4084 3650 3381 
Q 3650 2669 3144 2226 
Q 2638 1784 1878 1809 
L 1250 1809 
z
M 1250 4291 
L 1250 2359 
L 1828 2359 
Q 2400 2359 2697 2617 
Q 2994 2875 2994 3356 
Q 2994 4291 1888 4291 
L 1250 4291 
z
" transform="scale(0.015625)"/>
        <path id="MicrosoftYaHei-32" d="M 3178 0 
L 625 0 
L 625 4841 
L 1250 4841 
L 1250 553 
L 3178 553 
L 3178 0 
z
" transform="scale(0.015625)"/>
        <path id="MicrosoftYaHei-48" d="M 1159 488 
L 1159 0 
L 547 0 
L 547 5116 
L 1159 5116 
L 1159 2859 
L 1172 2859 
Q 1578 3538 2359 3538 
Q 3009 3538 3392 3080 
Q 3775 2622 3775 1828 
Q 3775 953 3345 436 
Q 2916 -81 2200 -81 
Q 1525 -81 1172 488 
L 1159 488 
z
M 1156 1422 
Q 1156 1003 1428 714 
Q 1700 425 2109 425 
Q 2597 425 2872 800 
Q 3147 1175 3147 1838 
Q 3147 2384 2890 2707 
Q 2634 3031 2191 3031 
Q 1741 3031 1448 2709 
Q 1156 2388 1156 1891 
L 1156 1422 
z
" transform="scale(0.015625)"/>
        <path id="MicrosoftYaHei-4e" d="M 3466 0 
L 2856 0 
L 2856 1988 
Q 2856 3031 2081 3031 
Q 1684 3031 1421 2726 
Q 1159 2422 1159 1959 
L 1159 0 
L 547 0 
L 547 5116 
L 1159 5116 
L 1159 2888 
L 1172 2888 
Q 1569 3538 2300 3538 
Q 3466 3538 3466 2128 
L 3466 0 
z
" transform="scale(0.015625)"/>
        <path id="MicrosoftYaHei-23" d="M 3972 2497 
L 788 2497 
L 788 2969 
L 3972 2969 
L 3972 2497 
z
M 3972 1053 
L 788 1053 
L 788 1525 
L 3972 1525 
L 3972 1053 
z
" transform="scale(0.015625)"/>
        <path id="MicrosoftYaHei-1e" d="M 306 1350 
Q 306 1769 556 2122 
Q 806 2475 1200 2625 
Q 884 2803 700 3081 
Q 516 3359 516 3684 
Q 516 4028 692 4312 
Q 869 4597 1183 4759 
Q 1497 4922 1875 4922 
Q 2256 4922 2572 4761 
Q 2888 4600 3063 4315 
Q 3238 4031 3238 3684 
Q 3238 3366 3058 3086 
Q 2878 2806 2559 2625 
Q 2953 2472 3200 2119 
Q 3447 1766 3447 1350 
Q 3447 938 3250 611 
Q 3053 284 2690 103 
Q 2328 -78 1875 -78 
Q 1425 -78 1065 103 
Q 706 284 506 612 
Q 306 941 306 1350 
z
M 906 1378 
Q 906 947 1172 687 
Q 1438 428 1878 428 
Q 2309 428 2582 692 
Q 2856 956 2856 1378 
Q 2856 1778 2579 2051 
Q 2303 2325 1878 2325 
Q 1456 2325 1181 2058 
Q 906 1791 906 1378 
z
M 1081 3634 
Q 1081 3309 1312 3076 
Q 1544 2844 1878 2844 
Q 2206 2844 2445 3078 
Q 2684 3313 2684 3634 
Q 2684 3963 2454 4191 
Q 2225 4419 1878 4419 
Q 1534 4419 1307 4195 
Q 1081 3972 1081 3634 
z
" transform="scale(0.015625)"/>
       </defs>
       <use xlink:href="#MicrosoftYaHei-e"/>
       <use xlink:href="#MicrosoftYaHei-27" transform="translate(33.40625 0)"/>
       <use xlink:href="#MicrosoftYaHei-2f" transform="translate(103.765625 0)"/>
       <use xlink:href="#MicrosoftYaHei-45" transform="translate(133.15625 0)"/>
       <use xlink:href="#MicrosoftYaHei-29" transform="translate(177.984375 0)"/>
       <use xlink:href="#MicrosoftYaHei-35" transform="translate(243.453125 0)"/>
       <use xlink:href="#MicrosoftYaHei-33" transform="translate(324.953125 0)"/>
       <use xlink:href="#MicrosoftYaHei-36" transform="translate(422.65625 0)"/>
       <use xlink:href="#MicrosoftYaHei-32" transform="translate(483.84375 0)"/>
       <use xlink:href="#MicrosoftYaHei-2b" transform="translate(535.15625 0)"/>
       <use xlink:href="#MicrosoftYaHei-3a" transform="translate(590.34375 0)"/>
       <use xlink:href="#MicrosoftYaHei-2b" transform="translate(647.671875 0)"/>
       <use xlink:href="#MicrosoftYaHei-12" transform="translate(702.65625 0)"/>
       <use xlink:href="#MicrosoftYaHei-3" transform="translate(726.734375 0)"/>
       <use xlink:href="#MicrosoftYaHei-48" transform="translate(756.328125 0)"/>
       <use xlink:href="#MicrosoftYaHei-47" transform="translate(818.78125 0)"/>
       <use xlink:href="#MicrosoftYaHei-5a" transform="translate(874.0625 0)"/>
       <use xlink:href="#MicrosoftYaHei-49" transform="translate(909.890625 0)"/>
       <use xlink:href="#MicrosoftYaHei-4e" transform="translate(960.03125 0)"/>
       <use xlink:href="#MicrosoftYaHei-23" transform="translate(1021.609375 0)"/>
       <use xlink:href="#MicrosoftYaHei-1e" transform="translate(1095.78125 0)"/>
       <use xlink:href="#MicrosoftYaHei-f" transform="translate(1154.421875 0)"/>
      </g>
     </g>
    </g>
   </g>
   <g id="patch_3">
    <path d="M 115.165391 77.558154 
L 119.721953 77.558154 
L 119.721953 44.766131 
L 115.165391 44.766131 
z
" clip-path="url(#p5c299b048c)" style="fill: #56b4e9"/>
   </g>
   <g id="patch_4">
    <path d="M 119.721953 77.558154 
L 120.136185 77.558154 
L 120.136185 44.766131 
L 119.721953 44.766131 
z
" clip-path="url(#p5c299b048c)" style="fill: #009e73"/>
   </g>
   <g id="patch_5">
    <path d="M 120.136185 77.558154 
L 454.698293 77.558154 
L 454.698293 44.766131 
L 120.136185 44.766131 
z
" clip-path="url(#p5c299b048c)" style="fill: #e69f00"/>
   </g>
   <g id="patch_6">
    <path d="M 115.165391 153.682494 
L 124.416592 153.682494 
L 124.416592 120.890471 
L 115.165391 120.890471 
z
" clip-path="url(#p5c299b048c)" style="fill: #56b4e9"/>
   </g>
   <g id="patch_7">
    <path d="M 124.416592 153.682494 
L 127.730455 153.682494 
L 127.730455 120.890471 
L 124.416592 120.890471 
z
" clip-path="url(#p5c299b048c)" style="fill: #009e73"/>
   </g>
   <g id="patch_8">
    <path d="M 127.730455 153.682494 
L 488.665391 153.682494 
L 488.665391 120.890471 
L 127.730455 120.890471 
z
" clip-path="url(#p5c299b048c)" style="fill: #e69f00"/>
   </g>
   <g id="patch_9">
    <path d="M 115.165391 159.128313 
L 115.165391 39.320312 
" style="fill: none; stroke: #000000; stroke-width: 0.8; stroke-linejoin: miter; stroke-linecap: square"/>
   </g>
   <g id="patch_10">
    <path d="M 115.165391 159.128313 
L 533.485391 159.128313 
" style="fill: none; stroke: #000000; stroke-width: 0.8; stroke-linejoin: miter; stroke-linecap: square"/>
   </g>
   <g id="text_11">
    <g id="patch_11">
     <path d="M 79.537976 39.489269 
L 155.763601 39.489269 
Q 157.513601 39.489269 157.513601 37.739269 
L 157.513601 30.281261 
Q 157.513601 28.531261 155.763601 28.531261 
L 79.537976 28.531261 
Q 77.787976 28.531261 77.787976 30.281261 
L 77.787976 37.739269 
Q 77.787976 39.489269 79.537976 39.489269 
z
" style="fill: #fff9e6; opacity: 0.9; stroke: #cccccc; stroke-linejoin: miter"/>
    </g>
    <!-- 0.033 + 0.003 = 0.036s -->
    <g style="fill: #333333" transform="translate(79.537976 35.965343) scale(0.07 -0.07)">
     <defs>
      <path id="MicrosoftYaHei-11" d="M 3972 1772 
L 2613 1772 
L 2613 419 
L 2141 419 
L 2141 1772 
L 788 1772 
L 788 2250 
L 2141 2250 
L 2141 3603 
L 2613 3603 
L 2613 2250 
L 3972 2250 
L 3972 1772 
z
" transform="scale(0.015625)"/>
      <path id="MicrosoftYaHei-1c" d="M 3181 4219 
Q 2803 4413 2391 4413 
Q 1763 4413 1381 3866 
Q 1000 3319 994 2372 
L 1009 2372 
Q 1353 3038 2106 3038 
Q 2734 3038 3109 2628 
Q 3484 2219 3484 1541 
Q 3484 831 3051 375 
Q 2619 -81 1947 -81 
Q 1209 -81 789 495 
Q 369 1072 369 2131 
Q 369 3413 920 4167 
Q 1472 4922 2372 4922 
Q 2888 4922 3181 4781 
L 3181 4219 
z
M 1031 1584 
Q 1031 1106 1286 765 
Q 1541 425 1963 425 
Q 2363 425 2613 719 
Q 2863 1013 2863 1475 
Q 2863 1975 2627 2253 
Q 2391 2531 1956 2531 
Q 1544 2531 1287 2250 
Q 1031 1969 1031 1584 
z
" transform="scale(0.015625)"/>
     </defs>
     <use xlink:href="#MicrosoftYaHei-16"/>
     <use xlink:href="#MicrosoftYaHei-14" transform="translate(58.640625 0)"/>
     <use xlink:href="#MicrosoftYaHei-16" transform="translate(82.71875 0)"/>
     <use xlink:href="#MicrosoftYaHei-19" transform="translate(141.359375 0)"/>
     <use xlink:href="#MicrosoftYaHei-19" transform="translate(200 0)"/>
     <use xlink:href="#MicrosoftYaHei-3" transform="translate(258.640625 0)"/>
     <use xlink:href="#MicrosoftYaHei-11" transform="translate(288.234375 0)"/>
     <use xlink:href="#MicrosoftYaHei-3" transform="translate(362.40625 0)"/>
     <use xlink:href="#MicrosoftYaHei-16" transform="translate(392 0)"/>
     <use xlink:href="#MicrosoftYaHei-14" transform="translate(450.640625 0)"/>
     <use xlink:href="#MicrosoftYaHei-16" transform="translate(474.71875 0)"/>
     <use xlink:href="#MicrosoftYaHei-16" transform="translate(533.359375 0)"/>
     <use xlink:href="#MicrosoftYaHei-19" transform="translate(592 0)"/>
     <use xlink:href="#MicrosoftYaHei-3" transform="translate(650.640625 0)"/>
     <use xlink:href="#MicrosoftYaHei-23" transform="translate(680.234375 0)"/>
     <use xlink:href="#MicrosoftYaHei-3" transform="translate(754.40625 0)"/>
     <use xlink:href="#MicrosoftYaHei-16" transform="translate(784 0)"/>
     <use xlink:href="#MicrosoftYaHei-14" transform="translate(842.640625 0)"/>
     <use xlink:href="#MicrosoftYaHei-16" transform="translate(866.71875 0)"/>
     <use xlink:href="#MicrosoftYaHei-19" transform="translate(925.359375 0)"/>
     <use xlink:href="#MicrosoftYaHei-1c" transform="translate(984 0)"/>
     <use xlink:href="#MicrosoftYaHei-59" transform="translate(1042.640625 0)"/>
    </g>
   </g>
   <g id="text_12">
    <!-- 2.42s -->
    <g style="fill: #ffffff" transform="translate(276.899739 63.396517) scale(0.08 -0.08)">
     <defs>
      <path id="MicrosoftYaHei-Bold-18" d="M 1500 841 
L 3553 841 
L 3553 0 
L 334 0 
L 334 359 
Q 334 738 473 1050 
Q 613 1363 856 1633 
Q 1100 1903 1613 2266 
Q 2081 2616 2268 2886 
Q 2456 3156 2456 3459 
Q 2456 4113 1744 4113 
Q 1119 4113 550 3613 
L 550 4513 
Q 1184 4922 1975 4922 
Q 2700 4922 3122 4551 
Q 3544 4181 3544 3531 
Q 3544 3169 3422 2876 
Q 3300 2584 3069 2328 
Q 2838 2072 2328 1713 
Q 1838 1363 1669 1172 
Q 1500 981 1500 841 
z
" transform="scale(0.015625)"/>
      <path id="MicrosoftYaHei-Bold-14" d="M 313 453 
Q 313 688 491 838 
Q 669 988 916 988 
Q 1166 988 1337 834 
Q 1509 681 1509 453 
Q 1509 213 1337 64 
Q 1166 -84 903 -84 
Q 659 -84 486 69 
Q 313 222 313 453 
z
" transform="scale(0.015625)"/>
      <path id="MicrosoftYaHei-Bold-1a" d="M 3184 4841 
L 3184 1766 
L 3869 1766 
L 3869 1031 
L 3184 1031 
L 3184 0 
L 2266 0 
L 2266 1031 
L 103 1031 
L 103 1772 
Q 775 2522 1362 3359 
Q 1950 4197 2250 4841 
L 3184 4841 
z
M 997 1766 
L 2266 1766 
L 2266 3541 
Q 2116 3259 1836 2859 
Q 1556 2459 997 1766 
z
" transform="scale(0.015625)"/>
      <path id="MicrosoftYaHei-Bold-59" d="M 369 928 
Q 888 613 1384 613 
Q 2009 613 2009 947 
Q 2009 1184 1494 1344 
Q 850 1544 609 1789 
Q 369 2034 369 2453 
Q 369 2963 781 3252 
Q 1194 3541 1863 3541 
Q 2338 3541 2778 3400 
L 2778 2606 
Q 2375 2844 1891 2844 
Q 1650 2844 1503 2758 
Q 1356 2672 1356 2531 
Q 1356 2294 1794 2147 
Q 2263 1991 2498 1862 
Q 2734 1734 2857 1525 
Q 2981 1316 2981 1041 
Q 2981 506 2553 211 
Q 2125 -84 1409 -84 
Q 847 -84 369 94 
L 369 928 
z
" transform="scale(0.015625)"/>
     </defs>
     <use xlink:href="#MicrosoftYaHei-Bold-18"/>
     <use xlink:href="#MicrosoftYaHei-Bold-14" transform="translate(61.671875 0)"/>
     <use xlink:href="#MicrosoftYaHei-Bold-1a" transform="translate(90.234375 0)"/>
     <use xlink:href="#MicrosoftYaHei-Bold-18" transform="translate(151.90625 0)"/>
     <use xlink:href="#MicrosoftYaHei-Bold-59" transform="translate(213.578125 0)"/>
    </g>
   </g>
   <g id="text_13">
    <g id="patch_12">
     <path d="M 83.33511 115.613609 
L 159.560735 115.613609 
Q 161.310735 115.613609 161.310735 113.863609 
L 161.310735 106.405601 
Q 161.310735 104.655601 159.560735 104.655601 
L 83.33511 104.655601 
Q 81.58511 104.655601 81.58511 106.405601 
L 81.58511 113.863609 
Q 81.58511 115.613609 83.33511 115.613609 
z
" style="fill: #fff9e6; opacity: 0.9; stroke: #cccccc; stroke-linejoin: miter"/>
    </g>
    <!-- 0.067 + 0.024 = 0.091s -->
    <g style="fill: #333333" transform="translate(83.33511 112.089683) scale(0.07 -0.07)">
     <defs>
      <path id="MicrosoftYaHei-1d" d="M 3422 4463 
Q 2659 3131 2223 1998 
Q 1788 866 1684 0 
L 1047 0 
Q 1163 853 1594 1947 
Q 2025 3041 2747 4300 
L 347 4300 
L 347 4841 
L 3422 4841 
L 3422 4463 
z
" transform="scale(0.015625)"/>
      <path id="MicrosoftYaHei-1a" d="M 2906 4841 
L 2906 1644 
L 3631 1644 
L 3631 1138 
L 2906 1138 
L 2906 0 
L 2313 0 
L 2313 1138 
L 53 1138 
L 53 1616 
Q 656 2294 1265 3178 
Q 1875 4063 2272 4841 
L 2906 4841 
z
M 741 1644 
L 2313 1644 
L 2313 3950 
Q 1988 3366 1616 2817 
Q 1244 2269 741 1644 
z
" transform="scale(0.015625)"/>
      <path id="MicrosoftYaHei-1f" d="M 578 656 
Q 978 425 1441 425 
Q 2091 425 2448 937 
Q 2806 1450 2806 2394 
Q 2800 2388 2794 2394 
Q 2475 1788 1722 1788 
Q 1113 1788 713 2206 
Q 313 2625 313 3294 
Q 313 4006 750 4464 
Q 1188 4922 1884 4922 
Q 2606 4922 3012 4355 
Q 3419 3788 3419 2703 
Q 3419 1363 2894 641 
Q 2369 -81 1441 -81 
Q 931 -81 578 84 
L 578 656 
z
M 931 3372 
Q 931 2884 1181 2598 
Q 1431 2313 1872 2313 
Q 2253 2313 2512 2573 
Q 2772 2834 2772 3206 
Q 2772 3728 2514 4070 
Q 2256 4413 1834 4413 
Q 1444 4413 1187 4116 
Q 931 3819 931 3372 
z
" transform="scale(0.015625)"/>
     </defs>
     <use xlink:href="#MicrosoftYaHei-16"/>
     <use xlink:href="#MicrosoftYaHei-14" transform="translate(58.640625 0)"/>
     <use xlink:href="#MicrosoftYaHei-16" transform="translate(82.71875 0)"/>
     <use xlink:href="#MicrosoftYaHei-1c" transform="translate(141.359375 0)"/>
     <use xlink:href="#MicrosoftYaHei-1d" transform="translate(200 0)"/>
     <use xlink:href="#MicrosoftYaHei-3" transform="translate(258.640625 0)"/>
     <use xlink:href="#MicrosoftYaHei-11" transform="translate(288.234375 0)"/>
     <use xlink:href="#MicrosoftYaHei-3" transform="translate(362.40625 0)"/>
     <use xlink:href="#MicrosoftYaHei-16" transform="translate(392 0)"/>
     <use xlink:href="#MicrosoftYaHei-14" transform="translate(450.640625 0)"/>
     <use xlink:href="#MicrosoftYaHei-16" transform="translate(474.71875 0)"/>
     <use xlink:href="#MicrosoftYaHei-18" transform="translate(533.359375 0)"/>
     <use xlink:href="#MicrosoftYaHei-1a" transform="translate(592 0)"/>
     <use xlink:href="#MicrosoftYaHei-3" transform="translate(650.640625 0)"/>
     <use xlink:href="#MicrosoftYaHei-23" transform="translate(680.234375 0)"/>
     <use xlink:href="#MicrosoftYaHei-3" transform="translate(754.40625 0)"/>
     <use xlink:href="#MicrosoftYaHei-16" transform="translate(784 0)"/>
     <use xlink:href="#MicrosoftYaHei-14" transform="translate(842.640625 0)"/>
     <use xlink:href="#MicrosoftYaHei-16" transform="translate(866.71875 0)"/>
     <use xlink:href="#MicrosoftYaHei-1f" transform="translate(925.359375 0)"/>
     <use xlink:href="#MicrosoftYaHei-17" transform="translate(984 0)"/>
     <use xlink:href="#MicrosoftYaHei-59" transform="translate(1042.640625 0)"/>
    </g>
   </g>
   <g id="text_14">
    <!-- 2.61s -->
    <g style="fill: #ffffff" transform="translate(297.680423 139.520858) scale(0.08 -0.08)">
     <defs>
      <path id="MicrosoftYaHei-Bold-1c" d="M 3378 3938 
Q 3009 4147 2575 4147 
Q 2016 4147 1680 3708 
Q 1344 3269 1344 2572 
L 1363 2572 
Q 1709 3103 2391 3103 
Q 3000 3103 3358 2686 
Q 3716 2269 3716 1600 
Q 3716 869 3250 392 
Q 2784 -84 2059 -84 
Q 1228 -84 786 516 
Q 344 1116 344 2159 
Q 344 3388 917 4155 
Q 1491 4922 2513 4922 
Q 3063 4922 3378 4791 
L 3378 3938 
z
M 1378 1591 
Q 1378 1216 1565 953 
Q 1753 691 2059 691 
Q 2369 691 2547 931 
Q 2725 1172 2725 1534 
Q 2725 2350 2053 2350 
Q 1750 2350 1564 2134 
Q 1378 1919 1378 1591 
z
" transform="scale(0.015625)"/>
      <path id="MicrosoftYaHei-Bold-17" d="M 2716 4947 
L 2716 0 
L 1700 0 
L 1700 3809 
Q 1513 3647 1188 3517 
Q 863 3388 591 3356 
L 591 4222 
Q 1447 4472 2072 4947 
L 2716 4947 
z
" transform="scale(0.015625)"/>
     </defs>
     <use xlink:href="#MicrosoftYaHei-Bold-18"/>
     <use xlink:href="#MicrosoftYaHei-Bold-14" transform="translate(61.671875 0)"/>
     <use xlink:href="#MicrosoftYaHei-Bold-1c" transform="translate(90.234375 0)"/>
     <use xlink:href="#MicrosoftYaHei-Bold-17" transform="translate(151.90625 0)"/>
     <use xlink:href="#MicrosoftYaHei-Bold-59" transform="translate(213.578125 0)"/>
    </g>
   </g>
   <g id="text_15">
    <!-- Stage Breakdown: arrow_postgres vs daft_postgres -->
    <g transform="translate(195.786328 15.320312) scale(0.1 -0.1)">
     <defs>
      <path id="MicrosoftYaHei-Bold-39" d="M 338 1219 
Q 922 734 1666 734 
Q 2088 734 2300 879 
Q 2513 1025 2513 1253 
Q 2513 1450 2344 1625 
Q 2175 1800 1453 2100 
Q 319 2581 319 3500 
Q 319 4175 833 4548 
Q 1347 4922 2194 4922 
Q 2903 4922 3384 4738 
L 3384 3769 
Q 2897 4100 2244 4100 
Q 1863 4100 1634 3961 
Q 1406 3822 1406 3588 
Q 1406 3400 1562 3242 
Q 1719 3084 2334 2816 
Q 3056 2506 3326 2162 
Q 3597 1819 3597 1344 
Q 3597 647 3103 281 
Q 2609 -84 1700 -84 
Q 869 -84 338 184 
L 338 1219 
z
" transform="scale(0.015625)"/>
      <path id="MicrosoftYaHei-Bold-5a" d="M 2494 41 
Q 2266 -84 1803 -84 
Q 703 -84 703 1072 
L 703 2703 
L 134 2703 
L 134 3456 
L 703 3456 
L 703 4216 
L 1706 4503 
L 1706 3456 
L 2494 3456 
L 2494 2703 
L 1706 2703 
L 1706 1247 
Q 1706 694 2144 694 
Q 2313 694 2494 794 
L 2494 41 
z
" transform="scale(0.015625)"/>
      <path id="MicrosoftYaHei-Bold-47" d="M 544 3247 
Q 778 3378 1170 3459 
Q 1563 3541 1841 3541 
Q 3291 3541 3291 2088 
L 3291 0 
L 2331 0 
L 2331 503 
L 2319 503 
Q 1966 -84 1284 -84 
Q 794 -84 498 195 
Q 203 475 203 956 
Q 203 1950 1388 2113 
L 2338 2241 
Q 2338 2844 1709 2844 
Q 1091 2844 544 2469 
L 544 3247 
z
M 1684 1566 
Q 1138 1494 1138 1072 
Q 1138 878 1270 759 
Q 1403 641 1628 641 
Q 1938 641 2138 859 
Q 2338 1078 2338 1403 
L 2338 1650 
L 1684 1566 
z
" transform="scale(0.015625)"/>
      <path id="MicrosoftYaHei-Bold-4d" d="M 3800 381 
Q 3800 -581 3251 -1101 
Q 2703 -1622 1672 -1622 
Q 972 -1622 559 -1422 
L 559 -559 
Q 1097 -872 1644 -872 
Q 2184 -872 2489 -583 
Q 2794 -294 2794 219 
L 2794 506 
L 2778 506 
Q 2413 -84 1691 -84 
Q 1038 -84 645 381 
Q 253 847 253 1628 
Q 253 2500 686 3020 
Q 1119 3541 1822 3541 
Q 2459 3541 2778 3044 
L 2794 3044 
L 2794 3456 
L 3800 3456 
L 3800 381 
z
M 2803 1950 
Q 2803 2294 2595 2530 
Q 2388 2766 2072 2766 
Q 1703 2766 1489 2477 
Q 1275 2188 1275 1666 
Q 1275 1213 1481 952 
Q 1688 691 2028 691 
Q 2372 691 2587 956 
Q 2803 1222 2803 1647 
L 2803 1950 
z
" transform="scale(0.015625)"/>
      <path id="MicrosoftYaHei-Bold-4b" d="M 3528 1444 
L 1253 1444 
Q 1306 641 2222 641 
Q 2794 641 3231 922 
L 3231 181 
Q 2759 -84 1994 -84 
Q 1169 -84 711 381 
Q 253 847 253 1678 
Q 253 2506 740 3023 
Q 1228 3541 1966 3541 
Q 2700 3541 3114 3095 
Q 3528 2650 3528 1872 
L 3528 1444 
z
M 2588 2075 
Q 2588 2850 1959 2850 
Q 1700 2850 1500 2637 
Q 1300 2425 1250 2075 
L 2588 2075 
z
" transform="scale(0.015625)"/>
      <path id="MicrosoftYaHei-Bold-3" transform="scale(0.015625)"/>
      <path id="MicrosoftYaHei-Bold-28" d="M 559 0 
L 559 4841 
L 2278 4841 
Q 3069 4841 3497 4541 
Q 3925 4241 3925 3709 
Q 3925 3316 3659 3019 
Q 3394 2722 2991 2609 
L 2991 2597 
Q 3497 2534 3808 2221 
Q 4119 1909 4119 1438 
Q 4119 778 3650 389 
Q 3181 0 2369 0 
L 559 0 
z
M 1591 4072 
L 1591 2875 
L 2081 2875 
Q 2434 2875 2637 3044 
Q 2841 3213 2841 3516 
Q 2841 4072 2028 4072 
L 1591 4072 
z
M 1591 2097 
L 1591 769 
L 2203 769 
Q 2594 769 2814 950 
Q 3034 1131 3034 1453 
Q 3034 1759 2815 1928 
Q 2597 2097 2194 2097 
L 1591 2097 
z
" transform="scale(0.015625)"/>
      <path id="MicrosoftYaHei-Bold-58" d="M 2663 2541 
Q 2478 2647 2216 2647 
Q 1872 2647 1670 2384 
Q 1469 2122 1469 1663 
L 1469 0 
L 459 0 
L 459 3456 
L 1469 3456 
L 1469 2806 
L 1481 2806 
Q 1731 3516 2391 3516 
Q 2569 3516 2663 3475 
L 2663 2541 
z
" transform="scale(0.015625)"/>
      <path id="MicrosoftYaHei-Bold-51" d="M 3856 0 
L 2631 0 
L 1481 1709 
L 1469 1709 
L 1469 0 
L 459 0 
L 459 5116 
L 1469 5116 
L 1469 1859 
L 1481 1859 
L 2559 3456 
L 3763 3456 
L 2481 1825 
L 3856 0 
z
" transform="scale(0.015625)"/>
      <path id="MicrosoftYaHei-Bold-4a" d="M 3794 0 
L 2788 0 
L 2788 488 
L 2772 488 
Q 2406 -84 1691 -84 
Q 1031 -84 642 381 
Q 253 847 253 1650 
Q 253 2500 689 3020 
Q 1125 3541 1828 3541 
Q 2503 3541 2772 3053 
L 2788 3053 
L 2788 5116 
L 3794 5116 
L 3794 0 
z
M 2803 1956 
Q 2803 2306 2592 2536 
Q 2381 2766 2066 2766 
Q 1697 2766 1486 2473 
Q 1275 2181 1275 1681 
Q 1275 1206 1478 948 
Q 1681 691 2038 691 
Q 2372 691 2587 962 
Q 2803 1234 2803 1669 
L 2803 1956 
z
" transform="scale(0.015625)"/>
      <path id="MicrosoftYaHei-Bold-55" d="M 253 1713 
Q 253 2566 764 3053 
Q 1275 3541 2138 3541 
Q 2972 3541 3462 3061 
Q 3953 2581 3953 1772 
Q 3953 922 3450 419 
Q 2947 -84 2088 -84 
Q 1244 -84 748 398 
Q 253 881 253 1713 
z
M 1275 1725 
Q 1275 691 2119 691 
Q 2928 691 2928 1753 
Q 2928 2766 2113 2766 
Q 1716 2766 1495 2494 
Q 1275 2222 1275 1725 
z
" transform="scale(0.015625)"/>
      <path id="MicrosoftYaHei-Bold-5d" d="M 5391 3456 
L 4391 0 
L 3331 0 
L 2800 2075 
Q 2747 2284 2744 2503 
L 2722 2503 
Q 2700 2256 2656 2088 
L 2084 0 
L 1038 0 
L 53 3456 
L 1084 3456 
L 1588 1163 
Q 1619 1025 1638 784 
L 1659 784 
Q 1675 1016 1719 1175 
L 2338 3456 
L 3294 3456 
L 3847 1159 
Q 3869 1066 3894 778 
L 3919 778 
Q 3928 944 3972 1159 
L 4453 3456 
L 5391 3456 
z
" transform="scale(0.015625)"/>
      <path id="MicrosoftYaHei-Bold-54" d="M 3744 0 
L 2741 0 
L 2741 1928 
Q 2741 2766 2138 2766 
Q 1850 2766 1659 2542 
Q 1469 2319 1469 1972 
L 1469 0 
L 459 0 
L 459 3456 
L 1469 3456 
L 1469 2906 
L 1481 2906 
Q 1859 3541 2594 3541 
Q 3744 3541 3744 2116 
L 3744 0 
z
" transform="scale(0.015625)"/>
      <path id="MicrosoftYaHei-Bold-20" d="M 313 2969 
Q 313 3200 491 3350 
Q 669 3500 916 3500 
Q 1166 3500 1337 3350 
Q 1509 3200 1509 2969 
Q 1509 2728 1337 2579 
Q 1166 2431 903 2431 
Q 653 2431 483 2584 
Q 313 2738 313 2969 
z
M 313 453 
Q 313 688 491 838 
Q 669 988 916 988 
Q 1166 988 1337 834 
Q 1509 681 1509 453 
Q 1509 213 1337 64 
Q 1166 -84 903 -84 
Q 659 -84 486 69 
Q 313 222 313 453 
z
" transform="scale(0.015625)"/>
      <path id="MicrosoftYaHei-Bold-45" d="M 2869 -1675 
L 0 -1675 
L 0 -1272 
L 2869 -1272 
L 2869 -1675 
z
" transform="scale(0.015625)"/>
      <path id="MicrosoftYaHei-Bold-56" d="M 1469 416 
L 1469 -1591 
L 459 -1591 
L 459 3456 
L 1469 3456 
L 1469 2928 
L 1481 2928 
Q 1878 3541 2603 3541 
Q 3263 3541 3634 3080 
Q 4006 2619 4006 1825 
Q 4006 959 3575 437 
Q 3144 -84 2444 -84 
Q 1809 -84 1481 416 
L 1469 416 
z
M 1453 1528 
Q 1453 1159 1653 925 
Q 1853 691 2172 691 
Q 2550 691 2761 984 
Q 2972 1278 2972 1816 
Q 2972 2766 2231 2766 
Q 1888 2766 1670 2503 
Q 1453 2241 1453 1828 
L 1453 1528 
z
" transform="scale(0.015625)"/>
      <path id="MicrosoftYaHei-Bold-5c" d="M 3688 3456 
L 2391 0 
L 1250 0 
L 16 3456 
L 1097 3456 
L 1731 1281 
Q 1834 925 1847 684 
L 1863 684 
Q 1888 931 1984 1263 
L 2631 3456 
L 3688 3456 
z
" transform="scale(0.015625)"/>
      <path id="MicrosoftYaHei-Bold-4c" d="M 2653 4338 
Q 2447 4419 2263 4419 
Q 1744 4419 1744 3844 
L 1744 3456 
L 2531 3456 
L 2531 2703 
L 1744 2703 
L 1744 0 
L 734 0 
L 734 2703 
L 156 2703 
L 156 3456 
L 734 3456 
L 734 3900 
Q 734 4491 1118 4844 
Q 1503 5197 2128 5197 
Q 2447 5197 2653 5131 
L 2653 4338 
z
" transform="scale(0.015625)"/>
     </defs>
     <use xlink:href="#MicrosoftYaHei-Bold-39"/>
     <use xlink:href="#MicrosoftYaHei-Bold-5a" transform="translate(57.375 0)"/>
     <use xlink:href="#MicrosoftYaHei-Bold-47" transform="translate(98.78125 0)"/>
     <use xlink:href="#MicrosoftYaHei-Bold-4d" transform="translate(156.546875 0)"/>
     <use xlink:href="#MicrosoftYaHei-Bold-4b" transform="translate(223 0)"/>
     <use xlink:href="#MicrosoftYaHei-Bold-3" transform="translate(281.203125 0)"/>
     <use xlink:href="#MicrosoftYaHei-Bold-28" transform="translate(310.984375 0)"/>
     <use xlink:href="#MicrosoftYaHei-Bold-58" transform="translate(379.34375 0)"/>
     <use xlink:href="#MicrosoftYaHei-Bold-4b" transform="translate(421.25 0)"/>
     <use xlink:href="#MicrosoftYaHei-Bold-47" transform="translate(479.453125 0)"/>
     <use xlink:href="#MicrosoftYaHei-Bold-51" transform="translate(537.21875 0)"/>
     <use xlink:href="#MicrosoftYaHei-Bold-4a" transform="translate(595.671875 0)"/>
     <use xlink:href="#MicrosoftYaHei-Bold-55" transform="translate(662.125 0)"/>
     <use xlink:href="#MicrosoftYaHei-Bold-5d" transform="translate(727.84375 0)"/>
     <use xlink:href="#MicrosoftYaHei-Bold-54" transform="translate(813 0)"/>
     <use xlink:href="#MicrosoftYaHei-Bold-20" transform="translate(877.796875 0)"/>
     <use xlink:href="#MicrosoftYaHei-Bold-3" transform="translate(906.359375 0)"/>
     <use xlink:href="#MicrosoftYaHei-Bold-47" transform="translate(936.140625 0)"/>
     <use xlink:href="#MicrosoftYaHei-Bold-58" transform="translate(993.90625 0)"/>
     <use xlink:href="#MicrosoftYaHei-Bold-58" transform="translate(1036.296875 0)"/>
     <use xlink:href="#MicrosoftYaHei-Bold-55" transform="translate(1078.203125 0)"/>
     <use xlink:href="#MicrosoftYaHei-Bold-5d" transform="translate(1143.921875 0)"/>
     <use xlink:href="#MicrosoftYaHei-Bold-45" transform="translate(1229.078125 0)"/>
     <use xlink:href="#MicrosoftYaHei-Bold-56" transform="translate(1273.90625 0)"/>
     <use xlink:href="#MicrosoftYaHei-Bold-55" transform="translate(1340.515625 0)"/>
     <use xlink:href="#MicrosoftYaHei-Bold-59" transform="translate(1406.234375 0)"/>
     <use xlink:href="#MicrosoftYaHei-Bold-5a" transform="translate(1455.59375 0)"/>
     <use xlink:href="#MicrosoftYaHei-Bold-4d" transform="translate(1496.5625 0)"/>
     <use xlink:href="#MicrosoftYaHei-Bold-58" transform="translate(1563.015625 0)"/>
     <use xlink:href="#MicrosoftYaHei-Bold-4b" transform="translate(1604.921875 0)"/>
     <use xlink:href="#MicrosoftYaHei-Bold-59" transform="translate(1663.125 0)"/>
     <use xlink:href="#MicrosoftYaHei-Bold-3" transform="translate(1712.484375 0)"/>
     <use xlink:href="#MicrosoftYaHei-Bold-5c" transform="translate(1742.265625 0)"/>
     <use xlink:href="#MicrosoftYaHei-Bold-59" transform="translate(1799.984375 0)"/>
     <use xlink:href="#MicrosoftYaHei-Bold-3" transform="translate(1849.34375 0)"/>
     <use xlink:href="#MicrosoftYaHei-Bold-4a" transform="translate(1879.125 0)"/>
     <use xlink:href="#MicrosoftYaHei-Bold-47" transform="translate(1945.578125 0)"/>
     <use xlink:href="#MicrosoftYaHei-Bold-4c" transform="translate(2003.34375 0)"/>
     <use xlink:href="#MicrosoftYaHei-Bold-5a" transform="translate(2045.96875 0)"/>
     <use xlink:href="#MicrosoftYaHei-Bold-45" transform="translate(2087.375 0)"/>
     <use xlink:href="#MicrosoftYaHei-Bold-56" transform="translate(2132.203125 0)"/>
     <use xlink:href="#MicrosoftYaHei-Bold-55" transform="translate(2198.8125 0)"/>
     <use xlink:href="#MicrosoftYaHei-Bold-59" transform="translate(2264.53125 0)"/>
     <use xlink:href="#MicrosoftYaHei-Bold-5a" transform="translate(2313.890625 0)"/>
     <use xlink:href="#MicrosoftYaHei-Bold-4d" transform="translate(2354.859375 0)"/>
     <use xlink:href="#MicrosoftYaHei-Bold-58" transform="translate(2421.3125 0)"/>
     <use xlink:href="#MicrosoftYaHei-Bold-4b" transform="translate(2463.21875 0)"/>
     <use xlink:href="#MicrosoftYaHei-Bold-59" transform="translate(2521.421875 0)"/>
    </g>
   </g>
   <g id="legend_1">
    <g id="patch_13">
     <path d="M 175.105859 35.502773 
L 473.544922 35.502773 
Q 475.044922 35.502773 475.044922 34.002773 
L 475.044922 23.004873 
Q 475.044922 21.504873 473.544922 21.504873 
L 175.105859 21.504873 
Q 173.605859 21.504873 173.605859 23.004873 
L 173.605859 34.002773 
Q 173.605859 35.502773 175.105859 35.502773 
z
" style="fill: #ffffff; opacity: 0.9; stroke: #dddddd; stroke-linejoin: miter"/>
    </g>
    <g id="patch_14">
     <path d="M 176.605859 30.59496 
L 191.605859 30.59496 
L 191.605859 25.34496 
L 176.605859 25.34496 
z
" style="fill: #56b4e9"/>
    </g>
    <g id="text_16">
     <!-- DB Read -->
     <g transform="translate(197.605859 30.59496) scale(0.075 -0.075)">
      <defs>
       <path id="MicrosoftYaHei-38" d="M 4159 0 
L 3422 0 
L 2619 1344 
Q 2378 1747 2178 1892 
Q 1978 2038 1700 2038 
L 1250 2038 
L 1250 0 
L 625 0 
L 625 4841 
L 2100 4841 
Q 2806 4841 3206 4500 
Q 3606 4159 3606 3547 
Q 3606 2541 2531 2241 
L 2531 2225 
Q 2731 2141 2876 1984 
Q 3022 1828 3253 1450 
L 4159 0 
z
M 1250 4294 
L 1250 2584 
L 1988 2584 
Q 2416 2584 2683 2834 
Q 2950 3084 2950 3491 
Q 2950 3869 2706 4081 
Q 2463 4294 1997 4294 
L 1250 4294 
z
" transform="scale(0.015625)"/>
      </defs>
      <use xlink:href="#MicrosoftYaHei-2a"/>
      <use xlink:href="#MicrosoftYaHei-28" transform="translate(76.171875 0)"/>
      <use xlink:href="#MicrosoftYaHei-3" transform="translate(138.921875 0)"/>
      <use xlink:href="#MicrosoftYaHei-38" transform="translate(168.515625 0)"/>
      <use xlink:href="#MicrosoftYaHei-4b" transform="translate(230.765625 0)"/>
      <use xlink:href="#MicrosoftYaHei-47" transform="translate(287.5 0)"/>
      <use xlink:href="#MicrosoftYaHei-4a" transform="translate(342.78125 0)"/>
     </g>
    </g>
    <g id="patch_15">
     <path d="M 243.112109 30.59496 
L 258.112109 30.59496 
L 258.112109 25.34496 
L 243.112109 25.34496 
z
" style="fill: #009e73"/>
    </g>
    <g id="text_17">
     <!-- Build / Organize -->
     <g transform="translate(264.112109 30.59496) scale(0.075 -0.075)">
      <defs>
       <path id="MicrosoftYaHei-5b" d="M 3400 0 
L 2784 0 
L 2784 544 
L 2772 544 
Q 2425 -81 1706 -81 
Q 478 -81 478 1388 
L 478 3456 
L 1084 3456 
L 1084 1478 
Q 1084 425 1891 425 
Q 2291 425 2537 720 
Q 2784 1016 2784 1466 
L 2784 3456 
L 3400 3456 
L 3400 0 
z
" transform="scale(0.015625)"/>
       <path id="MicrosoftYaHei-15" d="M 2791 4841 
L 469 -803 
L -103 -803 
L 2219 4841 
L 2791 4841 
z
" transform="scale(0.015625)"/>
       <path id="MicrosoftYaHei-60" d="M 2978 0 
L 109 0 
L 109 203 
L 2119 2950 
L 297 2950 
L 297 3456 
L 2991 3456 
L 2991 3256 
L 994 506 
L 2978 506 
L 2978 0 
z
" transform="scale(0.015625)"/>
      </defs>
      <use xlink:href="#MicrosoftYaHei-28"/>
      <use xlink:href="#MicrosoftYaHei-5b" transform="translate(62.75 0)"/>
      <use xlink:href="#MicrosoftYaHei-4f" transform="translate(124.375 0)"/>
      <use xlink:href="#MicrosoftYaHei-52" transform="translate(150.984375 0)"/>
      <use xlink:href="#MicrosoftYaHei-4a" transform="translate(177.59375 0)"/>
      <use xlink:href="#MicrosoftYaHei-3" transform="translate(241.5625 0)"/>
      <use xlink:href="#MicrosoftYaHei-15" transform="translate(271.15625 0)"/>
      <use xlink:href="#MicrosoftYaHei-3" transform="translate(313.875 0)"/>
      <use xlink:href="#MicrosoftYaHei-35" transform="translate(343.46875 0)"/>
      <use xlink:href="#MicrosoftYaHei-58" transform="translate(424.96875 0)"/>
      <use xlink:href="#MicrosoftYaHei-4d" transform="translate(461.734375 0)"/>
      <use xlink:href="#MicrosoftYaHei-47" transform="translate(525.703125 0)"/>
      <use xlink:href="#MicrosoftYaHei-54" transform="translate(580.984375 0)"/>
      <use xlink:href="#MicrosoftYaHei-4f" transform="translate(642.609375 0)"/>
      <use xlink:href="#MicrosoftYaHei-60" transform="translate(669.21875 0)"/>
      <use xlink:href="#MicrosoftYaHei-4b" transform="translate(718.390625 0)"/>
     </g>
    </g>
    <g id="patch_16">
     <path d="M 337.246484 30.59496 
L 352.246484 30.59496 
L 352.246484 25.34496 
L 337.246484 25.34496 
z
" style="fill: #e69f00"/>
    </g>
    <g id="text_18">
     <!-- Operator Wall (Ray + Inference) -->
     <g transform="translate(358.246484 30.59496) scale(0.075 -0.075)">
      <defs>
       <path id="MicrosoftYaHei-5f" d="M 3359 3456 
L 1791 -522 
Q 1353 -1628 556 -1628 
Q 328 -1628 166 -1578 
L 166 -1041 
Q 344 -1109 509 -1109 
Q 925 -1109 1131 -622 
L 1397 6 
L 41 3456 
L 719 3456 
L 1622 859 
L 1697 575 
L 1713 575 
Q 1731 672 1788 853 
L 2731 3456 
L 3359 3456 
z
" transform="scale(0.015625)"/>
      </defs>
      <use xlink:href="#MicrosoftYaHei-35"/>
      <use xlink:href="#MicrosoftYaHei-56" transform="translate(81.5 0)"/>
      <use xlink:href="#MicrosoftYaHei-4b" transform="translate(145.375 0)"/>
      <use xlink:href="#MicrosoftYaHei-58" transform="translate(202.109375 0)"/>
      <use xlink:href="#MicrosoftYaHei-47" transform="translate(240.296875 0)"/>
      <use xlink:href="#MicrosoftYaHei-5a" transform="translate(295.578125 0)"/>
      <use xlink:href="#MicrosoftYaHei-55" transform="translate(332 0)"/>
      <use xlink:href="#MicrosoftYaHei-58" transform="translate(395.578125 0)"/>
      <use xlink:href="#MicrosoftYaHei-3" transform="translate(433.765625 0)"/>
      <use xlink:href="#MicrosoftYaHei-3d" transform="translate(463.359375 0)"/>
      <use xlink:href="#MicrosoftYaHei-47" transform="translate(561.125 0)"/>
      <use xlink:href="#MicrosoftYaHei-52" transform="translate(616.40625 0)"/>
      <use xlink:href="#MicrosoftYaHei-52" transform="translate(643.015625 0)"/>
      <use xlink:href="#MicrosoftYaHei-3" transform="translate(669.625 0)"/>
      <use xlink:href="#MicrosoftYaHei-e" transform="translate(699.21875 0)"/>
      <use xlink:href="#MicrosoftYaHei-38" transform="translate(732.625 0)"/>
      <use xlink:href="#MicrosoftYaHei-47" transform="translate(797.90625 0)"/>
      <use xlink:href="#MicrosoftYaHei-5f" transform="translate(853.1875 0)"/>
      <use xlink:href="#MicrosoftYaHei-3" transform="translate(906.125 0)"/>
      <use xlink:href="#MicrosoftYaHei-11" transform="translate(935.71875 0)"/>
      <use xlink:href="#MicrosoftYaHei-3" transform="translate(1009.890625 0)"/>
      <use xlink:href="#MicrosoftYaHei-2f" transform="translate(1039.484375 0)"/>
      <use xlink:href="#MicrosoftYaHei-54" transform="translate(1068.875 0)"/>
      <use xlink:href="#MicrosoftYaHei-4c" transform="translate(1130.5 0)"/>
      <use xlink:href="#MicrosoftYaHei-4b" transform="translate(1165.171875 0)"/>
      <use xlink:href="#MicrosoftYaHei-58" transform="translate(1221.90625 0)"/>
      <use xlink:href="#MicrosoftYaHei-4b" transform="translate(1258.671875 0)"/>
      <use xlink:href="#MicrosoftYaHei-54" transform="translate(1315.40625 0)"/>
      <use xlink:href="#MicrosoftYaHei-49" transform="translate(1377.03125 0)"/>
      <use xlink:href="#MicrosoftYaHei-4b" transform="translate(1427.171875 0)"/>
      <use xlink:href="#MicrosoftYaHei-f" transform="translate(1483.90625 0)"/>
     </g>
    </g>
   </g>
  </g>
  <g id="text_19">
   <!-- Different workloads: AI_EMBED (BGE embedding, 5939 rows) vs AI_COMPLETE (Qwen2.5-1.5B, 512 rows). Inference times not directly comparable. Writeback excluded. -->
   <g style="fill: #666666" transform="translate(28.492812 217.804395) scale(0.07 -0.07)">
    <defs>
     <path id="MicrosoftYaHei-51" d="M 3484 0 
L 2650 0 
L 1172 1666 
L 1159 1666 
L 1159 0 
L 547 0 
L 547 5116 
L 1159 5116 
L 1159 1872 
L 1172 1872 
L 2575 3456 
L 3363 3456 
L 1800 1794 
L 3484 0 
z
" transform="scale(0.015625)"/>
     <path id="MicrosoftYaHei-20" d="M 372 3134 
Q 372 3303 490 3415 
Q 609 3528 775 3528 
Q 944 3528 1062 3414 
Q 1181 3300 1181 3134 
Q 1181 2969 1065 2853 
Q 950 2738 772 2738 
Q 603 2738 487 2853 
Q 372 2969 372 3134 
z
M 372 322 
Q 372 491 487 606 
Q 603 722 775 722 
Q 950 722 1065 605 
Q 1181 488 1181 322 
Q 1181 159 1065 42 
Q 950 -75 772 -75 
Q 600 -75 486 42 
Q 372 159 372 322 
z
" transform="scale(0.015625)"/>
     <path id="MicrosoftYaHei-2d" d="M 4284 331 
Q 3559 -81 2647 -81 
Q 1597 -81 955 583 
Q 313 1247 313 2356 
Q 313 3478 1022 4200 
Q 1731 4922 2841 4922 
Q 3625 4922 4169 4672 
L 4169 3997 
Q 3588 4363 2784 4363 
Q 1994 4363 1481 3822 
Q 969 3281 969 2397 
Q 969 1488 1441 981 
Q 1913 475 2716 475 
Q 3269 475 3656 688 
L 3656 1997 
L 2606 1997 
L 2606 2550 
L 4284 2550 
L 4284 331 
z
" transform="scale(0.015625)"/>
     <path id="MicrosoftYaHei-5c" d="M 3331 3456 
L 1963 0 
L 1344 0 
L 44 3456 
L 713 3456 
L 1556 988 
Q 1659 691 1678 491 
L 1694 491 
Q 1725 753 1803 975 
L 2688 3456 
L 3331 3456 
z
" transform="scale(0.015625)"/>
     <path id="MicrosoftYaHei-37" d="M 313 2363 
Q 313 3534 947 4228 
Q 1581 4922 2666 4922 
Q 3675 4922 4290 4244 
Q 4906 3566 4906 2478 
Q 4906 1300 4275 609 
Q 4125 447 3953 322 
L 5313 -653 
L 4284 -653 
L 3366 28 
Q 3009 -81 2588 -81 
Q 1556 -81 934 597 
Q 313 1275 313 2363 
z
M 969 2413 
Q 969 1534 1417 1004 
Q 1866 475 2588 475 
Q 3363 475 3805 983 
Q 4247 1491 4247 2403 
Q 4247 3341 3814 3850 
Q 3381 4359 2628 4359 
Q 1888 4359 1428 3821 
Q 969 3284 969 2413 
z
" transform="scale(0.015625)"/>
     <path id="MicrosoftYaHei-13" d="M 2328 1681 
L 488 1681 
L 488 2153 
L 2328 2153 
L 2328 1681 
z
" transform="scale(0.015625)"/>
     <path id="MicrosoftYaHei-5e" d="M 3163 3456 
L 2006 1716 
L 3147 0 
L 2434 0 
L 1775 1100 
Q 1722 1188 1625 1369 
L 1613 1369 
Q 1609 1350 1456 1100 
L 784 0 
L 81 0 
L 1256 1697 
L 134 3456 
L 847 3456 
L 1494 2300 
Q 1553 2194 1638 2025 
L 1650 2025 
L 2491 3456 
L 3163 3456 
z
" transform="scale(0.015625)"/>
    </defs>
    <use xlink:href="#MicrosoftYaHei-2a"/>
    <use xlink:href="#MicrosoftYaHei-4f" transform="translate(76.171875 0)"/>
    <use xlink:href="#MicrosoftYaHei-4c" transform="translate(102.78125 0)"/>
    <use xlink:href="#MicrosoftYaHei-4c" transform="translate(137.453125 0)"/>
    <use xlink:href="#MicrosoftYaHei-4b" transform="translate(172.125 0)"/>
    <use xlink:href="#MicrosoftYaHei-58" transform="translate(228.859375 0)"/>
    <use xlink:href="#MicrosoftYaHei-4b" transform="translate(265.625 0)"/>
    <use xlink:href="#MicrosoftYaHei-54" transform="translate(322.359375 0)"/>
    <use xlink:href="#MicrosoftYaHei-5a" transform="translate(383.984375 0)"/>
    <use xlink:href="#MicrosoftYaHei-3" transform="translate(421.234375 0)"/>
    <use xlink:href="#MicrosoftYaHei-5d" transform="translate(450.828125 0)"/>
    <use xlink:href="#MicrosoftYaHei-55" transform="translate(529.484375 0)"/>
    <use xlink:href="#MicrosoftYaHei-58" transform="translate(593.0625 0)"/>
    <use xlink:href="#MicrosoftYaHei-51" transform="translate(631.25 0)"/>
    <use xlink:href="#MicrosoftYaHei-52" transform="translate(685.6875 0)"/>
    <use xlink:href="#MicrosoftYaHei-55" transform="translate(712.296875 0)"/>
    <use xlink:href="#MicrosoftYaHei-47" transform="translate(774.453125 0)"/>
    <use xlink:href="#MicrosoftYaHei-4a" transform="translate(829.734375 0)"/>
    <use xlink:href="#MicrosoftYaHei-59" transform="translate(893.703125 0)"/>
    <use xlink:href="#MicrosoftYaHei-20" transform="translate(940 0)"/>
    <use xlink:href="#MicrosoftYaHei-3" transform="translate(964.078125 0)"/>
    <use xlink:href="#MicrosoftYaHei-27" transform="translate(993.671875 0)"/>
    <use xlink:href="#MicrosoftYaHei-2f" transform="translate(1064.03125 0)"/>
    <use xlink:href="#MicrosoftYaHei-45" transform="translate(1093.421875 0)"/>
    <use xlink:href="#MicrosoftYaHei-2b" transform="translate(1138.25 0)"/>
    <use xlink:href="#MicrosoftYaHei-33" transform="translate(1193.234375 0)"/>
    <use xlink:href="#MicrosoftYaHei-28" transform="translate(1290.9375 0)"/>
    <use xlink:href="#MicrosoftYaHei-2b" transform="translate(1353.6875 0)"/>
    <use xlink:href="#MicrosoftYaHei-2a" transform="translate(1408.671875 0)"/>
    <use xlink:href="#MicrosoftYaHei-3" transform="translate(1484.84375 0)"/>
    <use xlink:href="#MicrosoftYaHei-e" transform="translate(1514.4375 0)"/>
    <use xlink:href="#MicrosoftYaHei-28" transform="translate(1547.84375 0)"/>
    <use xlink:href="#MicrosoftYaHei-2d" transform="translate(1610.59375 0)"/>
    <use xlink:href="#MicrosoftYaHei-2b" transform="translate(1684.953125 0)"/>
    <use xlink:href="#MicrosoftYaHei-3" transform="translate(1739.9375 0)"/>
    <use xlink:href="#MicrosoftYaHei-4b" transform="translate(1769.53125 0)"/>
    <use xlink:href="#MicrosoftYaHei-53" transform="translate(1826.265625 0)"/>
    <use xlink:href="#MicrosoftYaHei-48" transform="translate(1919.96875 0)"/>
    <use xlink:href="#MicrosoftYaHei-4b" transform="translate(1983.84375 0)"/>
    <use xlink:href="#MicrosoftYaHei-4a" transform="translate(2040.578125 0)"/>
    <use xlink:href="#MicrosoftYaHei-4a" transform="translate(2104.546875 0)"/>
    <use xlink:href="#MicrosoftYaHei-4f" transform="translate(2168.515625 0)"/>
    <use xlink:href="#MicrosoftYaHei-54" transform="translate(2195.125 0)"/>
    <use xlink:href="#MicrosoftYaHei-4d" transform="translate(2256.75 0)"/>
    <use xlink:href="#MicrosoftYaHei-12" transform="translate(2320.71875 0)"/>
    <use xlink:href="#MicrosoftYaHei-3" transform="translate(2344.796875 0)"/>
    <use xlink:href="#MicrosoftYaHei-1b" transform="translate(2374.390625 0)"/>
    <use xlink:href="#MicrosoftYaHei-1f" transform="translate(2433.03125 0)"/>
    <use xlink:href="#MicrosoftYaHei-19" transform="translate(2491.671875 0)"/>
    <use xlink:href="#MicrosoftYaHei-1f" transform="translate(2550.3125 0)"/>
    <use xlink:href="#MicrosoftYaHei-3" transform="translate(2608.953125 0)"/>
    <use xlink:href="#MicrosoftYaHei-58" transform="translate(2638.546875 0)"/>
    <use xlink:href="#MicrosoftYaHei-55" transform="translate(2675.3125 0)"/>
    <use xlink:href="#MicrosoftYaHei-5d" transform="translate(2738.890625 0)"/>
    <use xlink:href="#MicrosoftYaHei-59" transform="translate(2817.84375 0)"/>
    <use xlink:href="#MicrosoftYaHei-f" transform="translate(2864.140625 0)"/>
    <use xlink:href="#MicrosoftYaHei-3" transform="translate(2897.546875 0)"/>
    <use xlink:href="#MicrosoftYaHei-5c" transform="translate(2927.140625 0)"/>
    <use xlink:href="#MicrosoftYaHei-59" transform="translate(2979.625 0)"/>
    <use xlink:href="#MicrosoftYaHei-3" transform="translate(3025.921875 0)"/>
    <use xlink:href="#MicrosoftYaHei-27" transform="translate(3055.515625 0)"/>
    <use xlink:href="#MicrosoftYaHei-2f" transform="translate(3125.875 0)"/>
    <use xlink:href="#MicrosoftYaHei-45" transform="translate(3155.265625 0)"/>
    <use xlink:href="#MicrosoftYaHei-29" transform="translate(3200.09375 0)"/>
    <use xlink:href="#MicrosoftYaHei-35" transform="translate(3265.5625 0)"/>
    <use xlink:href="#MicrosoftYaHei-33" transform="translate(3347.0625 0)"/>
    <use xlink:href="#MicrosoftYaHei-36" transform="translate(3444.765625 0)"/>
    <use xlink:href="#MicrosoftYaHei-32" transform="translate(3505.953125 0)"/>
    <use xlink:href="#MicrosoftYaHei-2b" transform="translate(3557.265625 0)"/>
    <use xlink:href="#MicrosoftYaHei-3a" transform="translate(3612.453125 0)"/>
    <use xlink:href="#MicrosoftYaHei-2b" transform="translate(3669.78125 0)"/>
    <use xlink:href="#MicrosoftYaHei-3" transform="translate(3724.765625 0)"/>
    <use xlink:href="#MicrosoftYaHei-e" transform="translate(3754.359375 0)"/>
    <use xlink:href="#MicrosoftYaHei-37" transform="translate(3787.765625 0)"/>
    <use xlink:href="#MicrosoftYaHei-5d" transform="translate(3869.265625 0)"/>
    <use xlink:href="#MicrosoftYaHei-4b" transform="translate(3947.6875 0)"/>
    <use xlink:href="#MicrosoftYaHei-54" transform="translate(4004.421875 0)"/>
    <use xlink:href="#MicrosoftYaHei-18" transform="translate(4066.046875 0)"/>
    <use xlink:href="#MicrosoftYaHei-14" transform="translate(4124.6875 0)"/>
    <use xlink:href="#MicrosoftYaHei-1b" transform="translate(4148.765625 0)"/>
    <use xlink:href="#MicrosoftYaHei-13" transform="translate(4207.40625 0)"/>
    <use xlink:href="#MicrosoftYaHei-17" transform="translate(4250.671875 0)"/>
    <use xlink:href="#MicrosoftYaHei-14" transform="translate(4309.3125 0)"/>
    <use xlink:href="#MicrosoftYaHei-1b" transform="translate(4333.390625 0)"/>
    <use xlink:href="#MicrosoftYaHei-28" transform="translate(4392.03125 0)"/>
    <use xlink:href="#MicrosoftYaHei-12" transform="translate(4454.78125 0)"/>
    <use xlink:href="#MicrosoftYaHei-3" transform="translate(4478.859375 0)"/>
    <use xlink:href="#MicrosoftYaHei-1b" transform="translate(4508.453125 0)"/>
    <use xlink:href="#MicrosoftYaHei-17" transform="translate(4567.09375 0)"/>
    <use xlink:href="#MicrosoftYaHei-18" transform="translate(4625.734375 0)"/>
    <use xlink:href="#MicrosoftYaHei-3" transform="translate(4684.375 0)"/>
    <use xlink:href="#MicrosoftYaHei-58" transform="translate(4713.96875 0)"/>
    <use xlink:href="#MicrosoftYaHei-55" transform="translate(4750.734375 0)"/>
    <use xlink:href="#MicrosoftYaHei-5d" transform="translate(4814.3125 0)"/>
    <use xlink:href="#MicrosoftYaHei-59" transform="translate(4893.265625 0)"/>
    <use xlink:href="#MicrosoftYaHei-f" transform="translate(4939.5625 0)"/>
    <use xlink:href="#MicrosoftYaHei-14" transform="translate(4972.96875 0)"/>
    <use xlink:href="#MicrosoftYaHei-3" transform="translate(4997.046875 0)"/>
    <use xlink:href="#MicrosoftYaHei-2f" transform="translate(5026.640625 0)"/>
    <use xlink:href="#MicrosoftYaHei-54" transform="translate(5056.03125 0)"/>
    <use xlink:href="#MicrosoftYaHei-4c" transform="translate(5117.65625 0)"/>
    <use xlink:href="#MicrosoftYaHei-4b" transform="translate(5152.328125 0)"/>
    <use xlink:href="#MicrosoftYaHei-58" transform="translate(5209.0625 0)"/>
    <use xlink:href="#MicrosoftYaHei-4b" transform="translate(5245.828125 0)"/>
    <use xlink:href="#MicrosoftYaHei-54" transform="translate(5302.5625 0)"/>
    <use xlink:href="#MicrosoftYaHei-49" transform="translate(5364.1875 0)"/>
    <use xlink:href="#MicrosoftYaHei-4b" transform="translate(5414.328125 0)"/>
    <use xlink:href="#MicrosoftYaHei-3" transform="translate(5471.0625 0)"/>
    <use xlink:href="#MicrosoftYaHei-5a" transform="translate(5500.65625 0)"/>
    <use xlink:href="#MicrosoftYaHei-4f" transform="translate(5537.90625 0)"/>
    <use xlink:href="#MicrosoftYaHei-53" transform="translate(5564.515625 0)"/>
    <use xlink:href="#MicrosoftYaHei-4b" transform="translate(5658.21875 0)"/>
    <use xlink:href="#MicrosoftYaHei-59" transform="translate(5714.953125 0)"/>
    <use xlink:href="#MicrosoftYaHei-3" transform="translate(5761.25 0)"/>
    <use xlink:href="#MicrosoftYaHei-54" transform="translate(5790.84375 0)"/>
    <use xlink:href="#MicrosoftYaHei-55" transform="translate(5852.46875 0)"/>
    <use xlink:href="#MicrosoftYaHei-5a" transform="translate(5916.046875 0)"/>
    <use xlink:href="#MicrosoftYaHei-3" transform="translate(5953.296875 0)"/>
    <use xlink:href="#MicrosoftYaHei-4a" transform="translate(5982.890625 0)"/>
    <use xlink:href="#MicrosoftYaHei-4f" transform="translate(6046.859375 0)"/>
    <use xlink:href="#MicrosoftYaHei-58" transform="translate(6073.46875 0)"/>
    <use xlink:href="#MicrosoftYaHei-4b" transform="translate(6110.234375 0)"/>
    <use xlink:href="#MicrosoftYaHei-49" transform="translate(6166.96875 0)"/>
    <use xlink:href="#MicrosoftYaHei-5a" transform="translate(6217.109375 0)"/>
    <use xlink:href="#MicrosoftYaHei-52" transform="translate(6254.359375 0)"/>
    <use xlink:href="#MicrosoftYaHei-5f" transform="translate(6280.96875 0)"/>
    <use xlink:href="#MicrosoftYaHei-3" transform="translate(6333.90625 0)"/>
    <use xlink:href="#MicrosoftYaHei-49" transform="translate(6363.5 0)"/>
    <use xlink:href="#MicrosoftYaHei-55" transform="translate(6413.640625 0)"/>
    <use xlink:href="#MicrosoftYaHei-53" transform="translate(6477.21875 0)"/>
    <use xlink:href="#MicrosoftYaHei-56" transform="translate(6570.921875 0)"/>
    <use xlink:href="#MicrosoftYaHei-47" transform="translate(6633.375 0)"/>
    <use xlink:href="#MicrosoftYaHei-58" transform="translate(6688.65625 0)"/>
    <use xlink:href="#MicrosoftYaHei-47" transform="translate(6726.84375 0)"/>
    <use xlink:href="#MicrosoftYaHei-48" transform="translate(6782.125 0)"/>
    <use xlink:href="#MicrosoftYaHei-52" transform="translate(6846 0)"/>
    <use xlink:href="#MicrosoftYaHei-4b" transform="translate(6872.609375 0)"/>
    <use xlink:href="#MicrosoftYaHei-14" transform="translate(6929.34375 0)"/>
    <use xlink:href="#MicrosoftYaHei-3" transform="translate(6953.421875 0)"/>
    <use xlink:href="#MicrosoftYaHei-3d" transform="translate(6983.015625 0)"/>
    <use xlink:href="#MicrosoftYaHei-58" transform="translate(7084.78125 0)"/>
    <use xlink:href="#MicrosoftYaHei-4f" transform="translate(7122.96875 0)"/>
    <use xlink:href="#MicrosoftYaHei-5a" transform="translate(7149.578125 0)"/>
    <use xlink:href="#MicrosoftYaHei-4b" transform="translate(7186 0)"/>
    <use xlink:href="#MicrosoftYaHei-48" transform="translate(7242.734375 0)"/>
    <use xlink:href="#MicrosoftYaHei-47" transform="translate(7305.1875 0)"/>
    <use xlink:href="#MicrosoftYaHei-49" transform="translate(7360.46875 0)"/>
    <use xlink:href="#MicrosoftYaHei-51" transform="translate(7410.609375 0)"/>
    <use xlink:href="#MicrosoftYaHei-3" transform="translate(7465.046875 0)"/>
    <use xlink:href="#MicrosoftYaHei-4b" transform="translate(7494.640625 0)"/>
    <use xlink:href="#MicrosoftYaHei-5e" transform="translate(7551.375 0)"/>
    <use xlink:href="#MicrosoftYaHei-49" transform="translate(7601.234375 0)"/>
    <use xlink:href="#MicrosoftYaHei-52" transform="translate(7651.375 0)"/>
    <use xlink:href="#MicrosoftYaHei-5b" transform="translate(7677.984375 0)"/>
    <use xlink:href="#MicrosoftYaHei-4a" transform="translate(7739.609375 0)"/>
    <use xlink:href="#MicrosoftYaHei-4b" transform="translate(7803.578125 0)"/>
    <use xlink:href="#MicrosoftYaHei-4a" transform="translate(7860.3125 0)"/>
    <use xlink:href="#MicrosoftYaHei-14" transform="translate(7924.28125 0)"/>
   </g>
  </g>
 </g>
 <defs>
  <clipPath id="p5c299b048c">
   <rect x="115.165391" y="39.320312" width="418.32" height="119.808"/>
  </clipPath>
 </defs>
</svg>
